<svg width="48" height="48" viewBox="0 0 48 48" fill="none" xmlns="http://www.w3.org/2000/svg">
<path d="M27.3302 31.4498C27.4142 31.5234 27.5119 31.5796 27.6177 31.6154C27.7235 31.6512 27.8353 31.6658 27.9467 31.6583C28.0582 31.6509 28.167 31.6216 28.2672 31.5721C28.3673 31.5226 28.4566 31.4539 28.5302 31.3698C28.6037 31.2858 28.66 31.1881 28.6958 31.0823C28.7315 30.9765 28.7461 30.8647 28.7387 30.7532C28.7313 30.6418 28.702 30.5329 28.6525 30.4328C28.603 30.3327 28.5342 30.2434 28.4502 30.1698L21.4502 23.9998L28.4502 17.8298C28.5354 17.7571 28.6053 17.668 28.6556 17.5678C28.7059 17.4677 28.7356 17.3585 28.7431 17.2467C28.7506 17.1348 28.7355 17.0227 28.699 16.9167C28.6624 16.8108 28.605 16.7132 28.5302 16.6298C28.3803 16.4623 28.1708 16.3601 27.9465 16.3452C27.7222 16.3302 27.501 16.4037 27.3302 16.5498L19.5802 23.3598C19.4889 23.4396 19.4157 23.538 19.3656 23.6484C19.3155 23.7587 19.2896 23.8786 19.2896 23.9998C19.2896 24.121 19.3155 24.2409 19.3656 24.3513C19.4157 24.4616 19.4889 24.56 19.5802 24.6398L27.3302 31.4498Z" />
</svg>
