<svg width="20" height="18" viewBox="0 0 20 18" fill="none" xmlns="http://www.w3.org/2000/svg">
<path d="M18.167 7.83325H4.33033L8.56533 2.74658C8.76335 2.50833 8.85863 2.20117 8.83018 1.89267C8.80174 1.58417 8.65191 1.29961 8.41366 1.10158C8.17541 0.903553 7.86825 0.808281 7.55975 0.836724C7.25125 0.865167 6.96669 1.015 6.76866 1.25325L0.935326 8.25325C0.89608 8.30893 0.860985 8.36742 0.830325 8.42825C0.830325 8.48658 0.830326 8.52158 0.748659 8.57991C0.695778 8.71368 0.66809 8.85608 0.666992 8.99991C0.66809 9.14375 0.695778 9.28614 0.748659 9.41991C0.748659 9.47825 0.748659 9.51325 0.830325 9.57158C0.860985 9.63241 0.89608 9.6909 0.935326 9.74658L6.76866 16.7466C6.87835 16.8783 7.01571 16.9842 7.17098 17.0568C7.32624 17.1294 7.4956 17.1669 7.66699 17.1666C7.93959 17.1671 8.20376 17.0722 8.41366 16.8982C8.53179 16.8003 8.62945 16.68 8.70102 16.5443C8.7726 16.4085 8.8167 16.26 8.83078 16.1072C8.84487 15.9544 8.82868 15.8003 8.78313 15.6538C8.73757 15.5072 8.66356 15.3711 8.56533 15.2532L4.33033 10.1666H18.167C18.4764 10.1666 18.7732 10.0437 18.992 9.82487C19.2107 9.60608 19.3337 9.30933 19.3337 8.99991C19.3337 8.69049 19.2107 8.39375 18.992 8.17496C18.7732 7.95616 18.4764 7.83325 18.167 7.83325Z" fill="#585858"/>
</svg>
