<svg width="14" height="14" viewBox="0 0 14 14" fill="none" xmlns="http://www.w3.org/2000/svg">
<path d="M3.79057 10.2393L4.49057 9.53928C3.78307 8.84062 3.11536 8.1028 2.49057 7.32929C1.79057 6.43929 0.320566 4.15926 1.84057 2.26926L2.65057 1.26926C2.69297 1.21846 2.74677 1.17839 2.80759 1.15232C2.86842 1.12625 2.93454 1.11493 3.00057 1.11927C3.06594 1.12078 3.13001 1.13791 3.18741 1.16923C3.24482 1.20054 3.29391 1.24512 3.33057 1.29926L5.26057 4.04926C5.29745 4.1007 5.32279 4.1595 5.33487 4.22163C5.34695 4.28375 5.34548 4.34777 5.33057 4.40928C5.31205 4.46998 5.28116 4.52619 5.23986 4.57438C5.19855 4.62257 5.14772 4.66169 5.09057 4.68928L4.02057 5.18928C3.82632 5.28464 3.67576 5.45049 3.59958 5.65302C3.52339 5.85556 3.52733 6.07954 3.61057 6.27927C4.40817 8.11621 5.87364 9.58168 7.71057 10.3793C7.91031 10.4625 8.13428 10.4664 8.33681 10.3903C8.53935 10.3141 8.70521 10.1635 8.80057 9.96928L9.30057 8.89927C9.32816 8.84211 9.36728 8.79128 9.41546 8.74998C9.46365 8.70867 9.51987 8.6778 9.58057 8.65928C9.70511 8.63404 9.83457 8.65922 9.94057 8.72929L12.6906 10.6593C12.7447 10.6959 12.7893 10.745 12.8206 10.8024C12.8519 10.8598 12.8691 10.9239 12.8706 10.9893C12.8749 11.0553 12.8636 11.1214 12.8375 11.1823C12.8114 11.2431 12.7714 11.2969 12.7206 11.3393L11.7206 12.1493C9.82057 13.6693 7.54057 12.1993 6.65057 11.4993C5.87925 10.8719 5.14156 10.2043 4.44057 9.49928L3.74057 10.1993C4.46925 10.9304 5.23705 11.6213 6.04057 12.2693C7.10626 13.218 8.46532 13.7723 9.89057 13.8393C10.809 13.8375 11.6988 13.5197 12.4106 12.9393L13.4106 12.1293C13.5754 11.9881 13.7059 11.8112 13.7922 11.612C13.8785 11.4129 13.9183 11.1967 13.9087 10.9799C13.899 10.7631 13.8402 10.5513 13.7366 10.3606C13.6329 10.1699 13.4872 10.0053 13.3106 9.87928L10.5206 7.93928C10.3501 7.82041 10.1558 7.74012 9.95122 7.70399C9.7466 7.66785 9.53656 7.67675 9.33573 7.73005C9.13489 7.78335 8.94809 7.8798 8.78831 8.01264C8.62854 8.14549 8.49963 8.31154 8.41057 8.49928L7.98057 9.42927C6.48067 8.74226 5.27758 7.53918 4.59057 6.03928L5.52057 5.60929C5.7083 5.52023 5.87437 5.39132 6.00722 5.23154C6.14006 5.07177 6.23649 4.88496 6.28979 4.68412C6.3431 4.48328 6.35199 4.27323 6.31586 4.06861C6.27972 3.86399 6.19944 3.66971 6.08057 3.49927L4.15057 0.749275C4.02533 0.57179 3.86103 0.425407 3.67032 0.321388C3.47962 0.217369 3.2676 0.15848 3.05057 0.149269C2.83378 0.141948 2.61808 0.183049 2.41916 0.269539C2.22023 0.356028 2.04308 0.485732 1.90057 0.649269L1.08057 1.64927C-0.299428 3.37927 -0.0694287 5.64929 1.72057 7.94929C2.36371 8.75371 3.05498 9.51842 3.79057 10.2393Z" fill="#767676"/>
</svg>
