<svg width="48" height="48" viewBox="0 0 48 48" fill="none" xmlns="http://www.w3.org/2000/svg">
<path d="M17.5702 30.4998C17.7312 30.6592 17.9486 30.7486 18.1752 30.7486C18.4018 30.7486 18.6192 30.6592 18.7802 30.4998L24.0302 25.2398L29.2902 30.4998C29.3646 30.5879 29.4562 30.6599 29.5593 30.7115C29.6625 30.7631 29.7751 30.7931 29.8902 30.7998C30.002 30.8012 30.1128 30.7798 30.216 30.7368C30.3192 30.6938 30.4125 30.6302 30.4902 30.5498C30.5713 30.4723 30.6358 30.3792 30.6799 30.2761C30.724 30.1729 30.7467 30.062 30.7467 29.9498C30.7467 29.8377 30.724 29.7267 30.6799 29.6235C30.6358 29.5204 30.5713 29.4273 30.4902 29.3498L25.2402 24.0898L30.4902 18.7998C30.5713 18.7223 30.6358 18.6292 30.6799 18.5261C30.724 18.4229 30.7467 18.312 30.7467 18.1998C30.7467 18.0877 30.724 17.9767 30.6799 17.8735C30.6358 17.7704 30.5713 17.6773 30.4902 17.5998C30.3309 17.441 30.1151 17.3519 29.8902 17.3519C29.6653 17.3519 29.4495 17.441 29.2902 17.5998L24.0302 22.7998L18.7802 17.5398C18.6192 17.3804 18.4018 17.291 18.1752 17.291C17.9486 17.291 17.7312 17.3804 17.5702 17.5398C17.4114 17.6991 17.3223 17.9149 17.3223 18.1398C17.3223 18.3647 17.4114 18.5805 17.5702 18.7398L22.8302 23.9998L17.5702 29.2998C17.4114 29.4591 17.3223 29.6749 17.3223 29.8998C17.3223 30.1247 17.4114 30.3405 17.5702 30.4998Z" />
</svg>
