<svg width="16" height="16" viewBox="0 0 16 16" fill="none" xmlns="http://www.w3.org/2000/svg">
<path d="M14.0098 15.0096C13.7498 15.0096 13.4998 14.9096 13.2998 14.7196L1.2798 2.69957C0.889805 2.30957 0.889805 1.67957 1.2798 1.28957C1.6698 0.89957 2.2998 0.89957 2.6898 1.28957L14.7198 13.2996C15.1098 13.6896 15.1098 14.3196 14.7198 14.7096C14.5198 14.9096 14.2698 15.0096 14.0098 15.0096Z" fill="#585858"/>
<path d="M1.9898 15.0098C1.7298 15.0098 1.4798 14.9098 1.2798 14.7198C0.889805 14.3298 0.889805 13.6998 1.2798 13.3098L13.2998 1.2798C13.6898 0.889805 14.3198 0.889805 14.7098 1.2798C15.0998 1.6698 15.0998 2.2998 14.7098 2.6898L2.6998 14.7198C2.4998 14.9098 2.2498 15.0098 1.9898 15.0098Z" fill="#585858"/>
</svg>
