<svg width="16" height="16" viewBox="0 0 16 16" fill="none" xmlns="http://www.w3.org/2000/svg">
<path d="M0.920303 8.89011H7.1503V15.1201C7.1503 15.2317 7.1723 15.3423 7.21501 15.4454C7.25773 15.5485 7.32033 15.6422 7.39926 15.7212C7.47819 15.8001 7.57189 15.8627 7.67502 15.9054C7.77814 15.9481 7.88868 15.9701 8.00031 15.9701C8.11193 15.9701 8.22247 15.9481 8.32559 15.9054C8.42872 15.8627 8.52242 15.8001 8.60135 15.7212C8.68028 15.6422 8.74288 15.5485 8.7856 15.4454C8.82831 15.3423 8.85031 15.2317 8.85031 15.1201V8.89011H15.0903C15.3157 8.89011 15.5319 8.80056 15.6913 8.64115C15.8508 8.48175 15.9403 8.26554 15.9403 8.04011C15.9403 7.81467 15.8508 7.59848 15.6913 7.43907C15.5319 7.27967 15.3157 7.19011 15.0903 7.19011H8.85031V0.960114C8.85031 0.84849 8.82831 0.737953 8.7856 0.634827C8.74288 0.5317 8.68028 0.438 8.60135 0.35907C8.52242 0.28014 8.42872 0.217529 8.32559 0.174812C8.22247 0.132096 8.11193 0.110107 8.00031 0.110107C7.88868 0.110107 7.77814 0.132096 7.67502 0.174812C7.57189 0.217529 7.47819 0.28014 7.39926 0.35907C7.32033 0.438 7.25773 0.5317 7.21501 0.634827C7.1723 0.737953 7.1503 0.84849 7.1503 0.960114V7.19011H0.920303C0.694869 7.19011 0.478666 7.27967 0.31926 7.43907C0.159854 7.59848 0.0703125 7.81467 0.0703125 8.04011C0.0703125 8.26554 0.159854 8.48175 0.31926 8.64115C0.478666 8.80056 0.694869 8.89011 0.920303 8.89011Z" fill="white"/>
</svg>
