<svg width="48" height="48" viewBox="0 0 48 48" fill="none" xmlns="http://www.w3.org/2000/svg">
<path d="M31.9598 17.7201H28.4998V16.4801C28.4998 15.9868 28.3039 15.5137 27.955 15.1649C27.6062 14.8161 27.1331 14.6201 26.6398 14.6201H21.3298C20.8365 14.6201 20.3634 14.8161 20.0146 15.1649C19.6658 15.5137 19.4698 15.9868 19.4698 16.4801V17.7201H16.0298C15.8415 17.7201 15.661 17.7949 15.5278 17.9281C15.3947 18.0612 15.3198 18.2418 15.3198 18.4301C15.3198 18.6184 15.3947 18.799 15.5278 18.9322C15.661 19.0653 15.8415 19.1401 16.0298 19.1401H16.8698L17.5898 30.7401C17.5976 31.0947 17.6752 31.4443 17.8181 31.7689C17.9611 32.0935 18.1666 32.3868 18.4229 32.632C18.6792 32.8771 18.9813 33.0694 19.3119 33.1978C19.6426 33.3261 19.9952 33.3881 20.3498 33.3801H27.6398C28.349 33.4017 29.0378 33.1412 29.5552 32.6556C30.0726 32.1701 30.3763 31.4993 30.3998 30.7901L31.1298 19.1401H31.9598C32.1481 19.1401 32.3287 19.0653 32.4619 18.9322C32.595 18.799 32.6698 18.6184 32.6698 18.4301C32.6698 18.2418 32.595 18.0612 32.4619 17.9281C32.3287 17.7949 32.1481 17.7201 31.9598 17.7201ZM20.9098 16.4801C20.9192 16.3728 20.9667 16.2725 21.0438 16.1972C21.1209 16.122 21.2223 16.0769 21.3298 16.0701H26.6198C26.6785 16.0701 26.7365 16.0818 26.7906 16.1046C26.8446 16.1273 26.8935 16.1606 26.9345 16.2025C26.9755 16.2444 27.0078 16.2941 27.0293 16.3487C27.0508 16.4032 27.0612 16.4615 27.0598 16.5201V17.7601H20.8898L20.9098 16.4801ZM28.9898 30.7401C28.9822 30.9092 28.9411 31.075 28.8689 31.2281C28.7967 31.3811 28.6949 31.5183 28.5694 31.6318C28.4438 31.7452 28.297 31.8327 28.1375 31.889C27.9779 31.9454 27.8088 31.9696 27.6398 31.9601H20.3298C20.1588 31.9668 19.9881 31.9394 19.8277 31.8794C19.6674 31.8195 19.5205 31.7282 19.3958 31.6109C19.2711 31.4936 19.171 31.3527 19.1013 31.1963C19.0316 31.04 18.9937 30.8713 18.9898 30.7001L18.3298 19.1401H29.7598L28.9898 30.7401Z" />
<path d="M21.94 22.23C21.7517 22.23 21.5711 22.3048 21.4379 22.4379C21.3048 22.5711 21.23 22.7517 21.23 22.94V28.17C21.23 28.3583 21.3048 28.5389 21.4379 28.672C21.5711 28.8052 21.7517 28.88 21.94 28.88C22.1283 28.88 22.3089 28.8052 22.442 28.672C22.5752 28.5389 22.65 28.3583 22.65 28.17V22.94C22.65 22.8467 22.6316 22.7544 22.5959 22.6683C22.5603 22.5821 22.508 22.5039 22.442 22.4379C22.3761 22.372 22.2978 22.3197 22.2117 22.284C22.1256 22.2483 22.0332 22.23 21.94 22.23Z" />
<path d="M26.0601 22.23C25.8718 22.23 25.6912 22.3048 25.5581 22.4379C25.4249 22.5711 25.3501 22.7517 25.3501 22.94V28.17C25.3501 28.3583 25.4249 28.5389 25.5581 28.672C25.6912 28.8052 25.8718 28.88 26.0601 28.88C26.2484 28.88 26.429 28.8052 26.5622 28.672C26.6953 28.5389 26.7701 28.3583 26.7701 28.17V22.94C26.7701 22.7517 26.6953 22.5711 26.5622 22.4379C26.429 22.3048 26.2484 22.23 26.0601 22.23Z" />
</svg>
