<svg width="48" height="48" viewBox="0 0 48 48" fill="none" xmlns="http://www.w3.org/2000/svg">
<path d="M31.68 13.4501C31.5446 13.3228 31.3658 13.252 31.18 13.252C30.9942 13.252 30.8154 13.3228 30.68 13.4501L28.68 15.4501L19.87 24.2601C19.7818 24.3482 19.7195 24.4589 19.69 24.5801L18.61 28.5001C18.5806 28.6202 18.5826 28.7459 18.6159 28.865C18.6492 28.9841 18.7126 29.0926 18.8 29.1801C18.8641 29.248 18.9417 29.3018 19.0278 29.3379C19.1139 29.3741 19.2066 29.3919 19.3 29.3901H19.48L23.42 28.3301C23.5401 28.2928 23.6497 28.2277 23.74 28.1401L32.55 19.3301L34.55 17.3301C34.6819 17.1971 34.7559 17.0174 34.7559 16.8301C34.7559 16.6428 34.6819 16.4631 34.55 16.3301L31.68 13.4501ZM22.89 26.9901L20.32 27.6801L21.02 25.1101L29.19 16.9301L31.07 18.8101L22.89 26.9901ZM32.07 17.8001L30.2 15.9301L31.2 14.9301L33.07 16.8001L32.07 17.8001Z" fill="#585858"/>
<path d="M31.1401 23.7199C30.9518 23.7199 30.7712 23.7947 30.638 23.9279C30.5049 24.061 30.4301 24.2416 30.4301 24.4299V31.2899H16.7101V17.5699H23.6101C23.7984 17.5699 23.979 17.4951 24.1121 17.362C24.2453 17.2288 24.3201 17.0482 24.3201 16.8599C24.3201 16.6716 24.2453 16.491 24.1121 16.3579C23.979 16.2247 23.7984 16.1499 23.6101 16.1499H16.0401C15.8518 16.1499 15.6712 16.2247 15.538 16.3579C15.4049 16.491 15.3301 16.6716 15.3301 16.8599V31.9999C15.3301 32.1882 15.4049 32.3688 15.538 32.502C15.6712 32.6351 15.8518 32.7099 16.0401 32.7099H31.1801C31.3684 32.7099 31.549 32.6351 31.6821 32.502C31.8153 32.3688 31.8901 32.1882 31.8901 31.9999V24.4299C31.8902 24.3332 31.8706 24.2375 31.8325 24.1487C31.7943 24.0598 31.7384 23.9797 31.6682 23.9132C31.598 23.8467 31.5149 23.7953 31.4241 23.762C31.3333 23.7288 31.2366 23.7145 31.1401 23.7199Z" fill="#585858"/>
</svg>
