<svg width="48" height="48" viewBox="0 0 48 48" fill="none" xmlns="http://www.w3.org/2000/svg">
<path d="M16.2701 29.8701C16.333 29.8806 16.3972 29.8806 16.4601 29.8701L20.0201 28.8701C20.1419 28.8368 20.2525 28.7712 20.3401 28.6801L27.6701 21.3502L30.1101 18.9202C30.242 18.7872 30.316 18.6075 30.316 18.4202C30.316 18.2329 30.242 18.0531 30.1101 17.9202L27.5101 15.3202C27.3771 15.1883 27.1974 15.1143 27.0101 15.1143C26.8228 15.1143 26.643 15.1883 26.5101 15.3202L24.0801 17.7502L16.7401 25.0702C16.649 25.1577 16.5834 25.2683 16.5501 25.3902L15.5501 28.9502C15.5155 29.0708 15.514 29.1984 15.5456 29.3198C15.5773 29.4412 15.641 29.5518 15.7301 29.6402C15.7996 29.7133 15.8834 29.7714 15.9763 29.811C16.0691 29.8505 16.1691 29.8707 16.2701 29.8701ZM27.0101 16.8701L28.6101 18.4702L27.1701 19.9001L26.3701 19.1102L25.5701 18.3102L27.0101 16.8701ZM17.8901 25.9702L24.5901 19.2702L25.3901 20.0702L26.1901 20.8701L19.4901 27.5702L17.3001 28.1602L17.8901 25.9702Z" fill="#585858"/>
<path d="M31.9701 31.46H16.0401C15.8518 31.46 15.6712 31.5348 15.538 31.6679C15.4049 31.8011 15.3301 31.9816 15.3301 32.17C15.3301 32.3583 15.4049 32.5388 15.538 32.672C15.6712 32.8051 15.8518 32.8799 16.0401 32.8799H31.9701C32.1584 32.8799 32.339 32.8051 32.4721 32.672C32.6053 32.5388 32.6801 32.3583 32.6801 32.17C32.6801 31.9816 32.6053 31.8011 32.4721 31.6679C32.339 31.5348 32.1584 31.46 31.9701 31.46Z" fill="#585858"/>
</svg>
