<svg width="40" height="40" viewBox="0 0 40 40" fill="none" xmlns="http://www.w3.org/2000/svg">
<path fill-rule="evenodd" clip-rule="evenodd" d="M33.7498 18.0201C33.8915 18.1162 34.0585 18.1684 34.2298 18.1701C34.3716 18.1664 34.5102 18.1269 34.6326 18.0552C34.755 17.9835 34.8573 17.882 34.9298 17.7601C34.9943 17.6677 35.0397 17.5635 35.0635 17.4535C35.0873 17.3435 35.0891 17.2298 35.0686 17.1191C35.0482 17.0084 35.0058 16.9028 34.9442 16.8086C34.8826 16.7143 34.8031 16.6333 34.7099 16.5701L20.4798 6.84007C20.3351 6.7329 20.1598 6.67505 19.9798 6.67505C19.7997 6.67505 19.6244 6.7329 19.4798 6.84007L5.2598 16.5701C5.16721 16.6357 5.08851 16.719 5.02811 16.8151C4.9677 16.9112 4.92678 17.0182 4.90775 17.1301C4.88871 17.242 4.89191 17.3566 4.91714 17.4672C4.94238 17.5779 4.98918 17.6825 5.05484 17.7751C5.1205 17.8677 5.20374 17.9464 5.29984 18.0068C5.39593 18.0672 5.503 18.1081 5.6149 18.1271C5.72679 18.1462 5.84127 18.143 5.95193 18.1177C6.0626 18.0925 6.16721 18.0457 6.2598 17.9801L8.22949 16.6311V30.4202C8.22949 30.6456 8.31911 30.8618 8.47852 31.0212C8.63792 31.1806 8.85416 31.2702 9.07959 31.2702H30.9196C31.1459 31.2702 31.3632 31.181 31.5242 31.0218C31.6852 30.8627 31.7769 30.6465 31.7795 30.4202V16.666L33.7498 18.0201ZM30.0696 15.4908L19.9998 8.57007L9.92957 15.4668V29.5702H30.0696V15.4908Z" fill="#FF7964"/>
<path d="M25.7097 21.3802H14.2997C14.0742 21.3802 13.858 21.2906 13.6986 21.1312C13.5392 20.9718 13.4497 20.7556 13.4497 20.5302C13.4497 20.3047 13.5392 20.0885 13.6986 19.9291C13.858 19.7697 14.0742 19.6802 14.2997 19.6802H25.7097C25.9352 19.6802 26.1513 19.7697 26.3107 19.9291C26.4701 20.0885 26.5597 20.3047 26.5597 20.5302C26.5597 20.7556 26.4701 20.9718 26.3107 21.1312C26.1513 21.2906 25.9352 21.3802 25.7097 21.3802Z" fill="url(#paint0_linear_592:15754)"/>
<path d="M25.7097 26.0101H14.2997C14.0742 26.0101 13.858 25.9205 13.6986 25.7611C13.5392 25.6017 13.4497 25.3855 13.4497 25.1601C13.4497 24.9346 13.5392 24.7184 13.6986 24.559C13.858 24.3996 14.0742 24.3101 14.2997 24.3101H25.7097C25.9352 24.3101 26.1513 24.3996 26.3107 24.559C26.4701 24.7184 26.5597 24.9346 26.5597 25.1601C26.5597 25.3855 26.4701 25.6017 26.3107 25.7611C26.1513 25.9205 25.9352 26.0101 25.7097 26.0101Z" fill="url(#paint1_linear_592:15754)"/>
<defs>
<linearGradient id="paint0_linear_592:15754" x1="14.6788" y1="19.9458" x2="15.1837" y2="23.6179" gradientUnits="userSpaceOnUse">
<stop offset="0.140625" stop-color="#0DDCC3"/>
<stop offset="1" stop-color="#11A2B6"/>
</linearGradient>
<linearGradient id="paint1_linear_592:15754" x1="14.6788" y1="24.5757" x2="15.1837" y2="28.2478" gradientUnits="userSpaceOnUse">
<stop offset="0.140625" stop-color="#0DDCC3"/>
<stop offset="1" stop-color="#11A2B6"/>
</linearGradient>
</defs>
</svg>
