<svg width="40" height="40" viewBox="0 0 40 40" fill="none" xmlns="http://www.w3.org/2000/svg">
<path d="M24.8097 16.5203H15.1997C14.9743 16.5203 14.758 16.4308 14.5986 16.2714C14.4392 16.112 14.3496 15.8957 14.3496 15.6703C14.3496 15.4449 14.4392 15.2287 14.5986 15.0693C14.758 14.9099 14.9743 14.8203 15.1997 14.8203H24.8097C25.0351 14.8203 25.2512 14.9099 25.4106 15.0693C25.5701 15.2287 25.6597 15.4449 25.6597 15.6703C25.6597 15.8957 25.5701 16.112 25.4106 16.2714C25.2512 16.4308 25.0351 16.5203 24.8097 16.5203Z" fill="#9C9C9C"/>
<path d="M24.8097 21.2606H15.1997C14.9743 21.2606 14.758 21.171 14.5986 21.0116C14.4392 20.8522 14.3496 20.636 14.3496 20.4105C14.3496 20.1851 14.4392 19.9689 14.5986 19.8095C14.758 19.6501 14.9743 19.5605 15.1997 19.5605H24.8097C25.0351 19.5605 25.2512 19.6501 25.4106 19.8095C25.5701 19.9689 25.6597 20.1851 25.6597 20.4105C25.6597 20.636 25.5701 20.8522 25.4106 21.0116C25.2512 21.171 25.0351 21.2606 24.8097 21.2606Z" fill="#9C9C9C"/>
<path d="M19.99 34.3303C19.8229 34.3314 19.6573 34.2992 19.5028 34.2357C19.3483 34.1721 19.208 34.0786 19.09 33.9603L11.93 26.0503C10.8787 25.001 10.0457 23.7538 9.47924 22.3806C8.91282 21.0075 8.62416 19.5357 8.63 18.0503C8.58486 16.5281 8.84575 15.0124 9.39709 13.5929C9.94843 12.1734 10.779 10.8789 11.8397 9.78625C12.9004 8.69361 14.1697 7.82499 15.5723 7.23181C16.9748 6.63864 18.4822 6.33301 20.005 6.33301C21.5278 6.33301 23.0352 6.63864 24.4377 7.23181C25.8403 7.82499 27.1096 8.69361 28.1703 9.78625C29.231 10.8789 30.0617 12.1734 30.613 13.5929C31.1644 15.0124 31.4251 16.5281 31.38 18.0503C31.3803 19.5375 31.0862 21.0101 30.5146 22.3831C29.9431 23.7562 29.1055 25.0025 28.05 26.0503L20.9501 33.9003C20.8266 34.0321 20.6781 34.138 20.5133 34.2119C20.3485 34.2857 20.1705 34.326 19.99 34.3303ZM19.99 8.33032C18.0769 8.33222 16.2072 8.90094 14.6171 9.96472C13.027 11.0285 11.7878 12.5396 11.0559 14.3072C10.324 16.0748 10.1324 18.0196 10.5051 19.8961C10.8778 21.7726 11.7982 23.4965 13.15 24.8503L20 32.4103L26.8101 24.8803C28.171 23.5294 29.1 21.8047 29.4792 19.9249C29.8585 18.0452 29.671 16.0952 28.9404 14.3222C28.2098 12.5492 26.9691 11.0332 25.3756 9.96643C23.7821 8.89966 21.9076 8.33022 19.99 8.33032Z" fill="#9C9C9C"/>
</svg>
