<svg width="24" height="24" viewBox="0 0 24 24" fill="none" xmlns="http://www.w3.org/2000/svg">
<path d="M19.5201 7.26987H8.42007C8.2689 7.26987 8.12392 7.20983 8.01703 7.10294C7.91013 6.99604 7.8501 6.85106 7.8501 6.69989C7.8501 6.54872 7.91013 6.40374 8.01703 6.29684C8.12392 6.18995 8.2689 6.12988 8.42007 6.12988H19.5201C19.6713 6.12988 19.8162 6.18995 19.9231 6.29684C20.03 6.40374 20.0901 6.54872 20.0901 6.69989C20.0901 6.85106 20.03 6.99604 19.9231 7.10294C19.8162 7.20983 19.6713 7.26987 19.5201 7.26987Z" fill="#231815"/>
<path d="M19.5197 12.5598H8.41974C8.33924 12.5705 8.25737 12.5639 8.17963 12.5405C8.10188 12.517 8.03004 12.4772 7.96893 12.4237C7.90783 12.3702 7.85887 12.3042 7.82532 12.2303C7.79177 12.1563 7.77441 12.076 7.77441 11.9948C7.77441 11.9136 7.79177 11.8333 7.82532 11.7594C7.85887 11.6854 7.90783 11.6194 7.96893 11.5659C8.03004 11.5124 8.10188 11.4726 8.17963 11.4492C8.25737 11.4257 8.33924 11.4191 8.41974 11.4298H19.5197C19.6567 11.4481 19.7823 11.5154 19.8733 11.6193C19.9643 11.7233 20.0144 11.8567 20.0144 11.9948C20.0144 12.1329 19.9643 12.2664 19.8733 12.3703C19.7823 12.4742 19.6567 12.5416 19.5197 12.5598Z" fill="#231815"/>
<path d="M19.5197 17.8601H8.41974C8.33924 17.8708 8.25737 17.8642 8.17963 17.8408C8.10188 17.8173 8.03004 17.7774 7.96893 17.7239C7.90783 17.6704 7.85887 17.6045 7.82532 17.5305C7.79177 17.4566 7.77441 17.3763 7.77441 17.2951C7.77441 17.2139 7.79177 17.1336 7.82532 17.0596C7.85887 16.9857 7.90783 16.9197 7.96893 16.8662C8.03004 16.8127 8.10188 16.7729 8.17963 16.7494C8.25737 16.7259 8.33924 16.7194 8.41974 16.7301H19.5197C19.6567 16.7484 19.7823 16.8157 19.8733 16.9196C19.9643 17.0235 20.0144 17.157 20.0144 17.2951C20.0144 17.4332 19.9643 17.5666 19.8733 17.6706C19.7823 17.7745 19.6567 17.8419 19.5197 17.8601Z" fill="#231815"/>
<path d="M5.11986 7.45994C5.5396 7.45994 5.87986 7.11968 5.87986 6.69994C5.87986 6.2802 5.5396 5.93994 5.11986 5.93994C4.70013 5.93994 4.35986 6.2802 4.35986 6.69994C4.35986 7.11968 4.70013 7.45994 5.11986 7.45994Z" fill="#231815"/>
<path d="M5.11986 12.7597C5.5396 12.7597 5.87986 12.4195 5.87986 11.9997C5.87986 11.58 5.5396 11.2397 5.11986 11.2397C4.70013 11.2397 4.35986 11.58 4.35986 11.9997C4.35986 12.4195 4.70013 12.7597 5.11986 12.7597Z" fill="#231815"/>
<path d="M5.11986 18.06C5.5396 18.06 5.87986 17.7198 5.87986 17.3C5.87986 16.8803 5.5396 16.54 5.11986 16.54C4.70013 16.54 4.35986 16.8803 4.35986 17.3C4.35986 17.7198 4.70013 18.06 5.11986 18.06Z" fill="#231815"/>
</svg>
