<svg width="360" height="229" viewBox="0 0 360 229" fill="none" xmlns="http://www.w3.org/2000/svg">
<g filter="url(#filter0_d_1021:36070)">
<mask id="path-1-inside-1_1021:36070" fill="white">
<path fill-rule="evenodd" clip-rule="evenodd" d="M77 39C71.4772 39 67 43.4772 67 49V73C67 78.5228 71.4772 83 77 83H264.226L268.317 89.3758C269.104 90.6026 270.896 90.6026 271.683 89.3758L275.774 83H296C301.523 83 306 78.5228 306 73V49C306 43.4772 301.523 39 296 39H77Z"/>
</mask>
<path fill-rule="evenodd" clip-rule="evenodd" d="M77 39C71.4772 39 67 43.4772 67 49V73C67 78.5228 71.4772 83 77 83H264.226L268.317 89.3758C269.104 90.6026 270.896 90.6026 271.683 89.3758L275.774 83H296C301.523 83 306 78.5228 306 73V49C306 43.4772 301.523 39 296 39H77Z" fill="white"/>
<path d="M264.226 83L265.068 82.46L264.773 82H264.226V83ZM268.317 89.3758L269.158 88.8359L269.158 88.8359L268.317 89.3758ZM271.683 89.3758L272.525 89.9158L271.683 89.3758ZM275.774 83V82H275.227L274.932 82.46L275.774 83ZM68 49C68 44.0294 72.0294 40 77 40V38C70.9249 38 66 42.9249 66 49H68ZM68 73V49H66V73H68ZM77 82C72.0294 82 68 77.9706 68 73H66C66 79.0751 70.9249 84 77 84V82ZM264.226 82H77V84H264.226V82ZM269.158 88.8359L265.068 82.46L263.385 83.54L267.475 89.9158L269.158 88.8359ZM270.842 88.8359C270.448 89.4493 269.552 89.4493 269.158 88.8359L267.475 89.9158C268.655 91.756 271.345 91.756 272.525 89.9158L270.842 88.8359ZM274.932 82.46L270.842 88.8359L272.525 89.9158L276.615 83.54L274.932 82.46ZM296 82H275.774V84H296V82ZM305 73C305 77.9706 300.971 82 296 82V84C302.075 84 307 79.0751 307 73H305ZM305 49V73H307V49H305ZM296 40C300.971 40 305 44.0294 305 49H307C307 42.9249 302.075 38 296 38V40ZM77 40H296V38H77V40Z" fill="#FFBCB1" mask="url(#path-1-inside-1_1021:36070)"/>
</g>
<g filter="url(#filter1_d_1021:36070)">
<mask id="path-3-inside-2_1021:36070" fill="white">
<path fill-rule="evenodd" clip-rule="evenodd" d="M131 149C125.477 149 121 153.477 121 159V183C121 188.523 125.477 193 131 193H298.226L302.317 199.376C303.104 200.603 304.896 200.603 305.683 199.376L309.774 193H330C335.523 193 340 188.523 340 183V159C340 153.477 335.523 149 330 149H131Z"/>
</mask>
<path fill-rule="evenodd" clip-rule="evenodd" d="M131 149C125.477 149 121 153.477 121 159V183C121 188.523 125.477 193 131 193H298.226L302.317 199.376C303.104 200.603 304.896 200.603 305.683 199.376L309.774 193H330C335.523 193 340 188.523 340 183V159C340 153.477 335.523 149 330 149H131Z" fill="white"/>
<path d="M298.226 193L299.068 192.46L298.773 192H298.226V193ZM302.317 199.376L303.158 198.836L303.158 198.836L302.317 199.376ZM305.683 199.376L306.525 199.916L305.683 199.376ZM309.774 193V192H309.227L308.932 192.46L309.774 193ZM122 159C122 154.029 126.029 150 131 150V148C124.925 148 120 152.925 120 159H122ZM122 183V159H120V183H122ZM131 192C126.029 192 122 187.971 122 183H120C120 189.075 124.925 194 131 194V192ZM298.226 192H131V194H298.226V192ZM303.158 198.836L299.068 192.46L297.385 193.54L301.475 199.916L303.158 198.836ZM304.842 198.836C304.448 199.449 303.552 199.449 303.158 198.836L301.475 199.916C302.655 201.756 305.345 201.756 306.525 199.916L304.842 198.836ZM308.932 192.46L304.842 198.836L306.525 199.916L310.615 193.54L308.932 192.46ZM330 192H309.774V194H330V192ZM339 183C339 187.971 334.971 192 330 192V194C336.075 194 341 189.075 341 183H339ZM339 159V183H341V159H339ZM330 150C334.971 150 339 154.029 339 159H341C341 152.925 336.075 148 330 148V150ZM131 150H330V148H131V150Z" fill="#FFBCB1" mask="url(#path-3-inside-2_1021:36070)"/>
</g>
<g filter="url(#filter2_d_1021:36070)">
<mask id="path-5-inside-3_1021:36070" fill="white">
<path fill-rule="evenodd" clip-rule="evenodd" d="M204 94C209.523 94 214 98.4772 214 104V128C214 133.523 209.523 138 204 138H62.7735L58.6834 144.376C57.8964 145.603 56.1036 145.603 55.3166 144.376L51.2265 138H30C24.4772 138 20 133.523 20 128V104C20 98.4772 24.4772 94 30 94H204Z"/>
</mask>
<path fill-rule="evenodd" clip-rule="evenodd" d="M204 94C209.523 94 214 98.4772 214 104V128C214 133.523 209.523 138 204 138H62.7735L58.6834 144.376C57.8964 145.603 56.1036 145.603 55.3166 144.376L51.2265 138H30C24.4772 138 20 133.523 20 128V104C20 98.4772 24.4772 94 30 94H204Z" fill="white"/>
<path d="M62.7735 138L61.9318 137.46L62.2269 137H62.7735V138ZM58.6834 144.376L57.8417 143.836L57.8417 143.836L58.6834 144.376ZM55.3166 144.376L54.4749 144.916L55.3166 144.376ZM51.2265 138V137H51.7731L52.0682 137.46L51.2265 138ZM213 104C213 99.0294 208.971 95 204 95V93C210.075 93 215 97.9249 215 104H213ZM213 128V104H215V128H213ZM204 137C208.971 137 213 132.971 213 128H215C215 134.075 210.075 139 204 139V137ZM62.7735 137H204V139H62.7735V137ZM57.8417 143.836L61.9318 137.46L63.6152 138.54L59.5251 144.916L57.8417 143.836ZM56.1583 143.836C56.5518 144.449 57.4482 144.449 57.8417 143.836L59.5251 144.916C58.3446 146.756 55.6554 146.756 54.4749 144.916L56.1583 143.836ZM52.0682 137.46L56.1583 143.836L54.4749 144.916L50.3848 138.54L52.0682 137.46ZM30 137H51.2265V139H30V137ZM21 128C21 132.971 25.0294 137 30 137V139C23.9249 139 19 134.075 19 128H21ZM21 104V128H19V104H21ZM30 95C25.0294 95 21 99.0294 21 104H19C19 97.9249 23.9249 93 30 93V95ZM204 95H30V93H204V95Z" fill="#FFBCB1" mask="url(#path-5-inside-3_1021:36070)"/>
</g>
<path d="M85.508 58.852H87.678V57.662H85.508V55.87H84.136V57.662H81.952V58.852H84.136V59.3C84.136 61.316 83.296 63.472 81.56 64.494L82.386 65.586C83.59 64.886 84.388 63.612 84.836 62.128C85.298 63.5 86.11 64.662 87.3 65.306L88.098 64.228C86.362 63.29 85.508 61.274 85.508 59.3V58.852ZM88.574 60.336H86.866V61.512H88.574V67.462H89.932V55.688H88.574V60.336ZM91.122 55.436V68.078H92.494V55.436H91.122ZM104.729 55.436H103.287V64.62H104.729V55.436ZM95.9649 59.44C95.9649 58.278 96.7909 57.522 97.9109 57.522C99.0169 57.522 99.8569 58.278 99.8569 59.44C99.8569 60.588 99.0169 61.358 97.9109 61.358C96.7909 61.358 95.9649 60.588 95.9649 59.44ZM101.257 59.44C101.257 57.592 99.8149 56.276 97.9109 56.276C96.0069 56.276 94.5509 57.592 94.5509 59.44C94.5509 61.274 96.0069 62.604 97.9109 62.604C99.8149 62.604 101.257 61.274 101.257 59.44ZM97.9249 66.664V63.696H96.4689V67.84H105.093V66.664H97.9249ZM110.546 56.696V57.872H114.872C114.816 58.572 114.704 59.23 114.536 59.846L109.902 60.14L110.098 61.386L114.102 60.994C113.36 62.548 112.03 63.864 109.818 64.97L110.602 66.09C115.194 63.78 116.3 60.476 116.3 56.696H110.546ZM121.48 60.42H119.562V55.422H118.12V68.064H119.562V61.624H121.48V60.42ZM124.713 58.124H125.987V63.794C125.553 63.822 125.133 63.836 124.713 63.85V58.124ZM127.303 58.124H128.241V56.962H122.487V58.124H123.397V63.878C122.977 63.878 122.585 63.878 122.235 63.878L122.403 65.068C123.999 65.068 126.603 65.012 128.577 64.62L128.479 63.57C128.115 63.626 127.709 63.668 127.303 63.71V58.124ZM129.389 60.154H127.891V61.428H129.389V67.448H130.747V55.716H129.389V60.154ZM131.867 55.436V68.078H133.253V55.436H131.867ZM142.781 60.098H139.701V57.242H142.781V60.098ZM144.195 56.094H138.273V61.246H144.195V56.094ZM140.989 65.628H147.709V62.366H139.547V63.5H146.281V64.578H139.575V67.924H148.129V66.776H140.989V65.628ZM147.709 58.026V55.436H146.267V61.82H147.709V59.216H149.487V58.026H147.709ZM159.174 57.858C159.174 59.37 159.174 61.162 158.684 63.64L160.14 63.794C160.63 61.176 160.63 59.426 160.63 57.858V56.612H151.628V57.788H159.174V57.858ZM156.15 65.236V60.784H154.694V65.236H150.438V66.426H161.862V65.236H156.15ZM163.429 69.8C164.871 69.254 165.725 68.12 165.725 66.65C165.725 65.572 165.263 64.914 164.479 64.914C163.863 64.914 163.359 65.32 163.359 65.95C163.359 66.622 163.863 66.986 164.437 66.986C164.493 66.986 164.535 66.986 164.591 66.972C164.577 67.798 164.017 68.498 163.065 68.89L163.429 69.8ZM172.003 57.788H176.595V56.598H170.575V65.012H171.625C174.243 65.012 175.881 64.942 177.715 64.606L177.561 63.402C175.867 63.724 174.355 63.794 172.003 63.808V57.788ZM178.737 55.422V68.106H180.193V55.422H178.737ZM183.16 56.696V57.872H187.486C187.43 58.572 187.318 59.23 187.15 59.846L182.516 60.14L182.712 61.386L186.716 60.994C185.974 62.548 184.644 63.864 182.432 64.97L183.216 66.09C187.808 63.78 188.914 60.476 188.914 56.696H183.16ZM194.094 60.42H192.176V55.422H190.734V68.064H192.176V61.624H194.094V60.42ZM197.327 58.124H198.601V63.794C198.167 63.822 197.747 63.836 197.327 63.85V58.124ZM199.917 58.124H200.855V56.962H195.101V58.124H196.011V63.878C195.591 63.878 195.199 63.878 194.849 63.878L195.017 65.068C196.613 65.068 199.217 65.012 201.191 64.62L201.093 63.57C200.729 63.626 200.323 63.668 199.917 63.71V58.124ZM202.003 60.154H200.505V61.428H202.003V67.448H203.361V55.716H202.003V60.154ZM204.481 55.436V68.078H205.867V55.436H204.481ZM218.004 55.436H216.562V64.62H218.004V55.436ZM209.24 59.44C209.24 58.278 210.066 57.522 211.186 57.522C212.292 57.522 213.132 58.278 213.132 59.44C213.132 60.588 212.292 61.358 211.186 61.358C210.066 61.358 209.24 60.588 209.24 59.44ZM214.532 59.44C214.532 57.592 213.09 56.276 211.186 56.276C209.282 56.276 207.826 57.592 207.826 59.44C207.826 61.274 209.282 62.604 211.186 62.604C213.09 62.604 214.532 61.274 214.532 59.44ZM211.2 66.664V63.696H209.744V67.84H218.368V66.664H211.2ZM223.723 56.696V57.872H228.007C227.965 58.572 227.839 59.23 227.671 59.86L223.065 60.14L223.275 61.372L227.223 61.008C226.481 62.562 225.151 63.878 223.009 64.97L223.793 66.09C228.287 63.794 229.449 60.462 229.449 56.696H223.723ZM232.067 55.436V60.406H229.407V61.596H232.067V68.092H233.523V55.436H232.067ZM238.618 57.872H240.424V63.766C239.822 63.794 239.206 63.808 238.618 63.836V57.872ZM241.824 57.872H243.084V56.71H235.958V57.872H237.218V63.85C236.658 63.864 236.112 63.864 235.622 63.864L235.776 65.054C238.072 65.054 241.054 65.012 243.756 64.564L243.672 63.5C243.07 63.57 242.454 63.64 241.824 63.682V57.872ZM244.638 55.436V68.092H246.08V55.436H244.638ZM253.913 57.872H255.635V63.766C255.061 63.794 254.473 63.822 253.913 63.836V57.872ZM257.035 57.872H258.267V56.71H251.281V57.872H252.513V63.864C251.967 63.864 251.435 63.864 250.959 63.864L251.113 65.054C253.311 65.054 256.237 65.012 258.855 64.578L258.771 63.514C258.211 63.584 257.623 63.64 257.035 63.696V57.872ZM262.873 60.378H260.899V55.436H259.457V68.092H260.899V61.568H262.873V60.378ZM273.862 59.062H266.624V55.884H265.182V60.238H273.862V59.062ZM266.54 64.074H265.098V67.798H273.932V66.636H266.54V64.074ZM263.698 61.75V62.912H275.178V61.75H263.698ZM288.878 60.462C289.186 59.034 289.186 57.928 289.186 56.976V56.024H280.506V57.172H287.758C287.758 58.04 287.73 59.02 287.45 60.322L288.878 60.462ZM285.56 63.304H284.104V63.794C284.104 65.278 282.452 66.58 279.918 66.916L280.464 68.022C282.466 67.728 284.062 66.86 284.832 65.614C285.616 66.86 287.212 67.728 289.228 68.022L289.746 66.916C287.212 66.58 285.56 65.278 285.56 63.794V63.304ZM285.126 61.26V58.81H283.67V61.26H279.19V62.422H290.6V61.26H285.126Z" fill="#585858"/>
<path d="M141.412 167.06C143.218 167.06 144.408 167.676 144.408 168.698C144.408 169.734 143.218 170.35 141.412 170.35C139.592 170.35 138.402 169.734 138.402 168.698C138.402 167.676 139.592 167.06 141.412 167.06ZM141.412 171.512C144.072 171.512 145.892 170.42 145.892 168.698C145.892 166.99 144.072 165.898 141.412 165.898C138.738 165.898 136.918 166.99 136.918 168.698C136.918 170.42 138.738 171.512 141.412 171.512ZM147.166 172.59H135.7V173.78H140.67V178.078H142.112V173.78H147.166V172.59ZM150.483 171.246H154.893V166.556H148.999V167.732H153.437V170.084H149.027V175.096H150.105C152.331 175.096 154.221 175.026 156.391 174.648L156.237 173.472C154.235 173.794 152.485 173.892 150.483 173.906V171.246ZM157.287 165.408V178.106H158.743V165.408H157.287ZM169.46 176.972C167.612 176.972 166.576 176.566 166.576 175.782C166.576 175.012 167.612 174.592 169.46 174.592C171.308 174.592 172.358 175.012 172.358 175.782C172.358 176.566 171.308 176.972 169.46 176.972ZM169.46 173.486C166.758 173.486 165.106 174.326 165.106 175.782C165.106 177.252 166.758 178.092 169.46 178.092C172.176 178.092 173.814 177.252 173.814 175.782C173.814 174.326 172.176 173.486 169.46 173.486ZM170.216 171.54V170.28H173.898V169.118H166.632V167.144H173.814V165.996H165.204V170.28H168.774V171.54H163.79V172.716H175.214V171.54H170.216ZM178.349 166.71H176.921V174.956H177.775C179.329 174.956 180.715 174.886 182.311 174.564L182.129 173.36C180.799 173.612 179.609 173.696 178.349 173.724V166.71ZM183.123 169.566H180.435V170.742H183.123V177.476H184.467V165.688H183.123V169.566ZM185.797 165.422V178.078H187.183V165.422H185.797ZM192.987 171.624C195.073 171.316 196.781 170.28 197.551 168.88C198.321 170.28 200.043 171.316 202.129 171.624L202.647 170.49C200.239 170.168 198.461 168.782 198.377 167.312H202.199V166.15H192.889V167.312H196.739C196.655 168.782 194.877 170.168 192.469 170.49L192.987 171.624ZM203.277 172.548H191.839V173.71H196.795V178.092H198.237V173.71H203.263L203.277 172.548ZM214.854 165.45H213.412V174.48H214.854V165.45ZM209.674 171.316H206.496V167.648H209.674V171.316ZM211.074 166.486H205.082V172.478H211.074V166.486ZM208.05 176.566V173.654H206.594V177.728H215.218V176.566H208.05ZM221.979 171.33H218.899V167.676H221.979V171.33ZM223.393 166.514H217.471V172.492H223.393V166.514ZM220.355 173.794H218.899V177.84H227.411V176.664H220.355V173.794ZM226.907 169.188V165.422H225.465V174.69H226.907V170.378H228.699V169.188H226.907ZM234.054 168.684C234.054 167.676 234.866 167.018 235.986 167.018C237.092 167.018 237.89 167.676 237.89 168.684C237.89 169.692 237.092 170.364 235.986 170.364C234.866 170.364 234.054 169.692 234.054 168.684ZM239.29 168.684C239.29 167.018 237.89 165.842 235.986 165.842C234.068 165.842 232.654 167.018 232.654 168.684C232.654 170.35 234.068 171.526 235.986 171.526C237.89 171.526 239.29 170.35 239.29 168.684ZM235.65 175.628H242.37V172.366H234.208V173.5H240.942V174.578H234.236V177.924H242.79V176.776H235.65V175.628ZM242.37 168.026V165.422H240.928V171.82H242.37V169.216H244.148V168.026H242.37ZM253.835 167.858C253.835 169.37 253.835 171.162 253.345 173.64L254.801 173.794C255.291 171.176 255.291 169.426 255.291 167.858V166.612H246.289V167.788H253.835V167.858ZM250.811 175.236V170.784H249.355V175.236H245.099V176.426H256.523V175.236H250.811ZM270.978 165.45H269.536V172.632H270.978V165.45ZM264.16 167.326C265.28 167.326 266.106 168.04 266.106 169.118C266.106 170.21 265.28 170.91 264.16 170.91C263.04 170.91 262.214 170.21 262.214 169.118C262.214 168.04 263.04 167.326 264.16 167.326ZM264.16 172.1C266.092 172.1 267.506 170.882 267.506 169.118C267.506 167.354 266.092 166.136 264.16 166.136C262.228 166.136 260.8 167.354 260.8 169.118C260.8 170.882 262.228 172.1 264.16 172.1ZM269.634 173.178H268.22V173.738C268.22 174.69 267.688 175.88 266.568 176.636C265.462 175.936 264.972 174.802 264.972 173.738V173.178H263.572V173.738C263.572 174.97 262.732 176.272 261.122 176.846L261.822 177.91C262.998 177.476 263.81 176.664 264.272 175.67C264.664 176.692 265.406 177.56 266.596 178.022C267.744 177.546 268.5 176.636 268.906 175.642C269.34 176.664 270.166 177.476 271.384 177.91L272.098 176.846C270.446 176.314 269.634 175.04 269.634 173.738V173.178ZM283.311 169.062H276.073V165.884H274.631V170.238H283.311V169.062ZM275.989 174.074H274.547V177.798H283.381V176.636H275.989V174.074ZM273.147 171.75V172.912H284.627V171.75H273.147ZM296.045 171.386C294.113 170.77 293.063 169.3 293.063 167.732V167.494H295.709V166.332H288.919V167.494H291.607V167.746C291.607 169.468 290.501 171.092 288.513 171.778L289.241 172.912C290.753 172.394 291.817 171.316 292.377 169.972C292.923 171.148 293.931 172.058 295.345 172.506L296.045 171.386ZM294.421 176.944C292.657 176.944 291.635 176.496 291.635 175.684C291.635 174.858 292.657 174.424 294.421 174.424C296.185 174.424 297.207 174.858 297.207 175.684C297.207 176.496 296.185 176.944 294.421 176.944ZM294.421 173.29C291.817 173.29 290.207 174.172 290.207 175.684C290.207 177.182 291.817 178.078 294.421 178.078C297.025 178.078 298.635 177.182 298.635 175.684C298.635 174.172 297.025 173.29 294.421 173.29ZM298.495 168.516V165.436H297.053V172.996H298.495V169.706H300.287V168.516H298.495ZM312.186 171.414C309.694 170.994 307.664 169.118 307.664 167.158V166.206H306.138V167.158C306.138 169.104 304.108 170.994 301.602 171.414L302.218 172.618C304.276 172.212 306.068 170.952 306.908 169.272C307.72 170.952 309.512 172.212 311.584 172.618L312.186 171.414ZM307.608 175.32V172.366H306.166V175.32H301.224V176.51H312.676V175.32H307.608ZM323.916 168.516H316.72V166.934H323.79V165.772H315.292V169.678H323.916V168.516ZM316.622 175.768H323.818V172.632H315.166V173.738H322.404V174.718H315.194V177.952H324.182V176.832H316.622V175.768ZM313.836 170.546V171.708H325.274V170.546H313.836Z" fill="#585858"/>
<path d="M40.972 116.554C39.39 115.98 38.564 114.65 38.564 113.236V113.138H40.636V111.99H38.564V110.562H37.178V111.99H35.05V113.138H37.178V113.236C37.178 114.72 36.366 116.148 34.756 116.778L35.442 117.856C36.646 117.366 37.458 116.456 37.892 115.336C38.354 116.372 39.152 117.184 40.314 117.632L40.972 116.554ZM36.842 119.97H43.968V123.092H45.41V118.808H36.842V119.97ZM44.038 110.45V113.726H42.736V110.66H41.378V118.122H42.736V114.902H44.038V118.192H45.41V110.45H44.038ZM51.2414 115.602C53.4674 115.364 55.2034 114.468 55.8894 113.166C56.5614 114.468 58.2974 115.364 60.5234 115.602L61.0414 114.482C58.6894 114.244 57.0654 113.264 56.8694 112.144H60.5654V110.982H51.2274V112.144H54.8954C54.6854 113.264 53.0754 114.244 50.7374 114.482L51.2414 115.602ZM55.8614 121.972C53.9994 121.972 52.9774 121.608 52.9774 120.866C52.9774 120.138 53.9994 119.76 55.8614 119.76C57.7234 119.76 58.7594 120.138 58.7594 120.866C58.7594 121.608 57.7234 121.972 55.8614 121.972ZM55.8614 118.654C53.1454 118.654 51.5074 119.452 51.5074 120.866C51.5074 122.28 53.1454 123.078 55.8614 123.078C58.5914 123.078 60.2154 122.28 60.2154 120.866C60.2154 119.452 58.5914 118.654 55.8614 118.654ZM56.5894 116.624V114.93H55.1474V116.624H50.1634V117.786H61.6014V116.624H56.5894ZM71.4003 113.236H64.1483V116.792H73.1503V115.63H65.6043V114.314H72.8703V110.87H64.1203V112.032H71.4003V113.236ZM74.2283 117.912H62.7623V119.074H65.5903V123.092H67.0323V119.074H69.9583V123.092H71.4003V119.074H74.2423L74.2283 117.912ZM75.9913 111.766V112.942H80.4153C80.1213 115.854 78.4553 118.08 75.3613 119.662L76.1593 120.768C80.2893 118.682 81.8573 115.434 81.8573 111.766H75.9913ZM87.0793 115.42H85.1613V110.422H83.7193V123.064H85.1613V116.624H87.0793V115.42ZM92.7847 112.802H97.2227V111.626H91.3427V119.984H92.3787C94.6607 119.984 96.3687 119.914 98.2867 119.564L98.1327 118.374C96.3687 118.682 94.8287 118.766 92.7847 118.78V112.802ZM102.599 115.294H100.625V110.422H99.1827V123.092H100.625V116.484H102.599V115.294ZM105.006 114.174C105.006 113.082 105.832 112.368 106.952 112.368C108.086 112.368 108.912 113.082 108.912 114.174C108.912 115.28 108.086 115.98 106.952 115.98C105.832 115.98 105.006 115.28 105.006 114.174ZM110.326 114.174C110.326 112.396 108.884 111.164 106.952 111.164C105.034 111.164 103.592 112.396 103.592 114.174C103.592 115.952 105.034 117.198 106.952 117.198C108.884 117.198 110.326 115.952 110.326 114.174ZM109.234 121.93C107.47 121.93 106.448 121.482 106.448 120.656C106.448 119.816 107.47 119.368 109.234 119.368C110.998 119.368 112.02 119.816 112.02 120.656C112.02 121.482 110.998 121.93 109.234 121.93ZM109.234 118.22C106.644 118.22 105.02 119.13 105.02 120.656C105.02 122.168 106.644 123.078 109.234 123.078C111.838 123.078 113.448 122.168 113.448 120.656C113.448 119.13 111.838 118.22 109.234 118.22ZM115.058 113.348V112.158H113.308V110.422H111.866V117.87H113.308V116.078H115.058V114.888H113.308V113.348H115.058ZM123.513 111.878H120.503V110.422H119.061V111.878H116.051V113.026H123.513V111.878ZM118.095 116.008C118.095 115.21 118.781 114.734 119.775 114.734C120.783 114.734 121.469 115.21 121.469 116.008C121.469 116.806 120.783 117.282 119.775 117.282C118.781 117.282 118.095 116.806 118.095 116.008ZM122.841 116.008C122.841 114.58 121.595 113.614 119.775 113.614C117.969 113.614 116.709 114.58 116.709 116.008C116.709 117.45 117.969 118.402 119.775 118.402C121.595 118.402 122.841 117.45 122.841 116.008ZM119.355 119.186H117.899V122.84H126.411V121.664H119.355V119.186ZM125.907 114.468V110.436H124.465V119.914H125.907V115.658H127.699V114.468H125.907ZM140.026 114.384H134.398V113.138H140.026V114.384ZM141.454 110.744H140.026V112.032H134.398V110.744H132.97V115.532H141.454V110.744ZM142.938 117.716V116.554H131.472V117.716H136.47V119.004H132.76V120.152H140.082V123.078H141.524V119.004H137.912V117.716H142.938ZM147.733 111.696V112.872H152.059C152.003 113.572 151.891 114.23 151.723 114.846L147.089 115.14L147.285 116.386L151.289 115.994C150.547 117.548 149.217 118.864 147.005 119.97L147.789 121.09C152.381 118.78 153.487 115.476 153.487 111.696H147.733ZM158.667 115.42H156.749V110.422H155.307V123.064H156.749V116.624H158.667V115.42ZM161.9 113.124H163.174V118.794C162.74 118.822 162.32 118.836 161.9 118.85V113.124ZM164.49 113.124H165.428V111.962H159.674V113.124H160.584V118.878C160.164 118.878 159.772 118.878 159.422 118.878L159.59 120.068C161.186 120.068 163.79 120.012 165.764 119.62L165.666 118.57C165.302 118.626 164.896 118.668 164.49 118.71V113.124ZM166.576 115.154H165.078V116.428H166.576V122.448H167.934V110.716H166.576V115.154ZM169.054 110.436V123.078H170.44V110.436H169.054ZM177.714 112.592H183.734V116.344H177.714V112.592ZM181.452 120.348V117.492H185.148V111.444H176.3V117.492H180.01V120.348H175.026V121.524H186.478V120.348H181.452ZM193.337 110.702C190.579 110.702 188.829 111.612 188.829 113.124C188.829 114.622 190.579 115.546 193.337 115.546C196.095 115.546 197.845 114.622 197.845 113.124C197.845 111.612 196.095 110.702 193.337 110.702ZM193.337 111.822C195.213 111.822 196.347 112.284 196.347 113.124C196.347 113.95 195.213 114.412 193.337 114.412C191.461 114.412 190.313 113.95 190.313 113.124C190.313 112.284 191.461 111.822 193.337 111.822ZM188.983 118.696V122.924H197.663V118.696H188.983ZM196.249 119.844V121.776H190.411V119.844H196.249ZM187.611 116.47V117.618H199.049V116.47H187.611Z" fill="#585858"/>
<defs>
<filter id="filter0_d_1021:36070" x="51" y="23" width="271" height="83.2959" filterUnits="userSpaceOnUse" color-interpolation-filters="sRGB">
<feFlood flood-opacity="0" result="BackgroundImageFix"/>
<feColorMatrix in="SourceAlpha" type="matrix" values="0 0 0 0 0 0 0 0 0 0 0 0 0 0 0 0 0 0 127 0" result="hardAlpha"/>
<feOffset/>
<feGaussianBlur stdDeviation="8"/>
<feComposite in2="hardAlpha" operator="out"/>
<feColorMatrix type="matrix" values="0 0 0 0 0 0 0 0 0 0 0 0 0 0 0 0 0 0 0.1 0"/>
<feBlend mode="normal" in2="BackgroundImageFix" result="effect1_dropShadow_1021:36070"/>
<feBlend mode="normal" in="SourceGraphic" in2="effect1_dropShadow_1021:36070" result="shape"/>
</filter>
<filter id="filter1_d_1021:36070" x="105" y="133" width="251" height="83.2959" filterUnits="userSpaceOnUse" color-interpolation-filters="sRGB">
<feFlood flood-opacity="0" result="BackgroundImageFix"/>
<feColorMatrix in="SourceAlpha" type="matrix" values="0 0 0 0 0 0 0 0 0 0 0 0 0 0 0 0 0 0 127 0" result="hardAlpha"/>
<feOffset/>
<feGaussianBlur stdDeviation="8"/>
<feComposite in2="hardAlpha" operator="out"/>
<feColorMatrix type="matrix" values="0 0 0 0 0 0 0 0 0 0 0 0 0 0 0 0 0 0 0.1 0"/>
<feBlend mode="normal" in2="BackgroundImageFix" result="effect1_dropShadow_1021:36070"/>
<feBlend mode="normal" in="SourceGraphic" in2="effect1_dropShadow_1021:36070" result="shape"/>
</filter>
<filter id="filter2_d_1021:36070" x="4" y="78" width="226" height="83.2959" filterUnits="userSpaceOnUse" color-interpolation-filters="sRGB">
<feFlood flood-opacity="0" result="BackgroundImageFix"/>
<feColorMatrix in="SourceAlpha" type="matrix" values="0 0 0 0 0 0 0 0 0 0 0 0 0 0 0 0 0 0 127 0" result="hardAlpha"/>
<feOffset/>
<feGaussianBlur stdDeviation="8"/>
<feComposite in2="hardAlpha" operator="out"/>
<feColorMatrix type="matrix" values="0 0 0 0 0 0 0 0 0 0 0 0 0 0 0 0 0 0 0.1 0"/>
<feBlend mode="normal" in2="BackgroundImageFix" result="effect1_dropShadow_1021:36070"/>
<feBlend mode="normal" in="SourceGraphic" in2="effect1_dropShadow_1021:36070" result="shape"/>
</filter>
</defs>
</svg>
