<svg width="360" height="111" viewBox="0 0 360 111" fill="none" xmlns="http://www.w3.org/2000/svg">
<path d="M24.095 20.662C22.268 21.649 21.323 23.119 21.323 25.114C21.323 26.668 21.932 27.55 23.045 27.55C23.864 27.55 24.473 26.983 24.473 26.059C24.473 25.177 23.801 24.673 23.045 24.673C22.961 24.673 22.898 24.673 22.814 24.694C22.835 23.35 23.486 22.51 24.725 21.754L24.095 20.662ZM39.2749 20.263V30.385H41.9839V26.353H44.4199V24.022H41.9839V20.263H39.2749ZM37.2379 27.172H30.9169C30.7279 27.172 30.6439 27.151 30.5389 27.046L30.0979 26.563C29.9929 26.437 29.9509 26.374 29.9509 26.143V22.783H36.5029V20.494H27.9769C27.4729 20.494 27.2209 20.767 27.2209 21.292V26.395C27.2209 27.214 27.3679 27.571 27.8089 28.054L28.5649 28.831C29.0059 29.314 29.3839 29.482 30.2449 29.482H37.2379V27.172ZM32.7859 31.057C29.3839 31.057 27.8299 32.569 27.8299 34.816C27.8299 37.042 29.3629 38.617 32.7859 38.617H37.5109C40.9129 38.617 42.4669 37.042 42.4669 34.816C42.4669 32.569 40.9129 31.057 37.5109 31.057H32.7859ZM32.5759 36.307C31.0639 36.307 30.4969 35.698 30.4969 34.816C30.4969 33.934 31.0639 33.346 32.5759 33.346H37.7419C39.2539 33.346 39.8209 33.934 39.8209 34.816C39.8209 35.698 39.2539 36.307 37.7419 36.307H32.5759ZM51.4792 31.309C48.0772 31.309 46.5232 32.821 46.5232 34.942C46.5232 37.063 48.0562 38.617 51.4792 38.617H56.2042C59.6062 38.617 61.1602 37.063 61.1602 34.942C61.1602 32.821 59.6062 31.309 56.2042 31.309H51.4792ZM56.0572 22.783V20.494H45.6622V22.783H49.4422V23.749C49.4422 24.463 49.3582 24.841 48.9172 25.282C47.9512 26.248 46.4392 27.508 45.1582 28.453L46.6282 30.259C47.8882 29.314 49.6732 27.907 50.5552 26.983C50.7022 26.836 50.8282 26.668 50.8912 26.458C50.9542 26.668 51.1222 26.836 51.2692 26.983C52.1722 27.886 53.8102 29.167 55.1332 30.091L56.5192 28.264C55.2802 27.424 53.7262 26.206 52.8022 25.303C52.3612 24.904 52.2982 24.463 52.2982 23.749V22.783H56.0572ZM57.9682 20.263V30.637H60.6772V26.521H63.1132V24.19H60.6772V20.263H57.9682ZM51.2692 36.307C49.7572 36.307 49.1902 35.74 49.1902 34.942C49.1902 34.144 49.7572 33.598 51.2692 33.598H56.4352C57.9472 33.598 58.5142 34.144 58.5142 34.942C58.5142 35.74 57.9472 36.307 56.4352 36.307H51.2692ZM79.1604 31.057C79.6644 31.057 79.9374 30.763 79.9374 30.238V21.502C79.9374 20.998 79.6644 20.725 79.1604 20.725H65.9724C65.4684 20.725 65.1954 20.998 65.1954 21.502V27.466C65.1954 28.369 65.3214 28.663 65.8884 29.251L66.8334 30.259C67.4634 30.91 67.7574 31.057 68.5344 31.057H71.3064V35.404H64.5654V37.756H80.7144V35.404H74.0154V31.057H79.1604ZM69.2904 28.663C69.0594 28.663 68.9964 28.6 68.8284 28.453L68.1354 27.739C67.9674 27.55 67.9254 27.403 67.9254 27.151V23.077H77.2284V28.663H69.2904ZM95.3547 20.263V38.26H98.0637V29.356H100.5V27.004H98.0637V20.263H95.3547ZM88.0257 20.221C84.9387 20.221 83.3007 22.342 83.3007 25.534V31.666C83.3007 34.837 84.9177 36.937 88.0257 36.937C91.1127 36.937 92.7717 34.837 92.7717 31.666V25.534C92.7717 22.342 91.1127 20.221 88.0257 20.221ZM90.1047 31.666C90.1047 33.724 89.2017 34.606 88.0257 34.606C86.8287 34.606 85.9887 33.724 85.9887 31.666V25.534C85.9887 23.476 86.8497 22.594 88.0257 22.594C89.2017 22.594 90.1047 23.476 90.1047 25.534V31.666ZM102.75 27.403C104.598 26.395 105.543 24.946 105.543 22.951C105.543 21.397 104.913 20.515 103.821 20.515C102.981 20.515 102.414 21.082 102.414 22.006C102.414 22.867 103.065 23.371 103.821 23.371C103.884 23.371 103.968 23.371 104.031 23.35C104.01 24.715 103.38 25.534 102.141 26.311L102.75 27.403ZM111.777 32.548C110.475 32.548 109.677 30.847 109.677 27.844C109.677 24.841 110.475 23.161 111.777 23.161C113.079 23.161 113.877 24.841 113.877 27.844C113.877 30.847 113.079 32.548 111.777 32.548ZM117.846 26.836H115.809C115.578 23.287 114.045 21.124 111.777 21.124C109.32 21.124 107.703 23.686 107.703 27.844C107.703 32.002 109.32 34.585 111.777 34.585C114.087 34.585 115.641 32.317 115.83 28.621H117.846V37.714H119.862V20.011H117.846V26.836ZM121.647 19.654V38.596H123.705V19.654H121.647ZM134.405 25.849C134.405 23.791 136.442 22.489 139.277 22.489C142.091 22.489 144.128 23.791 144.128 25.849C144.128 27.907 142.091 29.209 139.277 29.209C136.442 29.209 134.405 27.907 134.405 25.849ZM140.348 34.522V30.91C143.813 30.595 146.249 28.663 146.249 25.849C146.249 22.762 143.288 20.767 139.277 20.767C135.245 20.767 132.305 22.762 132.305 25.849C132.305 28.663 134.72 30.574 138.185 30.889V34.522H130.709V36.286H147.887V34.522H140.348ZM165.231 19.675H163.068V33.535H165.231V19.675ZM161.094 28.831C158.175 27.823 156.516 25.282 156.516 22.594V20.704H154.311V22.594C154.311 25.366 152.652 28.075 149.67 29.167L150.783 30.91C153.009 30.07 154.584 28.348 155.445 26.227C156.264 28.201 157.818 29.755 159.981 30.553L161.094 28.831ZM155.025 36.496V32.233H152.841V38.26H165.777V36.496H155.025ZM182.051 29.272H184.214V19.654H182.051V23.959H178.292V25.723H182.051V29.272ZM169.787 20.473V22.216H175.814C175.457 24.883 173.105 26.962 168.737 27.991L169.514 29.692C174.995 28.348 178.103 25.303 178.103 20.473H169.787ZM174.071 36.706V34.963H184.214V30.028H171.866V31.771H182.051V33.346H171.908V38.449H184.739V36.706H174.071ZM202.852 21.355H198.547V19.57H196.363V21.355H192.016V22.951H202.852V21.355ZM194.956 26.542C194.956 25.639 195.922 25.093 197.434 25.093C198.946 25.093 199.912 25.639 199.912 26.542C199.912 27.424 198.946 27.949 197.434 27.949C195.922 27.949 194.956 27.424 194.956 26.542ZM203.377 30.112C201.844 30.343 200.185 30.469 198.547 30.574V29.377C200.647 29.125 201.949 28.075 201.949 26.542C201.949 24.736 200.164 23.623 197.434 23.623C194.704 23.623 192.919 24.736 192.919 26.542C192.919 28.096 194.242 29.125 196.363 29.377V30.679C194.62 30.721 192.94 30.742 191.533 30.742L191.785 32.464C195.061 32.443 199.576 32.359 203.545 31.603L203.377 30.112ZM196.447 33.535H194.284V38.26H207.199V36.496H196.447V33.535ZM206.548 26.08V19.633H204.385V34.48H206.548V27.865H209.152V26.08H206.548ZM212.909 25.303C212.909 23.644 214.127 22.552 215.807 22.552C217.445 22.552 218.663 23.644 218.663 25.303C218.663 26.941 217.445 28.033 215.807 28.033C214.127 28.033 212.909 26.941 212.909 25.303ZM224.144 24.022V26.584H220.532C220.658 26.185 220.721 25.765 220.721 25.303C220.721 24.841 220.658 24.421 220.553 24.022H224.144ZM224.144 28.327V30.826H226.307V19.633H224.144V22.258H219.566C218.684 21.313 217.361 20.725 215.807 20.725C212.972 20.725 210.851 22.615 210.851 25.303C210.851 27.97 212.972 29.86 215.807 29.86C217.34 29.86 218.684 29.293 219.566 28.327H224.144ZM219.986 36.916C217.298 36.916 215.723 36.223 215.723 34.921C215.723 33.661 217.298 32.947 219.986 32.947C222.695 32.947 224.249 33.661 224.249 34.921C224.249 36.223 222.695 36.916 219.986 36.916ZM219.986 31.246C216.038 31.246 213.602 32.611 213.602 34.921C213.602 37.252 216.038 38.617 219.986 38.617C223.934 38.617 226.391 37.252 226.391 34.921C226.391 32.611 223.934 31.246 219.986 31.246ZM234.118 32.569C232.837 32.569 231.934 31.54 231.934 29.965C231.934 28.39 232.837 27.34 234.118 27.34C235.399 27.34 236.302 28.39 236.302 29.965C236.302 31.54 235.399 32.569 234.118 32.569ZM234.118 25.555C231.724 25.555 230.002 27.34 230.002 29.965C230.002 32.569 231.724 34.375 234.118 34.375C236.512 34.375 238.234 32.569 238.234 29.965C238.234 27.34 236.512 25.555 234.118 25.555ZM235.189 20.2H233.047V22.741H229.456V24.484H238.738V22.741H235.189V20.2ZM243.589 19.654V27.508H241.573V20.053H239.557V37.735H241.573V29.293H243.589V38.617H245.647V19.654H243.589ZM254.57 30.406C255.305 30.574 256.124 30.658 256.964 30.658C257.804 30.658 258.623 30.574 259.358 30.385V34.522H254.57V30.406ZM256.964 22.447C259.82 22.447 261.815 23.707 261.815 25.702C261.815 27.718 259.82 28.978 256.964 28.978C254.087 28.978 252.092 27.718 252.092 25.702C252.092 23.707 254.087 22.447 256.964 22.447ZM261.521 34.522V29.587C263.033 28.726 263.936 27.382 263.936 25.702C263.936 22.678 260.996 20.746 256.964 20.746C252.911 20.746 249.992 22.678 249.992 25.702C249.992 27.382 250.895 28.747 252.407 29.587V34.522H248.396V36.286H265.574V34.522H261.521ZM269.016 32.065H270.633L270.969 23.665L271.053 21.187H268.617L268.68 23.665L269.016 32.065ZM269.814 37.273C270.738 37.273 271.452 36.58 271.452 35.593C271.452 34.606 270.738 33.871 269.814 33.871C268.911 33.871 268.218 34.606 268.218 35.593C268.218 36.58 268.911 37.273 269.814 37.273Z" fill="#333333"/>
<path d="M22.73 61.33C21.575 62.005 20.945 62.965 20.945 64.3C20.945 65.26 21.335 65.8 21.995 65.8C22.52 65.8 22.88 65.47 22.88 64.885C22.88 64.345 22.46 64.045 21.995 64.045C21.935 64.045 21.89 64.045 21.845 64.06C21.86 63.1 22.295 62.53 23.12 61.975L22.73 61.33ZM32.4698 66.115C30.6998 66.49 29.1548 66.58 26.4848 66.58V62.68H31.2098V61.69H25.2698V67.585H26.3198C29.1548 67.585 30.7598 67.495 32.6048 67.12L32.4698 66.115ZM30.8348 73.105C28.8398 73.105 27.6098 72.505 27.6098 71.515C27.6098 70.525 28.8398 69.925 30.8348 69.925C32.8148 69.925 34.0448 70.525 34.0448 71.515C34.0448 72.505 32.8148 73.105 30.8348 73.105ZM30.8348 68.935C28.1048 68.935 26.3948 69.895 26.3948 71.515C26.3948 73.135 28.1048 74.095 30.8348 74.095C33.5498 74.095 35.2598 73.135 35.2598 71.515C35.2598 69.895 33.5498 68.935 30.8348 68.935ZM35.1248 64.15V60.655H33.8798V68.665H35.1248V65.17H37.1048V64.15H35.1248ZM45.9686 67.165C43.9886 66.505 42.7136 64.93 42.7136 63.175V62.65H45.6836V61.66H38.4686V62.65H41.4836V63.175C41.4836 65.11 40.1336 66.85 38.1086 67.555L38.7386 68.53C40.3436 67.96 41.5586 66.76 42.1286 65.23C42.6986 66.565 43.8536 67.63 45.3836 68.125L45.9686 67.165ZM44.3336 73.12C42.3236 73.12 41.1236 72.565 41.1236 71.605C41.1236 70.66 42.3236 70.105 44.3336 70.105C46.3136 70.105 47.5286 70.66 47.5286 71.605C47.5286 72.565 46.3136 73.12 44.3336 73.12ZM44.3336 69.13C41.5736 69.13 39.8936 70.045 39.8936 71.605C39.8936 73.18 41.5736 74.095 44.3336 74.095C47.0636 74.095 48.7586 73.18 48.7586 71.605C48.7586 70.045 47.0636 69.13 44.3336 69.13ZM48.6086 64.06V60.67H47.3786V68.785H48.6086V65.095H50.6036V64.06H48.6086ZM54.2925 62.755H61.1775V67.12H54.2925V62.755ZM58.3725 71.365V68.095H62.3775V61.78H53.1075V68.095H57.1275V71.365H51.6675V72.385H63.8625V71.365H58.3725ZM68.7513 69.985C67.4463 69.985 66.5313 68.575 66.5313 66.385C66.5313 64.21 67.4463 62.8 68.7513 62.8C70.0413 62.8 70.9563 64.21 70.9563 66.385C70.9563 68.575 70.0413 69.985 68.7513 69.985ZM68.7513 61.69C66.7713 61.69 65.3613 63.52 65.3613 66.385C65.3613 69.25 66.7713 71.08 68.7513 71.08C70.7313 71.08 72.1263 69.25 72.1263 66.385C72.1263 63.52 70.7313 61.69 68.7513 61.69ZM77.7363 66.025H75.5163V60.67H74.2863V74.11H75.5163V67.06H77.7363V66.025ZM79.3101 65.77C80.4651 65.095 81.0951 64.135 81.0951 62.8C81.0951 61.84 80.6901 61.285 80.0301 61.285C79.5201 61.285 79.1601 61.63 79.1601 62.2C79.1601 62.755 79.5801 63.055 80.0301 63.055C80.0901 63.055 80.1351 63.055 80.1801 63.04C80.1651 64 79.7451 64.555 78.9201 65.125L79.3101 65.77ZM93.3249 64.705H85.4049V61.15H84.1749V65.71H93.3249V64.705ZM85.3149 69.85H84.0849V73.78H93.3999V72.775H85.3149V69.85ZM82.5249 67.51V68.5H94.7199V67.51H82.5249ZM100.848 61.96H99.6332V70.705H100.698C102.753 70.705 104.808 70.555 107.103 70.09L106.953 69.07C104.778 69.505 102.783 69.67 100.848 69.67V61.96ZM111.603 66.025H109.443V60.655H108.213V74.11H109.443V67.045H111.603V66.025ZM118.127 67.105H114.347V62.845H118.127V67.105ZM119.327 61.855H113.147V68.08H119.327V61.855ZM115.892 69.58H114.662V73.81H123.632V72.805H115.892V69.58ZM123.032 64.75V60.64H121.802V70.495H123.032V65.785H125.027V64.75H123.032ZM130.456 61.645C128.371 61.645 126.856 62.92 126.856 64.81C126.856 66.685 128.371 67.975 130.456 67.975C132.556 67.975 134.056 66.685 134.056 64.81C134.056 62.92 132.556 61.645 130.456 61.645ZM130.456 62.695C131.851 62.695 132.856 63.55 132.856 64.81C132.856 66.055 131.851 66.925 130.456 66.925C129.061 66.925 128.056 66.055 128.056 64.81C128.056 63.55 129.061 62.695 130.456 62.695ZM135.826 60.655V74.14H137.056V60.655H135.826ZM126.331 71.185C128.761 71.185 132.016 71.17 135.046 70.6L134.941 69.685C132.001 70.135 128.626 70.15 126.181 70.15L126.331 71.185ZM144.324 66.88H147.519V65.905H144.324V63.265H148.149V62.26H143.139V70.87H144.009C146.124 70.87 147.384 70.825 148.914 70.525L148.809 69.52C147.399 69.805 146.214 69.865 144.324 69.865V66.88ZM150.189 65.755H148.239V66.76H150.189V73.42H151.344V60.985H150.189V65.755ZM152.889 60.64V74.095H154.059V60.64H152.889ZM157.883 62.995H161.648V69.7H157.883V62.995ZM156.683 70.69H162.848V62.005H156.683V70.69ZM168.713 66.025H166.493V60.67H165.263V74.11H166.493V67.06H168.713V66.025ZM179.062 63.01H171.202V65.89H180.517V65.005H172.417V63.85H180.277V61.045H171.172V61.915H179.062V63.01ZM172.342 71.8H180.322V68.935H171.097V69.82H179.107V70.945H171.127V73.93H180.742V73.045H172.342V71.8ZM169.642 66.91V67.84H181.837V66.91H169.642ZM191.73 67.105H187.95V62.845H191.73V67.105ZM192.93 61.855H186.75V68.08H192.93V61.855ZM189.495 69.58H188.265V73.81H197.235V72.805H189.495V69.58ZM196.635 64.75V60.64H195.405V70.495H196.635V65.785H198.63V64.75H196.635ZM210.419 64.195H202.544V62.095H210.284V61.105H201.314V65.185H210.419V64.195ZM202.394 71.605H210.299V68.44H201.149V69.4H209.084V70.69H201.194V73.945H210.704V72.985H202.394V71.605ZM199.694 66.265V67.27H211.874V66.265H199.694ZM222.688 63.34C222.688 64.96 222.688 66.85 222.178 69.43L223.408 69.565C223.918 66.85 223.918 65.005 223.918 63.34V62.005H214.483V63.01H222.688V63.34ZM219.163 71.215V66.4H217.933V71.215H213.208V72.22H225.373V71.215H219.163ZM227.022 75.85C228.372 75.28 229.212 74.155 229.212 72.715C229.212 71.71 228.777 71.095 228.057 71.095C227.502 71.095 227.022 71.47 227.022 72.055C227.022 72.685 227.502 73.015 228.027 73.015C228.087 73.015 228.132 73.015 228.192 73C228.177 73.915 227.622 74.635 226.692 75.04L227.022 75.85ZM23.42 86.755H30.305V91.12H23.42V86.755ZM27.5 95.365V92.095H31.505V85.78H22.235V92.095H26.255V95.365H20.795V96.385H32.99V95.365H27.5ZM37.8788 93.985C36.5738 93.985 35.6588 92.575 35.6588 90.385C35.6588 88.21 36.5738 86.8 37.8788 86.8C39.1688 86.8 40.0838 88.21 40.0838 90.385C40.0838 92.575 39.1688 93.985 37.8788 93.985ZM37.8788 85.69C35.8988 85.69 34.4888 87.52 34.4888 90.385C34.4888 93.25 35.8988 95.08 37.8788 95.08C39.8588 95.08 41.2538 93.25 41.2538 90.385C41.2538 87.52 39.8588 85.69 37.8788 85.69ZM46.8638 90.025H44.6438V84.67H43.4138V98.11H44.6438V91.06H46.8638V90.025ZM58.4577 89.665H50.7177V86.455H58.2927V85.45H49.4577V90.655H58.4577V89.665ZM59.9877 92.41H47.7927V93.415H53.2377V98.05H54.4677V93.415H59.9877V92.41ZM70.7865 87.34C70.7865 88.96 70.7865 90.85 70.2765 93.43L71.5065 93.565C72.0165 90.85 72.0165 89.005 72.0165 87.34V86.005H62.5815V87.01H70.7865V87.34ZM67.2615 95.215V90.4H66.0315V95.215H61.3065V96.22H73.4715V95.215H67.2615ZM88.8848 84.67H87.6548V92.14H88.8848V84.67ZM85.9748 90.64C83.9948 89.995 82.5848 88.33 82.5848 86.47V85.15H81.3548V86.47C81.3548 88.405 79.9598 90.19 77.9198 90.895L78.5498 91.87C80.1548 91.3 81.3998 90.07 81.9848 88.525C82.5998 89.965 83.8298 91.075 85.3898 91.615L85.9748 90.64ZM83.0498 93.94H85.8998V96.94H83.0498V93.94ZM87.1148 96.94V93.94H88.9598V92.95H79.9748V93.94H81.8348V96.94H79.8548V97.93H89.1098V96.94H87.1148ZM97.4186 86.11C99.5336 86.11 100.884 86.74 100.884 87.805C100.884 88.87 99.5336 89.485 97.4186 89.485C95.3036 89.485 93.9536 88.87 93.9536 87.805C93.9536 86.74 95.3036 86.11 97.4186 86.11ZM97.4186 90.475C100.299 90.475 102.144 89.485 102.144 87.805C102.144 86.125 100.299 85.12 97.4186 85.12C94.5386 85.12 92.6936 86.125 92.6936 87.805C92.6936 89.485 94.5386 90.475 97.4186 90.475ZM94.1336 93.91H92.9036V97.81H102.159V96.805H94.1336V93.91ZM91.3286 91.735V92.725H103.494V91.735H91.3286ZM113.987 97.15C111.857 97.15 110.612 96.625 110.612 95.68C110.612 94.735 111.857 94.21 113.987 94.21C116.087 94.21 117.332 94.735 117.332 95.68C117.332 96.625 116.087 97.15 113.987 97.15ZM113.987 93.25C111.107 93.25 109.367 94.12 109.367 95.68C109.367 97.24 111.107 98.11 113.987 98.11C116.837 98.11 118.577 97.24 118.577 95.68C118.577 94.12 116.837 93.25 113.987 93.25ZM114.602 91.3V89.74H118.652V88.75H110.657V86.26H118.562V85.27H109.427V89.74H113.372V91.3H107.897V92.29H120.077V91.3H114.602ZM123.271 86.095H122.056V94.705H122.911C124.531 94.705 126.031 94.615 127.786 94.255L127.621 93.22C126.061 93.535 124.711 93.625 123.271 93.64V86.095ZM128.791 89.17H125.791V90.19H128.791V97.435H129.961V84.985H128.791V89.17ZM131.656 84.64V98.11H132.826V84.64H131.656ZM145.749 91.165C143.769 90.505 142.494 88.93 142.494 87.175V86.65H145.464V85.66H138.249V86.65H141.264V87.175C141.264 89.11 139.914 90.85 137.889 91.555L138.519 92.53C140.124 91.96 141.339 90.76 141.909 89.23C142.479 90.565 143.634 91.63 145.164 92.125L145.749 91.165ZM144.114 97.12C142.104 97.12 140.904 96.565 140.904 95.605C140.904 94.66 142.104 94.105 144.114 94.105C146.094 94.105 147.309 94.66 147.309 95.605C147.309 96.565 146.094 97.12 144.114 97.12ZM144.114 93.13C141.354 93.13 139.674 94.045 139.674 95.605C139.674 97.18 141.354 98.095 144.114 98.095C146.844 98.095 148.539 97.18 148.539 95.605C148.539 94.045 146.844 93.13 144.114 93.13ZM148.389 88.06V84.67H147.159V92.785H148.389V89.095H150.384V88.06H148.389ZM163.058 91.225C160.703 90.805 158.138 88.825 158.138 86.59V85.555H156.848V86.59C156.848 88.825 154.298 90.805 151.943 91.225L152.453 92.245C154.523 91.81 156.623 90.415 157.493 88.495C158.363 90.415 160.478 91.81 162.533 92.245L163.058 91.225ZM158.108 95.35V92.08H156.878V95.35H151.448V96.355H163.658V95.35H158.108ZM175.672 88.195H167.797V86.095H175.537V85.105H166.567V89.185H175.672V88.195ZM167.647 95.605H175.552V92.44H166.402V93.4H174.337V94.69H166.447V97.945H175.957V96.985H167.647V95.605ZM164.947 90.265V91.27H177.127V90.265H164.947ZM184.521 85.81C186.726 85.81 187.986 86.32 187.986 87.22C187.986 88.12 186.726 88.63 184.521 88.63C182.316 88.63 181.056 88.12 181.056 87.22C181.056 86.32 182.316 85.81 184.521 85.81ZM184.521 89.545C187.476 89.545 189.246 88.735 189.246 87.22C189.246 85.705 187.476 84.88 184.521 84.88C181.566 84.88 179.796 85.705 179.796 87.22C179.796 88.735 181.566 89.545 184.521 89.545ZM181.146 95.635H189.051V92.605H179.901V93.535H187.836V94.735H179.946V97.96H189.456V97H181.146V95.635ZM178.431 90.46V91.45H190.611V90.46H178.431ZM199.649 87.04H202.709V86.035H195.374V87.04H198.419V88.6C198.419 90.985 196.814 93.535 194.894 94.48L195.614 95.455C197.144 94.645 198.449 92.92 199.034 90.94C199.649 92.8 200.939 94.405 202.439 95.17L203.174 94.21C201.224 93.28 199.649 90.835 199.649 88.6V87.04ZM204.854 84.655V89.545H201.944V90.55H204.854V98.125H206.084V84.655H204.854ZM216.298 91.165C214.318 90.505 213.043 88.93 213.043 87.175V86.65H216.013V85.66H208.798V86.65H211.813V87.175C211.813 89.11 210.463 90.85 208.438 91.555L209.068 92.53C210.673 91.96 211.888 90.76 212.458 89.23C213.028 90.565 214.183 91.63 215.713 92.125L216.298 91.165ZM214.663 97.12C212.653 97.12 211.453 96.565 211.453 95.605C211.453 94.66 212.653 94.105 214.663 94.105C216.643 94.105 217.858 94.66 217.858 95.605C217.858 96.565 216.643 97.12 214.663 97.12ZM214.663 93.13C211.903 93.13 210.223 94.045 210.223 95.605C210.223 97.18 211.903 98.095 214.663 98.095C217.393 98.095 219.088 97.18 219.088 95.605C219.088 94.045 217.393 93.13 214.663 93.13ZM218.938 88.06V84.67H217.708V92.785H218.938V89.095H220.933V88.06H218.938ZM225.942 94.09C224.727 94.09 223.842 93.22 223.842 92.02C223.842 90.805 224.727 89.935 225.942 89.935C227.172 89.935 228.057 90.805 228.057 92.02C228.057 93.22 227.172 94.09 225.942 94.09ZM225.942 88.915C224.052 88.915 222.687 90.205 222.687 92.02C222.687 93.85 224.052 95.11 225.942 95.11C227.862 95.11 229.227 93.85 229.227 92.02C229.227 90.205 227.862 88.915 225.942 88.915ZM226.542 84.82H225.312V86.815H221.922V87.805H229.857V86.815H226.542V84.82ZM234.567 90.19H232.362V84.67H231.132V98.11H232.362V91.225H234.567V90.19ZM246.28 88.705H238.36V85.15H237.13V89.71H246.28V88.705ZM238.27 93.85H237.04V97.78H246.355V96.775H238.27V93.85ZM235.48 91.51V92.5H247.675V91.51H235.48ZM256.759 85.81H255.529V88.225C255.529 90.715 253.999 93.31 252.049 94.285L252.799 95.26C254.314 94.45 255.559 92.755 256.144 90.76C256.759 92.65 257.989 94.255 259.519 95.02L260.239 94.045C258.289 93.115 256.759 90.67 256.759 88.225V85.81ZM261.904 84.655V89.215H258.784V90.22H261.904V98.125H263.134V84.655H261.904ZM275.328 84.655V98.125H276.558V84.655H275.328ZM266.313 85.795V94.87H272.643V85.795H271.428V89.35H267.528V85.795H266.313ZM267.528 90.325H271.428V93.865H267.528V90.325ZM290.641 91.42C288.286 90.97 285.736 88.93 285.736 86.635V85.6H284.446V86.635C284.446 88.93 281.911 90.955 279.556 91.42L280.111 92.44C282.136 91.96 284.236 90.52 285.091 88.555C285.946 90.535 288.046 91.975 290.086 92.44L290.641 91.42ZM279.046 95.29V96.31H291.241V95.29H279.046ZM298.335 92.005C298.41 91.525 298.455 91.03 298.455 90.46C298.455 89.89 298.41 89.395 298.335 88.915H300.165V92.005H298.335ZM295.575 94.015C294.51 94.015 293.82 92.65 293.82 90.46C293.82 88.285 294.51 86.92 295.575 86.92C296.655 86.92 297.33 88.285 297.33 90.46C297.33 92.65 296.655 94.015 295.575 94.015ZM300.165 87.91H298.08C297.615 86.56 296.745 85.78 295.575 85.78C293.835 85.78 292.71 87.58 292.71 90.46C292.71 93.355 293.835 95.155 295.575 95.155C296.745 95.155 297.6 94.375 298.08 93.025H300.165V97.45H301.335V84.955H300.165V87.91ZM302.805 84.655V98.11H303.975V84.655H302.805ZM310.259 92.2C310.814 92.335 311.459 92.41 312.119 92.41C312.794 92.41 313.439 92.335 314.009 92.2V95.365H310.259V92.2ZM312.119 86.47C314.279 86.47 315.839 87.46 315.839 88.96C315.839 90.46 314.279 91.45 312.119 91.45C309.959 91.45 308.414 90.46 308.414 88.96C308.414 87.46 309.959 86.47 312.119 86.47ZM315.239 95.365V91.72C316.349 91.135 317.009 90.175 317.009 88.96C317.009 86.86 314.984 85.51 312.119 85.51C309.269 85.51 307.229 86.86 307.229 88.96C307.229 90.175 307.904 91.15 309.029 91.735V95.365H306.029V96.385H318.254V95.365H315.239ZM320.833 97.195C321.373 97.195 321.823 96.775 321.823 96.16C321.823 95.545 321.373 95.095 320.833 95.095C320.293 95.095 319.843 95.545 319.843 96.16C319.843 96.775 320.293 97.195 320.833 97.195Z" fill="#767676"/>
</svg>
