<svg width="34" height="34" viewBox="0 0 34 34" fill="none" xmlns="http://www.w3.org/2000/svg">
<path d="M23.731 16.1861H9.4135C9.02778 16.1861 8.71509 16.4988 8.71509 16.8845V25.9639C8.71509 26.3496 9.02778 26.6623 9.4135 26.6623H23.731C24.1167 26.6623 24.4294 26.3496 24.4294 25.9639V16.8845C24.4294 16.4988 24.1167 16.1861 23.731 16.1861Z" stroke="#585858" stroke-width="1.5" stroke-miterlimit="10" stroke-linecap="round"/>
<path d="M16.5709 7.14277C17.6545 7.14277 18.6938 7.57323 19.46 8.33945C20.2262 9.10567 20.6567 10.1449 20.6567 11.2285V16.1348H12.4678V11.2285C12.4678 10.6905 12.574 10.1577 12.7804 9.6609C12.9869 9.16406 13.2894 8.71288 13.6706 8.33326C14.0519 7.95363 14.5043 7.65305 15.002 7.44875C15.4998 7.24445 16.0329 7.14047 16.5709 7.14277V7.14277Z" stroke="#585858" stroke-width="1.5" stroke-miterlimit="10" stroke-linecap="round"/>
</svg>
