<svg width="64" height="21" viewBox="0 0 64 21" fill="none" xmlns="http://www.w3.org/2000/svg">
<g clip-path="url(#clip0_766:69803)">
<path d="M11.6813 10.2327C11.6813 10.2868 11.6595 10.3387 11.6207 10.377C11.5818 10.4152 11.5291 10.4367 11.4742 10.4367H5.7088C5.46503 10.4697 5.21674 10.4408 4.98747 10.3528C4.7582 10.2648 4.55555 10.1206 4.39872 9.93377L3.80626 9.34068C3.63473 9.17657 3.5025 8.97689 3.41918 8.7561C3.33586 8.53531 3.30355 8.299 3.32461 8.06437V4.1452C3.32461 3.7419 3.5221 3.53311 3.91224 3.53311H10.93C10.9569 3.53248 10.9837 3.53716 11.0088 3.54689C11.0339 3.55662 11.0568 3.57119 11.0761 3.58975C11.0954 3.60832 11.1108 3.63054 11.1212 3.65503C11.1317 3.67952 11.1371 3.70584 11.1371 3.73241V5.0894C11.1371 5.11598 11.1317 5.14229 11.1212 5.16678C11.1108 5.19127 11.0954 5.21343 11.0761 5.232C11.0568 5.25057 11.0339 5.26519 11.0088 5.27492C10.9837 5.28465 10.9569 5.28933 10.93 5.2887H5.45351V7.86982C5.44655 7.92872 5.45335 7.98841 5.47339 8.04433C5.49342 8.10025 5.52618 8.15094 5.56914 8.19249L5.91109 8.56728C5.94906 8.60472 5.99545 8.63281 6.0465 8.6493C6.09754 8.66578 6.15183 8.67024 6.20492 8.66221H11.4887C11.5156 8.66158 11.5425 8.66627 11.5676 8.676C11.5927 8.68573 11.6155 8.70029 11.6348 8.71886C11.6541 8.73743 11.6695 8.75958 11.6799 8.78408C11.6904 8.80857 11.6958 8.83488 11.6958 8.86146L11.6813 10.2327ZM11.8933 11.6561C14.5472 11.6561 15.7465 12.8186 15.7465 14.541C15.7465 16.2633 14.5327 17.4637 11.8933 17.4637H8.20859C5.54023 17.4637 4.35536 16.2538 4.35536 14.541C4.35536 12.8281 5.56913 11.6561 8.20859 11.6561H11.8933ZM12.0763 15.6892C13.2515 15.6892 13.6947 15.2147 13.6947 14.541C13.6947 13.8672 13.2515 13.4117 12.0763 13.4117H8.04482C6.86958 13.4117 6.42647 13.8862 6.42647 14.541C6.42647 15.1957 6.86958 15.6892 8.04482 15.6892H12.0763ZM15.3804 3.56635V6.25184H17.0758C17.1028 6.25121 17.1297 6.2559 17.1548 6.26563C17.1799 6.27536 17.2027 6.28998 17.222 6.30855C17.2413 6.32711 17.2566 6.34927 17.2671 6.37376C17.2776 6.39825 17.283 6.42457 17.283 6.45114V7.84138C17.283 7.86795 17.2776 7.89421 17.2671 7.9187C17.2566 7.94319 17.2413 7.96541 17.222 7.98398C17.2027 8.00255 17.1799 8.01711 17.1548 8.02684C17.1297 8.03657 17.1028 8.04126 17.0758 8.04062H15.3804V10.9349C15.3811 10.9615 15.3763 10.9879 15.3664 11.0126C15.3566 11.0374 15.3418 11.0599 15.3229 11.0789C15.3041 11.0979 15.2815 11.113 15.2567 11.1233C15.2318 11.1336 15.2051 11.139 15.1781 11.139H13.4731C13.4461 11.139 13.4194 11.1336 13.3945 11.1233C13.3697 11.113 13.3471 11.0979 13.3283 11.0789C13.3094 11.0599 13.2947 11.0374 13.2848 11.0126C13.2749 10.9879 13.2702 10.9615 13.2708 10.9349V3.56635C13.2702 3.53979 13.2749 3.51335 13.2848 3.48863C13.2947 3.4639 13.3094 3.44138 13.3283 3.42237C13.3471 3.40336 13.3697 3.38825 13.3945 3.37794C13.4194 3.36763 13.4461 3.3623 13.4731 3.3623H15.1781C15.231 3.36229 15.2817 3.38266 15.3195 3.41901C15.3573 3.45536 15.3792 3.50483 15.3804 3.55686V3.56635Z" fill="#767676"/>
<path d="M23.3135 5.28892V6.03382C23.2789 6.24896 23.2967 6.46911 23.3654 6.67615C23.4341 6.88319 23.5516 7.07121 23.7085 7.22476C24.5595 8.01039 25.4692 8.73206 26.4298 9.38365C26.4525 9.39879 26.4718 9.41827 26.4866 9.44099C26.5014 9.46371 26.5113 9.4892 26.5158 9.51582C26.5203 9.54244 26.5193 9.56965 26.5128 9.59586C26.5063 9.62208 26.4944 9.64675 26.478 9.66832L25.6447 10.7501C25.613 10.7917 25.5661 10.8195 25.5139 10.8275C25.4617 10.8355 25.4084 10.823 25.3653 10.7928C24.3586 10.1048 23.4054 9.34347 22.514 8.51532C22.3828 8.40666 22.2803 8.26827 22.2153 8.11203C22.1662 8.26667 22.0764 8.40578 21.9552 8.51532C21.0466 9.37739 20.0812 10.1794 19.0653 10.9162C19.0448 10.9323 19.0213 10.9441 18.9961 10.9512C18.9709 10.9582 18.9446 10.9603 18.9186 10.9572C18.8926 10.9541 18.8675 10.9459 18.8447 10.9332C18.8219 10.9204 18.802 10.9034 18.786 10.8829L17.8997 9.81063C17.8824 9.78955 17.8695 9.76532 17.8618 9.73927C17.8541 9.71322 17.8517 9.68589 17.8549 9.65894C17.858 9.63199 17.8666 9.60596 17.8801 9.58231C17.8935 9.55866 17.9117 9.53787 17.9334 9.5212C18.9042 8.80996 19.8276 8.03815 20.6981 7.21051C20.8523 7.05769 20.9693 6.87239 21.0402 6.66856C21.1111 6.46473 21.1341 6.24769 21.1075 6.03382V5.28892H18.3621C18.3084 5.28892 18.257 5.26791 18.219 5.23054C18.1811 5.19317 18.1598 5.14247 18.1598 5.08962V3.73263C18.1598 3.67978 18.1811 3.62909 18.219 3.59171C18.257 3.55434 18.3084 3.53333 18.3621 3.53333H26.0686C26.0955 3.5327 26.1223 3.53738 26.1474 3.54712C26.1726 3.55685 26.1954 3.57141 26.2147 3.58998C26.234 3.60854 26.2494 3.63076 26.2598 3.65525C26.2703 3.67974 26.2757 3.70606 26.2757 3.73263V5.08962C26.2757 5.1162 26.2703 5.14251 26.2598 5.167C26.2494 5.1915 26.234 5.21365 26.2147 5.23222C26.1954 5.25079 26.1726 5.26541 26.1474 5.27514C26.1223 5.28487 26.0955 5.28956 26.0686 5.28892H23.3135ZM26.3576 11.8414C29.0115 11.8414 30.2108 12.9991 30.2108 14.6313C30.2108 16.2635 28.997 17.4782 26.3576 17.4782H22.6729C20.0045 17.4782 18.8196 16.2825 18.8196 14.6313C18.8196 12.9801 20.0334 11.8414 22.6729 11.8414H26.3576ZM26.5406 15.6799C27.7206 15.6799 28.1589 15.2434 28.1589 14.6313C28.1589 14.0192 27.7206 13.5969 26.5406 13.5969H22.514C21.3339 13.5969 20.8908 14.0192 20.8908 14.6313C20.8908 15.2434 21.3339 15.6799 22.514 15.6799H26.5406ZM29.8496 3.55708V6.37068H31.5402C31.5951 6.37068 31.6478 6.39219 31.6866 6.43045C31.7255 6.46872 31.7473 6.52062 31.7473 6.57473V7.96022C31.7473 7.98679 31.7419 8.01305 31.7314 8.03754C31.721 8.06204 31.7056 8.08425 31.6863 8.10282C31.667 8.12139 31.6442 8.13595 31.6191 8.14568C31.594 8.15541 31.5671 8.1601 31.5402 8.15946H29.8496V11.1202C29.8496 11.147 29.8442 11.1735 29.8338 11.1983C29.8234 11.223 29.8081 11.2455 29.7889 11.2645C29.7697 11.2834 29.7468 11.2985 29.7217 11.3087C29.6966 11.319 29.6696 11.3242 29.6424 11.3242H27.9374C27.9104 11.3242 27.8837 11.3189 27.8588 11.3086C27.834 11.2983 27.8115 11.2832 27.7926 11.2642C27.7738 11.2452 27.759 11.2226 27.7491 11.1979C27.7392 11.1732 27.7344 11.1467 27.7351 11.1202V3.55708C27.7344 3.53051 27.7392 3.50408 27.7491 3.47935C27.759 3.45462 27.7738 3.4321 27.7926 3.41309C27.8115 3.39408 27.834 3.37898 27.8588 3.36867C27.8837 3.35836 27.9104 3.35302 27.9374 3.35303H29.6424C29.6974 3.35303 29.7501 3.37454 29.7889 3.4128C29.8277 3.45106 29.8496 3.50297 29.8496 3.55708Z" fill="#767676"/>
<path d="M40.1369 11.6469V14.9683H45.1558C45.1827 14.9683 45.2094 14.9736 45.2343 14.9839C45.2591 14.9942 45.2817 15.0093 45.3005 15.0283C45.3194 15.0473 45.3342 15.0699 45.344 15.0946C45.3539 15.1193 45.3587 15.1458 45.358 15.1723V16.5957C45.358 16.6486 45.3367 16.6993 45.2988 16.7367C45.2608 16.774 45.2094 16.795 45.1558 16.795H32.9747C32.9477 16.7957 32.9209 16.791 32.8958 16.7813C32.8707 16.7715 32.8478 16.7569 32.8285 16.7383C32.8092 16.7198 32.7939 16.6976 32.7834 16.6731C32.773 16.6486 32.7676 16.6223 32.7676 16.5957V15.1723C32.7676 15.1182 32.7894 15.0663 32.8283 15.028C32.8671 14.9898 32.9198 14.9683 32.9747 14.9683H38.0224V11.6469H35.8646C35.6085 11.6649 35.3519 11.6181 35.1192 11.511C34.8866 11.4039 34.6856 11.24 34.5352 11.0349L33.7983 10.2568C33.5996 10.0905 33.4462 9.87805 33.352 9.63859C33.2578 9.39913 33.2258 9.14026 33.2589 8.88552V4.30683C33.2589 4.14827 33.3228 3.99619 33.4366 3.88407C33.5504 3.77196 33.7048 3.70898 33.8658 3.70898H44.1491C44.3096 3.71023 44.4633 3.77362 44.5768 3.88546C44.6904 3.99731 44.7547 4.14865 44.756 4.30683V11.0159C44.7679 11.0986 44.7607 11.183 44.7349 11.2626C44.7092 11.3422 44.6655 11.4151 44.6071 11.4757C44.5488 11.5364 44.4773 11.5833 44.398 11.6129C44.3187 11.6426 44.2336 11.6542 44.1491 11.6469H40.1369ZM42.6415 9.80598V5.5357H35.3878V8.66728C35.3783 8.75335 35.388 8.84039 35.4163 8.92236C35.4446 9.00433 35.4908 9.07924 35.5516 9.14176L36.091 9.68736C36.1344 9.74005 36.1896 9.78209 36.2523 9.81009C36.315 9.83809 36.3835 9.85133 36.4522 9.84872L42.6415 9.80598Z" fill="#767676"/>
<path d="M54.6494 7.40518V12.112C54.6494 14.5508 53.3585 16.164 50.9503 16.164C48.542 16.164 47.2656 14.5508 47.2656 12.112V7.40518C47.2656 4.95215 48.542 3.32471 50.9503 3.32471C53.3585 3.32471 54.6494 4.95215 54.6494 7.40518ZM52.5734 7.40518C52.5734 5.82518 51.8654 5.14668 50.9503 5.14668C50.0351 5.14668 49.3608 5.82518 49.3608 7.40518V12.112C49.3608 13.6967 50.0159 14.3704 50.9503 14.3704C51.8847 14.3704 52.5734 13.6967 52.5734 12.112V7.40518ZM58.7772 3.5572V8.52494H60.4726C60.4992 8.52494 60.5254 8.5301 60.55 8.54011C60.5745 8.55013 60.5969 8.56481 60.6156 8.58332C60.6344 8.60182 60.6493 8.62378 60.6595 8.64796C60.6696 8.67213 60.6749 8.69807 60.6749 8.72424V10.1477C60.6749 10.1738 60.6696 10.1997 60.6595 10.2239C60.6493 10.2481 60.6344 10.2701 60.6156 10.2886C60.5969 10.3071 60.5745 10.3217 60.55 10.3317C60.5254 10.3417 60.4992 10.3469 60.4726 10.3469H58.7772V16.9896C58.7778 17.0161 58.773 17.0426 58.7632 17.0673C58.7533 17.092 58.7385 17.1145 58.7196 17.1335C58.7008 17.1526 58.6783 17.1677 58.6534 17.178C58.6286 17.1883 58.6018 17.1936 58.5749 17.1936H56.8698C56.8428 17.1936 56.8161 17.1883 56.7913 17.178C56.7664 17.1677 56.7439 17.1526 56.725 17.1335C56.7062 17.1145 56.6914 17.092 56.6815 17.0673C56.6716 17.0426 56.6669 17.0161 56.6675 16.9896V3.57144C56.6669 3.54488 56.6716 3.51844 56.6815 3.49372C56.6914 3.46899 56.7062 3.44641 56.725 3.4274C56.7439 3.40839 56.7664 3.39328 56.7913 3.38297C56.8161 3.37266 56.8428 3.36739 56.8698 3.36739H58.5749C58.6269 3.36734 58.6769 3.38702 58.7146 3.42236C58.7523 3.4577 58.7747 3.506 58.7772 3.5572Z" fill="#767676"/>
</g>
<defs>
<clipPath id="clip0_766:69803">
<rect width="57.3507" height="14.1299" fill="white" transform="translate(3.32422 3.32471)"/>
</clipPath>
</defs>
</svg>
