<svg width="60" height="72" viewBox="0 0 60 72" fill="none" xmlns="http://www.w3.org/2000/svg">
<g clip-path="url(#clip0_662:18752)">
<path d="M30.0004 30.09L36.7804 53.64L30.0004 69.63C29.7002 69.6177 29.4136 69.5009 29.1903 69.3L10.9204 49.08L30.0004 30" fill="#B4B4B4"/>
<path d="M57 29.9996C56.9887 24.7374 55.44 19.5932 52.5441 15.1994C49.6483 10.8056 45.5317 7.35383 40.7003 5.26839C35.869 3.18296 30.5334 2.55479 25.3499 3.4611C20.1663 4.3674 15.3605 6.76872 11.5234 10.3698C7.68627 13.9708 4.98501 18.6146 3.75183 23.7303C2.51865 28.846 2.80734 34.2105 4.58221 39.1644C6.35709 44.1182 9.54078 48.4455 13.7421 51.6141C17.9434 54.7827 22.979 56.6546 28.2299 56.9996H29.28C29.3746 56.9996 29.4682 57.0182 29.5556 57.0544C29.643 57.0906 29.7222 57.1436 29.7891 57.2104C29.8559 57.2773 29.9091 57.3567 29.9453 57.444C29.9814 57.5314 30 57.625 30 57.7196V69.7196C30.3025 69.7184 30.5929 69.6001 30.8101 69.3895L49.11 49.1696C51.6326 46.6586 53.6297 43.6701 54.9844 40.3786C56.3391 37.0872 57.0243 33.5588 57 29.9996Z" fill="#CECECE"/>
<path d="M36.9608 40.9501L30.4509 36.5101C30.3223 36.4237 30.1708 36.3775 30.0158 36.3775C29.8609 36.3775 29.7094 36.4237 29.5808 36.5101L23.0708 40.9501C22.9573 41.0353 22.8219 41.0867 22.6804 41.0981C22.5389 41.1095 22.3972 41.0805 22.2716 41.0146C22.1459 40.9486 22.0415 40.8483 21.9705 40.7254C21.8996 40.6024 21.865 40.4619 21.8707 40.32V19.8301C21.8707 19.6312 21.9498 19.4404 22.0905 19.2997C22.2311 19.1591 22.4218 19.0801 22.6207 19.0801H37.3809C37.5826 19.0799 37.7765 19.1579 37.9219 19.2978C38.0674 19.4376 38.153 19.6285 38.1607 19.8301V40.32C38.1665 40.4619 38.132 40.6024 38.0611 40.7254C37.9902 40.8483 37.8858 40.9486 37.7601 41.0146C37.6344 41.0805 37.4925 41.1095 37.351 41.0981C37.2095 41.0867 37.0743 41.0353 36.9608 40.9501Z" fill="white"/>
</g>
<defs>
<clipPath id="clip0_662:18752">
<rect width="54" height="66.63" fill="white" transform="translate(3 3)"/>
</clipPath>
</defs>
</svg>
