<svg width="40" height="40" viewBox="0 0 40 40" fill="none" xmlns="http://www.w3.org/2000/svg">
<path d="M17.8198 18.95H9.06985C8.90118 18.9515 8.73581 18.9029 8.59487 18.8102C8.45393 18.7176 8.34375 18.5851 8.27834 18.4296C8.21294 18.2741 8.19537 18.1027 8.22768 17.9372C8.26 17.7716 8.34079 17.6194 8.45986 17.4999L17.2199 8.74994C17.3372 8.63072 17.4878 8.54977 17.652 8.51764C17.8162 8.48552 17.9862 8.50375 18.1398 8.56995C18.2953 8.63312 18.4287 8.7409 18.523 8.87971C18.6173 9.01851 18.6683 9.18214 18.6698 9.34995V18.1C18.6698 18.2116 18.6478 18.3221 18.6051 18.4252C18.5624 18.5284 18.4999 18.6221 18.4209 18.701C18.342 18.7799 18.2483 18.8425 18.1452 18.8853C18.042 18.928 17.9315 18.95 17.8198 18.95ZM11.1199 17.2499H16.9699V11.4L11.1199 17.2499Z" fill="url(#paint0_linear_592:15755)"/>
<path d="M30.64 18.95H21.89C21.7784 18.95 21.6679 18.928 21.5648 18.8853C21.4617 18.8426 21.368 18.78 21.2891 18.701C21.2101 18.6221 21.1475 18.5284 21.1047 18.4253C21.062 18.3222 21.04 18.2116 21.04 18.1V9.35001C21.04 9.12457 21.1297 8.90837 21.2891 8.74896C21.4485 8.58956 21.6646 8.5 21.89 8.5H30.64C30.8654 8.5 31.0817 8.58956 31.2411 8.74896C31.4005 8.90837 31.4901 9.12457 31.4901 9.35001V18.1C31.4901 18.2116 31.4681 18.3222 31.4254 18.4253C31.3827 18.5284 31.32 18.6221 31.2411 18.701C31.1622 18.78 31.0685 18.8426 30.9653 18.8853C30.8622 18.928 30.7516 18.95 30.64 18.95ZM22.7401 17.25H29.7401V10.25H22.7401V17.25Z" fill="#FF7964"/>
<path d="M17.8197 31.7799H9.0697C8.84427 31.7799 8.62803 31.6904 8.46863 31.5309C8.30922 31.3715 8.21973 31.1553 8.21973 30.9299V22.2299C8.21973 22.1183 8.24171 22.0077 8.28442 21.9046C8.32714 21.8015 8.3897 21.7078 8.46863 21.6288C8.54756 21.5499 8.64126 21.4873 8.74438 21.4446C8.84751 21.4019 8.95808 21.3799 9.0697 21.3799H17.8197C18.0451 21.3799 18.2614 21.4694 18.4208 21.6288C18.5802 21.7883 18.6697 22.0045 18.6697 22.2299V30.9799C18.6569 31.1965 18.5617 31.4001 18.4037 31.5489C18.2456 31.6976 18.0367 31.7803 17.8197 31.7799ZM9.91968 30.0799H16.9197V23.0299H9.91968V30.0799Z" fill="#FF7964"/>
<path d="M30.64 31.7799H21.89C21.6646 31.7799 21.4485 31.6904 21.2891 31.5309C21.1297 31.3715 21.04 31.1553 21.04 30.9299V22.2299C21.04 22.1183 21.062 22.0077 21.1047 21.9046C21.1475 21.8015 21.2101 21.7078 21.2891 21.6288C21.368 21.5499 21.4617 21.4873 21.5648 21.4446C21.6679 21.4019 21.7784 21.3799 21.89 21.3799H30.64C30.7516 21.3799 30.8622 21.4019 30.9653 21.4446C31.0685 21.4873 31.1622 21.5499 31.2411 21.6288C31.32 21.7078 31.3827 21.8015 31.4254 21.9046C31.4681 22.0077 31.4901 22.1183 31.4901 22.2299V30.9799C31.4773 31.1965 31.3822 31.4001 31.2241 31.5489C31.0661 31.6976 30.857 31.7803 30.64 31.7799ZM22.7401 30.0799H29.7401V23.0299H22.7401V30.0799Z" fill="#FF7964"/>
<defs>
<linearGradient id="paint0_linear_592:15755" x1="9.19234" y1="10.1347" x2="22.7431" y2="22.3912" gradientUnits="userSpaceOnUse">
<stop offset="0.114583" stop-color="#39EAC8"/>
<stop offset="1" stop-color="#15AABE"/>
</linearGradient>
</defs>
</svg>
