<svg width="134" height="134" viewBox="0 0 134 134" fill="none" xmlns="http://www.w3.org/2000/svg">
<rect width="134" height="134" rx="22.393" fill="white"/>
<rect width="134" height="134" rx="22.393" fill="url(#paint0_linear_880:36164)"/>
<g clip-path="url(#clip0_880:36164)">
<path d="M66.9738 48.0378L73.1356 69.4403L66.9738 83.9721C66.701 83.9609 66.4406 83.8549 66.2376 83.6722L49.6338 65.2961L66.9738 47.9561" fill="#0DDCC3"/>
<path d="M91.5112 47.9548C91.5009 43.1725 90.0934 38.4974 87.4617 34.5043C84.8299 30.5112 81.0887 27.3742 76.6979 25.4789C72.3072 23.5836 67.4582 23.0128 62.7473 23.8364C58.0364 24.6601 53.6689 26.8424 50.1817 30.1151C46.6945 33.3877 44.2395 37.608 43.1188 42.2572C41.9981 46.9064 42.2605 51.7818 43.8735 56.2839C45.4865 60.786 48.3799 64.7186 52.198 67.5983C56.0162 70.4779 60.5927 72.1791 65.3647 72.4927H66.3191C66.405 72.4927 66.4901 72.5096 66.5695 72.5425C66.6489 72.5753 66.7209 72.6235 66.7817 72.6843C66.8424 72.745 66.8907 72.8172 66.9236 72.8966C66.9565 72.976 66.9734 73.061 66.9734 73.147V84.0527C67.2483 84.0516 67.5122 83.9441 67.7096 83.7528L84.3407 65.3767C86.6333 63.0947 88.4482 60.3787 89.6794 57.3874C90.9106 54.3961 91.5333 51.1895 91.5112 47.9548Z" fill="#FF7964"/>
<path d="M73.2995 57.9069L67.3832 53.8718C67.2663 53.7932 67.1287 53.7513 66.9878 53.7513C66.847 53.7513 66.7093 53.7932 66.5925 53.8718L60.6762 57.9069C60.573 57.9844 60.45 58.031 60.3214 58.0414C60.1928 58.0518 60.064 58.0255 59.9498 57.9655C59.8356 57.9055 59.7407 57.8144 59.6762 57.7027C59.6117 57.591 59.5803 57.4632 59.5855 57.3343V38.7129C59.5855 38.5321 59.6574 38.3587 59.7852 38.2309C59.913 38.103 60.0864 38.0313 60.2671 38.0313H73.6813C73.8646 38.0311 74.0408 38.102 74.173 38.2291C74.3052 38.3562 74.3829 38.5296 74.39 38.7129V57.3343C74.3952 57.4632 74.3639 57.591 74.2995 57.7027C74.235 57.8144 74.1401 57.9055 74.0259 57.9655C73.9117 58.0255 73.7827 58.0518 73.6541 58.0414C73.5256 58.031 73.4026 57.9844 73.2995 57.9069Z" fill="white"/>
</g>
<g clip-path="url(#clip1_880:36164)">
<path d="M44.3014 101.781C44.3014 101.84 44.2775 101.897 44.235 101.938C44.1926 101.98 44.135 102.004 44.0749 102.004H37.771C37.5044 102.04 37.2329 102.008 36.9822 101.912C36.7316 101.816 36.51 101.658 36.3385 101.454L35.6907 100.805C35.5032 100.626 35.3586 100.408 35.2675 100.166C35.1764 99.9248 35.141 99.6664 35.1641 99.4098V95.1246C35.1641 94.6836 35.38 94.4553 35.8066 94.4553H43.4798C43.5093 94.4546 43.5386 94.4597 43.5661 94.4704C43.5935 94.481 43.6185 94.4969 43.6396 94.5173C43.6607 94.5376 43.6775 94.5618 43.689 94.5886C43.7004 94.6154 43.7063 94.6442 43.7063 94.6732V96.157C43.7063 96.186 43.7004 96.2148 43.689 96.2416C43.6775 96.2684 43.6607 96.2926 43.6396 96.3129C43.6185 96.3332 43.5935 96.3492 43.5661 96.3598C43.5386 96.3705 43.5093 96.3756 43.4798 96.3749H37.4918V99.1971C37.4842 99.2615 37.4916 99.3268 37.5136 99.3879C37.5355 99.4491 37.5713 99.5045 37.6182 99.5499L37.9921 99.9597C38.0337 100.001 38.0844 100.031 38.1402 100.049C38.196 100.067 38.2554 100.072 38.3134 100.064H44.0907C44.1202 100.063 44.1496 100.068 44.177 100.079C44.2044 100.089 44.2294 100.105 44.2505 100.125C44.2716 100.146 44.2884 100.17 44.2999 100.197C44.3113 100.224 44.3172 100.252 44.3172 100.281L44.3014 101.781ZM44.5331 103.337C47.4349 103.337 48.7463 104.608 48.7463 106.491C48.7463 108.375 47.4191 109.687 44.5331 109.687H40.5043C37.5866 109.687 36.2911 108.364 36.2911 106.491C36.2911 104.619 37.6182 103.337 40.5043 103.337H44.5331ZM44.7332 107.747C46.0182 107.747 46.5028 107.228 46.5028 106.491C46.5028 105.755 46.0182 105.257 44.7332 105.257H40.3252C39.0402 105.257 38.5557 105.775 38.5557 106.491C38.5557 107.207 39.0402 107.747 40.3252 107.747H44.7332ZM48.346 94.4917V97.428H50.1998C50.2293 97.4273 50.2586 97.4324 50.2861 97.4431C50.3135 97.4537 50.3385 97.4697 50.3596 97.49C50.3807 97.5103 50.3975 97.5345 50.4089 97.5613C50.4204 97.5881 50.4263 97.6169 50.4263 97.6459V99.166C50.4263 99.1951 50.4204 99.2238 50.4089 99.2506C50.3975 99.2773 50.3807 99.3016 50.3596 99.3219C50.3385 99.3422 50.3135 99.3582 50.2861 99.3688C50.2586 99.3794 50.2293 99.3846 50.1998 99.3839H48.346V102.549C48.3467 102.578 48.3415 102.606 48.3307 102.634C48.3199 102.661 48.3037 102.685 48.2831 102.706C48.2625 102.727 48.2379 102.743 48.2107 102.755C48.1835 102.766 48.1543 102.772 48.1248 102.772H46.2605C46.231 102.772 46.2018 102.766 46.1746 102.755C46.1474 102.743 46.1228 102.727 46.1022 102.706C46.0816 102.685 46.0654 102.661 46.0546 102.634C46.0438 102.606 46.0386 102.578 46.0393 102.549V94.4917C46.0386 94.4626 46.0438 94.4337 46.0546 94.4067C46.0654 94.3796 46.0816 94.355 46.1022 94.3342C46.1228 94.3134 46.1474 94.2969 46.1746 94.2857C46.2018 94.2744 46.231 94.2685 46.2605 94.2686H48.1248C48.1826 94.2685 48.2381 94.2908 48.2794 94.3306C48.3207 94.3703 48.3447 94.4244 48.346 94.4813V94.4917Z" fill="#FF7964"/>
<path d="M57.0203 96.3745V97.189C56.9825 97.4243 57.002 97.665 57.0771 97.8913C57.1521 98.1177 57.2807 98.3233 57.4521 98.4912C58.3827 99.3502 59.3773 100.139 60.4277 100.852C60.4525 100.868 60.4736 100.89 60.4898 100.914C60.5059 100.939 60.5168 100.967 60.5217 100.996C60.5267 101.025 60.5255 101.055 60.5184 101.084C60.5113 101.112 60.4984 101.139 60.4804 101.163L59.5693 102.346C59.5346 102.391 59.4833 102.422 59.4262 102.43C59.3691 102.439 59.3108 102.426 59.2638 102.393C58.163 101.64 57.1208 100.808 56.1461 99.9023C56.0026 99.7835 55.8906 99.6322 55.8196 99.4614C55.7658 99.6304 55.6677 99.7825 55.5351 99.9023C54.5417 100.845 53.4861 101.722 52.3753 102.527C52.3529 102.545 52.3272 102.558 52.2996 102.566C52.2721 102.573 52.2433 102.576 52.2148 102.572C52.1864 102.569 52.159 102.56 52.1341 102.546C52.1092 102.532 52.0873 102.513 52.0698 102.491L51.1008 101.319C51.0818 101.296 51.0677 101.269 51.0593 101.241C51.0509 101.212 51.0483 101.182 51.0518 101.153C51.0552 101.123 51.0646 101.095 51.0793 101.069C51.0941 101.043 51.1139 101.02 51.1377 101.002C52.1991 100.224 53.2088 99.3806 54.1606 98.4756C54.3292 98.3085 54.4571 98.1059 54.5347 97.8831C54.6122 97.6602 54.6373 97.4229 54.6082 97.189V96.3745H51.6064C51.5477 96.3745 51.4914 96.3516 51.45 96.3107C51.4085 96.2698 51.3852 96.2144 51.3852 96.1566V94.6729C51.3852 94.6151 51.4085 94.5597 51.45 94.5188C51.4914 94.4779 51.5477 94.455 51.6064 94.455H60.0327C60.0622 94.4543 60.0915 94.4594 60.119 94.47C60.1464 94.4807 60.1714 94.4966 60.1925 94.5169C60.2136 94.5372 60.2304 94.5615 60.2419 94.5883C60.2533 94.615 60.2592 94.6438 60.2592 94.6729V96.1566C60.2592 96.1857 60.2533 96.2145 60.2419 96.2412C60.2304 96.268 60.2136 96.2922 60.1925 96.3125C60.1714 96.3328 60.1464 96.3488 60.119 96.3595C60.0915 96.3701 60.0622 96.3752 60.0327 96.3745H57.0203ZM60.3487 103.539C63.2505 103.539 64.5619 104.805 64.5619 106.59C64.5619 108.374 63.2347 109.702 60.3487 109.702H56.3198C53.4022 109.702 52.1067 108.395 52.1067 106.59C52.1067 104.784 53.4338 103.539 56.3198 103.539H60.3487ZM60.5488 107.736C61.8391 107.736 62.3184 107.259 62.3184 106.59C62.3184 105.92 61.8391 105.459 60.5488 105.459H56.1461C54.8558 105.459 54.3713 105.92 54.3713 106.59C54.3713 107.259 54.8558 107.736 56.1461 107.736H60.5488ZM64.1669 94.4809V97.5573H66.0154C66.0755 97.5573 66.1331 97.5809 66.1756 97.6227C66.218 97.6645 66.2419 97.7213 66.2419 97.7805V99.2954C66.2419 99.3244 66.236 99.3531 66.2246 99.3799C66.2131 99.4067 66.1963 99.431 66.1752 99.4513C66.1541 99.4716 66.1291 99.4875 66.1017 99.4981C66.0743 99.5088 66.0449 99.5139 66.0154 99.5132H64.1669V102.751C64.1669 102.78 64.161 102.809 64.1497 102.836C64.1383 102.863 64.1216 102.888 64.1006 102.908C64.0795 102.929 64.0546 102.945 64.0271 102.957C63.9996 102.968 63.9702 102.974 63.9404 102.974H62.0761C62.0466 102.974 62.0174 102.968 61.9902 102.957C61.963 102.945 61.9384 102.929 61.9178 102.908C61.8972 102.887 61.881 102.863 61.8702 102.835C61.8594 102.808 61.8542 102.78 61.8549 102.751V94.4809C61.8542 94.4519 61.8594 94.423 61.8702 94.3959C61.881 94.3689 61.8972 94.3443 61.9178 94.3235C61.9384 94.3027 61.963 94.2862 61.9902 94.2749C62.0174 94.2636 62.0466 94.2578 62.0761 94.2578H63.9404C64.0005 94.2578 64.0581 94.2813 64.1006 94.3232C64.143 94.365 64.1669 94.4218 64.1669 94.4809Z" fill="#FF7964"/>
<path d="M75.4161 103.326V106.958H80.9038C80.9333 106.957 80.9624 106.963 80.9896 106.975C81.0168 106.986 81.0414 107.002 81.062 107.023C81.0826 107.044 81.0988 107.069 81.1096 107.096C81.1204 107.123 81.1256 107.152 81.1249 107.181V108.737C81.1249 108.795 81.1016 108.85 81.0601 108.891C81.0187 108.932 80.9624 108.955 80.9038 108.955H67.5849C67.5554 108.956 67.5261 108.95 67.4986 108.94C67.4712 108.929 67.4461 108.913 67.425 108.893C67.4039 108.873 67.3872 108.848 67.3757 108.822C67.3643 108.795 67.3584 108.766 67.3584 108.737V107.181C67.3584 107.121 67.3823 107.065 67.4247 107.023C67.4672 106.981 67.5248 106.958 67.5849 106.958H73.1041V103.326H70.7447C70.4646 103.346 70.1841 103.294 69.9297 103.177C69.6753 103.06 69.4555 102.881 69.2912 102.657L68.4854 101.806C68.2681 101.624 68.1004 101.392 67.9974 101.13C67.8944 100.868 67.8594 100.585 67.8956 100.307V95.3002C67.8956 95.1268 67.9655 94.9605 68.0899 94.8379C68.2144 94.7153 68.3832 94.6465 68.5592 94.6465H79.8031C79.9786 94.6478 80.1466 94.7172 80.2707 94.8394C80.3949 94.9617 80.4653 95.1272 80.4666 95.3002V102.636C80.4797 102.726 80.4718 102.819 80.4436 102.906C80.4154 102.993 80.3677 103.072 80.3039 103.139C80.2401 103.205 80.1619 103.256 80.0752 103.289C79.9885 103.321 79.8955 103.334 79.8031 103.326H75.4161ZM78.1546 101.313V96.6438H70.2234V100.068C70.213 100.162 70.2236 100.257 70.2545 100.347C70.2855 100.436 70.336 100.518 70.4024 100.587L70.9923 101.183C71.0397 101.241 71.1001 101.287 71.1686 101.317C71.2372 101.348 71.312 101.363 71.3873 101.36L78.1546 101.313Z" fill="#FF7964"/>
<path d="M91.2839 98.6882V103.835C91.2839 106.501 89.8725 108.265 87.2393 108.265C84.606 108.265 83.2104 106.501 83.2104 103.835V98.6882C83.2104 96.006 84.606 94.2266 87.2393 94.2266C89.8725 94.2266 91.2839 96.006 91.2839 98.6882ZM89.0141 98.6882C89.0141 96.9606 88.2399 96.2187 87.2393 96.2187C86.2386 96.2187 85.5013 96.9606 85.5013 98.6882V103.835C85.5013 105.567 86.2176 106.304 87.2393 106.304C88.261 106.304 89.0141 105.567 89.0141 103.835V98.6882ZM95.7973 94.4808V99.9125H97.6511C97.6801 99.9125 97.7089 99.9182 97.7357 99.9291C97.7626 99.9401 97.787 99.9562 97.8075 99.9764C97.828 99.9966 97.8443 100.021 97.8554 100.047C97.8665 100.073 97.8723 100.102 97.8723 100.13V101.687C97.8723 101.715 97.8665 101.744 97.8554 101.77C97.8443 101.797 97.828 101.821 97.8075 101.841C97.787 101.861 97.7626 101.877 97.7357 101.888C97.7089 101.899 97.6801 101.905 97.6511 101.905H95.7973V109.168C95.798 109.197 95.7928 109.226 95.782 109.253C95.7712 109.28 95.755 109.305 95.7344 109.325C95.7138 109.346 95.6892 109.363 95.662 109.374C95.6348 109.385 95.6056 109.391 95.5761 109.391H93.7117C93.6823 109.391 93.6531 109.385 93.6259 109.374C93.5987 109.363 93.5741 109.346 93.5535 109.325C93.5329 109.305 93.5167 109.28 93.5059 109.253C93.4951 109.226 93.4899 109.197 93.4906 109.168V94.4963C93.4899 94.4673 93.4951 94.4384 93.5059 94.4114C93.5167 94.3843 93.5329 94.3596 93.5535 94.3388C93.5741 94.3181 93.5987 94.3015 93.6259 94.2903C93.6531 94.279 93.6823 94.2732 93.7117 94.2732H95.5761C95.633 94.2732 95.6877 94.2947 95.7289 94.3333C95.7701 94.372 95.7946 94.4248 95.7973 94.4808Z" fill="#FF7964"/>
</g>
<defs>
<linearGradient id="paint0_linear_880:36164" x1="67" y1="-10.6591" x2="67" y2="150.242" gradientUnits="userSpaceOnUse">
<stop stop-color="white"/>
<stop offset="1" stop-color="#FAFAFA"/>
</linearGradient>
<clipPath id="clip0_880:36164">
<rect width="49.0757" height="60.5539" fill="white" transform="translate(42.4355 23.418)"/>
</clipPath>
<clipPath id="clip1_880:36164">
<rect width="62.7078" height="15.4497" fill="white" transform="translate(35.1646 94.2266)"/>
</clipPath>
</defs>
</svg>
