<svg width="10" height="16" viewBox="0 0 10 16" fill="none" xmlns="http://www.w3.org/2000/svg">
<path d="M8.32999 15.4503C8.41403 15.5238 8.51173 15.5801 8.61752 15.6159C8.72331 15.6517 8.83513 15.6663 8.94656 15.6588C9.05799 15.6514 9.16686 15.6221 9.26697 15.5726C9.36707 15.5231 9.45646 15.4543 9.53 15.3703C9.60354 15.2863 9.65981 15.1885 9.69559 15.0828C9.73137 14.977 9.74595 14.8652 9.73853 14.7537C9.7311 14.6423 9.70179 14.5334 9.65228 14.4333C9.60278 14.3332 9.53403 14.2438 9.44998 14.1703L2.44998 8.0003L9.44998 1.8303C9.53524 1.75755 9.60509 1.66848 9.6554 1.56834C9.7057 1.46819 9.73547 1.35899 9.74292 1.24716C9.75037 1.13534 9.73536 1.02314 9.69879 0.917205C9.66222 0.811264 9.60485 0.713718 9.53 0.630301C9.38011 0.462786 9.17058 0.360609 8.94629 0.345656C8.722 0.330704 8.50078 0.404163 8.32999 0.550299L0.579987 7.3603C0.488705 7.44008 0.415543 7.53846 0.365417 7.64885C0.315292 7.75923 0.289368 7.87906 0.289368 8.0003C0.289368 8.12153 0.315292 8.24136 0.365417 8.35174C0.415543 8.46213 0.488705 8.56051 0.579987 8.6403L8.32999 15.4503Z" fill="#333333"/>
</svg>
