<svg width="24" height="24" viewBox="0 0 24 24" fill="none" xmlns="http://www.w3.org/2000/svg">
<path d="M20.27 4.64014C20.1985 4.59889 20.1175 4.57715 20.035 4.57715C19.9525 4.57715 19.8714 4.59889 19.8 4.64014L14.66 6.91013L9.53 4.64014H9.44998H9.32999H9.20999H9.12997L3.79999 6.94012C3.71131 6.98019 3.63595 7.04477 3.58279 7.12628C3.52964 7.20779 3.50091 7.30281 3.5 7.40012V18.9401C3.5 19.0727 3.55266 19.1999 3.64642 19.2937C3.74019 19.3874 3.86739 19.4401 4 19.4401C4.06627 19.4504 4.13371 19.4504 4.19998 19.4401L9.32999 17.1601L14.46 19.4401C14.5264 19.4486 14.5936 19.4486 14.66 19.4401C14.7297 19.4496 14.8003 19.4496 14.87 19.4401L20.2 17.0701C20.2868 17.0313 20.3604 16.9681 20.4119 16.8882C20.4634 16.8083 20.4905 16.7152 20.49 16.6201V5.05011C20.4911 4.96872 20.4715 4.8884 20.433 4.81668C20.3945 4.74496 20.3384 4.68422 20.27 4.64014ZM4.48999 7.74011L8.84 5.82013V16.2501L4.48999 18.1801V7.74011ZM9.82999 5.82013L14.17 7.74011V18.1801L9.82999 16.2501V5.82013ZM19.5 16.2501L15.16 18.1801V7.74011L19.5 5.82013V16.2501Z" fill="#231815"/>
</svg>
