<svg width="48" height="48" viewBox="0 0 48 48" fill="none" xmlns="http://www.w3.org/2000/svg">
<path d="M19.4902 31.3699C19.5637 31.454 19.653 31.5228 19.7531 31.5723C19.8532 31.6219 19.9621 31.6512 20.0736 31.6586C20.185 31.6661 20.2969 31.6515 20.4027 31.6157C20.5085 31.5798 20.6061 31.5235 20.6902 31.4499L28.4402 24.6399C28.5314 24.5602 28.6046 24.4618 28.6548 24.3514C28.7049 24.241 28.7308 24.1212 28.7308 23.9999C28.7308 23.8787 28.7049 23.7589 28.6548 23.6485C28.6046 23.5381 28.5314 23.4397 28.4402 23.3599L20.6902 16.5499C20.6061 16.4763 20.5085 16.42 20.4027 16.3842C20.2969 16.3484 20.185 16.3338 20.0736 16.3412C19.9621 16.3487 19.8532 16.378 19.7531 16.4275C19.653 16.4771 19.5637 16.5458 19.4902 16.6299C19.4154 16.7134 19.3579 16.8109 19.3214 16.9168C19.2848 17.0228 19.2698 17.135 19.2772 17.2468C19.2847 17.3586 19.3145 17.4678 19.3648 17.568C19.4151 17.6681 19.4849 17.7572 19.5702 17.8299L26.5702 23.9999L19.5702 30.1699C19.4849 30.2427 19.4151 30.3317 19.3648 30.4319C19.3145 30.532 19.2847 30.6413 19.2772 30.7531C19.2698 30.8649 19.2848 30.9771 19.3214 31.083C19.3579 31.189 19.4154 31.2865 19.4902 31.3699Z" />
</svg>
