<svg width="48" height="48" viewBox="0 0 48 48" fill="none" xmlns="http://www.w3.org/2000/svg">
<path d="M24 31.8799C24.8284 31.8799 25.5 31.2083 25.5 30.3799C25.5 29.5515 24.8284 28.8799 24 28.8799C23.1716 28.8799 22.5 29.5515 22.5 30.3799C22.5 31.2083 23.1716 31.8799 24 31.8799Z" fill="#585858"/>
<path d="M24 25.5C24.8284 25.5 25.5 24.8284 25.5 24C25.5 23.1716 24.8284 22.5 24 22.5C23.1716 22.5 22.5 23.1716 22.5 24C22.5 24.8284 23.1716 25.5 24 25.5Z" fill="#585858"/>
<path d="M24 19.1201C24.8284 19.1201 25.5 18.4485 25.5 17.6201C25.5 16.7917 24.8284 16.1201 24 16.1201C23.1716 16.1201 22.5 16.7917 22.5 17.6201C22.5 18.4485 23.1716 19.1201 24 19.1201Z" fill="#585858"/>
</svg>
