<svg width="40" height="40" viewBox="0 0 40 40" fill="none" xmlns="http://www.w3.org/2000/svg">
<path d="M20.0004 19.2501C18.8944 19.252 17.8126 18.9259 16.892 18.3128C15.9714 17.6998 15.2534 16.8275 14.8287 15.8062C14.4041 14.7849 14.292 13.6607 14.5066 12.5756C14.7212 11.4906 15.2527 10.4937 16.0341 9.71089C16.8154 8.92811 17.8115 8.39472 18.8961 8.17822C19.9808 7.96171 21.1053 8.07182 22.1273 8.49462C23.1493 8.91742 24.0229 9.6339 24.6376 10.5534C25.2523 11.4729 25.5803 12.554 25.5803 13.6601C25.5777 15.1401 24.9893 16.5589 23.9437 17.6063C22.8981 18.6538 21.4804 19.2448 20.0004 19.2501ZM20.0004 9.78006C19.2302 9.77808 18.4767 10.0048 17.8355 10.4315C17.1942 10.8582 16.6941 11.4656 16.3984 12.1768C16.1028 12.888 16.0249 13.671 16.1747 14.4265C16.3245 15.182 16.6951 15.8761 17.2398 16.4207C17.7844 16.9653 18.4784 17.336 19.2339 17.4858C19.9894 17.6356 20.7724 17.5577 21.4837 17.262C22.1949 16.9664 22.8023 16.4662 23.229 15.825C23.6557 15.1837 23.8824 14.4303 23.8804 13.6601C23.8777 12.6318 23.4682 11.6465 22.7411 10.9194C22.014 10.1923 21.0286 9.7827 20.0004 9.78006Z" fill="#FF7964"/>
<path d="M29.8102 31.92H10.1802C9.95474 31.92 9.73851 31.8305 9.5791 31.6711C9.4197 31.5117 9.33008 31.2955 9.33008 31.07V30.57C9.3398 28.0092 10.3485 25.5533 12.1415 23.7249C13.9344 21.8965 16.3701 20.8399 18.9302 20.78H21.0602C23.6203 20.8399 26.0559 21.8965 27.8489 23.7249C29.6418 25.5533 30.6504 28.0092 30.6602 30.57V31.08C30.6575 31.3037 30.5668 31.5174 30.4077 31.6746C30.2486 31.8319 30.0339 31.92 29.8102 31.92ZM11.0402 30.22H28.9501C28.8619 28.1698 27.9979 26.2297 26.533 24.7926C25.068 23.3555 23.1117 22.5289 21.0602 22.48H18.9302C16.8786 22.5289 14.9222 23.3555 13.4573 24.7926C11.9923 26.2297 11.1284 28.1698 11.0402 30.22Z" fill="#FF7964"/>
<path d="M26.5102 29.46C26.3381 29.4604 26.1699 29.4091 26.0273 29.3128C25.8847 29.2166 25.7742 29.0797 25.7102 28.92C25.2473 27.662 24.4053 26.5788 23.3002 25.82C23.2056 25.761 23.1236 25.6837 23.0592 25.5926C22.9947 25.5015 22.949 25.3985 22.9248 25.2896C22.9005 25.1806 22.8983 25.068 22.9182 24.9582C22.938 24.8484 22.9795 24.7436 23.0402 24.65C23.0993 24.5554 23.1766 24.4734 23.2676 24.409C23.3587 24.3445 23.4617 24.2988 23.5706 24.2746C23.6795 24.2504 23.7922 24.2482 23.902 24.268C24.0119 24.2878 24.1166 24.3293 24.2102 24.39C25.6255 25.3362 26.7067 26.7044 27.3002 28.3C27.3821 28.5096 27.3775 28.743 27.2875 28.9492C27.1976 29.1554 27.0295 29.3175 26.8203 29.4C26.7213 29.4384 26.6163 29.4587 26.5102 29.46Z" fill="url(#paint0_linear_592:15756)"/>
<defs>
<linearGradient id="paint0_linear_592:15756" x1="23.3223" y1="25.068" x2="28.9212" y2="29.5858" gradientUnits="userSpaceOnUse">
<stop offset="0.140625" stop-color="#0DDCC3"/>
<stop offset="1" stop-color="#11A2B6"/>
</linearGradient>
</defs>
</svg>
