<svg width="178" height="120" viewBox="0 0 178 120" fill="none" xmlns="http://www.w3.org/2000/svg">
<path d="M124.36 10H15C9.47715 10 5 14.4772 5 20V91C5 96.5229 9.47715 101 15 101H124.36C129.883 101 134.36 96.5229 134.36 91V20C134.36 14.4772 129.883 10 124.36 10Z" fill="white" stroke="#CECECE" stroke-miterlimit="10"/>
<path d="M63.5 10H124.38C127.032 10 129.576 11.0536 131.451 12.9289C133.326 14.8043 134.38 17.3478 134.38 20V91C134.38 93.6522 133.326 96.1957 131.451 98.0711C129.576 99.9464 127.032 101 124.38 101H63.5V10Z" fill="#FAFAFA" stroke="#CECECE" stroke-miterlimit="10"/>
<path d="M15 10H53.65V48.58C53.65 49.1104 53.4393 49.6191 53.0642 49.9942C52.6891 50.3693 52.1804 50.58 51.65 50.58H5V20C5 17.3478 6.05357 14.8043 7.92893 12.9289C9.8043 11.0536 12.3478 10 15 10Z" fill="#FAFAFA" stroke="#CECECE" stroke-miterlimit="10"/>
<path d="M5 60.4102H51.65C52.1804 60.4102 52.6891 60.6209 53.0642 60.9959C53.4393 61.371 53.65 61.8797 53.65 62.4102V101H15C12.3478 101 9.8043 99.9466 7.92893 98.0712C6.05357 96.1959 5 93.6523 5 91.0002V60.4102Z" fill="#FAFAFA" stroke="#CECECE" stroke-miterlimit="10"/>
<path d="M128.589 64.7557C127.808 63.9747 126.542 63.9747 125.761 64.7557C124.98 65.5368 124.98 66.8031 125.761 67.5841L162.559 104.382C163.34 105.163 164.606 105.163 165.387 104.382C166.168 103.601 166.168 102.335 165.387 101.554L128.589 64.7557Z" fill="#FAFAFA" stroke="#C4C4C4" stroke-miterlimit="10"/>
<path d="M147.531 90.0663L151.067 86.5308C151.254 86.3433 151.509 86.2379 151.774 86.2379C152.039 86.2379 152.294 86.3433 152.481 86.5308L165.739 99.789C166.302 100.352 166.618 101.115 166.618 101.91C166.618 102.706 166.302 103.469 165.739 104.032L165.032 104.739C164.47 105.301 163.707 105.617 162.911 105.617C162.115 105.617 161.352 105.301 160.79 104.739L147.531 91.4805C147.344 91.293 147.238 91.0386 147.238 90.7734C147.238 90.5082 147.344 90.2539 147.531 90.0663Z" fill="#E5E5E5" stroke="#C4C4C4" stroke-miterlimit="10"/>
<path d="M122 90C138.016 90 151 77.0163 151 61C151 44.9837 138.016 32 122 32C105.984 32 93 44.9837 93 61C93 77.0163 105.984 90 122 90Z" fill="white" stroke="#C4C4C4" stroke-miterlimit="10"/>
<path d="M122 85.5C135.531 85.5 146.5 74.531 146.5 61C146.5 47.469 135.531 36.5 122 36.5C108.469 36.5 97.5 47.469 97.5 61C97.5 74.531 108.469 85.5 122 85.5Z" fill="white" stroke="#C4C4C4" stroke-miterlimit="10"/>
<path fill-rule="evenodd" clip-rule="evenodd" d="M151 61C151 77.0163 138.016 90 122 90C105.984 90 93 77.0163 93 61C93 44.9837 105.984 32 122 32C138.016 32 151 44.9837 151 61ZM146.5 61C146.5 74.531 135.531 85.5 122 85.5C108.469 85.5 97.5 74.531 97.5 61C97.5 47.469 108.469 36.5 122 36.5C135.531 36.5 146.5 47.469 146.5 61Z" fill="#E5E5E5"/>
<path d="M122 90.5C138.292 90.5 151.5 77.2924 151.5 61H150.5C150.5 76.7401 137.74 89.5 122 89.5V90.5ZM92.5 61C92.5 77.2924 105.708 90.5 122 90.5V89.5C106.26 89.5 93.5 76.7401 93.5 61H92.5ZM122 31.5C105.708 31.5 92.5 44.7076 92.5 61H93.5C93.5 45.2599 106.26 32.5 122 32.5V31.5ZM151.5 61C151.5 44.7076 138.292 31.5 122 31.5V32.5C137.74 32.5 150.5 45.2599 150.5 61H151.5ZM122 86C135.807 86 147 74.8071 147 61H146C146 74.2548 135.255 85 122 85V86ZM97 61C97 74.8071 108.193 86 122 86V85C108.745 85 98 74.2548 98 61H97ZM122 36C108.193 36 97 47.1929 97 61H98C98 47.7452 108.745 37 122 37V36ZM147 61C147 47.1929 135.807 36 122 36V37C135.255 37 146 47.7452 146 61H147Z" fill="#C4C4C4"/>
<g clip-path="url(#clip0_662:19036)">
<path d="M81.5 32.5753V32.5755C81.5008 34.1603 81.1908 35.7298 80.5877 37.194C79.9846 38.6582 79.1004 39.9883 77.9856 41.1084L77.9768 41.1172L77.9684 41.1266L69.5262 50.5053C69.5197 50.5096 69.5124 50.5118 69.505 50.5118C69.4977 50.5118 69.4903 50.5096 69.4838 50.5053L61.0314 41.1263L61.0232 41.1172L61.0145 41.1085C59.6192 39.7056 58.5895 37.9783 58.0166 36.0794C57.4438 34.1805 57.3456 32.1689 57.7308 30.2227C58.116 28.2765 58.9727 26.4561 60.2248 24.9226C61.4768 23.3891 63.0856 22.1899 64.9083 21.4309C66.7311 20.6719 68.7118 20.3765 70.6752 20.5707C72.6385 20.7649 74.5241 21.4428 76.1648 22.5446C77.8056 23.6464 79.151 25.138 80.0817 26.8877C81.0124 28.6374 81.4996 30.5909 81.5 32.5753Z" fill="#FFBCB1" stroke="#FF7964"/>
<path d="M73.749 32.5647C73.749 34.9279 71.8438 36.8393 69.499 36.8393C67.1542 36.8393 65.249 34.9279 65.249 32.5647C65.249 30.2014 67.1542 28.29 69.499 28.29C71.8438 28.29 73.749 30.2014 73.749 32.5647Z" fill="#FFF2EF" stroke="#FF7964"/>
</g>
<defs>
<clipPath id="clip0_662:19036">
<rect width="25" height="31" fill="white" transform="translate(57 20)"/>
</clipPath>
</defs>
</svg>
