<svg width="14" height="17" viewBox="0 0 14 17" fill="none" xmlns="http://www.w3.org/2000/svg">
<path d="M12.9628 6.53266V6.53283C12.9632 7.32071 12.809 8.10089 12.5093 8.82871C12.2095 9.55652 11.77 10.2176 11.216 10.7742L11.2065 10.7837L11.1975 10.7937L7.00254 15.4541L2.80237 10.7935L2.79352 10.7837L2.7842 10.7743C2.0908 10.0771 1.57893 9.21862 1.29416 8.27466C1.00938 7.33069 0.960562 6.33061 1.15207 5.36309C1.34358 4.39559 1.76945 3.49072 2.39173 2.72856C3.01398 1.96643 3.81339 1.37057 4.71898 0.993482C5.62456 0.616403 6.60854 0.469657 7.58383 0.566147C8.55913 0.662638 9.49592 0.999409 10.3112 1.54685C11.1265 2.0943 11.7951 2.83558 12.2577 3.70528C12.7204 4.57498 12.9626 5.54612 12.9628 6.53266Z" stroke="#767676" stroke-width="1.07468"/>
<path d="M8.93297 6.52776C8.93297 7.60485 8.06507 8.47325 7.00029 8.47325C5.93552 8.47325 5.06761 7.60485 5.06761 6.52776C5.06761 5.45066 5.93552 4.58226 7.00029 4.58226C8.06507 4.58226 8.93297 5.45066 8.93297 6.52776Z" stroke="#767676" stroke-width="1.07468"/>
</svg>
