<svg width="282" height="224" viewBox="0 0 282 224" fill="none" xmlns="http://www.w3.org/2000/svg">
<path d="M78.0705 81.9785C78.4993 76.1539 83.5688 71.7797 89.3934 72.2085L225.711 82.2441C229.81 82.5458 232.888 86.1132 232.586 90.212L225.611 184.961L71.3253 173.603L78.0705 81.9785Z" fill="#F7F7F7" stroke="#C4C4C4" stroke-width="0.783333"/>
<path d="M214.296 66.584H58.5089C53.8832 66.584 50.1333 70.3339 50.1333 74.9596V167.092C50.1333 171.717 53.8832 175.467 58.5089 175.467H214.296C218.922 175.467 222.672 171.717 222.672 167.092V74.9596C222.672 70.3339 218.922 66.584 214.296 66.584Z" fill="#FAFAFA" stroke="#C4C4C4" stroke-width="0.783333" stroke-miterlimit="10"/>
<path d="M218.484 85.2195L152.978 123.035L149.008 116.167C147.575 113.655 146.989 111.301 147.333 109.274C147.522 108.217 147.956 107.219 148.6 106.359C149.245 105.5 150.081 104.803 151.043 104.324L209.162 70.7715H199.111L148.53 99.9773C146.913 100.825 145.515 102.036 144.445 103.516C143.376 104.995 142.664 106.703 142.366 108.504C141.872 111.678 142.676 115.204 144.677 118.68L152.123 131.562C154.779 136.168 153.849 139.326 149.008 142.115L138.186 148.372L93.4018 70.7882H87.5975L112.163 113.345L54.321 146.697V152.56L114.676 117.709L133.839 150.884L98.4691 171.296H108.52L136.352 155.231L145.624 171.296H151.428L140.699 152.719L151.495 146.487C158.757 142.299 160.516 136.11 156.445 129.066L155.49 127.391L218.484 91.0238V85.2195Z" fill="#E5E5E5"/>
<path d="M213.458 70.7715H59.3464C56.571 70.7715 54.321 73.0214 54.321 75.7969V166.254C54.321 169.029 56.571 171.279 59.3464 171.279H213.458C216.234 171.279 218.484 169.029 218.484 166.254V75.7969C218.484 73.0214 216.234 70.7715 213.458 70.7715Z" stroke="#C4C4C4" stroke-width="0.783333" stroke-miterlimit="10"/>
<g clip-path="url(#clip0_2730_93546)">
<path d="M212.069 138.554V138.554C212.07 140.516 211.686 142.459 210.939 144.272C210.192 146.085 209.097 147.732 207.717 149.119L207.706 149.13L207.696 149.142L197.243 160.754C197.235 160.759 197.226 160.762 197.217 160.762C197.208 160.762 197.199 160.759 197.19 160.754L186.725 149.141L186.715 149.13L186.704 149.119C184.976 147.382 183.701 145.244 182.992 142.892C182.283 140.541 182.161 138.05 182.638 135.641C183.115 133.231 184.176 130.977 185.726 129.078C187.276 127.18 189.268 125.695 191.525 124.755C193.782 123.815 196.235 123.449 198.666 123.69C201.097 123.93 203.431 124.77 205.463 126.134C207.494 127.498 209.16 129.345 210.313 131.511C211.465 133.678 212.068 136.097 212.069 138.554Z" fill="#FFBCB1" stroke="#FF7964" stroke-width="1.23817"/>
<path d="M202.472 138.541C202.472 141.467 200.113 143.833 197.21 143.833C194.307 143.833 191.948 141.467 191.948 138.541C191.948 135.615 194.307 133.248 197.21 133.248C200.113 133.248 202.472 135.615 202.472 138.541Z" fill="#FFF2EF" stroke="#FF7964" stroke-width="1.23817"/>
</g>
<g clip-path="url(#clip1_2730_93546)">
<path d="M82.6416 135.183V135.184C82.6423 136.425 82.3994 137.654 81.927 138.801C81.4546 139.948 80.7619 140.99 79.8887 141.868L79.8818 141.875L79.8752 141.882L73.2621 149.229C73.2571 149.232 73.2513 149.234 73.2456 149.234C73.2398 149.234 73.234 149.232 73.2289 149.229L66.6079 141.882L66.6014 141.875L66.5946 141.868C65.5017 140.769 64.695 139.416 64.2463 137.928C63.7976 136.441 63.7206 134.865 64.0224 133.341C64.3242 131.816 64.9952 130.39 65.976 129.189C66.9568 127.988 68.217 127.048 69.6448 126.454C71.0727 125.859 72.6242 125.628 74.1622 125.78C75.7001 125.932 77.1771 126.463 78.4624 127.326C79.7477 128.189 80.8016 129.358 81.5306 130.728C82.2597 132.099 82.6413 133.629 82.6416 135.183Z" fill="#FFBCB1" stroke="#FF7964" stroke-width="0.783333"/>
<path d="M76.5703 135.176C76.5703 137.027 75.0778 138.524 73.2411 138.524C71.4044 138.524 69.9119 137.027 69.9119 135.176C69.9119 133.324 71.4044 131.827 73.2411 131.827C75.0778 131.827 76.5703 133.324 76.5703 135.176Z" fill="#FFF2EF" stroke="#FF7964" stroke-width="0.783333"/>
</g>
<g clip-path="url(#clip2_2730_93546)">
<path d="M99.2171 151.616V151.616C99.2175 152.46 99.0524 153.296 98.7311 154.076C98.4099 154.856 97.9389 155.564 97.3451 156.161L97.3449 156.161L97.3359 156.17L92.839 161.166C92.8356 161.169 92.8317 161.17 92.8278 161.17C92.8238 161.17 92.8199 161.169 92.8164 161.166L88.3141 156.17L88.3144 156.17L88.3051 156.161C87.5619 155.414 87.0134 154.493 86.7083 153.482C86.4031 152.471 86.3508 151.399 86.556 150.362C86.7612 149.326 87.2176 148.356 87.8845 147.539C88.5514 146.722 89.4083 146.084 90.3793 145.679C91.3502 145.275 92.4053 145.118 93.451 145.221C94.4968 145.325 95.5012 145.686 96.3752 146.272C97.2492 146.859 97.9658 147.654 98.4616 148.586C98.9574 149.518 99.2169 150.558 99.2171 151.616Z" fill="#FFBCB1" stroke="#FF7964" stroke-width="0.532667"/>
<path d="M95.0886 151.61C95.0886 152.869 94.0737 153.887 92.8247 153.887C91.5757 153.887 90.5609 152.869 90.5609 151.61C90.5609 150.351 91.5757 149.333 92.8247 149.333C94.0737 149.333 95.0886 150.351 95.0886 151.61Z" fill="#FFF2EF" stroke="#FF7964" stroke-width="0.532667"/>
</g>
<g clip-path="url(#clip3_2730_93546)">
<path d="M153.048 74.099V74.0991C153.048 75.6386 152.747 77.163 152.162 78.5852C151.576 80.0074 150.717 81.2994 149.634 82.3874L149.625 82.396L149.617 82.4051L141.417 91.515C141.411 91.5192 141.404 91.5213 141.397 91.5213C141.389 91.5213 141.382 91.5192 141.376 91.5149L133.166 82.4049L133.158 82.396L133.149 82.3875C131.794 81.0249 130.794 79.3471 130.237 77.5026C129.681 75.6582 129.586 73.7042 129.96 71.8138C130.334 69.9234 131.166 68.1552 132.382 66.6656C133.598 65.1761 135.161 64.0112 136.932 63.274C138.702 62.5368 140.626 62.2498 142.533 62.4385C144.44 62.6272 146.272 63.2856 147.865 64.3558C149.459 65.426 150.766 66.8749 151.67 68.5744C152.574 70.2739 153.047 72.1715 153.048 74.099Z" fill="#FFBCB1" stroke="#FF7964" stroke-width="0.971333"/>
<path d="M145.519 74.088C145.519 76.3835 143.669 78.2401 141.391 78.2401C139.113 78.2401 137.263 76.3835 137.263 74.088C137.263 71.7924 139.113 69.9359 141.391 69.9359C143.669 69.9359 145.519 71.7924 145.519 74.088Z" fill="#FFF2EF" stroke="#FF7964" stroke-width="0.971333"/>
</g>
<g clip-path="url(#clip4_2730_93546)">
<path d="M164.312 92.4618V92.4619C164.312 93.0578 164.196 93.6479 163.969 94.1984C163.742 94.749 163.41 95.2491 162.991 95.6702L162.99 95.6701L162.984 95.6771L159.81 99.2035C159.807 99.2051 159.805 99.2059 159.802 99.2059C159.799 99.2059 159.796 99.2051 159.794 99.2035L156.616 95.677L156.616 95.6769L156.609 95.6703C156.085 95.1428 155.698 94.4933 155.482 93.7794C155.267 93.0654 155.23 92.309 155.375 91.5772C155.52 90.8455 155.842 90.161 156.312 89.5844C156.783 89.0078 157.388 88.5569 158.074 88.2715C158.759 87.9861 159.504 87.8751 160.242 87.9481C160.98 88.0211 161.689 88.276 162.306 88.6903C162.923 89.1045 163.429 89.6654 163.779 90.3233C164.129 90.9812 164.312 91.7157 164.312 92.4618Z" fill="#FFBCB1" stroke="#FF7964" stroke-width="0.376"/>
<path d="M161.398 92.4574C161.398 93.346 160.681 94.0646 159.8 94.0646C158.918 94.0646 158.202 93.346 158.202 92.4574C158.202 91.5688 158.918 90.8501 159.8 90.8501C160.681 90.8501 161.398 91.5688 161.398 92.4574Z" fill="#FFF2EF" stroke="#FF7964" stroke-width="0.376"/>
</g>
<g filter="url(#filter0_d_2730_93546)">
<mask id="path-15-inside-1_2730_93546" fill="white">
<path fill-rule="evenodd" clip-rule="evenodd" d="M57.9666 21.9326C53.6404 21.9326 50.1333 25.4397 50.1333 29.766V45.4326C50.1333 49.7588 53.6404 53.266 57.9666 53.266H136.477L139.681 58.2604C140.298 59.2214 141.702 59.2214 142.319 58.2604L145.523 53.266H224.033C228.36 53.266 231.867 49.7588 231.867 45.4326V29.766C231.867 25.4397 228.36 21.9326 224.033 21.9326H57.9666Z"/>
</mask>
<path fill-rule="evenodd" clip-rule="evenodd" d="M57.9666 21.9326C53.6404 21.9326 50.1333 25.4397 50.1333 29.766V45.4326C50.1333 49.7588 53.6404 53.266 57.9666 53.266H136.477L139.681 58.2604C140.298 59.2214 141.702 59.2214 142.319 58.2604L145.523 53.266H224.033C228.36 53.266 231.867 49.7588 231.867 45.4326V29.766C231.867 25.4397 228.36 21.9326 224.033 21.9326H57.9666Z" fill="white"/>
<path d="M136.477 53.266L137.137 52.843L136.906 52.4826H136.477V53.266ZM139.681 58.2604L140.341 57.8374V57.8374L139.681 58.2604ZM142.319 58.2604L141.659 57.8374V57.8374L142.319 58.2604ZM145.523 53.266V52.4826H145.094L144.863 52.843L145.523 53.266ZM50.9166 29.766C50.9166 25.8723 54.073 22.716 57.9666 22.716V21.1493C53.2078 21.1493 49.35 25.0071 49.35 29.766H50.9166ZM50.9166 45.4326V29.766H49.35V45.4326H50.9166ZM57.9666 52.4826C54.073 52.4826 50.9166 49.3262 50.9166 45.4326H49.35C49.35 50.1915 53.2078 54.0493 57.9666 54.0493V52.4826ZM136.477 52.4826H57.9666V54.0493H136.477V52.4826ZM140.341 57.8374L137.137 52.843L135.818 53.6889L139.022 58.6833L140.341 57.8374ZM141.659 57.8374C141.351 58.3179 140.649 58.3179 140.341 57.8374L139.022 58.6833C139.947 60.1248 142.053 60.1248 142.978 58.6833L141.659 57.8374ZM144.863 52.843L141.659 57.8374L142.978 58.6833L146.182 53.6889L144.863 52.843ZM224.033 52.4826H145.523V54.0493H224.033V52.4826ZM231.083 45.4326C231.083 49.3262 227.927 52.4826 224.033 52.4826V54.0493C228.792 54.0493 232.65 50.1915 232.65 45.4326H231.083ZM231.083 29.766V45.4326H232.65V29.766H231.083ZM224.033 22.716C227.927 22.716 231.083 25.8723 231.083 29.766H232.65C232.65 25.0071 228.792 21.1493 224.033 21.1493V22.716ZM57.9666 22.716H224.033V21.1493H57.9666V22.716Z" fill="#FFBCB1" mask="url(#path-15-inside-1_2730_93546)"/>
</g>
<path d="M72.795 33.9834V34.9046H76.2604C76.0301 37.1856 74.7251 38.9293 72.3015 40.1686L72.9266 41.0349C76.1617 39.4009 77.39 36.8566 77.39 33.9834H72.795ZM81.4806 36.8457H79.9781V32.9306H78.8486V42.8335H79.9781V37.7888H81.4806V36.8457ZM87.9939 37.6024C86.4805 37.1198 85.658 35.9683 85.658 34.7401V34.5536H87.7307V33.6434H82.4119V34.5536H84.5175V34.751C84.5175 36.0999 83.6511 37.3721 82.0938 37.9094L82.6641 38.7977C83.8485 38.392 84.682 37.5475 85.1206 36.4947C85.5483 37.4159 86.3379 38.1288 87.4456 38.4797L87.9939 37.6024ZM86.7218 41.9561C85.34 41.9561 84.5394 41.6052 84.5394 40.9691C84.5394 40.3221 85.34 39.9821 86.7218 39.9821C88.1036 39.9821 88.9041 40.3221 88.9041 40.9691C88.9041 41.6052 88.1036 41.9561 86.7218 41.9561ZM86.7218 39.0938C84.682 39.0938 83.4208 39.7847 83.4208 40.9691C83.4208 42.1426 84.682 42.8444 86.7218 42.8444C88.7616 42.8444 90.0227 42.1426 90.0227 40.9691C90.0227 39.7847 88.7616 39.0938 86.7218 39.0938ZM89.9131 35.3542V32.9415H88.7835V38.8635H89.9131V36.2864H91.3168V35.3542H89.9131ZM98.2097 37.5585H95.8299V34.6633H98.2097V37.5585ZM99.3064 36.5386H101.368V40.1686H102.498V32.9415H101.368V35.6174H99.3064V33.764H94.7223V38.4578H99.3064V36.5386ZM97.2117 41.7368V39.4996H96.0822V42.658H102.75V41.7368H97.2117ZM107.717 34.8497H109.866V33.9285H104.438V34.8497H106.576V35.6503C106.576 37.4379 105.578 39.3241 104.054 40.0589L104.723 40.9582C105.875 40.366 106.73 39.1596 107.169 37.7559C107.607 39.0829 108.452 40.2015 109.581 40.7498L110.239 39.8615C108.704 39.1487 107.717 37.3282 107.717 35.6503V34.8497ZM111.248 32.9306V36.4728H109.296V37.405H111.248V42.8554H112.378V32.9306H111.248ZM116.759 33.9834V34.9046H120.225C119.994 37.1856 118.689 38.9293 116.266 40.1686L116.891 41.0349C120.126 39.4009 121.354 36.8566 121.354 33.9834H116.759ZM125.445 36.8457H123.942V32.9306H122.813V42.8335H123.942V37.7888H125.445V36.8457ZM131.454 36.8786H129.995C130.28 36.0341 130.412 35.1239 130.412 34.1588H126.563V35.0691H129.293C129.129 37.0979 128.153 38.721 126.091 39.9492L126.738 40.7498C128.109 39.9273 129.052 38.9293 129.633 37.7888H131.454V42.3729H132.518V33.1828H131.454V36.8786ZM133.526 32.9415V42.8444H134.612V32.9415H133.526ZM142.738 34.6304H137.156V36.8566H144.032V36.067H138.263V35.3652H143.856V33.1828H137.134V33.9614H142.738V34.6304ZM138.186 41.1994H143.889V38.9842H137.046V39.7628H142.771V40.4647H137.068V42.7348H144.185V41.9561H138.186V41.1994ZM136.004 37.4817V38.3152H144.986V37.4817H136.004ZM151.681 34.8497H153.831V33.9285H148.402V34.8497H150.541V35.6503C150.541 37.4379 149.543 39.3241 148.018 40.0589L148.687 40.9582C149.839 40.366 150.694 39.1596 151.133 37.7559C151.572 39.0829 152.416 40.2015 153.546 40.7498L154.204 39.8615C152.668 39.1487 151.681 37.3282 151.681 35.6503V34.8497ZM155.213 32.9306V36.4728H153.26V37.405H155.213V42.8554H156.342V32.9306H155.213ZM163.81 37.6024C162.296 37.1198 161.474 35.9683 161.474 34.7401V34.5536H163.546V33.6434H158.228V34.5536H160.333V34.751C160.333 36.0999 159.467 37.3721 157.909 37.9094L158.48 38.7977C159.664 38.392 160.498 37.5475 160.936 36.4947C161.364 37.4159 162.154 38.1288 163.261 38.4797L163.81 37.6024ZM162.537 41.9561C161.156 41.9561 160.355 41.6052 160.355 40.9691C160.355 40.3221 161.156 39.9821 162.537 39.9821C163.919 39.9821 164.72 40.3221 164.72 40.9691C164.72 41.6052 163.919 41.9561 162.537 41.9561ZM162.537 39.0938C160.498 39.0938 159.236 39.7847 159.236 40.9691C159.236 42.1426 160.498 42.8444 162.537 42.8444C164.577 42.8444 165.838 42.1426 165.838 40.9691C165.838 39.7847 164.577 39.0938 162.537 39.0938ZM165.729 35.3542V32.9415H164.599V38.8635H165.729V36.2864H167.132V35.3542H165.729ZM170.279 39.686C169.61 39.686 169.139 39.1487 169.139 38.3262C169.139 37.5037 169.61 36.9553 170.279 36.9553C170.948 36.9553 171.42 37.5037 171.42 38.3262C171.42 39.1487 170.948 39.686 170.279 39.686ZM170.279 36.0232C169.029 36.0232 168.13 36.9553 168.13 38.3262C168.13 39.686 169.029 40.6292 170.279 40.6292C171.529 40.6292 172.429 39.686 172.429 38.3262C172.429 36.9553 171.529 36.0232 170.279 36.0232ZM170.838 33.2267H169.72V34.5536H167.844V35.4639H172.692V34.5536H170.838V33.2267ZM175.225 32.9415V37.0431H174.172V33.1499H173.119V42.3838H174.172V37.9752H175.225V42.8444H176.3V32.9415H175.225ZM182.107 36.1767H186.801V37.7998H182.107V36.1767ZM185.013 40.7059V38.71H187.919V33.5995H186.801V35.2665H182.107V33.5995H180.988V38.71H183.884V40.7059H179.979V41.6381H188.95V40.7059H185.013ZM192.886 33.8518H191.79V35.6393C191.79 37.3282 191.11 39.1048 189.706 39.9383L190.397 40.7937C191.351 40.2124 191.998 39.1706 192.349 37.9533C192.689 39.0609 193.281 40.026 194.18 40.5743L194.816 39.697C193.489 38.8635 192.886 37.1856 192.886 35.5845V33.8518ZM195.211 36.407H193.753V37.3282H195.211V42.3838H196.275V33.128H195.211V36.407ZM197.229 32.9415V42.8444H198.304V32.9415H197.229ZM202.942 38.5565C203.326 38.6442 203.753 38.6881 204.192 38.6881C204.631 38.6881 205.058 38.6442 205.442 38.5455V40.7059H202.942V38.5565ZM204.192 34.4001C205.684 34.4001 206.725 35.0581 206.725 36.0999C206.725 37.1527 205.684 37.8107 204.192 37.8107C202.69 37.8107 201.648 37.1527 201.648 36.0999C201.648 35.0581 202.69 34.4001 204.192 34.4001ZM206.572 40.7059V38.1288C207.361 37.6791 207.833 36.9773 207.833 36.0999C207.833 34.5207 206.298 33.5118 204.192 33.5118C202.076 33.5118 200.551 34.5207 200.551 36.0999C200.551 36.9773 201.023 37.6901 201.812 38.1288V40.7059H199.718V41.6271H208.688V40.7059H206.572Z" fill="#585858"/>
<defs>
<filter id="filter0_d_2730_93546" x="37.6" y="9.39928" width="206.8" height="62.1155" filterUnits="userSpaceOnUse" color-interpolation-filters="sRGB">
<feFlood flood-opacity="0" result="BackgroundImageFix"/>
<feColorMatrix in="SourceAlpha" type="matrix" values="0 0 0 0 0 0 0 0 0 0 0 0 0 0 0 0 0 0 127 0" result="hardAlpha"/>
<feOffset/>
<feGaussianBlur stdDeviation="6.26667"/>
<feComposite in2="hardAlpha" operator="out"/>
<feColorMatrix type="matrix" values="0 0 0 0 0 0 0 0 0 0 0 0 0 0 0 0 0 0 0.1 0"/>
<feBlend mode="normal" in2="BackgroundImageFix" result="effect1_dropShadow_2730_93546"/>
<feBlend mode="normal" in="SourceGraphic" in2="effect1_dropShadow_2730_93546" result="shape"/>
</filter>
<clipPath id="clip0_2730_93546">
<rect width="30.9543" height="38.3833" fill="white" transform="translate(181.733 122.983)"/>
</clipPath>
<clipPath id="clip1_2730_93546">
<rect width="19.5833" height="24.2833" fill="white" transform="translate(63.45 125.333)"/>
</clipPath>
<clipPath id="clip2_2730_93546">
<rect width="13.3167" height="16.5127" fill="white" transform="translate(86.1667 144.917)"/>
</clipPath>
<clipPath id="clip3_2730_93546">
<rect width="24.2833" height="30.1113" fill="white" transform="translate(129.25 61.8838)"/>
</clipPath>
<clipPath id="clip4_2730_93546">
<rect width="9.4" height="11.656" fill="white" transform="translate(155.1 87.7334)"/>
</clipPath>
</defs>
</svg>
