<svg width="34" height="34" viewBox="0 0 34 34" fill="none" xmlns="http://www.w3.org/2000/svg">
<rect x="6.5" y="6.5" width="21" height="21" rx="3.5" stroke="#B4B4B4"/>
<path d="M11.985 17.6304H16.3979V22.0433C16.3979 22.1224 16.4135 22.2007 16.4438 22.2737C16.474 22.3468 16.5184 22.4132 16.5743 22.4691C16.6302 22.525 16.6966 22.5693 16.7696 22.5996C16.8426 22.6299 16.9209 22.6454 17 22.6454C17.0791 22.6454 17.1574 22.6299 17.2304 22.5996C17.3035 22.5693 17.3698 22.525 17.4258 22.4691C17.4817 22.4132 17.526 22.3468 17.5563 22.2737C17.5865 22.2007 17.6021 22.1224 17.6021 22.0433V17.6304H22.0221C22.1818 17.6304 22.3349 17.567 22.4478 17.4541C22.5607 17.3412 22.6242 17.188 22.6242 17.0283C22.6242 16.8687 22.5607 16.7155 22.4478 16.6026C22.3349 16.4897 22.1818 16.4263 22.0221 16.4263H17.6021V12.0133C17.6021 11.9343 17.5865 11.856 17.5563 11.7829C17.526 11.7099 17.4817 11.6435 17.4258 11.5876C17.3698 11.5317 17.3035 11.4873 17.2304 11.4571C17.1574 11.4268 17.0791 11.4113 17 11.4113C16.9209 11.4113 16.8426 11.4268 16.7696 11.4571C16.6966 11.4873 16.6302 11.5317 16.5743 11.5876C16.5184 11.6435 16.474 11.7099 16.4438 11.7829C16.4135 11.856 16.3979 11.9343 16.3979 12.0133V16.4263H11.985C11.8253 16.4263 11.6722 16.4897 11.5593 16.6026C11.4464 16.7155 11.3829 16.8687 11.3829 17.0283C11.3829 17.188 11.4464 17.3412 11.5593 17.4541C11.6722 17.567 11.8253 17.6304 11.985 17.6304Z" fill="#B4B4B4"/>
</svg>
