<svg width="48" height="48" viewBox="0 0 48 48" fill="none" xmlns="http://www.w3.org/2000/svg">
<path d="M16.9198 24.8899H23.1498V31.1199C23.1498 31.2315 23.1718 31.342 23.2145 31.4451C23.2572 31.5483 23.3198 31.642 23.3988 31.7209C23.4777 31.7998 23.5714 31.8624 23.6745 31.9052C23.7777 31.9479 23.8882 31.9699 23.9998 31.9699C24.1114 31.9699 24.222 31.9479 24.3251 31.9052C24.4282 31.8624 24.5219 31.7998 24.6009 31.7209C24.6798 31.642 24.7424 31.5483 24.7851 31.4451C24.8278 31.342 24.8498 31.2315 24.8498 31.1199V24.8899H31.0898C31.3152 24.8899 31.5315 24.8003 31.6909 24.6409C31.8503 24.4815 31.9398 24.2653 31.9398 24.0399C31.9398 23.8144 31.8503 23.5982 31.6909 23.4388C31.5315 23.2794 31.3152 23.1899 31.0898 23.1899H24.8498V16.9599C24.8498 16.8482 24.8278 16.7377 24.7851 16.6346C24.7424 16.5315 24.6798 16.4378 24.6009 16.3588C24.5219 16.2799 24.4282 16.2173 24.3251 16.1746C24.222 16.1319 24.1114 16.1099 23.9998 16.1099C23.8882 16.1099 23.7777 16.1319 23.6745 16.1746C23.5714 16.2173 23.4777 16.2799 23.3988 16.3588C23.3198 16.4378 23.2572 16.5315 23.2145 16.6346C23.1718 16.7377 23.1498 16.8482 23.1498 16.9599V23.1899H16.9198C16.6944 23.1899 16.4782 23.2794 16.3188 23.4388C16.1594 23.5982 16.0698 23.8144 16.0698 24.0399C16.0698 24.2653 16.1594 24.4815 16.3188 24.6409C16.4782 24.8003 16.6944 24.8899 16.9198 24.8899Z" />
</svg>
