<svg width="48" height="48" viewBox="0 0 48 48" fill="none" xmlns="http://www.w3.org/2000/svg">
<path d="M24.18 17.1701C25.7071 17.1694 27.1926 17.668 28.41 18.5901H26.89C26.704 18.5872 26.5242 18.6564 26.3881 18.7832C26.252 18.9099 26.1703 19.0844 26.16 19.2701C26.1573 19.3633 26.1731 19.4562 26.2063 19.5434C26.2395 19.6305 26.2896 19.7103 26.3537 19.7781C26.4178 19.8459 26.4946 19.9004 26.5797 19.9385C26.6649 19.9766 26.7567 19.9975 26.85 20.0001L30.2 20.0901H30.28H30.43L30.55 20.0201C30.5838 20.0116 30.6148 19.9943 30.64 19.9701V19.9001L30.73 19.7701V19.6501C30.7347 19.6002 30.7347 19.55 30.73 19.5001C30.73 19.5001 30.73 19.5001 30.73 19.4501L30.65 16.1101C30.6501 16.016 30.631 15.9229 30.5939 15.8365C30.5567 15.75 30.5023 15.6721 30.434 15.6075C30.3656 15.5429 30.2847 15.4929 30.1964 15.4607C30.108 15.4284 30.0139 15.4147 29.92 15.4201C29.8267 15.4227 29.7349 15.4436 29.6497 15.4817C29.5646 15.5198 29.4878 15.5743 29.4237 15.6421C29.3596 15.7099 29.3095 15.7897 29.2763 15.8768C29.2431 15.964 29.2273 16.0568 29.23 16.1501V17.7401C27.982 16.744 26.4782 16.1205 24.8915 15.9413C23.3049 15.7622 21.6999 16.0346 20.2612 16.7273C18.8226 17.42 17.6087 18.5048 16.7593 19.8569C15.9099 21.209 15.4595 22.7734 15.46 24.3701C15.46 24.5584 15.5348 24.739 15.6679 24.8721C15.8011 25.0053 15.9817 25.0801 16.17 25.0801C16.3583 25.0801 16.5388 25.0053 16.672 24.8721C16.8051 24.739 16.8799 24.5584 16.8799 24.3701C16.8632 23.4115 17.0414 22.4594 17.4036 21.5717C17.7659 20.684 18.3046 19.8792 18.9872 19.2059C19.6698 18.5327 20.4821 18.0051 21.3747 17.6551C22.2673 17.3052 23.2217 17.1402 24.18 17.1701Z" fill="#585858"/>
<path d="M31.5998 23.0503C31.507 23.049 31.415 23.0661 31.3289 23.1007C31.2428 23.1353 31.1644 23.1866 31.0983 23.2518C31.0323 23.3169 30.9798 23.3945 30.944 23.4801C30.9082 23.5657 30.8898 23.6575 30.8898 23.7503C30.8912 25.0614 30.5275 26.3471 29.8394 27.4631C29.1513 28.5791 28.1659 29.4815 26.9938 30.0691C25.8218 30.6567 24.5092 30.9063 23.2033 30.7899C21.8973 30.6736 20.6495 30.1959 19.5998 29.4103H21.1198C21.2126 29.413 21.3049 29.3972 21.3915 29.3638C21.4781 29.3304 21.5572 29.2802 21.6242 29.216C21.6912 29.1518 21.7447 29.0749 21.7818 28.9898C21.8188 28.9047 21.8385 28.8131 21.8398 28.7203C21.8425 28.6271 21.8267 28.5342 21.7935 28.4471C21.7602 28.3599 21.7102 28.2801 21.6461 28.2123C21.582 28.1445 21.5052 28.09 21.4201 28.0519C21.3349 28.0138 21.243 27.9929 21.1498 27.9903L17.7798 27.9403H17.7098C17.6405 27.926 17.569 27.926 17.4998 27.9403C17.4383 27.9603 17.3808 27.9907 17.3298 28.0303C17.3044 28.0525 17.284 28.0797 17.2698 28.1103C17.2374 28.1499 17.2105 28.1936 17.1898 28.2403C17.1841 28.2767 17.1841 28.3139 17.1898 28.3503C17.1843 28.4035 17.1843 28.4571 17.1898 28.5103L17.2798 31.8603C17.285 32.0451 17.3621 32.2206 17.4947 32.3495C17.6273 32.4783 17.8049 32.5504 17.9898 32.5503C18.1773 32.5425 18.3542 32.4618 18.4831 32.3255C18.612 32.1892 18.6826 32.0079 18.6798 31.8203V30.2303C19.9284 31.2269 21.4332 31.8506 23.0207 32.0294C24.6083 32.2082 26.2141 31.9348 27.6531 31.2409C29.0921 30.547 30.3058 29.4608 31.1544 28.1072C32.0031 26.7537 32.4521 25.1879 32.4498 23.5903C32.4309 23.4982 32.3937 23.4109 32.3404 23.3335C32.2871 23.2561 32.2187 23.1903 32.1394 23.1399C32.0601 23.0895 31.9714 23.0556 31.8787 23.0402C31.786 23.0248 31.6912 23.0282 31.5998 23.0503Z" />
</svg>
