<svg width="14" height="18" viewBox="0 0 14 18" fill="none" xmlns="http://www.w3.org/2000/svg">
<path d="M12.4012 0.809814H1.5922C1.42 0.809814 1.25482 0.87822 1.13305 0.999988C1.01128 1.12176 0.942871 1.28691 0.942871 1.45912V16.5383C0.943245 16.6502 0.972215 16.7602 1.02703 16.8578C1.08184 16.9554 1.1607 17.0374 1.25609 17.0959C1.35435 17.1501 1.46471 17.1785 1.57691 17.1785C1.68911 17.1785 1.79947 17.1501 1.89773 17.0959L7.00055 13.6666L12.0957 17.0959C12.1903 17.1444 12.2948 17.1706 12.4012 17.1723C12.5193 17.1718 12.6353 17.1402 12.7373 17.0806C12.8343 17.0238 12.9144 16.9422 12.9694 16.8442C13.0244 16.7462 13.0524 16.6354 13.0505 16.523V1.45912C13.0505 1.28691 12.9821 1.12176 12.8604 0.999988C12.7386 0.87822 12.5734 0.809814 12.4012 0.809814Z" fill="#FF7964"/>
</svg>
