<svg width="68" height="32" viewBox="0 0 68 32" fill="none" xmlns="http://www.w3.org/2000/svg">
<rect x="0.5" y="0.5" width="67" height="31" rx="3.5" fill="#FFF2EF" stroke="#FFBCB1"/>
<path d="M23.3027 7.95996H12.6903C12.5212 7.95996 12.359 8.02712 12.2395 8.14668C12.1199 8.26623 12.0527 8.42838 12.0527 8.59746V23.4025C12.0531 23.5124 12.0815 23.6203 12.1354 23.7162C12.1892 23.812 12.2666 23.8925 12.3603 23.95C12.4567 24.0031 12.5651 24.031 12.6752 24.031C12.7854 24.031 12.8938 24.0031 12.9902 23.95L18.0003 21.2275L23.0028 23.95C23.0957 23.9976 23.1983 24.0232 23.3027 24.025C23.4187 24.0245 23.5326 23.9934 23.6327 23.935C23.7279 23.8791 23.8066 23.799 23.8606 23.7028C23.9146 23.6066 23.9421 23.4978 23.9403 23.3875V8.59746C23.9403 8.42838 23.8731 8.26623 23.7535 8.14668C23.634 8.02712 23.4718 7.95996 23.3027 7.95996Z" fill="#FF7964"/>
<path d="M36.875 12.524H39.423V11.432H32.988V12.524H35.523V13.473C35.523 15.592 34.34 17.828 32.533 18.699L33.326 19.765C34.691 19.063 35.705 17.633 36.225 15.969C36.745 17.542 37.746 18.868 39.085 19.518L39.865 18.465C38.045 17.62 36.875 15.462 36.875 13.473V12.524ZM41.061 10.249V14.448H38.747V15.553H41.061V22.014H42.4V10.249H41.061ZM51.252 15.787C49.458 15.215 48.483 13.85 48.483 12.394V12.173H50.94V11.094H44.635V12.173H47.131V12.407C47.131 14.006 46.104 15.514 44.258 16.151L44.934 17.204C46.338 16.723 47.326 15.722 47.846 14.474C48.353 15.566 49.289 16.411 50.602 16.827L51.252 15.787ZM49.744 20.948C48.106 20.948 47.157 20.532 47.157 19.778C47.157 19.011 48.106 18.608 49.744 18.608C51.382 18.608 52.331 19.011 52.331 19.778C52.331 20.532 51.382 20.948 49.744 20.948ZM49.744 17.555C47.326 17.555 45.831 18.374 45.831 19.778C45.831 21.169 47.326 22.001 49.744 22.001C52.162 22.001 53.657 21.169 53.657 19.778C53.657 18.374 52.162 17.555 49.744 17.555ZM53.527 13.122V10.262H52.188V17.282H53.527V14.227H55.191V13.122H53.527Z" fill="#FF7964"/>
</svg>
