<svg width="16" height="20" viewBox="0 0 16 20" fill="none" xmlns="http://www.w3.org/2000/svg">
<path d="M14.4814 0.171875H1.51065C1.304 0.171875 1.10578 0.253961 0.959661 0.400084C0.813539 0.546206 0.731445 0.744392 0.731445 0.95104V19.046C0.731894 19.1804 0.766658 19.3123 0.832433 19.4295C0.898209 19.5466 0.992846 19.6449 1.10731 19.7152C1.22522 19.7802 1.35765 19.8143 1.49229 19.8143C1.62693 19.8143 1.75937 19.7802 1.87728 19.7152L8.00066 15.6L14.1148 19.7152C14.2284 19.7734 14.3538 19.8048 14.4814 19.8069C14.6232 19.8063 14.7623 19.7683 14.8848 19.6969C15.0011 19.6287 15.0973 19.5307 15.1633 19.4131C15.2293 19.2956 15.2629 19.1625 15.2606 19.0277V0.95104C15.2606 0.744392 15.1786 0.546206 15.0324 0.400084C14.8863 0.253961 14.6881 0.171875 14.4814 0.171875Z" fill="#FF7964"/>
</svg>
