<svg width="68" height="32" viewBox="0 0 68 32" fill="none" xmlns="http://www.w3.org/2000/svg">
<rect width="68" height="32" rx="4" fill="#F5F5F5"/>
<path d="M23.3102 7.95996H12.6902C12.5211 7.95996 12.359 8.02712 12.2395 8.14668C12.1199 8.26623 12.0527 8.42838 12.0527 8.59746V23.4025C12.0543 23.5177 12.0864 23.6304 12.1457 23.7292C12.2049 23.828 12.2893 23.9093 12.3902 23.965C12.4898 24.0252 12.6039 24.057 12.7202 24.057C12.8366 24.057 12.9507 24.0252 13.0502 23.965L18.0002 20.5825L22.9502 23.965C23.0557 24.0388 23.1815 24.0781 23.3102 24.0775C23.4126 24.0785 23.5135 24.0526 23.6027 24.0025C23.7055 23.9484 23.7919 23.8677 23.8526 23.7687C23.9133 23.6697 23.9462 23.5561 23.9477 23.44V8.59746C23.9477 8.42838 23.8806 8.26623 23.761 8.14668C23.6414 8.02712 23.4793 7.95996 23.3102 7.95996ZM22.6727 22.21L18.3752 19.24C18.2693 19.167 18.1438 19.1278 18.0152 19.1275C17.8865 19.1268 17.7607 19.1661 17.6552 19.24L13.3427 22.195V9.23496H22.6877L22.6727 22.21Z" fill="#9C9C9C"/>
<path d="M36.875 12.524H39.423V11.432H32.988V12.524H35.523V13.473C35.523 15.592 34.34 17.828 32.533 18.699L33.326 19.765C34.691 19.063 35.705 17.633 36.225 15.969C36.745 17.542 37.746 18.868 39.085 19.518L39.865 18.465C38.045 17.62 36.875 15.462 36.875 13.473V12.524ZM41.061 10.249V14.448H38.747V15.553H41.061V22.014H42.4V10.249H41.061ZM51.252 15.787C49.458 15.215 48.483 13.85 48.483 12.394V12.173H50.94V11.094H44.635V12.173H47.131V12.407C47.131 14.006 46.104 15.514 44.258 16.151L44.934 17.204C46.338 16.723 47.326 15.722 47.846 14.474C48.353 15.566 49.289 16.411 50.602 16.827L51.252 15.787ZM49.744 20.948C48.106 20.948 47.157 20.532 47.157 19.778C47.157 19.011 48.106 18.608 49.744 18.608C51.382 18.608 52.331 19.011 52.331 19.778C52.331 20.532 51.382 20.948 49.744 20.948ZM49.744 17.555C47.326 17.555 45.831 18.374 45.831 19.778C45.831 21.169 47.326 22.001 49.744 22.001C52.162 22.001 53.657 21.169 53.657 19.778C53.657 18.374 52.162 17.555 49.744 17.555ZM53.527 13.122V10.262H52.188V17.282H53.527V14.227H55.191V13.122H53.527Z" fill="#767676"/>
</svg>
