<svg width="48" height="48" viewBox="0 0 48 48" fill="none" xmlns="http://www.w3.org/2000/svg">
<path d="M31.0703 13.2798H16.9203C16.6949 13.2798 16.4787 13.3693 16.3193 13.5287C16.1599 13.6881 16.0703 13.9043 16.0703 14.1298V33.8698C16.0708 34.0163 16.1087 34.1603 16.1805 34.288C16.2522 34.4158 16.3555 34.5231 16.4803 34.5998C16.609 34.6707 16.7534 34.7079 16.9003 34.7079C17.0472 34.7079 17.1917 34.6707 17.3203 34.5998L24.0004 30.9698L30.6703 34.5998C30.7943 34.6633 30.9311 34.6975 31.0703 34.6998C31.225 34.6991 31.3767 34.6578 31.5103 34.5798C31.6372 34.5054 31.7421 34.3985 31.8141 34.2703C31.8862 34.142 31.9228 33.9969 31.9203 33.8498V14.1298C31.9203 13.9043 31.8308 13.6881 31.6714 13.5287C31.512 13.3693 31.2957 13.2798 31.0703 13.2798Z" fill="#FF7964"/>
</svg>
