<svg width="48" height="48" viewBox="0 0 48 48" fill="none" xmlns="http://www.w3.org/2000/svg">
<path d="M31.0803 13.2798H16.9203C16.6949 13.2798 16.4787 13.3693 16.3193 13.5287C16.1599 13.6881 16.0703 13.9043 16.0703 14.1298V33.8698C16.0724 34.0234 16.1152 34.1737 16.1942 34.3054C16.2733 34.4372 16.3858 34.5456 16.5203 34.6198C16.653 34.7001 16.8052 34.7425 16.9603 34.7425C17.1154 34.7425 17.2676 34.7001 17.4003 34.6198L24.0003 30.1098L30.6003 34.6198C30.7409 34.7182 30.9087 34.7706 31.0803 34.7698C31.2168 34.7712 31.3513 34.7367 31.4703 34.6698C31.6074 34.5978 31.7225 34.4901 31.8035 34.3581C31.8844 34.2261 31.9283 34.0746 31.9303 33.9198V14.1298C31.9303 13.9043 31.8407 13.6881 31.6813 13.5287C31.5219 13.3693 31.3058 13.2798 31.0803 13.2798ZM30.2303 32.2798L24.5003 28.3198C24.3591 28.2225 24.1918 28.1702 24.0203 28.1698C23.8487 28.1689 23.6809 28.2213 23.5403 28.3198L17.7903 32.2598V14.9798H30.2503L30.2303 32.2798Z" fill="#585858"/>
</svg>
