<svg width="16" height="20" viewBox="0 0 16 20" fill="none" xmlns="http://www.w3.org/2000/svg">
<path d="M14.4901 0.173828H1.5101C1.30345 0.173828 1.10529 0.255915 0.959173 0.402037C0.81305 0.548159 0.730957 0.746346 0.730957 0.952993V19.048C0.732891 19.1888 0.77208 19.3266 0.844533 19.4473C0.916987 19.5681 1.02013 19.6675 1.14347 19.7355C1.26513 19.8091 1.40461 19.848 1.5468 19.848C1.689 19.848 1.82848 19.8091 1.95014 19.7355L8.00012 15.6013L14.0501 19.7355C14.179 19.8257 14.3328 19.8738 14.4901 19.873C14.6153 19.8743 14.7385 19.8426 14.8476 19.7813C14.9733 19.7153 15.0788 19.6166 15.153 19.4956C15.2272 19.3746 15.2674 19.2358 15.2693 19.0938V0.952993C15.2693 0.746346 15.1872 0.548159 15.0411 0.402037C14.8949 0.255915 14.6968 0.173828 14.4901 0.173828ZM13.7109 17.5905L8.45845 13.9605C8.32901 13.8713 8.17565 13.8234 8.01847 13.823C7.86111 13.8222 7.70735 13.8703 7.57843 13.9605L2.3076 17.5722V1.73216H13.7293L13.7109 17.5905Z" fill="#767676"/>
</svg>
