<svg width="14" height="18" viewBox="0 0 14 18" fill="none" xmlns="http://www.w3.org/2000/svg">
<path d="M12.4084 0.811523H1.59167C1.41946 0.811523 1.25433 0.879929 1.13256 1.0017C1.01079 1.12347 0.942383 1.28862 0.942383 1.46083V16.54C0.943995 16.6573 0.976652 16.7722 1.03703 16.8728C1.09741 16.9734 1.18336 17.0563 1.28614 17.1129C1.38752 17.1742 1.50376 17.2067 1.62226 17.2067C1.74075 17.2067 1.85699 17.1742 1.95837 17.1129L7.00002 13.6678L12.0417 17.1129C12.1491 17.1881 12.2772 17.2281 12.4084 17.2275C12.5126 17.2285 12.6153 17.2022 12.7062 17.1511C12.811 17.0961 12.8989 17.0138 12.9608 16.913C13.0226 16.8121 13.0561 16.6965 13.0576 16.5782V1.46083C13.0576 1.28862 12.9892 1.12347 12.8675 1.0017C12.7457 0.879929 12.5806 0.811523 12.4084 0.811523ZM11.759 15.3254L7.38196 12.3004C7.27409 12.2261 7.14629 12.1862 7.01531 12.1858C6.88418 12.1852 6.75604 12.2252 6.64861 12.3004L2.25625 15.3101V2.11013H11.7743L11.759 15.3254Z" fill="#FF7964"/>
</svg>
