<svg width="48" height="48" viewBox="0 0 48 48" fill="none" xmlns="http://www.w3.org/2000/svg">
<path d="M24.0001 34.4201C29.7549 34.4201 34.4201 29.7549 34.4201 24.0001C34.4201 18.2453 29.7549 13.5801 24.0001 13.5801C18.2453 13.5801 13.5801 18.2453 13.5801 24.0001C13.5801 29.7549 18.2453 34.4201 24.0001 34.4201Z" fill="#E5E5E5"/>
<path d="M25.2103 24.0002L28.3603 20.8502C28.519 20.6908 28.6082 20.4751 28.6082 20.2502C28.6082 20.0252 28.519 19.8095 28.3603 19.6502C28.1992 19.4908 27.9818 19.4014 27.7553 19.4014C27.5287 19.4014 27.3113 19.4908 27.1503 19.6502L24.0003 22.8002L20.8603 19.6502C20.6992 19.4908 20.4818 19.4014 20.2553 19.4014C20.0287 19.4014 19.8113 19.4908 19.6503 19.6502C19.4915 19.8095 19.4023 20.0252 19.4023 20.2502C19.4023 20.4751 19.4915 20.6908 19.6503 20.8502L22.8003 24.0002L19.6503 27.1502C19.4911 27.3106 19.4023 27.5277 19.4032 27.7537C19.4041 27.9797 19.4948 28.196 19.6553 28.3552C19.8157 28.5143 20.0328 28.6032 20.2588 28.6022C20.4848 28.6013 20.7011 28.5106 20.8603 28.3502L24.0003 25.2002L27.1503 28.3502C27.3094 28.5106 27.5258 28.6013 27.7517 28.6022C27.8636 28.6027 27.9745 28.5811 28.0781 28.5387C28.1816 28.4963 28.2758 28.4339 28.3553 28.3552C28.4347 28.2764 28.4979 28.1827 28.5411 28.0795C28.5844 27.9763 28.6069 27.8656 28.6073 27.7537C28.6078 27.6418 28.5862 27.5309 28.5438 27.4274C28.5014 27.3238 28.4391 27.2296 28.3603 27.1502L25.2103 24.0002Z" fill="#fff"/>
</svg>
