<svg width="28" height="28" viewBox="0 0 28 28" fill="none" xmlns="http://www.w3.org/2000/svg">
<circle cx="14" cy="14" r="14" fill="#F2F2F2"/>
<path d="M13.9993 7.33301C12.1613 7.33301 10.666 8.82834 10.666 10.6663V12.6663H9.99935C9.26402 12.6663 8.66602 13.2643 8.66602 13.9997V19.333C8.66602 20.0683 9.26402 20.6663 9.99935 20.6663H17.9993C18.7347 20.6663 19.3327 20.0683 19.3327 19.333V13.9997C19.3327 13.2643 18.7347 12.6663 17.9993 12.6663H17.3327V10.6663C17.3327 8.82834 15.8373 7.33301 13.9993 7.33301ZM17.9993 13.9997L18.0007 19.333H9.99935V13.9997H17.9993ZM11.9993 12.6663V10.6663C11.9993 9.56367 12.8967 8.66634 13.9993 8.66634C15.102 8.66634 15.9993 9.56367 15.9993 10.6663V12.6663H11.9993Z" fill="#9C9C9C"/>
</svg>
