<svg width="28" height="28" viewBox="0 0 28 28" fill="none" xmlns="http://www.w3.org/2000/svg">
<circle cx="14" cy="14" r="14" fill="#F2F2F2"/>
<path d="M18.5556 13.7549H9.44444C9.19898 13.7549 9 13.9539 9 14.1993V19.9771C9 20.2226 9.19898 20.4215 9.44444 20.4215H18.5556C18.801 20.4215 19 20.2226 19 19.9771V14.1993C19 13.9539 18.801 13.7549 18.5556 13.7549Z" stroke="#9C9C9C" stroke-width="1.4" stroke-miterlimit="10" stroke-linecap="round"/>
<path d="M13.9998 8.00002C14.6893 8.00002 15.3507 8.27395 15.8383 8.76155C16.3259 9.24914 16.5998 9.91046 16.5998 10.6V13.7222H11.3887V10.6C11.3887 10.2577 11.4563 9.91865 11.5876 9.60247C11.719 9.2863 11.9115 8.99918 12.1541 8.75761C12.3967 8.51603 12.6847 8.32475 13.0014 8.19474C13.3181 8.06473 13.6574 7.99856 13.9998 8.00002V8.00002Z" stroke="#9C9C9C" stroke-width="1.4" stroke-miterlimit="10" stroke-linecap="round"/>
</svg>
