<svg width="40" height="40" viewBox="0 0 40 40" fill="none" xmlns="http://www.w3.org/2000/svg">
<mask id="mask0_766:80786" style="mask-type:alpha" maskUnits="userSpaceOnUse" x="0" y="0" width="40" height="40">
<circle cx="20" cy="20" r="20" fill="#B4B4B4"/>
</mask>
<g mask="url(#mask0_766:80786)">
<path d="M26.4706 23.2139C28.2209 21.9834 29.5313 20.2324 30.2123 18.2141C30.8933 16.1959 30.9097 14.0151 30.2588 11.9871C29.6079 9.95913 28.3237 8.1891 26.5919 6.93303C24.86 5.67697 22.7703 5 20.625 5C18.4797 5 16.39 5.67697 14.6581 6.93303C12.9263 8.1891 11.6421 9.95913 10.9912 11.9871C10.3403 14.0151 10.3567 16.1959 11.0377 18.2141C11.7186 20.2324 13.0291 21.9834 14.7794 23.2139C12.0385 23.7266 9.56316 25.1702 7.77856 27.2968C5.99395 29.4233 5.0115 32.1001 5 34.8672V39.4263C5 39.91 5.1937 40.3739 5.53843 40.7159C5.88317 41.0579 6.3507 41.25 6.83824 41.25H34.4118C34.8993 41.25 35.3668 41.0579 35.7116 40.7159C36.0563 40.3739 36.25 39.91 36.25 39.4263V34.8672C36.242 32.0991 35.2609 29.4206 33.4757 27.2933C31.6905 25.1661 29.213 23.7233 26.4706 23.2139Z" fill="#E5E5E5"/>
</g>
</svg>
