<svg width="14" height="14" viewBox="0 0 14 14" fill="none" xmlns="http://www.w3.org/2000/svg">
<path d="M0.160156 7.01968C0.160156 8.37251 0.561308 9.69496 1.3129 10.8198C2.06449 11.9446 3.13275 12.8213 4.3826 13.339C5.63245 13.8567 7.00773 13.9922 8.33456 13.7283C9.66139 13.4643 10.8802 12.8129 11.8368 11.8563C12.7934 10.8997 13.4448 9.68096 13.7087 8.35413C13.9726 7.0273 13.8372 5.65198 13.3195 4.40213C12.8018 3.15228 11.9251 2.08405 10.8002 1.33246C9.67542 0.58087 8.35298 0.179688 7.00015 0.179688C5.18688 0.182333 3.44863 0.903829 2.16646 2.186C0.884282 3.46818 0.162801 5.20642 0.160156 7.01968ZM12.8502 7.01968C12.8502 8.1767 12.5071 9.30775 11.8643 10.2698C11.2215 11.2318 10.3078 11.9816 9.23885 12.4244C8.1699 12.8672 6.99366 12.983 5.85887 12.7573C4.72408 12.5316 3.68171 11.9744 2.86357 11.1563C2.04543 10.3381 1.48828 9.29577 1.26256 8.16098C1.03683 7.02619 1.15269 5.84995 1.59546 4.78101C2.03823 3.71206 2.78803 2.79842 3.75006 2.15561C4.71209 1.5128 5.84313 1.16971 7.00015 1.16971C7.76839 1.16971 8.52909 1.321 9.23885 1.61499C9.9486 1.90898 10.5935 2.3399 11.1367 2.88312C11.68 3.42634 12.1109 4.07125 12.4048 4.78101C12.6988 5.49076 12.8502 6.25145 12.8502 7.01968Z" fill="#767676"/>
<path d="M6.5 3.41992V7.0199C6.50279 7.11549 6.53239 7.20839 6.58543 7.28796C6.63848 7.36753 6.71284 7.43057 6.8 7.46991L9.89 9.24991C9.96465 9.2973 10.0516 9.32165 10.14 9.31992C10.2483 9.31671 10.3526 9.27842 10.4372 9.21082C10.5219 9.14321 10.5823 9.04996 10.6094 8.94507C10.6364 8.84018 10.6287 8.72933 10.5873 8.62921C10.546 8.52909 10.4732 8.44512 10.38 8.38992L7.5 6.72992V3.41992C7.5 3.28731 7.44733 3.16011 7.35356 3.06635C7.25979 2.97258 7.13261 2.91992 7 2.91992C6.86819 2.92248 6.7425 2.97596 6.64928 3.06918C6.55606 3.1624 6.50256 3.28812 6.5 3.41992Z" fill="#767676"/>
</svg>
