<svg width="34" height="34" viewBox="0 0 34 34" fill="none" xmlns="http://www.w3.org/2000/svg">
<path d="M23.7284 16.1351H9.41094C9.02521 16.1351 8.71252 16.4478 8.71252 16.8335V25.9128C8.71252 26.2986 9.02521 26.6113 9.41094 26.6113H23.7284C24.1141 26.6113 24.4268 26.2986 24.4268 25.9128V16.8335C24.4268 16.4478 24.1141 16.1351 23.7284 16.1351Z" stroke="#585858" stroke-width="1.5" stroke-miterlimit="10" stroke-linecap="round"/>
<path d="M20.6547 11.2292C20.6547 10.1456 20.2243 9.10634 19.458 8.34012C18.6918 7.5739 17.6526 7.14344 16.569 7.14344C16.031 7.14114 15.4978 7.24512 15.0001 7.44942C14.5024 7.65372 14.0499 7.9543 13.6687 8.33393C13.2874 8.71355 12.9849 9.16473 12.7785 9.66158C12.5721 10.1584 12.4658 10.6911 12.4658 11.2292V16.1355" stroke="#585858" stroke-width="1.5" stroke-miterlimit="10" stroke-linecap="round"/>
</svg>
