<svg width="24" height="24" viewBox="0 0 24 24" fill="none" xmlns="http://www.w3.org/2000/svg">
<path d="M22.9999 12.8499H0.999878C0.774444 12.8499 0.55821 12.7604 0.398804 12.6009C0.239398 12.4415 0.149902 12.2253 0.149902 11.9999C0.149902 11.7745 0.239398 11.5583 0.398804 11.3989C0.55821 11.2395 0.774444 11.1499 0.999878 11.1499H22.9999C23.2253 11.1499 23.4415 11.2395 23.601 11.3989C23.7604 11.5583 23.8499 11.7745 23.8499 11.9999C23.8499 12.2253 23.7604 12.4415 23.601 12.6009C23.4415 12.7604 23.2253 12.8499 22.9999 12.8499Z" fill="white"/>
<path d="M11.9999 23.8499C11.7744 23.8499 11.5582 23.7604 11.3988 23.6009C11.2394 23.4415 11.1499 23.2253 11.1499 22.9999V0.999901C11.1499 0.774467 11.2394 0.558263 11.3988 0.398857C11.5582 0.239451 11.7744 0.149902 11.9999 0.149902C12.2253 0.149902 12.4415 0.239451 12.601 0.398857C12.7604 0.558263 12.8499 0.774467 12.8499 0.999901V22.9999C12.8499 23.2253 12.7604 23.4415 12.601 23.6009C12.4415 23.7604 12.2253 23.8499 11.9999 23.8499Z" fill="white"/>
</svg>
