<svg width="16" height="16" viewBox="0 0 16 16" fill="none" xmlns="http://www.w3.org/2000/svg">
<path d="M1.36471 9.77715C1.38712 9.86181 1.42613 9.94118 1.47946 10.0106C1.53279 10.0801 1.59938 10.1383 1.67538 10.1818L2.94805 10.9178V12.3838C2.94805 12.5606 3.01829 12.7302 3.14331 12.8552C3.26833 12.9802 3.4379 13.0505 3.61471 13.0505H5.08071L5.81671 14.3238C5.90537 14.4767 6.05098 14.5882 6.22166 14.6339C6.39233 14.6796 6.57418 14.6559 6.72738 14.5678L8.00005 13.8325L9.27338 14.5685C9.42658 14.6565 9.60843 14.6803 9.7791 14.6345C9.94978 14.5888 10.0954 14.4773 10.184 14.3245L10.9194 13.0518H12.3854C12.5622 13.0518 12.7318 12.9816 12.8568 12.8566C12.9818 12.7315 13.052 12.562 13.052 12.3851V10.9191L14.3247 10.1831C14.4006 10.1394 14.4671 10.0812 14.5205 10.0117C14.5738 9.94229 14.6129 9.863 14.6356 9.77842C14.6582 9.69383 14.664 9.60561 14.6525 9.51879C14.6411 9.43198 14.6126 9.34828 14.5687 9.27248L13.8334 7.99915L14.5694 6.72648C14.6578 6.57336 14.6817 6.3914 14.636 6.22061C14.5902 6.04983 14.4785 5.90422 14.3254 5.81581L13.0527 5.07981V3.61381C13.0527 3.437 12.9825 3.26743 12.8575 3.14241C12.7324 3.01739 12.5629 2.94715 12.386 2.94715H10.92L10.1847 1.67448C10.0961 1.52156 9.95066 1.40989 9.78005 1.36381C9.69549 1.34093 9.60722 1.33504 9.52037 1.34648C9.43352 1.35792 9.3498 1.38647 9.27405 1.43048L8.00005 2.16581L6.72738 1.42981C6.65165 1.38584 6.56798 1.35724 6.48117 1.34568C6.39437 1.33411 6.30613 1.33979 6.22152 1.36239C6.13692 1.385 6.05761 1.42409 5.98814 1.47742C5.91867 1.53074 5.86042 1.59726 5.81671 1.67315L5.08071 2.94648H3.61471C3.4379 2.94648 3.26833 3.01672 3.14331 3.14174C3.01829 3.26677 2.94805 3.43634 2.94805 3.61315V5.07915L1.67538 5.81581C1.52251 5.90446 1.41105 6.05012 1.36543 6.22084C1.31981 6.39156 1.34377 6.5734 1.43205 6.72648L2.16738 7.99915L1.43138 9.27181C1.34331 9.42485 1.31935 9.60651 1.36471 9.77715Z" fill="#FF7964"/>
<path d="M9.69253 10.6478L8.10116 9.56277C8.07002 9.54098 8.03293 9.52929 7.99492 9.52929C7.95691 9.52929 7.91982 9.54098 7.88868 9.56277L6.29732 10.6478C6.26943 10.6667 6.23691 10.6776 6.20327 10.6794C6.16963 10.6813 6.13613 10.6738 6.10637 10.658C6.07662 10.6422 6.05174 10.6186 6.0344 10.5897C6.01707 10.5609 6.00793 10.5278 6.00798 10.4941V5.49846C6.00738 5.47375 6.01173 5.44916 6.02077 5.42614C6.02982 5.40313 6.04337 5.38216 6.06064 5.36447C6.07792 5.34678 6.09855 5.33273 6.12134 5.32314C6.14413 5.31354 6.16861 5.30859 6.19333 5.30859H9.81007C9.86043 5.30859 9.90873 5.32859 9.94434 5.36419C9.97995 5.3998 9.99995 5.44811 9.99995 5.49846V10.5031C10.001 10.5392 9.99145 10.5747 9.97256 10.6055C9.95367 10.6362 9.92622 10.6607 9.89359 10.6761C9.86096 10.6914 9.82456 10.6969 9.78884 10.6919C9.75313 10.6869 9.71966 10.6716 9.69253 10.6478Z" fill="white"/>
</svg>
