<svg width="24" height="24" viewBox="0 0 24 24" fill="none" xmlns="http://www.w3.org/2000/svg">
<rect width="24" height="24" fill="white"/>
<path d="M10.3127 13.8408C10.3127 14.0077 10.2632 14.1708 10.1705 14.3096C10.0777 14.4483 9.94597 14.5565 9.79179 14.6203C9.63762 14.6842 9.46797 14.7009 9.3043 14.6683C9.14063 14.6358 8.99028 14.5554 8.87228 14.4374C8.75428 14.3194 8.67392 14.1691 8.64137 14.0054C8.60881 13.8417 8.62552 13.6721 8.68938 13.5179C8.75324 13.3637 8.86139 13.232 9.00014 13.1392C9.1389 13.0465 9.30203 12.9971 9.4689 12.9971C9.69268 12.9971 9.90729 13.0859 10.0655 13.2442C10.2238 13.4024 10.3127 13.617 10.3127 13.8408ZM14.5314 12.9971C14.3645 12.9971 14.2014 13.0465 14.0626 13.1392C13.9239 13.232 13.8157 13.3637 13.7519 13.5179C13.688 13.6721 13.6713 13.8417 13.7039 14.0054C13.7364 14.1691 13.8168 14.3194 13.9348 14.4374C14.0528 14.5554 14.2031 14.6358 14.3668 14.6683C14.5305 14.7009 14.7001 14.6842 14.8543 14.6203C15.0085 14.5565 15.1402 14.4483 15.233 14.3096C15.3257 14.1708 15.3752 14.0077 15.3752 13.8408C15.3752 13.617 15.2863 13.4024 15.128 13.2442C14.9698 13.0859 14.7552 12.9971 14.5314 12.9971ZM19.3638 14.1192C19.2154 14.1871 19.0542 14.2225 18.891 14.223C18.6338 14.2227 18.3848 14.132 18.1877 13.9668V16.9346C18.1868 17.6802 17.8902 18.3951 17.3629 18.9223C16.8357 19.4496 16.1208 19.7462 15.3752 19.7471H8.62515C7.8795 19.7462 7.16462 19.4496 6.63736 18.9223C6.1101 18.3951 5.81351 17.6802 5.81266 16.9346V13.9668C5.61549 14.132 5.36655 14.2227 5.10932 14.223C4.94612 14.2226 4.78491 14.1871 4.63654 14.1192C4.40534 14.0175 4.21575 13.84 4.09914 13.616C3.98254 13.392 3.9459 13.1349 3.99529 12.8872L5.14968 6.73024C5.17794 6.57946 5.23674 6.43606 5.32246 6.30884C5.40819 6.18162 5.51902 6.07328 5.64816 5.99048C5.77729 5.90767 5.922 5.85215 6.07338 5.82733C6.22476 5.8025 6.37962 5.8089 6.52844 5.84613L10.3819 6.80955H13.6184L17.4719 5.84613C17.6207 5.80892 17.7756 5.80254 17.9269 5.82737C18.0783 5.8522 18.223 5.90772 18.3521 5.99051C18.4812 6.07331 18.5921 6.18164 18.6778 6.30883C18.7635 6.43603 18.8223 6.57941 18.8506 6.73017L20.005 12.8872C20.0544 13.1349 20.0178 13.392 19.9012 13.616C19.7846 13.84 19.595 14.0175 19.3638 14.1192ZM9.33391 7.70723L6.25548 6.93752L5.10109 13.0945L9.33391 7.70723ZM17.0627 16.9346V12.578L13.4142 7.93455H10.5862L6.93766 12.578V16.9346C6.93816 17.382 7.11611 17.8109 7.43247 18.1272C7.74883 18.4436 8.17776 18.6215 8.62515 18.6221H11.4377V17.7301L10.4774 16.7698C10.3719 16.6643 10.3126 16.5212 10.3126 16.3721C10.3126 16.2229 10.3719 16.0798 10.4774 15.9743C10.5829 15.8688 10.726 15.8095 10.8752 15.8095C11.0243 15.8095 11.1674 15.8688 11.2729 15.9743L12.0002 16.7016L12.7274 15.9743C12.7796 15.9221 12.8416 15.8806 12.9099 15.8524C12.9781 15.8241 13.0513 15.8095 13.1252 15.8095C13.199 15.8095 13.2722 15.8241 13.3404 15.8524C13.4087 15.8806 13.4707 15.9221 13.5229 15.9743C13.5751 16.0265 13.6166 16.0885 13.6449 16.1568C13.6731 16.225 13.6877 16.2982 13.6877 16.3721C13.6877 16.4459 13.6731 16.5191 13.6449 16.5873C13.6166 16.6556 13.5751 16.7176 13.5229 16.7698L12.5627 17.7301V18.6221H15.3752C15.8226 18.6215 16.2515 18.4436 16.5678 18.1272C16.8842 17.8109 17.0622 17.382 17.0627 16.9346ZM18.8992 13.0944L17.7448 6.93752L14.6664 7.70723L18.8992 13.0944Z" fill="#FF7964"/>
</svg>
