<svg width="24" height="24" viewBox="0 0 24 24" fill="none" xmlns="http://www.w3.org/2000/svg">
<rect width="24" height="24" fill="white"/>
<path d="M17.8438 7.875H6.5C6.13544 7.87536 5.78591 8.02035 5.52813 8.27813C5.27035 8.53591 5.12536 8.88544 5.125 9.25V14.75C5.12609 15.6613 5.48861 16.5351 6.13303 17.1795C6.77745 17.8239 7.65115 18.1864 8.5625 18.1875H14.0625C14.9738 18.1864 15.8476 17.8239 16.492 17.1795C17.1364 16.5351 17.4989 15.6613 17.5 14.75V14.0625H17.8438C18.6643 14.0625 19.4512 13.7366 20.0314 13.1564C20.6116 12.5762 20.9375 11.7893 20.9375 10.9688C20.9375 10.1482 20.6116 9.36133 20.0314 8.78114C19.4512 8.20095 18.6643 7.875 17.8438 7.875ZM16.125 14.75C16.1245 15.2968 15.907 15.8211 15.5203 16.2078C15.1336 16.5945 14.6093 16.812 14.0625 16.8125H8.5625C8.01566 16.812 7.49137 16.5945 7.1047 16.2078C6.71802 15.8211 6.50055 15.2968 6.5 14.75V9.25H16.125V14.75ZM17.8438 12.6875H17.5V9.25H17.8438C18.2996 9.25 18.7368 9.43108 19.0591 9.75341C19.3814 10.0757 19.5625 10.5129 19.5625 10.9688C19.5625 11.4246 19.3814 11.8618 19.0591 12.1841C18.7368 12.5064 18.2996 12.6875 17.8438 12.6875Z" fill="#FF7964"/>
</svg>
