<svg width="24" height="24" viewBox="0 0 24 24" fill="none" xmlns="http://www.w3.org/2000/svg">
<rect width="24" height="24" fill="white"/>
<path d="M12.0001 19.5359C14.8107 19.5359 17.1867 17.3089 17.9647 14.7526C18.1394 14.1776 19.3334 14.1776 19.3334 12.9359C19.3334 11.6939 18.1281 11.6226 17.9331 11.0186C17.1241 8.51427 14.7734 6.33594 12.0001 6.33594C9.22508 6.33594 6.87341 8.51594 6.06575 11.0226C5.87175 11.6259 4.66675 11.6726 4.66675 12.9359C4.66675 14.1993 5.86408 14.1993 6.04508 14.7833C6.83241 17.3239 9.20075 19.5359 12.0001 19.5359Z" stroke="#FF7964" stroke-width="1.33333"/>
<path d="M17.9331 11.0186C17.1241 8.51427 14.7735 6.33594 12.0001 6.33594" stroke="#FF7964" stroke-width="1.33333" stroke-linecap="round"/>
<path d="M10.3667 12.2029C10.3667 12.4782 10.2921 12.7199 10.1801 12.8882C10.0671 13.0575 9.9294 13.1362 9.80007 13.1362C9.67073 13.1362 9.5334 13.0575 9.42007 12.8882C9.30807 12.7199 9.2334 12.4782 9.2334 12.2029C9.2334 11.9272 9.30807 11.6855 9.42007 11.5175C9.5334 11.3482 9.67073 11.2695 9.80007 11.2695C9.92973 11.2695 10.0671 11.3482 10.1801 11.5175C10.2921 11.6855 10.3667 11.9275 10.3667 12.2029Z" fill="#FF7964" stroke="#FF7964" stroke-width="0.333333"/>
<path d="M14.7668 12.2029C14.7668 12.4782 14.6921 12.7199 14.5801 12.8882C14.4671 13.0575 14.3294 13.1362 14.2001 13.1362C14.0708 13.1362 13.9331 13.0575 13.8201 12.8882C13.7081 12.7199 13.6334 12.4782 13.6334 12.2029C13.6334 11.9272 13.7081 11.6855 13.8201 11.5175C13.9331 11.3482 14.0708 11.2695 14.2001 11.2695C14.3294 11.2695 14.4671 11.3482 14.5801 11.5175C14.6921 11.6855 14.7668 11.9275 14.7668 12.2029Z" fill="#FF7964" stroke="#FF7964" stroke-width="0.333333"/>
<path fill-rule="evenodd" clip-rule="evenodd" d="M10.1661 15.5859C10.8095 16.0193 11.4221 16.2359 12.0031 16.2359C12.5838 16.2359 13.1595 16.0196 13.7298 15.5873" fill="#FF7964"/>
<path d="M10.1661 15.5859C10.8095 16.0193 11.4221 16.2359 12.0031 16.2359C12.5838 16.2359 13.1595 16.0196 13.7298 15.5873" stroke="#FF7964" stroke-width="1.33333" stroke-linecap="round"/>
<path d="M14.5762 7.07031C14.6656 7.71498 14.4692 8.18565 13.9866 8.48331C13.5042 8.78065 12.7202 8.91998 11.6349 8.90131" stroke="#FF7964" stroke-width="1.33333" stroke-linecap="round"/>
</svg>
