<svg width="24" height="24" viewBox="0 0 24 24" fill="none" xmlns="http://www.w3.org/2000/svg">
<rect width="24" height="24" fill="white"/>
<path d="M13.2148 9.28607L14.6893 7.81082C14.5149 7.63643 14.3862 7.4217 14.3145 7.18567C14.2429 6.94963 14.2305 6.69957 14.2786 6.45764C14.3267 6.2157 14.4337 5.98935 14.5901 5.79864C14.7466 5.60794 14.9476 5.45875 15.1755 5.36431C15.4034 5.26986 15.651 5.23307 15.8965 5.25719C16.142 5.28131 16.3778 5.3656 16.5829 5.50259C16.788 5.63958 16.9562 5.82504 17.0725 6.04255C17.1889 6.26006 17.2498 6.5029 17.2498 6.74957C17.4966 6.74939 17.7395 6.81008 17.9572 6.92626C18.1749 7.04244 18.3605 7.21051 18.4977 7.41559C18.6349 7.62068 18.7194 7.85643 18.7436 8.10196C18.7679 8.3475 18.7313 8.59523 18.6369 8.82321C18.5425 9.05118 18.3934 9.25236 18.2027 9.40892C18.012 9.56548 17.7856 9.67258 17.5436 9.72073C17.3017 9.76888 17.0515 9.7566 16.8154 9.68496C16.5793 9.61333 16.3645 9.48456 16.1901 9.31007L14.8251 10.6758" stroke="#FF7964" stroke-width="1.3" stroke-linecap="round" stroke-linejoin="round"/>
<path d="M7.42779 16.9451C9.47804 18.9953 11.8524 19.9451 12.7311 19.0664C13.6098 18.1877 12.66 15.8133 10.6098 13.7631C8.55952 11.7128 6.18515 10.7631 5.30647 11.6418C4.42779 12.5205 5.37754 14.8948 7.42779 16.9451Z" stroke="#FF7964" stroke-width="1.3" stroke-linecap="round" stroke-linejoin="round"/>
<path d="M8.625 15L9.375 15.75" stroke="#FF7964" stroke-width="1.3" stroke-linecap="round" stroke-linejoin="round"/>
<path d="M12.7309 19.0695C15.6596 16.14 16.3721 12.1035 14.3216 10.0537C12.2719 8.00321 8.23539 8.71571 5.30664 11.6445" stroke="#FF7964" stroke-width="1.3" stroke-linecap="round" stroke-linejoin="round"/>
</svg>
