<svg width="24" height="24" viewBox="0 0 24 24" fill="none" xmlns="http://www.w3.org/2000/svg">
<rect width="24" height="24" fill="white"/>
<path d="M18.8438 7.9375L19.7896 9.71875L21.8125 9.96456L20.3281 11.3023L20.625 13.2812L18.8438 12.168L17.0625 13.2812L17.3594 11.3023L15.875 9.96456L17.9531 9.71875L18.8438 7.9375Z" fill="#FF7964"/>
<path d="M17.0625 19.8125H15.875V16.8438C15.8741 16.0567 15.561 15.3021 15.0044 14.7456C14.4479 14.189 13.6933 13.8759 12.9062 13.875H9.34375C8.55668 13.8759 7.80211 14.189 7.24557 14.7456C6.68902 15.3021 6.37594 16.0567 6.375 16.8438V19.8125H5.1875V16.8438C5.18876 15.7418 5.62705 14.6854 6.40623 13.9062C7.1854 13.1271 8.24183 12.6888 9.34375 12.6875H12.9062C14.0082 12.6888 15.0646 13.1271 15.8438 13.9062C16.6229 14.6854 17.0612 15.7418 17.0625 16.8438V19.8125Z" fill="#FF7964"/>
<path d="M11.125 4.375C11.7122 4.375 12.2861 4.54911 12.7744 4.87532C13.2626 5.20153 13.6431 5.66519 13.8678 6.20766C14.0925 6.75013 14.1513 7.34704 14.0367 7.92292C13.9222 8.49881 13.6394 9.02779 13.2242 9.44297C12.809 9.85816 12.2801 10.1409 11.7042 10.2555C11.1283 10.37 10.5314 10.3112 9.98891 10.0865C9.44644 9.86182 8.98279 9.48131 8.65658 8.9931C8.33037 8.50489 8.15625 7.93091 8.15625 7.34375C8.15625 6.55639 8.46903 5.80128 9.02578 5.24453C9.58253 4.68778 10.3376 4.375 11.125 4.375ZM11.125 3.1875C10.303 3.1875 9.49941 3.43126 8.81591 3.88795C8.13242 4.34465 7.5997 4.99377 7.28513 5.75322C6.97055 6.51268 6.88824 7.34836 7.04861 8.15459C7.20898 8.96083 7.60483 9.7014 8.18609 10.2827C8.76735 10.8639 9.50792 11.2598 10.3142 11.4201C11.1204 11.5805 11.9561 11.4982 12.7155 11.1836C13.475 10.869 14.1241 10.3363 14.5808 9.65284C15.0375 8.96935 15.2813 8.16578 15.2813 7.34375C15.2813 6.24144 14.8434 5.18429 14.0639 4.40484C13.2845 3.62539 12.2273 3.1875 11.125 3.1875Z" fill="#FF7964"/>
</svg>
