<svg width="360" height="120" viewBox="0 0 360 120" fill="none" xmlns="http://www.w3.org/2000/svg">
<g clip-path="url(#clip0_893:34236)">
<path d="M29.597 45.958C26.825 45.958 25.271 45.349 25.271 44.173C25.271 43.018 26.825 42.388 29.597 42.388C32.369 42.388 33.944 43.018 33.944 44.173C33.944 45.349 32.369 45.958 29.597 45.958ZM29.597 40.729C25.544 40.729 23.066 41.989 23.066 44.173C23.066 46.378 25.544 47.638 29.597 47.638C33.671 47.638 36.128 46.378 36.128 44.173C36.128 41.989 33.671 40.729 29.597 40.729ZM30.731 37.81V35.92H36.254V34.177H25.355V31.216H36.128V29.494H23.213V35.92H28.568V37.81H21.092V39.574H38.228V37.81H30.731ZM42.9304 30.565H40.7884V42.934H42.0694C44.4004 42.934 46.4794 42.829 48.8734 42.346L48.6004 40.54C46.6054 40.918 44.8204 41.044 42.9304 41.086V30.565ZM50.0914 34.849H46.0594V36.613H50.0914V46.714H52.1074V29.032H50.0914V34.849ZM54.1024 28.633V47.617H56.1814V28.633H54.1024ZM74.2945 37.579C71.3965 36.655 69.8215 34.45 69.8215 32.098V31.741H73.7905V29.998H63.6055V31.741H67.6375V32.119C67.6375 34.702 65.9785 37.138 62.9965 38.167L64.0885 39.868C66.3565 39.091 67.9525 37.474 68.7925 35.458C69.6115 37.222 71.1235 38.587 73.2445 39.259L74.2945 37.579ZM71.8585 45.916C69.2125 45.916 67.6795 45.244 67.6795 44.026C67.6795 42.787 69.2125 42.136 71.8585 42.136C74.5045 42.136 76.0375 42.787 76.0375 44.026C76.0375 45.244 74.5045 45.916 71.8585 45.916ZM71.8585 40.435C67.9525 40.435 65.5375 41.758 65.5375 44.026C65.5375 46.273 67.9525 47.617 71.8585 47.617C75.7645 47.617 78.1795 46.273 78.1795 44.026C78.1795 41.758 75.7645 40.435 71.8585 40.435ZM77.9695 33.274V28.654H75.8065V39.994H77.9695V35.059H80.6575V33.274H77.9695ZM98.5059 37.621C94.7679 36.991 91.7229 34.177 91.7229 31.237V29.809H89.4339V31.237C89.4339 34.156 86.3889 36.991 82.6299 37.621L83.5539 39.427C86.6409 38.818 89.3289 36.928 90.5889 34.408C91.8069 36.928 94.4949 38.818 97.6029 39.427L98.5059 37.621ZM91.6389 43.48V39.049H89.4759V43.48H82.0629V45.265H99.2409V43.48H91.6389ZM113.834 31.888H103.145V36.151H116.312V34.639H105.266V33.295H115.976V29.116H103.103V30.607H113.834V31.888ZM105.119 44.467H116.039V40.225H102.935V41.716H113.897V43.06H102.977V47.407H116.606V45.916H105.119V44.467ZM100.94 37.348V38.944H118.139V37.348H100.94ZM128.188 31.888H137.218V37.516H128.188V31.888ZM133.795 43.522V39.238H139.339V30.166H126.067V39.238H131.632V43.522H124.156V45.286H141.334V43.522H133.795ZM148.095 41.485C146.436 41.485 145.302 39.7 145.302 36.739C145.302 33.778 146.436 31.993 148.095 31.993C149.733 31.993 150.888 33.778 150.888 36.739C150.888 39.7 149.733 41.485 148.095 41.485ZM148.095 30.04C145.26 30.04 143.223 32.644 143.223 36.739C143.223 40.834 145.26 43.417 148.095 43.417C150.93 43.417 152.967 40.834 152.967 36.739C152.967 32.644 150.93 30.04 148.095 30.04ZM160.695 36.067H157.734V28.654H155.571V47.638H157.734V37.852H160.695V36.067ZM23.885 64.502H21.722V76.892H23.297C26.153 76.892 29.093 76.682 32.306 76.052L32.054 74.267C29.177 74.855 26.447 75.065 23.885 75.086V64.502ZM38.627 70.046H35.75V62.654H33.587V81.617H35.75V71.831H38.627V70.046ZM47.3824 71.495H42.7624V66.014H47.3824V71.495ZM49.5034 64.271H40.6204V73.238H49.5034V64.271ZM44.9464 75.191H42.7624V81.26H55.5304V79.496H44.9464V75.191ZM54.7744 68.282V62.633H52.6114V76.535H54.7744V70.067H57.4624V68.282H54.7744ZM64.9787 63.977C62.0177 63.977 59.8337 65.846 59.8337 68.534C59.8337 71.222 62.0177 73.091 64.9787 73.091C67.9397 73.091 70.1447 71.222 70.1447 68.534C70.1447 65.846 67.9397 63.977 64.9787 63.977ZM64.9787 65.825C66.7427 65.825 68.0237 66.875 68.0237 68.534C68.0237 70.172 66.7427 71.243 64.9787 71.243C63.2357 71.243 61.9547 70.172 61.9547 68.534C61.9547 66.875 63.2357 65.825 64.9787 65.825ZM72.2867 62.633V81.638H74.4707V62.633H72.2867ZM59.2247 77.627C62.5847 77.627 67.1207 77.585 71.2997 76.787L71.1527 75.212C67.0787 75.821 62.3537 75.842 58.9517 75.842L59.2247 77.627ZM132.733 65.888H122.044V70.151H135.211V68.639H124.165V67.295H134.875V63.116H122.002V64.607H132.733V65.888ZM124.018 78.467H134.938V74.225H121.834V75.716H132.796V77.06H121.876V81.407H135.505V79.916H124.018V78.467ZM119.839 71.348V72.944H137.038V71.348H119.839ZM150.468 71.495H145.848V66.014H150.468V71.495ZM152.589 64.271H143.706V73.238H152.589V64.271ZM148.032 75.191H145.848V81.26H158.616V79.496H148.032V75.191ZM157.86 68.282V62.633H155.697V76.535H157.86V70.067H160.548V68.282H157.86ZM177.094 67.274H166.3V64.901H176.905V63.158H164.158V69.017H177.094V67.274ZM166.153 78.152H176.947V73.448H163.969V75.107H174.826V76.577H164.011V81.428H177.493V79.748H166.153V78.152ZM161.974 70.319V72.062H179.131V70.319H161.974ZM185.954 75.485C184.337 75.485 183.224 73.721 183.224 70.718C183.224 67.778 184.337 65.993 185.954 65.993C187.592 65.993 188.705 67.778 188.705 70.718C188.705 73.721 187.592 75.485 185.954 75.485ZM194.417 62.633V69.71H190.721C190.427 66.224 188.495 64.04 185.954 64.04C183.161 64.04 181.166 66.644 181.166 70.718C181.166 74.834 183.161 77.417 185.954 77.417C188.558 77.417 190.49 75.149 190.742 71.474H194.417V81.659H196.601V62.633H194.417ZM203.95 78.299H214.744V73.826H201.766V75.443H212.623V76.787H201.808V81.449H215.29V79.79H203.95V78.299ZM204.097 66.098H212.539V67.61H204.097V66.098ZM209.368 70.802V69.248H214.681V62.927H212.539V64.502H204.097V62.927H201.955V69.248H207.205V70.802H199.708V72.545H216.907V70.802H209.368ZM219.152 64.649V66.434H222.239C222.05 70.235 221.126 73.385 218.417 76.262L220.139 77.459C223.52 73.784 224.276 69.521 224.276 64.649H219.152ZM224.927 64.649V66.434H227.447C227.3 70.529 226.523 74.225 223.793 77.501L225.536 78.719C228.917 74.582 229.484 69.626 229.484 64.649H224.927ZM236.309 70.298H233.621V62.654H231.458V81.596H233.621V72.083H236.309V70.298ZM243.721 73.406C244.456 73.574 245.275 73.658 246.115 73.658C246.955 73.658 247.774 73.574 248.509 73.385V77.522H243.721V73.406ZM246.115 65.447C248.971 65.447 250.966 66.707 250.966 68.702C250.966 70.718 248.971 71.978 246.115 71.978C243.238 71.978 241.243 70.718 241.243 68.702C241.243 66.707 243.238 65.447 246.115 65.447ZM250.672 77.522V72.587C252.184 71.726 253.087 70.382 253.087 68.702C253.087 65.678 250.147 63.746 246.115 63.746C242.062 63.746 239.143 65.678 239.143 68.702C239.143 70.382 240.046 71.747 241.558 72.587V77.522H237.547V79.286H254.725V77.522H250.672ZM259.112 75.065H261.233C260.876 71.936 264.614 70.802 264.614 67.736C264.614 65.279 262.913 63.893 260.477 63.893C258.734 63.893 257.327 64.733 256.298 65.909L257.663 67.148C258.356 66.371 259.217 65.867 260.204 65.867C261.527 65.867 262.262 66.749 262.262 67.904C262.262 70.193 258.608 71.537 259.112 75.065ZM260.204 80.273C261.107 80.273 261.821 79.58 261.821 78.593C261.821 77.606 261.107 76.871 260.204 76.871C259.28 76.871 258.587 77.606 258.587 78.593C258.587 79.58 259.28 80.273 260.204 80.273Z" fill="#333333"/>
<path d="M85.0869 71.936H88.8879V69.794H85.0869V66.791H89.6229V64.586H82.4619V77.543H83.7849C86.5569 77.543 88.4049 77.501 90.5889 77.144L90.3579 74.939C88.6149 75.212 87.1029 75.296 85.0869 75.317V71.936ZM91.8699 69.5H89.7699V71.747H91.8699V80.945H94.4529V62.822H91.8699V69.5ZM95.8809 62.444V81.785H98.5059V62.444H95.8809ZM104.111 66.476H107.891V74.918H104.111V66.476ZM101.381 77.102H110.621V64.292H101.381V77.102ZM118.748 69.752H115.934V62.486H113.162V81.806H115.934V72.041H118.748V69.752Z" fill="#FF7964"/>
<path d="M22.685 105.29H21.455V113.615H22.31C23.765 113.615 25.31 113.54 27.125 113.195L27.005 112.13C25.4 112.445 23.975 112.535 22.685 112.55V105.29ZM31.025 103.655V109.13H29.12V103.955H27.965V116.42H29.12V110.15H31.025V117.095H32.21V103.655H31.025ZM38.5633 110.765C40.6483 110.45 42.5833 109.415 43.4383 107.96C44.2933 109.415 46.2133 110.45 48.2983 110.765L48.7333 109.775C46.3333 109.445 44.0533 107.96 44.0533 106.31H48.3433V105.32H44.0533V103.67H42.8233V105.32H38.5333V106.31H42.8083C42.8083 107.975 40.5433 109.445 38.1133 109.775L38.5633 110.765ZM49.5283 111.785H37.3633V112.79H42.8233V117.125H44.0533V112.79H49.5283V111.785ZM57.9721 107.795V108.815H60.6871V113.705H61.9321V103.67H60.6871V107.795H57.9721ZM58.7971 110.84C56.8021 110.21 55.4371 108.65 55.4371 106.865V106.445H58.4071V105.455H55.4371V103.745H54.2071V105.455H51.2221V106.445H54.2071V106.865C54.2071 108.74 52.8721 110.42 50.8771 111.095L51.4921 112.055C53.0671 111.5 54.2671 110.36 54.8371 108.875C55.4521 110.24 56.6521 111.305 58.1971 111.815L58.7971 110.84ZM54.5671 115.805V112.805H53.3221V116.81H62.3071V115.805H54.5671ZM75.2005 110.165C73.2205 109.505 71.9455 107.93 71.9455 106.175V105.65H74.9155V104.66H67.7005V105.65H70.7155V106.175C70.7155 108.11 69.3655 109.85 67.3405 110.555L67.9705 111.53C69.5755 110.96 70.7905 109.76 71.3605 108.23C71.9305 109.565 73.0855 110.63 74.6155 111.125L75.2005 110.165ZM73.5655 116.12C71.5555 116.12 70.3555 115.565 70.3555 114.605C70.3555 113.66 71.5555 113.105 73.5655 113.105C75.5455 113.105 76.7605 113.66 76.7605 114.605C76.7605 115.565 75.5455 116.12 73.5655 116.12ZM73.5655 112.13C70.8055 112.13 69.1255 113.045 69.1255 114.605C69.1255 116.18 70.8055 117.095 73.5655 117.095C76.2955 117.095 77.9905 116.18 77.9905 114.605C77.9905 113.045 76.2955 112.13 73.5655 112.13ZM77.8405 107.06V103.67H76.6105V111.785H77.8405V108.095H79.8355V107.06H77.8405ZM92.5093 110.225C90.1543 109.805 87.5893 107.825 87.5893 105.59V104.555H86.2993V105.59C86.2993 107.825 83.7493 109.805 81.3943 110.225L81.9043 111.245C83.9743 110.81 86.0743 109.415 86.9443 107.495C87.8143 109.415 89.9293 110.81 91.9843 111.245L92.5093 110.225ZM87.5593 114.35V111.08H86.3293V114.35H80.8993V115.355H93.1093V114.35H87.5593ZM103.818 106.01H95.9581V108.89H105.273V108.005H97.1731V106.85H105.033V104.045H95.9281V104.915H103.818V106.01ZM97.0981 114.8H105.078V111.935H95.8531V112.82H103.863V113.945H95.8831V116.93H105.498V116.045H97.0981V114.8ZM94.3981 109.91V110.84H106.593V109.91H94.3981ZM120.731 103.655V117.14H121.961V103.655H120.731ZM114.866 104.69C112.871 104.69 111.446 106.52 111.446 109.385C111.446 112.25 112.871 114.08 114.866 114.08C116.861 114.08 118.286 112.25 118.286 109.385C118.286 106.52 116.861 104.69 114.866 104.69ZM114.866 105.8C116.171 105.8 117.101 107.21 117.101 109.385C117.101 111.575 116.171 112.985 114.866 112.985C113.546 112.985 112.616 111.575 112.616 109.385C112.616 107.21 113.546 105.8 114.866 105.8ZM130.525 104.795C132.67 104.795 133.99 105.365 133.99 106.31C133.99 107.27 132.67 107.825 130.525 107.825C128.38 107.825 127.06 107.27 127.06 106.31C127.06 105.365 128.38 104.795 130.525 104.795ZM130.525 108.785C133.45 108.785 135.25 107.885 135.25 106.31C135.25 104.75 133.45 103.85 130.525 103.85C127.6 103.85 125.8 104.75 125.8 106.31C125.8 107.885 127.6 108.785 130.525 108.785ZM131.155 112.91H129.88V113.33C129.88 114.77 127.765 115.865 125.335 116.12L125.74 117.065C127.84 116.825 129.715 116 130.525 114.74C131.305 116.015 133.18 116.81 135.28 117.065L135.685 116.12C133.225 115.88 131.155 114.8 131.155 113.33V112.91ZM124.45 109.805V110.81H129.91V112.295H131.125V110.81H136.645V109.805H124.45ZM148.674 107.195H140.799V105.095H148.539V104.105H139.569V108.185H148.674V107.195ZM140.649 114.605H148.554V111.44H139.404V112.4H147.339V113.69H139.449V116.945H148.959V115.985H140.649V114.605ZM137.949 109.265V110.27H150.129V109.265H137.949ZM158.468 111.2C158.843 108.695 158.843 106.94 158.843 105.86V105.125H152.048V106.13H157.643C157.643 107.21 157.613 108.845 157.238 111.08L158.468 111.2ZM155.378 108.965H154.163V113.105C153.158 113.135 152.168 113.15 151.313 113.15L151.448 114.17C153.833 114.17 156.998 114.11 159.788 113.66L159.713 112.76C158.348 112.94 156.848 113.015 155.378 113.075V108.965ZM163.913 109.28H161.768V103.655H160.538V117.11H161.768V110.315H163.913V109.28ZM175.981 105.08H172.621V103.535H171.391V105.08H168.046V106.07H175.981V105.08ZM169.966 109.145C169.966 108.26 170.776 107.675 172.006 107.675C173.236 107.675 174.061 108.26 174.061 109.145C174.061 110.03 173.236 110.615 172.006 110.615C170.776 110.615 169.966 110.03 169.966 109.145ZM175.231 109.145C175.231 107.675 173.926 106.745 172.006 106.745C170.086 106.745 168.796 107.675 168.796 109.145C168.796 110.6 170.086 111.53 172.006 111.53C173.926 111.53 175.231 110.6 175.231 109.145ZM171.196 113.495H177.226V115.94H171.196V113.495ZM169.996 116.93H178.441V112.52H169.996V116.93ZM180.436 107.24H178.441V103.67H177.211V111.755H178.441V108.26H180.436V107.24ZM181.815 105.26V106.265H183.75C183.66 108.77 183.195 111.23 181.53 113.375L182.49 113.915C184.425 111.305 184.8 108.14 184.8 105.26H181.815ZM189.315 108.935H187.59C187.74 107.63 187.77 106.37 187.77 105.26H185.25V106.265H186.705C186.66 108.8 186.345 111.83 184.515 114.23L185.475 114.785C186.555 113.315 187.125 111.62 187.44 109.94H189.315V116.42H190.47V104H189.315V108.935ZM191.805 103.655V117.095H192.975V103.655H191.805ZM207.458 105.485C207.458 106.535 207.458 107.525 207.098 108.905L208.298 109.04C208.673 107.66 208.673 106.565 208.673 105.485V104.345H199.508V105.335H207.458V105.485ZM204.083 116.135C201.983 116.135 200.633 115.565 200.633 114.635C200.633 113.675 201.983 113.105 204.083 113.105C206.198 113.105 207.548 113.675 207.548 114.635C207.548 115.565 206.198 116.135 204.083 116.135ZM204.083 112.16C201.218 112.16 199.403 113.075 199.403 114.635C199.403 116.165 201.218 117.095 204.083 117.095C206.948 117.095 208.778 116.165 208.778 114.635C208.778 113.075 206.948 112.16 204.083 112.16ZM204.278 109.925V107.345H203.048V109.925H198.083V110.93H210.188V109.925H204.278ZM217.612 105.185C219.667 105.185 221.062 105.935 221.062 107.12C221.062 108.305 219.667 109.07 217.612 109.07C215.572 109.07 214.177 108.305 214.177 107.12C214.177 105.935 215.572 105.185 217.612 105.185ZM217.612 110.06C220.417 110.06 222.322 108.92 222.322 107.12C222.322 105.32 220.417 104.195 217.612 104.195C214.822 104.195 212.917 105.32 212.917 107.12C212.917 108.92 214.822 110.06 217.612 110.06ZM223.732 111.32H211.552V112.325H214.687V117.11H215.932V112.325H219.307V117.11H220.552V112.325H223.732V111.32ZM228.381 112.97C227.331 112.97 226.596 112.115 226.596 110.915C226.596 109.745 227.331 108.89 228.381 108.89C229.416 108.89 230.166 109.745 230.166 110.915C230.166 112.115 229.416 112.97 228.381 112.97ZM228.381 107.855C226.716 107.855 225.501 109.115 225.501 110.915C225.501 112.745 226.716 113.99 228.381 113.99C230.046 113.99 231.261 112.745 231.261 110.915C231.261 109.115 230.046 107.855 228.381 107.855ZM228.981 104.045H227.766V105.95H225.036V106.955H231.711V105.95H228.981V104.045ZM235.266 103.64V109.325H233.541V103.955H232.386V116.45H233.541V110.33H235.266V117.095H236.451V103.64H235.266ZM241.205 108.02H248.075V110.495H241.205V108.02ZM245.255 114.38V111.485H249.275V104.615H248.075V107.015H241.205V104.615H239.99V111.485H244.01V114.38H238.55V115.385H250.745V114.38H245.255ZM256.039 104.93H254.854V107.495C254.854 109.805 253.744 112.22 251.899 113.3L252.664 114.23C253.999 113.405 254.974 111.875 255.454 110.09C255.934 111.725 256.834 113.15 258.109 113.93L258.814 112.97C257.044 111.89 256.039 109.61 256.039 107.45V104.93ZM259.579 108.485H257.359V109.505H259.579V116.45H260.734V103.955H259.579V108.485ZM262.309 103.655V117.11H263.479V103.655H262.309ZM269.763 111.2C270.318 111.335 270.963 111.41 271.623 111.41C272.298 111.41 272.943 111.335 273.513 111.2V114.365H269.763V111.2ZM271.623 105.47C273.783 105.47 275.343 106.46 275.343 107.96C275.343 109.46 273.783 110.45 271.623 110.45C269.463 110.45 267.918 109.46 267.918 107.96C267.918 106.46 269.463 105.47 271.623 105.47ZM274.743 114.365V110.72C275.853 110.135 276.513 109.175 276.513 107.96C276.513 105.86 274.488 104.51 271.623 104.51C268.773 104.51 266.733 105.86 266.733 107.96C266.733 109.175 267.408 110.15 268.533 110.735V114.365H265.533V115.385H277.758V114.365H274.743ZM280.201 112.685H281.146L281.326 106.325L281.371 104.765H279.976L280.021 106.325L280.201 112.685ZM280.666 116.195C281.221 116.195 281.656 115.775 281.656 115.16C281.656 114.545 281.221 114.095 280.666 114.095C280.126 114.095 279.676 114.545 279.676 115.16C279.676 115.775 280.126 116.195 280.666 116.195Z" fill="#767676"/>
</g>
<defs>
<clipPath id="clip0_893:34236">
<rect width="360" height="120" fill="white"/>
</clipPath>
</defs>
</svg>
