<svg width="360" height="120" viewBox="0 0 360 120" fill="none" xmlns="http://www.w3.org/2000/svg">
<g clip-path="url(#clip0_893:34236)">
<path d="M29.597 45.958C26.825 45.958 25.271 45.349 25.271 44.173C25.271 43.018 26.825 42.388 29.597 42.388C32.369 42.388 33.944 43.018 33.944 44.173C33.944 45.349 32.369 45.958 29.597 45.958ZM29.597 40.729C25.544 40.729 23.066 41.989 23.066 44.173C23.066 46.378 25.544 47.638 29.597 47.638C33.671 47.638 36.128 46.378 36.128 44.173C36.128 41.989 33.671 40.729 29.597 40.729ZM30.731 37.81V35.92H36.254V34.177H25.355V31.216H36.128V29.494H23.213V35.92H28.568V37.81H21.092V39.574H38.228V37.81H30.731ZM42.9304 30.565H40.7884V42.934H42.0694C44.4004 42.934 46.4794 42.829 48.8734 42.346L48.6004 40.54C46.6054 40.918 44.8204 41.044 42.9304 41.086V30.565ZM50.0914 34.849H46.0594V36.613H50.0914V46.714H52.1074V29.032H50.0914V34.849ZM54.1024 28.633V47.617H56.1814V28.633H54.1024ZM74.2945 37.579C71.3965 36.655 69.8215 34.45 69.8215 32.098V31.741H73.7905V29.998H63.6055V31.741H67.6375V32.119C67.6375 34.702 65.9785 37.138 62.9965 38.167L64.0885 39.868C66.3565 39.091 67.9525 37.474 68.7925 35.458C69.6115 37.222 71.1235 38.587 73.2445 39.259L74.2945 37.579ZM71.8585 45.916C69.2125 45.916 67.6795 45.244 67.6795 44.026C67.6795 42.787 69.2125 42.136 71.8585 42.136C74.5045 42.136 76.0375 42.787 76.0375 44.026C76.0375 45.244 74.5045 45.916 71.8585 45.916ZM71.8585 40.435C67.9525 40.435 65.5375 41.758 65.5375 44.026C65.5375 46.273 67.9525 47.617 71.8585 47.617C75.7645 47.617 78.1795 46.273 78.1795 44.026C78.1795 41.758 75.7645 40.435 71.8585 40.435ZM77.9695 33.274V28.654H75.8065V39.994H77.9695V35.059H80.6575V33.274H77.9695ZM98.5059 37.621C94.7679 36.991 91.7229 34.177 91.7229 31.237V29.809H89.4339V31.237C89.4339 34.156 86.3889 36.991 82.6299 37.621L83.5539 39.427C86.6409 38.818 89.3289 36.928 90.5889 34.408C91.8069 36.928 94.4949 38.818 97.6029 39.427L98.5059 37.621ZM91.6389 43.48V39.049H89.4759V43.48H82.0629V45.265H99.2409V43.48H91.6389ZM113.834 31.888H103.145V36.151H116.312V34.639H105.266V33.295H115.976V29.116H103.103V30.607H113.834V31.888ZM105.119 44.467H116.039V40.225H102.935V41.716H113.897V43.06H102.977V47.407H116.606V45.916H105.119V44.467ZM100.94 37.348V38.944H118.139V37.348H100.94ZM128.188 31.888H137.218V37.516H128.188V31.888ZM133.795 43.522V39.238H139.339V30.166H126.067V39.238H131.632V43.522H124.156V45.286H141.334V43.522H133.795ZM148.095 41.485C146.436 41.485 145.302 39.7 145.302 36.739C145.302 33.778 146.436 31.993 148.095 31.993C149.733 31.993 150.888 33.778 150.888 36.739C150.888 39.7 149.733 41.485 148.095 41.485ZM148.095 30.04C145.26 30.04 143.223 32.644 143.223 36.739C143.223 40.834 145.26 43.417 148.095 43.417C150.93 43.417 152.967 40.834 152.967 36.739C152.967 32.644 150.93 30.04 148.095 30.04ZM160.695 36.067H157.734V28.654H155.571V47.638H157.734V37.852H160.695V36.067ZM23.885 64.502H21.722V76.892H23.297C26.153 76.892 29.093 76.682 32.306 76.052L32.054 74.267C29.177 74.855 26.447 75.065 23.885 75.086V64.502ZM38.627 70.046H35.75V62.654H33.587V81.617H35.75V71.831H38.627V70.046ZM47.3824 71.495H42.7624V66.014H47.3824V71.495ZM49.5034 64.271H40.6204V73.238H49.5034V64.271ZM44.9464 75.191H42.7624V81.26H55.5304V79.496H44.9464V75.191ZM54.7744 68.282V62.633H52.6114V76.535H54.7744V70.067H57.4624V68.282H54.7744ZM64.9787 63.977C62.0177 63.977 59.8337 65.846 59.8337 68.534C59.8337 71.222 62.0177 73.091 64.9787 73.091C67.9397 73.091 70.1447 71.222 70.1447 68.534C70.1447 65.846 67.9397 63.977 64.9787 63.977ZM64.9787 65.825C66.7427 65.825 68.0237 66.875 68.0237 68.534C68.0237 70.172 66.7427 71.243 64.9787 71.243C63.2357 71.243 61.9547 70.172 61.9547 68.534C61.9547 66.875 63.2357 65.825 64.9787 65.825ZM72.2867 62.633V81.638H74.4707V62.633H72.2867ZM59.2247 77.627C62.5847 77.627 67.1207 77.585 71.2997 76.787L71.1527 75.212C67.0787 75.821 62.3537 75.842 58.9517 75.842L59.2247 77.627ZM170.529 65.888H159.84V70.151H173.007V68.639H161.961V67.295H172.671V63.116H159.798V64.607H170.529V65.888ZM161.814 78.467H172.734V74.225H159.63V75.716H170.592V77.06H159.672V81.407H173.301V79.916H161.814V78.467ZM157.635 71.348V72.944H174.834V71.348H157.635ZM188.264 71.495H183.644V66.014H188.264V71.495ZM190.385 64.271H181.502V73.238H190.385V64.271ZM185.828 75.191H183.644V81.26H196.412V79.496H185.828V75.191ZM195.656 68.282V62.633H193.493V76.535H195.656V70.067H198.344V68.282H195.656ZM214.891 67.274H204.097V64.901H214.702V63.158H201.955V69.017H214.891V67.274ZM203.95 78.152H214.744V73.448H201.766V75.107H212.623V76.577H201.808V81.428H215.29V79.748H203.95V78.152ZM199.771 70.319V72.062H216.928V70.319H199.771ZM223.751 75.485C222.134 75.485 221.021 73.721 221.021 70.718C221.021 67.778 222.134 65.993 223.751 65.993C225.389 65.993 226.502 67.778 226.502 70.718C226.502 73.721 225.389 75.485 223.751 75.485ZM232.214 62.633V69.71H228.518C228.224 66.224 226.292 64.04 223.751 64.04C220.958 64.04 218.963 66.644 218.963 70.718C218.963 74.834 220.958 77.417 223.751 77.417C226.355 77.417 228.287 75.149 228.539 71.474H232.214V81.659H234.398V62.633H232.214ZM241.747 78.299H252.541V73.826H239.563V75.443H250.42V76.787H239.605V81.449H253.087V79.79H241.747V78.299ZM241.894 66.098H250.336V67.61H241.894V66.098ZM247.165 70.802V69.248H252.478V62.927H250.336V64.502H241.894V62.927H239.752V69.248H245.002V70.802H237.505V72.545H254.704V70.802H247.165ZM256.949 64.649V66.434H260.036C259.847 70.235 258.923 73.385 256.214 76.262L257.936 77.459C261.317 73.784 262.073 69.521 262.073 64.649H256.949ZM262.724 64.649V66.434H265.244C265.097 70.529 264.32 74.225 261.59 77.501L263.333 78.719C266.714 74.582 267.281 69.626 267.281 64.649H262.724ZM274.106 70.298H271.418V62.654H269.255V81.596H271.418V72.083H274.106V70.298ZM281.517 73.406C282.252 73.574 283.071 73.658 283.911 73.658C284.751 73.658 285.57 73.574 286.305 73.385V77.522H281.517V73.406ZM283.911 65.447C286.767 65.447 288.762 66.707 288.762 68.702C288.762 70.718 286.767 71.978 283.911 71.978C281.034 71.978 279.039 70.718 279.039 68.702C279.039 66.707 281.034 65.447 283.911 65.447ZM288.468 77.522V72.587C289.98 71.726 290.883 70.382 290.883 68.702C290.883 65.678 287.943 63.746 283.911 63.746C279.858 63.746 276.939 65.678 276.939 68.702C276.939 70.382 277.842 71.747 279.354 72.587V77.522H275.343V79.286H292.521V77.522H288.468ZM296.909 75.065H299.03C298.673 71.936 302.411 70.802 302.411 67.736C302.411 65.279 300.71 63.893 298.274 63.893C296.531 63.893 295.124 64.733 294.095 65.909L295.46 67.148C296.153 66.371 297.014 65.867 298.001 65.867C299.324 65.867 300.059 66.749 300.059 67.904C300.059 70.193 296.405 71.537 296.909 75.065ZM298.001 80.273C298.904 80.273 299.618 79.58 299.618 78.593C299.618 77.606 298.904 76.871 298.001 76.871C297.077 76.871 296.384 77.606 296.384 78.593C296.384 79.58 297.077 80.273 298.001 80.273Z" fill="#333333"/>
<path d="M85.0869 71.936H88.8879V69.794H85.0869V66.791H89.6229V64.586H82.4619V77.543H83.7849C86.5569 77.543 88.4049 77.501 90.5889 77.144L90.3579 74.939C88.6149 75.212 87.1029 75.296 85.0869 75.317V71.936ZM91.8699 69.5H89.7699V71.747H91.8699V80.945H94.4529V62.822H91.8699V69.5ZM95.8809 62.444V81.785H98.5059V62.444H95.8809ZM104.111 66.476H107.891V74.918H104.111V66.476ZM101.381 77.102H110.621V64.292H101.381V77.102ZM118.748 69.752H115.934V62.486H113.162V81.806H115.934V72.041H118.748V69.752ZM127.168 66.602H131.158V64.313H120.322V66.602H124.354V67.673C124.354 70.97 122.779 74.519 119.545 75.968L121.12 78.173C123.388 77.144 124.942 75.023 125.803 72.503C126.664 74.834 128.197 76.724 130.444 77.69L131.956 75.506C128.722 74.162 127.168 70.823 127.168 67.673V66.602ZM132.943 62.465V81.806H135.715V62.465H132.943ZM148.712 77.354V73.322H154.235V71.096H143.42V66.014H154.088V63.788H140.627V73.322H145.94V77.354H138.59V79.622H156.104V77.354H148.712Z" fill="#FF7964"/>
<path d="M25.595 106.055H28.76V105.035H21.245V106.055H24.365V107.765C24.365 110.09 22.73 112.625 20.795 113.54L21.515 114.53C23.045 113.75 24.365 112.055 24.98 110.09C25.625 111.935 26.945 113.48 28.505 114.2L29.195 113.21C27.215 112.37 25.595 110.045 25.595 107.765V106.055ZM30.575 103.67V117.11H31.805V103.67H30.575ZM40.9988 114.395V110.945H45.0938V109.955H37.0688V105.74H44.9588V104.735H35.8388V110.945H39.7538V114.395H34.2788V115.415H46.5038V114.395H40.9988ZM57.2127 106.01H49.3527V108.89H58.6677V108.005H50.5677V106.85H58.4277V104.045H49.3227V104.915H57.2127V106.01ZM50.4927 114.8H58.4727V111.935H49.2477V112.82H57.2577V113.945H49.2777V116.93H58.8927V116.045H50.4927V114.8ZM47.7927 109.91V110.84H59.9877V109.91H47.7927ZM74.126 103.655V117.14H75.356V103.655H74.126ZM68.261 104.69C66.266 104.69 64.841 106.52 64.841 109.385C64.841 112.25 66.266 114.08 68.261 114.08C70.256 114.08 71.681 112.25 71.681 109.385C71.681 106.52 70.256 104.69 68.261 104.69ZM68.261 105.8C69.566 105.8 70.496 107.21 70.496 109.385C70.496 111.575 69.566 112.985 68.261 112.985C66.941 112.985 66.011 111.575 66.011 109.385C66.011 107.21 66.941 105.8 68.261 105.8ZM83.9198 104.795C86.0648 104.795 87.3848 105.365 87.3848 106.31C87.3848 107.27 86.0648 107.825 83.9198 107.825C81.7748 107.825 80.4548 107.27 80.4548 106.31C80.4548 105.365 81.7748 104.795 83.9198 104.795ZM83.9198 108.785C86.8448 108.785 88.6448 107.885 88.6448 106.31C88.6448 104.75 86.8448 103.85 83.9198 103.85C80.9948 103.85 79.1948 104.75 79.1948 106.31C79.1948 107.885 80.9948 108.785 83.9198 108.785ZM84.5498 112.91H83.2748V113.33C83.2748 114.77 81.1598 115.865 78.7298 116.12L79.1348 117.065C81.2348 116.825 83.1098 116 83.9198 114.74C84.6998 116.015 86.5748 116.81 88.6748 117.065L89.0798 116.12C86.6198 115.88 84.5498 114.8 84.5498 113.33V112.91ZM77.8448 109.805V110.81H83.3048V112.295H84.5198V110.81H90.0398V109.805H77.8448ZM98.3636 111.2C98.7386 108.695 98.7386 106.94 98.7386 105.86V105.125H91.9436V106.13H97.5386C97.5386 107.21 97.5086 108.845 97.1336 111.08L98.3636 111.2ZM95.2736 108.965H94.0586V113.105C93.0536 113.135 92.0636 113.15 91.2086 113.15L91.3436 114.17C93.7286 114.17 96.8936 114.11 99.6836 113.66L99.6086 112.76C98.2436 112.94 96.7436 113.015 95.2736 113.075V108.965ZM103.809 109.28H101.664V103.655H100.434V117.11H101.664V110.315H103.809V109.28ZM117.302 105.485C117.302 106.535 117.302 107.525 116.942 108.905L118.142 109.04C118.517 107.66 118.517 106.565 118.517 105.485V104.345H109.352V105.335H117.302V105.485ZM113.927 116.135C111.827 116.135 110.477 115.565 110.477 114.635C110.477 113.675 111.827 113.105 113.927 113.105C116.042 113.105 117.392 113.675 117.392 114.635C117.392 115.565 116.042 116.135 113.927 116.135ZM113.927 112.16C111.062 112.16 109.247 113.075 109.247 114.635C109.247 116.165 111.062 117.095 113.927 117.095C116.792 117.095 118.622 116.165 118.622 114.635C118.622 113.075 116.792 112.16 113.927 112.16ZM114.122 109.925V107.345H112.892V109.925H107.927V110.93H120.032V109.925H114.122ZM127.456 105.185C129.511 105.185 130.906 105.935 130.906 107.12C130.906 108.305 129.511 109.07 127.456 109.07C125.416 109.07 124.021 108.305 124.021 107.12C124.021 105.935 125.416 105.185 127.456 105.185ZM127.456 110.06C130.261 110.06 132.166 108.92 132.166 107.12C132.166 105.32 130.261 104.195 127.456 104.195C124.666 104.195 122.761 105.32 122.761 107.12C122.761 108.92 124.666 110.06 127.456 110.06ZM133.576 111.32H121.396V112.325H124.531V117.11H125.776V112.325H129.151V117.11H130.396V112.325H133.576V111.32ZM138.225 112.97C137.175 112.97 136.44 112.115 136.44 110.915C136.44 109.745 137.175 108.89 138.225 108.89C139.26 108.89 140.01 109.745 140.01 110.915C140.01 112.115 139.26 112.97 138.225 112.97ZM138.225 107.855C136.56 107.855 135.345 109.115 135.345 110.915C135.345 112.745 136.56 113.99 138.225 113.99C139.89 113.99 141.105 112.745 141.105 110.915C141.105 109.115 139.89 107.855 138.225 107.855ZM138.825 104.045H137.61V105.95H134.88V106.955H141.555V105.95H138.825V104.045ZM145.11 103.64V109.325H143.385V103.955H142.23V116.45H143.385V110.33H145.11V117.095H146.295V103.64H145.11ZM158.153 114.44V111.905H162.458V110.915H154.178V108.74H162.143V104.645H152.933V105.65H160.943V107.75H152.963V111.905H156.908V114.44H151.433V115.445H163.658V114.44H158.153ZM174.787 110.615H176.032V103.655H174.787V106.895H171.892V107.885H174.787V110.615ZM165.937 104.315V105.29H170.587C170.542 105.755 170.437 106.19 170.287 106.61L165.292 106.835L165.472 107.81L169.807 107.48C168.997 108.635 167.557 109.55 165.322 110.105L165.772 111.05C169.942 109.955 171.862 107.69 171.862 104.315H165.937ZM168.607 115.955V114.47H176.032V111.23H167.362V112.205H174.817V113.555H167.392V116.93H176.482V115.955H168.607ZM193.68 110.825H191.64C192.12 108.65 192.12 107.09 192.12 105.695V104.465H183.03V105.47H190.935V105.695C190.935 106.235 190.935 106.775 190.905 107.36L182.64 107.675L182.82 108.71L190.83 108.32C190.77 109.07 190.65 109.88 190.41 110.825H181.515V111.83H184.635V117.11H185.88V111.83H189.24V117.11H190.47V111.83H193.68V110.825ZM196.634 109.805H200.234V105.14H195.404V106.145H199.049V108.83H195.449V113.81H196.334C198.044 113.81 199.574 113.735 201.449 113.42L201.344 112.415C199.619 112.715 198.164 112.775 196.634 112.775V109.805ZM202.529 108.485H200.864V109.505H202.529V116.405H203.684V103.985H202.529V108.485ZM205.244 103.655V117.11H206.429V103.655H205.244ZM218.278 103.655V117.14H219.508V103.655H218.278ZM212.413 104.69C210.418 104.69 208.993 106.52 208.993 109.385C208.993 112.25 210.418 114.08 212.413 114.08C214.408 114.08 215.833 112.25 215.833 109.385C215.833 106.52 214.408 104.69 212.413 104.69ZM212.413 105.8C213.718 105.8 214.648 107.21 214.648 109.385C214.648 111.575 213.718 112.985 212.413 112.985C211.093 112.985 210.163 111.575 210.163 109.385C210.163 107.21 211.093 105.8 212.413 105.8ZM223.842 109.655H228.252V108.665H223.842V105.89H228.837V104.87H222.612V113.885H223.647C226.212 113.885 227.847 113.81 229.797 113.465L229.662 112.46C227.832 112.79 226.272 112.88 223.842 112.88V109.655ZM231.852 103.64V108.725H229.077V109.745H231.852V117.125H233.082V103.64H231.852ZM236.215 105.095V106.115H241.15C240.865 109.295 239.02 111.875 235.585 113.6L236.26 114.56C240.61 112.385 242.365 108.92 242.365 105.095H236.215ZM248.005 109.115H245.845V103.655H244.615V117.11H245.845V110.135H248.005V109.115ZM257.104 110.465H259.999V109.46H254.344V105.935H259.939V104.915H253.129V110.465H255.874V113.135C254.569 113.18 253.294 113.18 252.139 113.18L252.289 114.215C254.839 114.215 258.064 114.155 261.004 113.705L260.899 112.805C259.699 112.955 258.394 113.03 257.104 113.09V110.465ZM261.784 103.64V117.14H263.014V103.64H261.784ZM269.148 112.985C267.858 112.985 266.958 111.575 266.958 109.385C266.958 107.21 267.858 105.8 269.148 105.8C270.423 105.8 271.323 107.21 271.323 109.385C271.323 111.575 270.423 112.985 269.148 112.985ZM275.403 103.655V108.785H272.478C272.283 106.265 270.963 104.69 269.148 104.69C267.183 104.69 265.788 106.52 265.788 109.385C265.788 112.25 267.183 114.08 269.148 114.08C271.023 114.08 272.358 112.43 272.478 109.79H275.403V117.14H276.633V103.655H275.403ZM281.701 108.02H288.571V110.495H281.701V108.02ZM285.751 114.38V111.485H289.771V104.615H288.571V107.015H281.701V104.615H280.486V111.485H284.506V114.38H279.046V115.385H291.241V114.38H285.751ZM296.535 104.93H295.35V107.495C295.35 109.805 294.24 112.22 292.395 113.3L293.16 114.23C294.495 113.405 295.47 111.875 295.95 110.09C296.43 111.725 297.33 113.15 298.605 113.93L299.31 112.97C297.54 111.89 296.535 109.61 296.535 107.45V104.93ZM300.075 108.485H297.855V109.505H300.075V116.45H301.23V103.955H300.075V108.485ZM302.805 103.655V117.11H303.975V103.655H302.805ZM310.259 111.2C310.814 111.335 311.459 111.41 312.119 111.41C312.794 111.41 313.439 111.335 314.009 111.2V114.365H310.259V111.2ZM312.119 105.47C314.279 105.47 315.839 106.46 315.839 107.96C315.839 109.46 314.279 110.45 312.119 110.45C309.959 110.45 308.414 109.46 308.414 107.96C308.414 106.46 309.959 105.47 312.119 105.47ZM315.239 114.365V110.72C316.349 110.135 317.009 109.175 317.009 107.96C317.009 105.86 314.984 104.51 312.119 104.51C309.269 104.51 307.229 105.86 307.229 107.96C307.229 109.175 307.904 110.15 309.029 110.735V114.365H306.029V115.385H318.254V114.365H315.239ZM320.833 116.195C321.373 116.195 321.823 115.775 321.823 115.16C321.823 114.545 321.373 114.095 320.833 114.095C320.293 114.095 319.843 114.545 319.843 115.16C319.843 115.775 320.293 116.195 320.833 116.195Z" fill="#767676"/>
</g>
<defs>
<clipPath id="clip0_893:34236">
<rect width="360" height="120" fill="white"/>
</clipPath>
</defs>
</svg>
