<svg width="360" height="285" viewBox="0 0 360 285" fill="none" xmlns="http://www.w3.org/2000/svg">
<path d="M114.119 92.1808L288.142 104.992C293.374 105.377 297.304 109.932 296.919 115.164L288.014 236.12L91.0535 221.62L99.6646 104.653C100.212 97.2175 106.684 91.6334 114.119 92.1808Z" fill="#F7F7F7" stroke="#C4C4C4"/>
<path d="M273.569 85H74.6923C68.7871 85 64 89.7871 64 95.6923V213.308C64 219.213 68.7871 224 74.6923 224H273.569C279.474 224 284.262 219.213 284.262 213.308V95.6923C284.262 89.7871 279.474 85 273.569 85Z" fill="#FAFAFA" stroke="#C4C4C4" stroke-miterlimit="10"/>
<path d="M278.915 108.79L195.291 157.066L190.223 148.298C188.394 145.09 187.646 142.086 188.084 139.498C188.326 138.148 188.88 136.874 189.703 135.777C190.525 134.679 191.593 133.79 192.821 133.179L267.015 90.3457H254.184L189.613 127.63C187.549 128.712 185.764 130.258 184.398 132.147C183.033 134.035 182.124 136.215 181.744 138.515C181.113 142.567 182.139 147.068 184.695 151.506L194.2 167.95C197.59 173.831 196.403 177.862 190.223 181.423L176.408 189.41L119.236 90.3671H111.827L143.187 144.695L69.3461 187.271V194.756L146.395 150.265L170.859 192.618L125.705 218.675H138.536L174.067 198.167L185.903 218.675H193.313L179.616 194.959L193.398 187.004C202.669 181.658 204.914 173.756 199.717 164.764L198.499 162.626L278.915 116.2V108.79Z" fill="#E5E5E5"/>
<path d="M272.5 90.3457H75.7615C72.2184 90.3457 69.3461 93.218 69.3461 96.7611V212.238C69.3461 215.781 72.2184 218.653 75.7615 218.653H272.5C276.043 218.653 278.915 215.781 278.915 212.238V96.7611C278.915 93.218 276.043 90.3457 272.5 90.3457Z" stroke="#C4C4C4" stroke-miterlimit="10"/>
<g clip-path="url(#clip0_893:34205)">
<path d="M270.726 176.878L271.516 176.877L270.726 176.878C270.727 179.383 270.237 181.864 269.284 184.178C268.33 186.492 266.933 188.595 265.171 190.365L265.157 190.379L265.144 190.394L251.799 205.219C251.789 205.225 251.778 205.229 251.766 205.229C251.754 205.229 251.743 205.225 251.732 205.218L238.372 190.394L237.785 190.923L238.346 190.365C236.14 188.148 234.512 185.418 233.607 182.416C232.701 179.415 232.546 176.235 233.155 173.159C233.764 170.083 235.118 167.205 237.097 164.781C239.076 162.357 241.619 160.462 244.5 159.262C247.381 158.062 250.512 157.595 253.616 157.902C256.719 158.21 259.699 159.281 262.293 161.023C264.886 162.764 267.013 165.122 268.484 167.887C269.955 170.653 270.725 173.741 270.726 176.878Z" fill="#FFBCB1" stroke="#FF7964" stroke-width="1.58065"/>
<path d="M258.475 176.861C258.475 180.597 255.463 183.618 251.757 183.618C248.051 183.618 245.039 180.597 245.039 176.861C245.039 173.126 248.051 170.105 251.757 170.105C255.463 170.105 258.475 173.126 258.475 176.861Z" fill="#FFF2EF" stroke="#FF7964" stroke-width="1.58065"/>
</g>
<g clip-path="url(#clip1_893:34205)">
<path d="M106 172.575L105.5 172.575C105.501 174.16 105.191 175.73 104.588 177.194C103.985 178.658 103.1 179.988 101.986 181.108L101.977 181.117L101.968 181.127L93.5262 190.505C93.5197 190.51 93.5124 190.512 93.505 190.512C93.4977 190.512 93.4903 190.51 93.4838 190.505L85.0314 181.126L84.66 181.461L85.0145 181.108C83.6192 179.706 82.5895 177.978 82.0166 176.079C81.4438 174.181 81.3456 172.169 81.7308 170.223C82.116 168.277 82.9727 166.456 84.2248 164.923C85.4768 163.389 87.0856 162.19 88.9083 161.431C90.7311 160.672 92.7118 160.376 94.6752 160.571C96.6385 160.765 98.5241 161.443 100.165 162.545C101.806 163.646 103.151 165.138 104.082 166.888C105.012 168.637 105.5 170.591 105.5 172.575L106 172.575Z" fill="#FFBCB1" stroke="#FF7964"/>
<path d="M97.7493 172.565C97.7493 174.928 95.8441 176.839 93.4993 176.839C91.1546 176.839 89.2493 174.928 89.2493 172.565C89.2493 170.201 91.1546 168.29 93.4993 168.29C95.8441 168.29 97.7493 170.201 97.7493 172.565Z" fill="#FFF2EF" stroke="#FF7964"/>
</g>
<g clip-path="url(#clip2_893:34205)">
<path d="M127 193.551L126.66 193.551C126.661 194.629 126.45 195.696 126.04 196.692C125.63 197.688 125.028 198.592 124.27 199.354L124.264 199.36L124.259 199.366L118.518 205.744C118.513 205.747 118.508 205.748 118.503 205.748C118.498 205.748 118.493 205.747 118.489 205.744L112.741 199.366L112.489 199.594L112.73 199.354C111.781 198.4 111.081 197.225 110.691 195.934C110.302 194.643 110.235 193.275 110.497 191.952C110.759 190.628 111.341 189.39 112.193 188.348C113.044 187.305 114.138 186.489 115.378 185.973C116.617 185.457 117.964 185.256 119.299 185.388C120.634 185.52 121.916 185.981 123.032 186.73C124.148 187.48 125.063 188.494 125.696 189.684C126.328 190.874 126.66 192.202 126.66 193.551L127 193.551Z" fill="#FFBCB1" stroke="#FF7964" stroke-width="0.68"/>
<path d="M121.39 193.545C121.39 195.152 120.094 196.451 118.5 196.451C116.905 196.451 115.61 195.152 115.61 193.545C115.61 191.938 116.905 190.638 118.5 190.638C120.094 190.638 121.39 191.938 121.39 193.545Z" fill="#FFF2EF" stroke="#FF7964" stroke-width="0.68"/>
</g>
<g filter="url(#filter0_d_893:34205)">
<rect x="20" y="114" width="148" height="40" rx="10" fill="white"/>
<rect x="20.5" y="114.5" width="147" height="39" rx="9.5" stroke="#FFBCB1"/>
</g>
<path d="M45.13 128.45H43.688V137.648H45.13V128.45ZM42.512 134.82C40.566 134.19 39.418 132.65 39.418 131.04V130.578H42.12V129.416H35.204V130.578H37.948V131.04C37.948 132.748 36.814 134.386 34.812 135.058L35.568 136.178C37.08 135.674 38.144 134.596 38.704 133.252C39.264 134.498 40.328 135.478 41.784 135.954L42.512 134.82ZM38.326 139.664V136.808H36.87V140.84H45.494V139.664H38.326ZM51.8069 136.22H54.3969V138.404H51.8069V136.22ZM55.8249 138.404V136.22H57.6869V135.058H50.1129V133.308H57.4069V129.318H48.6709V130.48H55.9789V132.16H48.6989V136.22H50.3789V138.404H47.3129V139.594H58.7649V138.404H55.8249ZM60.5278 129.766V130.942H64.9518C64.6578 133.854 62.9918 136.08 59.8978 137.662L60.6958 138.768C64.8258 136.682 66.3938 133.434 66.3938 129.766H60.5278ZM71.6158 133.42H69.6978V128.422H68.2558V141.064H69.6978V134.624H71.6158V133.42ZM85.7913 128.45H84.3493V137.746H85.7913V128.45ZM83.1873 134.96C81.2413 134.386 80.0933 132.93 80.0933 131.376V131.166H82.8093V130.018H80.0933V128.492H78.6513V130.018H75.9073V131.166H78.6513V131.376C78.6513 133.028 77.5173 134.568 75.5573 135.184L76.2573 136.318C77.7553 135.828 78.8333 134.82 79.3933 133.532C79.9673 134.722 81.0453 135.646 82.5153 136.094L83.1873 134.96ZM78.9873 139.664V136.892H77.5313V140.84H86.1553V139.664H78.9873ZM94.7642 131.152V132.328H96.9902V134.918H98.4462V128.436H96.9902V131.152H94.7642ZM95.4362 133.728C93.5742 133.14 92.4822 131.74 92.4822 130.312V130.172H95.1282V129.01H88.3662V130.172H91.0262V130.298C91.0262 131.796 89.8782 133.364 87.9462 134.008L88.6462 135.128C90.1302 134.652 91.2082 133.616 91.7682 132.356C92.3142 133.49 93.3502 134.4 94.7642 134.848L95.4362 133.728ZM91.6562 139.818V138.698H98.4462V135.492H90.2142V136.626H97.0182V137.634H90.2282V140.952H98.8662V139.818H91.6562ZM108.049 129.878H105.039V128.422H103.597V129.878H100.587V131.026H108.049V129.878ZM102.631 134.008C102.631 133.21 103.317 132.734 104.311 132.734C105.319 132.734 106.005 133.21 106.005 134.008C106.005 134.806 105.319 135.282 104.311 135.282C103.317 135.282 102.631 134.806 102.631 134.008ZM107.377 134.008C107.377 132.58 106.131 131.614 104.311 131.614C102.505 131.614 101.245 132.58 101.245 134.008C101.245 135.45 102.505 136.402 104.311 136.402C106.131 136.402 107.377 135.45 107.377 134.008ZM103.891 137.186H102.435V140.84H110.947V139.664H103.891V137.186ZM110.443 132.468V128.436H109.001V137.914H110.443V133.658H112.235V132.468H110.443ZM125.067 131.572V132.986H122.435V131.572H125.067ZM121.021 134.064H118.039V132.216H121.021V134.064ZM122.435 134.162H125.067V136.052H126.509V128.436H125.067V130.396H122.435V129.206H121.021V131.082H118.039V129.206H116.611V135.212H122.435V134.162ZM122.295 139.958C120.503 139.958 119.481 139.51 119.481 138.684C119.481 137.858 120.503 137.41 122.295 137.41C124.087 137.41 125.123 137.858 125.123 138.684C125.123 139.51 124.087 139.958 122.295 139.958ZM122.295 136.29C119.663 136.29 118.039 137.186 118.039 138.684C118.039 140.196 119.663 141.078 122.295 141.078C124.941 141.078 126.565 140.196 126.565 138.684C126.565 137.186 124.941 136.29 122.295 136.29ZM135.187 135.856V136.864H137.665V138.04H139.107V128.422H137.665V135.856H135.187ZM132.667 129.976C133.703 129.976 134.417 130.424 134.417 131.138C134.417 131.852 133.703 132.3 132.667 132.3C131.617 132.3 130.903 131.852 130.903 131.138C130.903 130.424 131.617 129.976 132.667 129.976ZM132.667 133.364C134.515 133.364 135.789 132.482 135.789 131.138C135.789 129.794 134.515 128.912 132.667 128.912C130.805 128.912 129.531 129.794 129.531 131.138C129.531 132.482 130.805 133.364 132.667 133.364ZM132.093 137.634H133.535V135.198C134.613 135.142 135.719 135.016 136.783 134.834L136.671 133.798C133.997 134.134 130.889 134.162 128.565 134.176L128.747 135.352C129.741 135.352 130.889 135.338 132.093 135.282V137.634ZM131.715 139.664V137.102H130.273V140.84H139.401V139.664H131.715ZM151.328 131.516H144.132V129.934H151.202V128.772H142.704V132.678H151.328V131.516ZM144.034 138.768H151.23V135.632H142.578V136.738H149.816V137.718H142.606V140.952H151.594V139.832H144.034V138.768ZM141.248 133.546V134.708H152.686V133.546H141.248Z" fill="#585858"/>
<g filter="url(#filter1_d_893:34205)">
<rect x="164" y="212" width="176" height="40" rx="10" fill="white"/>
<rect x="164.5" y="212.5" width="175" height="39" rx="9.5" stroke="#FFBCB1"/>
</g>
<path d="M186.302 227.892H183.278V226.464H181.836V227.892H178.784V229.054H186.302V227.892ZM180.884 232.05C180.884 231.266 181.57 230.79 182.564 230.79C183.558 230.79 184.23 231.266 184.23 232.05C184.23 232.82 183.558 233.296 182.564 233.296C181.57 233.296 180.884 232.82 180.884 232.05ZM183.278 234.346C184.678 234.122 185.588 233.254 185.588 232.05C185.588 230.622 184.356 229.684 182.564 229.684C180.758 229.684 179.526 230.622 179.526 232.05C179.526 233.254 180.436 234.108 181.836 234.346V235.578C180.66 235.62 179.526 235.62 178.56 235.62L178.756 236.81C180.926 236.81 183.852 236.782 186.554 236.306L186.442 235.242C185.434 235.396 184.356 235.466 183.278 235.522V234.346ZM190.404 231.714H188.598V226.422H187.156V239.078H188.598V232.904H190.404V231.714ZM198.733 232.386C196.801 231.77 195.751 230.3 195.751 228.732V228.494H198.397V227.332H191.607V228.494H194.295V228.746C194.295 230.468 193.189 232.092 191.201 232.778L191.929 233.912C193.441 233.394 194.505 232.316 195.065 230.972C195.611 232.148 196.619 233.058 198.033 233.506L198.733 232.386ZM197.109 237.944C195.345 237.944 194.323 237.496 194.323 236.684C194.323 235.858 195.345 235.424 197.109 235.424C198.873 235.424 199.895 235.858 199.895 236.684C199.895 237.496 198.873 237.944 197.109 237.944ZM197.109 234.29C194.505 234.29 192.895 235.172 192.895 236.684C192.895 238.182 194.505 239.078 197.109 239.078C199.713 239.078 201.323 238.182 201.323 236.684C201.323 235.172 199.713 234.29 197.109 234.29ZM201.183 229.516V226.436H199.741V233.996H201.183V230.706H202.975V229.516H201.183ZM214.328 226.436H212.872V232.918H214.328V226.436ZM211.598 231.504C209.652 230.902 208.518 229.362 208.518 227.724V226.772H207.048V227.724C207.048 229.432 205.914 231.07 203.912 231.728L204.626 232.876C206.152 232.358 207.23 231.308 207.804 229.95C208.378 231.196 209.442 232.162 210.898 232.638L211.598 231.504ZM207.482 237.832V236.726H214.328V233.52H206.04V234.64H212.9V235.676H206.068V238.966H214.706V237.832H207.482ZM225.457 226.422V239.106H226.913V226.422H225.457ZM220.179 227.36C218.303 227.36 216.931 229.096 216.931 231.812C216.931 234.556 218.303 236.278 220.179 236.278C222.069 236.278 223.441 234.556 223.441 231.812C223.441 229.096 222.069 227.36 220.179 227.36ZM220.179 228.662C221.285 228.662 222.055 229.852 222.055 231.812C222.055 233.8 221.285 234.99 220.179 234.99C219.087 234.99 218.317 233.8 218.317 231.812C218.317 229.852 219.087 228.662 220.179 228.662ZM232.24 227.92V229.096H233.864C233.752 231.434 233.304 233.478 231.89 235.382L233.01 236.026C234.718 233.632 235.082 230.818 235.082 227.92H232.24ZM235.488 227.92V229.096H236.818C236.748 231.574 236.398 234.066 234.844 236.222L235.992 236.852C237.84 234.178 238.064 230.86 238.064 227.92H235.488ZM241.592 226.408V231.406H240.318V226.688H238.96V238.49H240.318V232.582H241.592V239.078H242.964V226.408H241.592ZM250.999 234.22H249.543V234.752C249.543 236.278 247.891 237.594 245.343 237.93L245.903 239.05C247.905 238.742 249.487 237.874 250.271 236.6C251.055 237.874 252.637 238.742 254.639 239.05L255.185 237.93C252.651 237.594 250.999 236.278 250.999 234.752V234.22ZM254.233 231.854C254.667 229.796 254.667 228.354 254.667 227.528V227.024H250.565V228.186H253.267C253.239 229.026 253.155 230.258 252.791 231.854H249.235C249.781 229.726 249.767 228.256 249.767 227.458V227.024H245.637V228.186H248.353C248.325 229.026 248.213 230.244 247.765 231.854H244.559V233.03H256.025V231.854H254.233ZM264.648 227.878H261.638V226.422H260.196V227.878H257.186V229.026H264.648V227.878ZM259.23 232.008C259.23 231.21 259.916 230.734 260.91 230.734C261.918 230.734 262.604 231.21 262.604 232.008C262.604 232.806 261.918 233.282 260.91 233.282C259.916 233.282 259.23 232.806 259.23 232.008ZM263.976 232.008C263.976 230.58 262.73 229.614 260.91 229.614C259.104 229.614 257.844 230.58 257.844 232.008C257.844 233.45 259.104 234.402 260.91 234.402C262.73 234.402 263.976 233.45 263.976 232.008ZM260.49 235.186H259.034V238.84H267.546V237.664H260.49V235.186ZM267.042 230.468V226.436H265.6V235.914H267.042V231.658H268.834V230.468H267.042ZM280.307 232.176C278.361 231.532 277.241 229.95 277.241 228.242V227.01H275.771V228.242C275.771 230.006 274.651 231.714 272.663 232.4L273.377 233.534C274.875 233.016 275.953 231.924 276.527 230.552C277.087 231.812 278.137 232.806 279.593 233.31L280.307 232.176ZM274.525 235.774H281.609V239.078H283.051V234.612H274.525V235.774ZM281.609 226.422V234.01H283.051V226.422H281.609ZM292.486 231.42C290.946 231.756 289.588 231.826 287.166 231.84V228.522H291.352V227.346H285.724V233.016H286.746C289.49 233.016 290.988 232.932 292.64 232.596L292.486 231.42ZM291.03 237.916C289.28 237.916 288.244 237.44 288.244 236.586C288.244 235.732 289.28 235.27 291.03 235.27C292.78 235.27 293.816 235.732 293.816 236.586C293.816 237.44 292.78 237.916 291.03 237.916ZM291.03 234.108C288.44 234.108 286.816 235.046 286.816 236.586C286.816 238.14 288.44 239.092 291.03 239.092C293.62 239.092 295.244 238.14 295.244 236.586C295.244 235.046 293.62 234.108 291.03 234.108ZM295.132 229.586V226.436H293.662V233.856H295.132V230.776H296.896V229.586H295.132ZM303.386 228.592H309.406V232.344H303.386V228.592ZM307.124 236.348V233.492H310.82V227.444H301.972V233.492H305.682V236.348H300.698V237.524H312.15V236.348H307.124ZM319.009 226.702C316.251 226.702 314.501 227.612 314.501 229.124C314.501 230.622 316.251 231.546 319.009 231.546C321.767 231.546 323.517 230.622 323.517 229.124C323.517 227.612 321.767 226.702 319.009 226.702ZM319.009 227.822C320.885 227.822 322.019 228.284 322.019 229.124C322.019 229.95 320.885 230.412 319.009 230.412C317.133 230.412 315.985 229.95 315.985 229.124C315.985 228.284 317.133 227.822 319.009 227.822ZM314.655 234.696V238.924H323.335V234.696H314.655ZM321.921 235.844V237.776H316.083V235.844H321.921ZM313.283 232.47V233.618H324.721V232.47H313.283Z" fill="#585858"/>
<g clip-path="url(#clip3_893:34205)">
<path d="M207.38 94.5933L208 94.5931L207.38 94.5935C207.381 96.5587 206.997 98.5048 206.249 100.32C205.501 102.136 204.404 103.785 203.022 105.174L203.011 105.185L203.001 105.197L192.532 116.826C192.524 116.832 192.515 116.835 192.506 116.835C192.497 116.835 192.488 116.832 192.48 116.826L181.999 105.197L181.538 105.612L181.978 105.174C180.248 103.435 178.971 101.293 178.261 98.9384C177.55 96.5837 177.429 94.0893 177.906 91.676C178.384 89.2628 179.446 87.0055 180.999 85.1039C182.551 83.2024 184.546 81.7153 186.806 80.7742C189.067 79.833 191.523 79.4667 193.957 79.7075C196.392 79.9484 198.73 80.789 200.764 82.1552C202.799 83.5214 204.467 85.3711 205.621 87.5406C206.775 89.7102 207.38 92.1326 207.38 94.5933Z" fill="#FFBCB1" stroke="#FF7964" stroke-width="1.24"/>
<path d="M197.769 94.5807C197.769 97.5112 195.407 99.8813 192.499 99.8813C189.592 99.8813 187.229 97.5112 187.229 94.5807C187.229 91.6503 189.592 89.2802 192.499 89.2802C195.407 89.2802 197.769 91.6503 197.769 94.5807Z" fill="#FFF2EF" stroke="#FF7964" stroke-width="1.24"/>
</g>
<g clip-path="url(#clip4_893:34205)">
<path d="M225 118.036L224.76 118.036C224.76 118.797 224.612 119.55 224.322 120.253C224.033 120.956 223.608 121.594 223.073 122.132L223.073 122.132L223.065 122.141L219.013 126.642C219.009 126.644 219.006 126.645 219.002 126.645C218.999 126.645 218.995 126.644 218.992 126.642L214.935 122.14L214.757 122.301L214.927 122.132C214.257 121.458 213.763 120.629 213.488 119.718C213.213 118.806 213.166 117.841 213.351 116.907C213.536 115.972 213.947 115.099 214.548 114.363C215.149 113.627 215.921 113.051 216.796 112.687C217.671 112.322 218.622 112.18 219.564 112.274C220.506 112.367 221.412 112.692 222.199 113.221C222.987 113.75 223.632 114.466 224.079 115.306C224.526 116.146 224.76 117.083 224.76 118.036L225 118.036Z" fill="#FFBCB1" stroke="#FF7964" stroke-width="0.48"/>
<path d="M221.04 118.031C221.04 119.165 220.125 120.083 219 120.083C217.874 120.083 216.96 119.165 216.96 118.031C216.96 116.897 217.874 115.979 219 115.979C220.125 115.979 221.04 116.897 221.04 118.031Z" fill="#FFF2EF" stroke="#FF7964" stroke-width="0.48"/>
</g>
<g filter="url(#filter2_d_893:34205)">
<mask id="path-21-inside-1_893:34205" fill="white">
<path fill-rule="evenodd" clip-rule="evenodd" d="M86 28C80.4772 28 76 32.4772 76 38V58C76 63.5228 80.4772 68 86 68H186.226L190.317 74.3758C191.104 75.6026 192.896 75.6026 193.683 74.3758L197.774 68H298C303.523 68 308 63.5228 308 58V38C308 32.4772 303.523 28 298 28H86Z"/>
</mask>
<path fill-rule="evenodd" clip-rule="evenodd" d="M86 28C80.4772 28 76 32.4772 76 38V58C76 63.5228 80.4772 68 86 68H186.226L190.317 74.3758C191.104 75.6026 192.896 75.6026 193.683 74.3758L197.774 68H298C303.523 68 308 63.5228 308 58V38C308 32.4772 303.523 28 298 28H86Z" fill="white"/>
<path d="M186.226 68L187.068 67.46L186.773 67H186.226V68ZM190.317 74.3758L191.158 73.8359L190.317 74.3758ZM193.683 74.3758L192.842 73.8359L193.683 74.3758ZM197.774 68V67H197.227L196.932 67.46L197.774 68ZM77 38C77 33.0294 81.0294 29 86 29V27C79.9249 27 75 31.9249 75 38H77ZM77 58V38H75V58H77ZM86 67C81.0294 67 77 62.9706 77 58H75C75 64.0751 79.9249 69 86 69V67ZM186.226 67H86V69H186.226V67ZM191.158 73.8359L187.068 67.46L185.385 68.54L189.475 74.9158L191.158 73.8359ZM192.842 73.8359C192.448 74.4493 191.552 74.4493 191.158 73.8359L189.475 74.9158C190.655 76.756 193.345 76.756 194.525 74.9158L192.842 73.8359ZM196.932 67.46L192.842 73.8359L194.525 74.9158L198.615 68.54L196.932 67.46ZM298 67H197.774V69H298V67ZM307 58C307 62.9706 302.971 67 298 67V69C304.075 69 309 64.0751 309 58H307ZM307 38V58H309V38H307ZM298 29C302.971 29 307 33.0294 307 38H309C309 31.9249 304.075 27 298 27V29ZM86 29H298V27H86V29Z" fill="#FFBCB1" mask="url(#path-21-inside-1_893:34205)"/>
</g>
<path d="M95.684 48.526H92.59V46.44H95.684V48.526ZM97.112 43.346H95.684V45.32H92.59V43.346H91.148V49.688H97.112V43.346ZM94.032 50.836H92.576V54.84H101.088V53.664H94.032V50.836ZM100.584 46.16V42.45H99.142V51.732H100.584V47.35H102.376V46.16H100.584ZM105.175 48.232H109.305V43.528H103.733V44.69H107.891V47.07H103.761V52.208H104.727C106.687 52.208 108.311 52.166 110.229 51.858L110.117 50.668C108.381 50.934 106.897 51.004 105.175 51.018V48.232ZM112.343 42.408V45.222H110.033V46.398H112.343V48.666H109.963V49.842H112.343V55.092H113.785V42.408H112.343ZM121.596 53.972C119.748 53.972 118.712 53.566 118.712 52.782C118.712 52.012 119.748 51.592 121.596 51.592C123.444 51.592 124.494 52.012 124.494 52.782C124.494 53.566 123.444 53.972 121.596 53.972ZM121.596 50.486C118.894 50.486 117.242 51.326 117.242 52.782C117.242 54.252 118.894 55.092 121.596 55.092C124.312 55.092 125.95 54.252 125.95 52.782C125.95 51.326 124.312 50.486 121.596 50.486ZM122.352 48.54V47.28H126.034V46.118H118.768V44.144H125.95V42.996H117.34V47.28H120.91V48.54H115.926V49.716H127.35V48.54H122.352ZM137.051 45.6H131.381V43.948H137.051V45.6ZM138.465 42.828H129.953V46.734H138.465V42.828ZM139.949 48.764V47.616H128.497V48.764H133.481V49.814H129.855V50.906H137.093V51.802H129.883V54.966H138.871V53.86H131.311V52.824H138.507V49.814H134.937V48.764H139.949ZM147.732 49.548C148.082 47.308 148.082 45.712 148.082 44.606V43.766H141.656V44.928H146.668C146.668 45.992 146.64 47.462 146.318 49.422L147.732 49.548ZM144.904 47.392H143.49V51.2C142.608 51.214 141.754 51.228 140.984 51.228L141.138 52.418C143.35 52.418 146.248 52.362 148.852 51.928L148.782 50.864C147.55 51.032 146.22 51.102 144.904 51.158V47.392ZM152.772 47.63H150.91V42.436H149.454V55.078H150.91V48.848H152.772V47.63ZM157.133 43.304V44.466H161.445C161.277 46.174 159.723 47.588 156.587 48.204L157.161 49.366C160.927 48.568 163.055 46.566 163.055 43.304H157.133ZM159.793 52.782H166.359V51.746H159.793V50.738H166.513V49.66H158.351V54.924H166.779V53.846H159.793V52.782ZM166.443 45.222V42.436H165.001V49.128H166.443V46.412H168.235V45.222H166.443ZM178.118 42.422V55.106H179.574V42.422H178.118ZM172.84 43.36C170.964 43.36 169.592 45.096 169.592 47.812C169.592 50.556 170.964 52.278 172.84 52.278C174.73 52.278 176.102 50.556 176.102 47.812C176.102 45.096 174.73 43.36 172.84 43.36ZM172.84 44.662C173.946 44.662 174.716 45.852 174.716 47.812C174.716 49.8 173.946 50.99 172.84 50.99C171.748 50.99 170.978 49.8 170.978 47.812C170.978 45.852 171.748 44.662 172.84 44.662ZM193.665 48.848H195.107V42.436H193.665V45.306H191.159V46.482H193.665V48.848ZM185.489 42.982V44.144H189.507C189.269 45.922 187.701 47.308 184.789 47.994L185.307 49.128C188.961 48.232 191.033 46.202 191.033 42.982H185.489ZM188.345 53.804V52.642H195.107V49.352H186.875V50.514H193.665V51.564H186.903V54.966H195.457V53.804H188.345ZM202.946 43.71C204.906 43.71 205.956 44.088 205.956 44.816C205.956 45.53 204.906 45.908 202.946 45.908C200.986 45.908 199.936 45.53 199.936 44.816C199.936 44.088 200.986 43.71 202.946 43.71ZM202.946 46.986C205.774 46.986 207.454 46.216 207.454 44.816C207.454 43.402 205.774 42.632 202.946 42.632C200.104 42.632 198.438 43.402 198.438 44.816C198.438 46.216 200.104 46.986 202.946 46.986ZM200.034 52.81H207.23V49.786H198.578V50.878H205.816V51.788H198.606V54.966H207.594V53.86H200.034V52.81ZM197.22 47.728V48.876H208.672V47.728H197.22ZM223.632 47.098C221.084 46.734 219.18 45.152 219.18 43.514V42.842H217.654V43.514C217.654 45.18 215.778 46.734 213.202 47.098L213.762 48.26C215.862 47.924 217.612 46.874 218.424 45.404C219.25 46.86 220.972 47.924 223.072 48.26L223.632 47.098ZM224.122 49.45H212.698V50.626H217.654V55.092H219.096V50.626H224.122V49.45ZM238.577 42.45H237.135V49.632H238.577V42.45ZM231.759 44.326C232.879 44.326 233.705 45.04 233.705 46.118C233.705 47.21 232.879 47.91 231.759 47.91C230.639 47.91 229.813 47.21 229.813 46.118C229.813 45.04 230.639 44.326 231.759 44.326ZM231.759 49.1C233.691 49.1 235.105 47.882 235.105 46.118C235.105 44.354 233.691 43.136 231.759 43.136C229.827 43.136 228.399 44.354 228.399 46.118C228.399 47.882 229.827 49.1 231.759 49.1ZM237.233 50.178H235.819V50.738C235.819 51.69 235.287 52.88 234.167 53.636C233.061 52.936 232.571 51.802 232.571 50.738V50.178H231.171V50.738C231.171 51.97 230.331 53.272 228.721 53.846L229.421 54.91C230.597 54.476 231.409 53.664 231.871 52.67C232.263 53.692 233.005 54.56 234.195 55.022C235.343 54.546 236.099 53.636 236.505 52.642C236.939 53.664 237.765 54.476 238.983 54.91L239.697 53.846C238.045 53.314 237.233 52.04 237.233 50.738V50.178ZM250.91 46.062H243.672V42.884H242.23V47.238H250.91V46.062ZM243.588 51.074H242.146V54.798H250.98V53.636H243.588V51.074ZM240.746 48.75V49.912H252.226V48.75H240.746ZM263.672 48.624C261.754 47.966 260.662 46.37 260.662 44.69V43.206H259.206V44.676C259.206 46.524 258.128 48.232 256.098 48.918L256.882 50.038C258.366 49.506 259.416 48.428 259.962 47.042C260.522 48.274 261.544 49.282 262.944 49.772L263.672 48.624ZM259.556 50.85H258.114V54.84H266.598V53.664H259.556V50.85ZM266.094 46.216V42.422H264.652V51.746H266.094V47.406H267.886V46.216H266.094ZM275.08 48.554C273.498 47.98 272.672 46.65 272.672 45.236V45.138H274.744V43.99H272.672V42.562H271.286V43.99H269.158V45.138H271.286V45.236C271.286 46.72 270.474 48.148 268.864 48.778L269.55 49.856C270.754 49.366 271.566 48.456 272 47.336C272.462 48.372 273.26 49.184 274.422 49.632L275.08 48.554ZM270.95 51.97H278.076V55.092H279.518V50.808H270.95V51.97ZM278.146 42.45V45.726H276.844V42.66H275.486V50.122H276.844V46.902H278.146V50.192H279.518V42.45H278.146ZM287.847 52.404V50.248H291.795V49.086H284.221V47.322H291.515V43.318H282.779V44.48H290.087V46.174H282.807V50.248H286.405V52.404H281.421V53.594H292.873V52.404H287.847Z" fill="#585858"/>
<defs>
<filter id="filter0_d_893:34205" x="4" y="98" width="180" height="72" filterUnits="userSpaceOnUse" color-interpolation-filters="sRGB">
<feFlood flood-opacity="0" result="BackgroundImageFix"/>
<feColorMatrix in="SourceAlpha" type="matrix" values="0 0 0 0 0 0 0 0 0 0 0 0 0 0 0 0 0 0 127 0" result="hardAlpha"/>
<feOffset/>
<feGaussianBlur stdDeviation="8"/>
<feComposite in2="hardAlpha" operator="out"/>
<feColorMatrix type="matrix" values="0 0 0 0 0 0 0 0 0 0 0 0 0 0 0 0 0 0 0.1 0"/>
<feBlend mode="normal" in2="BackgroundImageFix" result="effect1_dropShadow_893:34205"/>
<feBlend mode="normal" in="SourceGraphic" in2="effect1_dropShadow_893:34205" result="shape"/>
</filter>
<filter id="filter1_d_893:34205" x="148" y="196" width="208" height="72" filterUnits="userSpaceOnUse" color-interpolation-filters="sRGB">
<feFlood flood-opacity="0" result="BackgroundImageFix"/>
<feColorMatrix in="SourceAlpha" type="matrix" values="0 0 0 0 0 0 0 0 0 0 0 0 0 0 0 0 0 0 127 0" result="hardAlpha"/>
<feOffset/>
<feGaussianBlur stdDeviation="8"/>
<feComposite in2="hardAlpha" operator="out"/>
<feColorMatrix type="matrix" values="0 0 0 0 0 0 0 0 0 0 0 0 0 0 0 0 0 0 0.1 0"/>
<feBlend mode="normal" in2="BackgroundImageFix" result="effect1_dropShadow_893:34205"/>
<feBlend mode="normal" in="SourceGraphic" in2="effect1_dropShadow_893:34205" result="shape"/>
</filter>
<filter id="filter2_d_893:34205" x="60" y="12" width="264" height="79.2959" filterUnits="userSpaceOnUse" color-interpolation-filters="sRGB">
<feFlood flood-opacity="0" result="BackgroundImageFix"/>
<feColorMatrix in="SourceAlpha" type="matrix" values="0 0 0 0 0 0 0 0 0 0 0 0 0 0 0 0 0 0 127 0" result="hardAlpha"/>
<feOffset/>
<feGaussianBlur stdDeviation="8"/>
<feComposite in2="hardAlpha" operator="out"/>
<feColorMatrix type="matrix" values="0 0 0 0 0 0 0 0 0 0 0 0 0 0 0 0 0 0 0.1 0"/>
<feBlend mode="normal" in2="BackgroundImageFix" result="effect1_dropShadow_893:34205"/>
<feBlend mode="normal" in="SourceGraphic" in2="effect1_dropShadow_893:34205" result="shape"/>
</filter>
<clipPath id="clip0_893:34205">
<rect width="39.5161" height="49" fill="white" transform="translate(232 157)"/>
</clipPath>
<clipPath id="clip1_893:34205">
<rect width="25" height="31" fill="white" transform="translate(81 160)"/>
</clipPath>
<clipPath id="clip2_893:34205">
<rect width="17" height="21.08" fill="white" transform="translate(110 185)"/>
</clipPath>
<clipPath id="clip3_893:34205">
<rect width="31" height="38.44" fill="white" transform="translate(177 79)"/>
</clipPath>
<clipPath id="clip4_893:34205">
<rect width="12" height="14.88" fill="white" transform="translate(213 112)"/>
</clipPath>
</defs>
</svg>
