<svg width="360" height="120" viewBox="0 0 360 120" fill="none" xmlns="http://www.w3.org/2000/svg">
<path d="M23.78 37.663H27.938V35.962H23.78V32.581H28.736V30.838H21.701V43.228H22.961C25.838 43.228 27.623 43.165 29.765 42.787L29.576 41.023C27.707 41.359 26.111 41.443 23.78 41.464V37.663ZM31.319 35.71H28.883V37.495H31.319V46.714H33.356V29.053H31.319V35.71ZM35.183 28.633V47.596H37.262V28.633H35.183ZM42.7624 32.224H47.3614V41.17H42.7624V32.224ZM40.6204 42.892H49.5034V30.502H40.6204V42.892ZM57.6094 36.067H54.6484V28.654H52.4854V47.638H54.6484V37.852H57.6094V36.067ZM71.7407 31.888H61.0517V36.151H74.2187V34.639H63.1727V33.295H73.8827V29.116H61.0097V30.607H71.7407V31.888ZM63.0257 44.467H73.9457V40.225H60.8417V41.716H71.8037V43.06H60.8837V47.407H74.5127V45.916H63.0257V44.467ZM58.8467 37.348V38.944H76.0457V37.348H58.8467ZM92.2479 33.421V35.185H95.6079V39.952H97.7709V28.654H95.6079V33.421H92.2479ZM93.3399 37.642C90.5049 36.655 88.8879 34.303 88.8879 31.93V31.678H92.8359V29.935H82.6929V31.678H86.7039V31.951C86.7039 34.555 85.0029 37.075 82.0629 38.125L83.1759 39.847C85.4229 39.049 87.0189 37.369 87.8589 35.29C88.6569 37.117 90.1689 38.608 92.2689 39.343L93.3399 37.642ZM91.4709 45.958C88.7619 45.958 87.2289 45.286 87.2289 44.047C87.2289 42.808 88.7619 42.136 91.4709 42.136C94.1379 42.136 95.6919 42.808 95.6919 44.047C95.6919 45.286 94.1379 45.958 91.4709 45.958ZM91.4709 40.456C87.5019 40.456 85.0659 41.8 85.0659 44.047C85.0659 46.315 87.5019 47.638 91.4709 47.638C95.4189 47.638 97.8549 46.315 97.8549 44.047C97.8549 41.8 95.4189 40.456 91.4709 40.456ZM106.484 41.758C104.951 41.758 103.838 40.708 103.838 39.112C103.838 37.516 104.951 36.466 106.484 36.466C108.017 36.466 109.13 37.516 109.13 39.112C109.13 40.708 108.017 41.758 106.484 41.758ZM106.484 34.681C103.754 34.681 101.78 36.529 101.78 39.112C101.78 41.716 103.754 43.543 106.484 43.543C109.193 43.543 111.188 41.716 111.188 39.112C111.188 36.529 109.193 34.681 106.484 34.681ZM107.534 28.927H105.371V31.573H100.856V33.337H111.965V31.573H107.534V28.927ZM118.601 36.277H115.682V28.654H113.498V47.638H115.682V38.083H118.601V36.277ZM132.964 32.287C132.964 34.555 132.964 37.243 132.229 40.96L134.413 41.191C135.148 37.264 135.148 34.639 135.148 32.287V30.418H121.645V32.182H132.964V32.287ZM128.428 43.354V36.676H126.244V43.354H119.86V45.139H136.996V43.354H128.428ZM154.185 37.579C151.287 36.655 149.712 34.45 149.712 32.098V31.741H153.681V29.998H143.496V31.741H147.528V32.119C147.528 34.702 145.869 37.138 142.887 38.167L143.979 39.868C146.247 39.091 147.843 37.474 148.683 35.458C149.502 37.222 151.014 38.587 153.135 39.259L154.185 37.579ZM151.749 45.916C149.103 45.916 147.57 45.244 147.57 44.026C147.57 42.787 149.103 42.136 151.749 42.136C154.395 42.136 155.928 42.787 155.928 44.026C155.928 45.244 154.395 45.916 151.749 45.916ZM151.749 40.435C147.843 40.435 145.428 41.758 145.428 44.026C145.428 46.273 147.843 47.617 151.749 47.617C155.655 47.617 158.07 46.273 158.07 44.026C158.07 41.758 155.655 40.435 151.749 40.435ZM157.86 33.274V28.654H155.697V39.994H157.86V35.059H160.548V33.274H157.86ZM178.396 37.621C174.658 36.991 171.613 34.177 171.613 31.237V29.809H169.324V31.237C169.324 34.156 166.279 36.991 162.52 37.621L163.444 39.427C166.531 38.818 169.219 36.928 170.479 34.408C171.697 36.928 174.385 38.818 177.493 39.427L178.396 37.621ZM171.529 43.48V39.049H169.366V43.48H161.953V45.265H179.131V43.48H171.529ZM193.724 31.888H183.035V36.151H196.202V34.639H185.156V33.295H195.866V29.116H182.993V30.607H193.724V31.888ZM185.009 44.467H195.929V40.225H182.825V41.716H193.787V43.06H182.867V47.407H196.496V45.916H185.009V44.467ZM180.83 37.348V38.944H198.029V37.348H180.83ZM205.79 38.818C208.898 38.398 211.376 37.012 212.594 35.122C213.833 37.012 216.311 38.419 219.398 38.818L220.175 37.117C216.5 36.676 213.896 34.66 213.707 32.644H219.566V30.901H213.686V28.654H211.523V30.901H205.664V32.644H211.502C211.313 34.681 208.709 36.676 205.034 37.117L205.79 38.818ZM221.183 40.057H204.047V41.842H211.523V47.659H213.686V41.842H221.183V40.057ZM223.869 30.649V32.413H230.505C230.064 36.781 227.565 40.12 222.924 42.493L224.121 44.152C230.316 41.023 232.668 36.151 232.668 30.649H223.869ZM240.501 36.13H237.624V28.633H235.461V47.596H237.624V37.936H240.501V36.13ZM246.463 41.569C245.182 41.569 244.279 40.54 244.279 38.965C244.279 37.39 245.182 36.34 246.463 36.34C247.744 36.34 248.647 37.39 248.647 38.965C248.647 40.54 247.744 41.569 246.463 41.569ZM246.463 34.555C244.069 34.555 242.347 36.34 242.347 38.965C242.347 41.569 244.069 43.375 246.463 43.375C248.857 43.375 250.579 41.569 250.579 38.965C250.579 36.34 248.857 34.555 246.463 34.555ZM247.534 29.2H245.392V31.741H241.801V33.484H251.083V31.741H247.534V29.2ZM255.934 28.654V36.508H253.918V29.053H251.902V46.735H253.918V38.293H255.934V47.617H257.992V28.654H255.934ZM266.916 39.406C267.651 39.574 268.47 39.658 269.31 39.658C270.15 39.658 270.969 39.574 271.704 39.385V43.522H266.916V39.406ZM269.31 31.447C272.166 31.447 274.161 32.707 274.161 34.702C274.161 36.718 272.166 37.978 269.31 37.978C266.433 37.978 264.438 36.718 264.438 34.702C264.438 32.707 266.433 31.447 269.31 31.447ZM273.867 43.522V38.587C275.379 37.726 276.282 36.382 276.282 34.702C276.282 31.678 273.342 29.746 269.31 29.746C265.257 29.746 262.338 31.678 262.338 34.702C262.338 36.382 263.241 37.747 264.753 38.587V43.522H260.742V45.286H277.92V43.522H273.867Z" fill="#333333"/>
<path d="M26.33 74.105H22.55V69.845H26.33V74.105ZM27.53 68.855H21.35V75.08H27.53V68.855ZM24.095 76.58H22.865V80.81H31.835V79.805H24.095V76.58ZM31.235 71.75V67.64H30.005V77.495H31.235V72.785H33.23V71.75H31.235ZM45.0188 71.195H37.1438V69.095H44.8838V68.105H35.9138V72.185H45.0188V71.195ZM36.9938 78.605H44.8988V75.44H35.7488V76.4H43.6838V77.69H35.7938V80.945H45.3038V79.985H36.9938V78.605ZM34.2938 73.265V74.27H46.4738V73.265H34.2938ZM57.2877 70.34C57.2877 71.96 57.2877 73.85 56.7777 76.43L58.0077 76.565C58.5177 73.85 58.5177 72.005 58.5177 70.34V69.005H49.0827V70.01H57.2877V70.34ZM53.7627 78.215V73.4H52.5327V78.215H47.8077V79.22H59.9727V78.215H53.7627ZM75.386 67.67H74.156V75.14H75.386V67.67ZM72.476 73.64C70.496 72.995 69.086 71.33 69.086 69.47V68.15H67.856V69.47C67.856 71.405 66.461 73.19 64.421 73.895L65.051 74.87C66.656 74.3 67.901 73.07 68.486 71.525C69.101 72.965 70.331 74.075 71.891 74.615L72.476 73.64ZM69.551 76.94H72.401V79.94H69.551V76.94ZM73.616 79.94V76.94H75.461V75.95H66.476V76.94H68.336V79.94H66.356V80.93H75.611V79.94H73.616ZM83.9198 69.11C86.0348 69.11 87.3848 69.74 87.3848 70.805C87.3848 71.87 86.0348 72.485 83.9198 72.485C81.8048 72.485 80.4548 71.87 80.4548 70.805C80.4548 69.74 81.8048 69.11 83.9198 69.11ZM83.9198 73.475C86.7998 73.475 88.6448 72.485 88.6448 70.805C88.6448 69.125 86.7998 68.12 83.9198 68.12C81.0398 68.12 79.1948 69.125 79.1948 70.805C79.1948 72.485 81.0398 73.475 83.9198 73.475ZM80.6348 76.91H79.4048V80.81H88.6598V79.805H80.6348V76.91ZM77.8298 74.735V75.725H89.9948V74.735H77.8298ZM96.0781 73.88H99.2731V72.905H96.0781V70.265H99.9031V69.26H94.8931V77.87H95.7631C97.8781 77.87 99.1381 77.825 100.668 77.525L100.563 76.52C99.1531 76.805 97.9681 76.865 96.0781 76.865V73.88ZM101.943 72.755H99.9931V73.76H101.943V80.42H103.098V67.985H101.943V72.755ZM104.643 67.64V81.095H105.813V67.64H104.643ZM109.637 69.995H113.402V76.7H109.637V69.995ZM108.437 77.69H114.602V69.005H108.437V77.69ZM120.467 73.025H118.247V67.67H117.017V81.11H118.247V74.06H120.467V73.025ZM130.816 70.01H122.956V72.89H132.271V72.005H124.171V70.85H132.031V68.045H122.926V68.915H130.816V70.01ZM124.096 78.8H132.076V75.935H122.851V76.82H130.861V77.945H122.881V80.93H132.496V80.045H124.096V78.8ZM121.396 73.91V74.84H133.591V73.91H121.396ZM145.884 74.225C143.934 73.535 142.614 71.84 142.614 70.115V69.575H145.569V68.57H138.384V69.575H141.384V70.115C141.384 72.02 139.989 73.82 137.994 74.525L138.639 75.5C140.214 74.915 141.444 73.685 142.014 72.14C142.614 73.535 143.769 74.645 145.269 75.185L145.884 74.225ZM140.034 77.435H147.789V81.125H149.019V76.445H140.034V77.435ZM147.789 67.655V71.165H145.164V72.17H147.789V75.71H149.019V67.655H147.789ZM160.943 70.34C160.943 71.96 160.943 73.85 160.433 76.43L161.663 76.565C162.173 73.85 162.173 72.005 162.173 70.34V69.005H152.738V70.01H160.943V70.34ZM157.418 78.215V73.4H156.188V78.215H151.463V79.22H163.628V78.215H157.418ZM175.801 74.165C173.821 73.505 172.546 71.93 172.546 70.175V69.65H175.516V68.66H168.301V69.65H171.316V70.175C171.316 72.11 169.966 73.85 167.941 74.555L168.571 75.53C170.176 74.96 171.391 73.76 171.961 72.23C172.531 73.565 173.686 74.63 175.216 75.125L175.801 74.165ZM174.166 80.12C172.156 80.12 170.956 79.565 170.956 78.605C170.956 77.66 172.156 77.105 174.166 77.105C176.146 77.105 177.361 77.66 177.361 78.605C177.361 79.565 176.146 80.12 174.166 80.12ZM174.166 76.13C171.406 76.13 169.726 77.045 169.726 78.605C169.726 80.18 171.406 81.095 174.166 81.095C176.896 81.095 178.591 80.18 178.591 78.605C178.591 77.045 176.896 76.13 174.166 76.13ZM178.441 71.06V67.67H177.211V75.785H178.441V72.095H180.436V71.06H178.441ZM193.11 74.225C190.755 73.805 188.19 71.825 188.19 69.59V68.555H186.9V69.59C186.9 71.825 184.35 73.805 181.995 74.225L182.505 75.245C184.575 74.81 186.675 73.415 187.545 71.495C188.415 73.415 190.53 74.81 192.585 75.245L193.11 74.225ZM188.16 78.35V75.08H186.93V78.35H181.5V79.355H193.71V78.35H188.16ZM204.419 70.01H196.559V72.89H205.874V72.005H197.774V70.85H205.634V68.045H196.529V68.915H204.419V70.01ZM197.699 78.8H205.679V75.935H196.454V76.82H204.464V77.945H196.484V80.93H206.099V80.045H197.699V78.8ZM194.999 73.91V74.84H207.194V73.91H194.999ZM212.767 74.765C214.852 74.45 216.787 73.415 217.642 71.96C218.497 73.415 220.417 74.45 222.502 74.765L222.937 73.775C220.537 73.445 218.257 71.96 218.257 70.31H222.547V69.32H218.257V67.67H217.027V69.32H212.737V70.31H217.012C217.012 71.975 214.747 73.445 212.317 73.775L212.767 74.765ZM223.732 75.785H211.567V76.79H217.027V81.125H218.257V76.79H223.732V75.785ZM225.771 69.095V70.115H230.706C230.421 73.295 228.576 75.875 225.141 77.6L225.816 78.56C230.166 76.385 231.921 72.92 231.921 69.095H225.771ZM237.561 73.115H235.401V67.655H234.171V81.11H235.401V74.135H237.561V73.115ZM242.495 77.09C241.28 77.09 240.395 76.22 240.395 75.02C240.395 73.805 241.28 72.935 242.495 72.935C243.725 72.935 244.61 73.805 244.61 75.02C244.61 76.22 243.725 77.09 242.495 77.09ZM242.495 71.915C240.605 71.915 239.24 73.205 239.24 75.02C239.24 76.85 240.605 78.11 242.495 78.11C244.415 78.11 245.78 76.85 245.78 75.02C245.78 73.205 244.415 71.915 242.495 71.915ZM243.095 67.82H241.865V69.815H238.475V70.805H246.41V69.815H243.095V67.82ZM251.12 73.19H248.915V67.67H247.685V81.11H248.915V74.225H251.12V73.19ZM257.599 74.135H253.879V69.815H257.599V74.135ZM261.889 71.03V72.905H258.799V71.03H261.889ZM258.799 73.91H261.889V77.48H263.134V67.67H261.889V70.025H258.799V68.84H252.664V75.11H258.799V73.91ZM255.709 79.805V76.61H254.479V80.81H263.449V79.805H255.709ZM21.365 92.705V93.71H26.315C26.06 96.08 23.99 97.985 20.825 98.975L21.32 99.95C25.19 98.735 27.635 96.185 27.635 92.705H21.365ZM24.08 100.49H22.85V104.81H31.82V103.805H24.08V100.49ZM31.235 95.75V91.67H30.005V101.495H31.235V96.77H33.23V95.75H31.235ZM42.0788 97.55C40.3238 97.895 38.7938 98 36.1388 98V93.815H40.8638V92.825H34.9088V99.005H35.9588C38.7788 99.005 40.3688 98.915 42.2138 98.54L42.0788 97.55ZM37.5938 100.415H36.3638V104.81H45.3338V103.805H37.5938V100.415ZM44.7338 95.645V91.655H43.5038V101.39H44.7338V96.665H46.7288V95.645H44.7338ZM51.7377 101.09C50.5227 101.09 49.6377 100.22 49.6377 99.02C49.6377 97.805 50.5227 96.935 51.7377 96.935C52.9677 96.935 53.8527 97.805 53.8527 99.02C53.8527 100.22 52.9677 101.09 51.7377 101.09ZM51.7377 95.915C49.8477 95.915 48.4827 97.205 48.4827 99.02C48.4827 100.85 49.8477 102.11 51.7377 102.11C53.6577 102.11 55.0227 100.85 55.0227 99.02C55.0227 97.205 53.6577 95.915 51.7377 95.915ZM52.3377 91.82H51.1077V93.815H47.7177V94.805H55.6527V93.815H52.3377V91.82ZM60.3627 97.19H58.1577V91.67H56.9277V105.11H58.1577V98.225H60.3627V97.19ZM68.7465 97.16H66.4215C66.8715 95.96 67.0665 94.685 67.0665 93.365H61.8765V94.37H65.8515C65.6265 97.19 64.1865 99.605 61.3065 101.33L62.0265 102.215C63.8865 101.105 65.1765 99.71 65.9865 98.15H68.7465V104.435H69.9165V92.015H68.7465V97.16ZM71.5515 91.655V105.11H72.7215V91.655H71.5515ZM79.5998 92.96H78.3848V101.705H79.4498C81.5048 101.705 83.5598 101.555 85.8548 101.09L85.7048 100.07C83.5298 100.505 81.5348 100.67 79.5998 100.67V92.96ZM90.3548 97.025H88.1948V91.655H86.9648V105.11H88.1948V98.045H90.3548V97.025ZM96.8786 98.105H93.0986V93.845H96.8786V98.105ZM98.0786 92.855H91.8986V99.08H98.0786V92.855ZM94.6436 100.58H93.4136V104.81H102.384V103.805H94.6436V100.58ZM101.784 95.75V91.64H100.554V101.495H101.784V96.785H103.779V95.75H101.784ZM109.207 92.645C107.122 92.645 105.607 93.92 105.607 95.81C105.607 97.685 107.122 98.975 109.207 98.975C111.307 98.975 112.807 97.685 112.807 95.81C112.807 93.92 111.307 92.645 109.207 92.645ZM109.207 93.695C110.602 93.695 111.607 94.55 111.607 95.81C111.607 97.055 110.602 97.925 109.207 97.925C107.812 97.925 106.807 97.055 106.807 95.81C106.807 94.55 107.812 93.695 109.207 93.695ZM114.577 91.655V105.14H115.807V91.655H114.577ZM105.082 102.185C107.512 102.185 110.767 102.17 113.797 101.6L113.692 100.685C110.752 101.135 107.377 101.15 104.932 101.15L105.082 102.185ZM123.076 97.88H126.271V96.905H123.076V94.265H126.901V93.26H121.891V101.87H122.761C124.876 101.87 126.136 101.825 127.666 101.525L127.561 100.52C126.151 100.805 124.966 100.865 123.076 100.865V97.88ZM128.941 96.755H126.991V97.76H128.941V104.42H130.096V91.985H128.941V96.755ZM131.641 91.64V105.095H132.811V91.64H131.641ZM136.635 93.995H140.4V100.7H136.635V93.995ZM135.435 101.69H141.6V93.005H135.435V101.69ZM147.465 97.025H145.245V91.67H144.015V105.11H145.245V98.06H147.465V97.025ZM153.193 94.055H156.358V93.035H148.843V94.055H151.963V95.765C151.963 98.09 150.328 100.625 148.393 101.54L149.113 102.53C150.643 101.75 151.963 100.055 152.578 98.09C153.223 99.935 154.543 101.48 156.103 102.2L156.793 101.21C154.813 100.37 153.193 98.045 153.193 95.765V94.055ZM158.173 91.67V105.11H159.403V91.67H158.173ZM168.597 102.395V98.945H172.692V97.955H164.667V93.74H172.557V92.735H163.437V98.945H167.352V102.395H161.877V103.415H174.102V102.395H168.597ZM184.811 94.01H176.951V96.89H186.266V96.005H178.166V94.85H186.026V92.045H176.921V92.915H184.811V94.01ZM178.091 102.8H186.071V99.935H176.846V100.82H184.856V101.945H176.876V104.93H186.491V104.045H178.091V102.8ZM175.391 97.91V98.84H187.586V97.91H175.391ZM197.479 98.105H193.699V93.845H197.479V98.105ZM198.679 92.855H192.499V99.08H198.679V92.855ZM195.244 100.58H194.014V104.81H202.984V103.805H195.244V100.58ZM202.384 95.75V91.64H201.154V101.495H202.384V96.785H204.379V95.75H202.384ZM216.168 95.195H208.293V93.095H216.033V92.105H207.063V96.185H216.168V95.195ZM208.143 102.605H216.048V99.44H206.898V100.4H214.833V101.69H206.943V104.945H216.453V103.985H208.143V102.605ZM205.443 97.265V98.27H217.623V97.265H205.443ZM233.577 96.785C231.132 96.425 228.732 94.76 228.732 92.885V92.135H227.442V92.885C227.442 94.805 225.072 96.425 222.627 96.785L223.122 97.775C225.222 97.415 227.247 96.26 228.087 94.625C228.957 96.245 230.982 97.415 233.067 97.775L233.577 96.785ZM234.162 99.23H222.012V100.25H227.442V105.125H228.672V100.25H234.177L234.162 99.23ZM249.59 91.67H248.36V99.35H249.59V91.67ZM242.36 93.47C243.695 93.47 244.685 94.355 244.685 95.585C244.685 96.83 243.695 97.7 242.36 97.7C241.025 97.7 240.065 96.83 240.065 95.585C240.065 94.355 241.025 93.47 242.36 93.47ZM242.36 98.72C244.4 98.72 245.885 97.445 245.885 95.585C245.885 93.725 244.4 92.45 242.36 92.45C240.335 92.45 238.865 93.725 238.865 95.585C238.865 97.445 240.335 98.72 242.36 98.72ZM248.09 99.935H246.89V100.655C246.89 101.705 246.245 103.055 244.955 103.85C243.71 103.115 243.095 101.84 243.095 100.655V99.935H241.91V100.655C241.91 101.945 240.905 103.4 239.21 104L239.825 104.93C241.085 104.45 242 103.52 242.48 102.44C242.885 103.565 243.695 104.54 244.985 105.05C246.23 104.51 247.055 103.49 247.475 102.395C247.925 103.52 248.855 104.45 250.175 104.93L250.79 104C249.08 103.43 248.09 102.05 248.09 100.655V99.935ZM255.649 100.985C254.359 100.985 253.459 99.575 253.459 97.385C253.459 95.21 254.359 93.8 255.649 93.8C256.924 93.8 257.824 95.21 257.824 97.385C257.824 99.575 256.924 100.985 255.649 100.985ZM261.904 91.655V96.785H258.979C258.784 94.265 257.464 92.69 255.649 92.69C253.684 92.69 252.289 94.52 252.289 97.385C252.289 100.25 253.684 102.08 255.649 102.08C257.524 102.08 258.859 100.43 258.979 97.79H261.904V105.14H263.134V91.655H261.904ZM269.763 99.2C270.318 99.335 270.963 99.41 271.623 99.41C272.298 99.41 272.943 99.335 273.513 99.2V102.365H269.763V99.2ZM271.623 93.47C273.783 93.47 275.343 94.46 275.343 95.96C275.343 97.46 273.783 98.45 271.623 98.45C269.463 98.45 267.918 97.46 267.918 95.96C267.918 94.46 269.463 93.47 271.623 93.47ZM274.743 102.365V98.72C275.853 98.135 276.513 97.175 276.513 95.96C276.513 93.86 274.488 92.51 271.623 92.51C268.773 92.51 266.733 93.86 266.733 95.96C266.733 97.175 267.408 98.15 268.533 98.735V102.365H265.533V103.385H277.758V102.365H274.743ZM280.201 100.685H281.146L281.326 94.325L281.371 92.765H279.976L280.021 94.325L280.201 100.685ZM280.666 104.195C281.221 104.195 281.656 103.775 281.656 103.16C281.656 102.545 281.221 102.095 280.666 102.095C280.126 102.095 279.676 102.545 279.676 103.16C279.676 103.775 280.126 104.195 280.666 104.195Z" fill="#767676"/>
</svg>
