<svg width="360" height="120" viewBox="0 0 360 120" fill="none" xmlns="http://www.w3.org/2000/svg">
<path d="M34.49 28.633V47.659H36.674V28.633H34.49ZM26.573 30.04C23.759 30.04 21.701 32.644 21.701 36.718C21.701 40.834 23.759 43.417 26.573 43.417C29.408 43.417 31.466 40.834 31.466 36.718C31.466 32.644 29.408 30.04 26.573 30.04ZM26.573 31.993C28.232 31.993 29.387 33.778 29.387 36.718C29.387 39.7 28.232 41.485 26.573 41.485C24.935 41.485 23.78 39.7 23.78 36.718C23.78 33.778 24.935 31.993 26.573 31.993ZM53.5144 38.986H55.6774V28.654H53.5144V32.161H50.2384V33.904H53.5144V38.986ZM50.5744 35.689C48.0754 36.13 45.9124 36.235 42.8464 36.256V34.429H49.1674V29.473H40.6624V31.132H47.0044V32.875H40.7044V37.936H42.1954C45.7024 37.936 48.0334 37.852 50.7634 37.369L50.5744 35.689ZM49.4194 46.126C47.2564 46.126 46.1644 45.748 46.1644 44.971C46.1644 44.194 47.2564 43.816 49.4194 43.816C51.5614 43.816 52.6744 44.194 52.6744 44.971C52.6744 45.748 51.5614 46.126 49.4194 46.126ZM49.4194 42.304C46.0174 42.304 44.0644 43.228 44.0644 44.971C44.0644 46.714 46.0174 47.638 49.4194 47.638C52.8004 47.638 54.7534 46.714 54.7534 44.971C54.7534 43.228 52.8004 42.304 49.4194 42.304ZM50.4904 39.973V38.377H48.3274V39.973H42.7624V41.611H56.0344V39.973H50.4904ZM69.0317 36.193H66.2387C66.7847 34.576 67.0367 32.833 67.0367 30.985H59.6657V32.728H64.8947C64.5797 36.613 62.7107 39.721 58.7627 42.073L60.0017 43.606C62.6267 42.031 64.4327 40.12 65.5457 37.936H69.0317V46.714H71.0687V29.116H69.0317V36.193ZM73.0007 28.654V47.617H75.0797V28.654H73.0007ZM93.1929 37.579C90.2949 36.655 88.7199 34.45 88.7199 32.098V31.741H92.6889V29.998H82.5039V31.741H86.5359V32.119C86.5359 34.702 84.8769 37.138 81.8949 38.167L82.9869 39.868C85.2549 39.091 86.8509 37.474 87.6909 35.458C88.5099 37.222 90.0219 38.587 92.1429 39.259L93.1929 37.579ZM90.7569 45.916C88.1109 45.916 86.5779 45.244 86.5779 44.026C86.5779 42.787 88.1109 42.136 90.7569 42.136C93.4029 42.136 94.9359 42.787 94.9359 44.026C94.9359 45.244 93.4029 45.916 90.7569 45.916ZM90.7569 40.435C86.8509 40.435 84.4359 41.758 84.4359 44.026C84.4359 46.273 86.8509 47.617 90.7569 47.617C94.6629 47.617 97.0779 46.273 97.0779 44.026C97.0779 41.758 94.6629 40.435 90.7569 40.435ZM96.8679 33.274V28.654H94.7049V39.994H96.8679V35.059H99.5559V33.274H96.8679ZM117.404 37.621C113.666 36.991 110.621 34.177 110.621 31.237V29.809H108.332V31.237C108.332 34.156 105.287 36.991 101.528 37.621L102.452 39.427C105.539 38.818 108.227 36.928 109.487 34.408C110.705 36.928 113.393 38.818 116.501 39.427L117.404 37.621ZM110.537 43.48V39.049H108.374V43.48H100.961V45.265H118.139V43.48H110.537ZM132.733 31.888H122.044V36.151H135.211V34.639H124.165V33.295H134.875V29.116H122.002V30.607H132.733V31.888ZM124.018 44.467H134.938V40.225H121.834V41.716H132.796V43.06H121.876V47.407H135.505V45.916H124.018V44.467ZM119.839 37.348V38.944H137.038V37.348H119.839ZM147.087 31.888H156.117V37.516H147.087V31.888ZM152.694 43.522V39.238H158.238V30.166H144.966V39.238H150.531V43.522H143.055V45.286H160.233V43.522H152.694ZM170.521 30.565C173.461 30.565 175.036 31.132 175.036 32.224C175.036 33.295 173.461 33.862 170.521 33.862C167.581 33.862 166.006 33.295 166.006 32.224C166.006 31.132 167.581 30.565 170.521 30.565ZM170.521 35.479C174.763 35.479 177.283 34.324 177.283 32.224C177.283 30.103 174.763 28.948 170.521 28.948C166.258 28.948 163.759 30.103 163.759 32.224C163.759 34.324 166.258 35.479 170.521 35.479ZM166.153 44.215H176.947V39.679H163.969V41.317H174.826V42.682H164.011V47.449H177.493V45.79H166.153V44.215ZM161.932 36.592V38.314H179.11V36.592H161.932ZM201.549 35.647C197.727 35.101 194.871 32.728 194.871 30.271V29.263H192.582V30.271C192.582 32.77 189.768 35.101 185.904 35.647L186.744 37.39C189.894 36.886 192.519 35.311 193.737 33.106C194.976 35.29 197.559 36.886 200.709 37.39L201.549 35.647ZM202.284 39.175H185.148V40.939H192.582V47.638H194.745V40.939H202.284V39.175ZM223.967 28.675H221.804V39.448H223.967V28.675ZM213.74 31.489C215.42 31.489 216.659 32.56 216.659 34.177C216.659 35.815 215.42 36.865 213.74 36.865C212.06 36.865 210.821 35.815 210.821 34.177C210.821 32.56 212.06 31.489 213.74 31.489ZM213.74 38.65C216.638 38.65 218.759 36.823 218.759 34.177C218.759 31.531 216.638 29.704 213.74 29.704C210.842 29.704 208.7 31.531 208.7 34.177C208.7 36.823 210.842 38.65 213.74 38.65ZM221.951 40.267H219.83V41.107C219.83 42.535 219.032 44.32 217.352 45.454C215.693 44.404 214.958 42.703 214.958 41.107V40.267H212.858V41.107C212.858 42.955 211.598 44.908 209.183 45.769L210.233 47.365C211.997 46.714 213.215 45.496 213.908 44.005C214.496 45.538 215.609 46.84 217.394 47.533C219.116 46.819 220.25 45.454 220.859 43.963C221.51 45.496 222.749 46.714 224.576 47.365L225.647 45.769C223.169 44.971 221.951 43.06 221.951 41.107V40.267ZM232.345 41.485C230.728 41.485 229.615 39.721 229.615 36.718C229.615 33.778 230.728 31.993 232.345 31.993C233.983 31.993 235.096 33.778 235.096 36.718C235.096 39.721 233.983 41.485 232.345 41.485ZM240.808 28.633V35.71H237.112C236.818 32.224 234.886 30.04 232.345 30.04C229.552 30.04 227.557 32.644 227.557 36.718C227.557 40.834 229.552 43.417 232.345 43.417C234.949 43.417 236.881 41.149 237.133 37.474H240.808V47.659H242.992V28.633H240.808ZM252.314 39.406C253.049 39.574 253.868 39.658 254.708 39.658C255.548 39.658 256.367 39.574 257.102 39.385V43.522H252.314V39.406ZM254.708 31.447C257.564 31.447 259.559 32.707 259.559 34.702C259.559 36.718 257.564 37.978 254.708 37.978C251.831 37.978 249.836 36.718 249.836 34.702C249.836 32.707 251.831 31.447 254.708 31.447ZM259.265 43.522V38.587C260.777 37.726 261.68 36.382 261.68 34.702C261.68 31.678 258.74 29.746 254.708 29.746C250.655 29.746 247.736 31.678 247.736 34.702C247.736 36.382 248.639 37.747 250.151 38.587V43.522H246.14V45.286H263.318V43.522H259.265Z" fill="#333333"/>
<path d="M26.33 74.105H22.55V69.845H26.33V74.105ZM27.53 68.855H21.35V75.08H27.53V68.855ZM24.095 76.58H22.865V80.81H31.835V79.805H24.095V76.58ZM31.235 71.75V67.64H30.005V77.495H31.235V72.785H33.23V71.75H31.235ZM45.0188 71.195H37.1438V69.095H44.8838V68.105H35.9138V72.185H45.0188V71.195ZM36.9938 78.605H44.8988V75.44H35.7488V76.4H43.6838V77.69H35.7938V80.945H45.3038V79.985H36.9938V78.605ZM34.2938 73.265V74.27H46.4738V73.265H34.2938ZM57.2877 70.34C57.2877 71.96 57.2877 73.85 56.7777 76.43L58.0077 76.565C58.5177 73.85 58.5177 72.005 58.5177 70.34V69.005H49.0827V70.01H57.2877V70.34ZM53.7627 78.215V73.4H52.5327V78.215H47.8077V79.22H59.9727V78.215H53.7627ZM75.386 67.67H74.156V75.14H75.386V67.67ZM72.476 73.64C70.496 72.995 69.086 71.33 69.086 69.47V68.15H67.856V69.47C67.856 71.405 66.461 73.19 64.421 73.895L65.051 74.87C66.656 74.3 67.901 73.07 68.486 71.525C69.101 72.965 70.331 74.075 71.891 74.615L72.476 73.64ZM69.551 76.94H72.401V79.94H69.551V76.94ZM73.616 79.94V76.94H75.461V75.95H66.476V76.94H68.336V79.94H66.356V80.93H75.611V79.94H73.616ZM83.9198 69.11C86.0348 69.11 87.3848 69.74 87.3848 70.805C87.3848 71.87 86.0348 72.485 83.9198 72.485C81.8048 72.485 80.4548 71.87 80.4548 70.805C80.4548 69.74 81.8048 69.11 83.9198 69.11ZM83.9198 73.475C86.7998 73.475 88.6448 72.485 88.6448 70.805C88.6448 69.125 86.7998 68.12 83.9198 68.12C81.0398 68.12 79.1948 69.125 79.1948 70.805C79.1948 72.485 81.0398 73.475 83.9198 73.475ZM80.6348 76.91H79.4048V80.81H88.6598V79.805H80.6348V76.91ZM77.8298 74.735V75.725H89.9948V74.735H77.8298ZM96.0781 73.88H99.2731V72.905H96.0781V70.265H99.9031V69.26H94.8931V77.87H95.7631C97.8781 77.87 99.1381 77.825 100.668 77.525L100.563 76.52C99.1531 76.805 97.9681 76.865 96.0781 76.865V73.88ZM101.943 72.755H99.9931V73.76H101.943V80.42H103.098V67.985H101.943V72.755ZM104.643 67.64V81.095H105.813V67.64H104.643ZM109.637 69.995H113.402V76.7H109.637V69.995ZM108.437 77.69H114.602V69.005H108.437V77.69ZM120.467 73.025H118.247V67.67H117.017V81.11H118.247V74.06H120.467V73.025ZM126.196 70.055H129.361V69.035H121.846V70.055H124.966V71.765C124.966 74.09 123.331 76.625 121.396 77.54L122.116 78.53C123.646 77.75 124.966 76.055 125.581 74.09C126.226 75.935 127.546 77.48 129.106 78.2L129.796 77.21C127.816 76.37 126.196 74.045 126.196 71.765V70.055ZM131.176 67.67V81.11H132.406V67.67H131.176ZM141.6 78.395V74.945H145.695V73.955H137.67V69.74H145.56V68.735H136.44V74.945H140.355V78.395H134.88V79.415H147.105V78.395H141.6ZM152.758 68.645C150.673 68.645 149.158 69.92 149.158 71.81C149.158 73.685 150.673 74.975 152.758 74.975C154.858 74.975 156.358 73.685 156.358 71.81C156.358 69.92 154.858 68.645 152.758 68.645ZM152.758 69.695C154.153 69.695 155.158 70.55 155.158 71.81C155.158 73.055 154.153 73.925 152.758 73.925C151.363 73.925 150.358 73.055 150.358 71.81C150.358 70.55 151.363 69.695 152.758 69.695ZM158.128 67.655V81.14H159.358V67.655H158.128ZM148.633 78.185C151.063 78.185 154.318 78.17 157.348 77.6L157.243 76.685C154.303 77.135 150.928 77.15 148.483 77.15L148.633 78.185ZM168.892 70.235H171.292V69.23H165.157V70.235H167.707V71.45C167.707 73.925 166.657 76.37 164.782 77.495L165.532 78.41C166.867 77.57 167.842 75.995 168.307 74.15C168.772 75.86 169.702 77.3 171.007 78.08L171.757 77.18C169.897 76.13 168.892 73.79 168.892 71.45V70.235ZM172.492 72.485H170.272V73.49H172.492V80.405H173.662V67.955H172.492V72.485ZM175.192 67.64V81.095H176.377V67.64H175.192ZM179.796 77.855H187.881V81.125H189.111V76.865H179.796V77.855ZM181.206 69.185H187.836V71.795H181.206V69.185ZM185.151 74.48V72.77H189.051V68.21H180.006V72.77H183.921V74.48H178.431V75.47H190.611V74.48H185.151ZM198.019 68.81C200.224 68.81 201.484 69.32 201.484 70.22C201.484 71.12 200.224 71.63 198.019 71.63C195.814 71.63 194.554 71.12 194.554 70.22C194.554 69.32 195.814 68.81 198.019 68.81ZM198.019 72.545C200.974 72.545 202.744 71.735 202.744 70.22C202.744 68.705 200.974 67.88 198.019 67.88C195.064 67.88 193.294 68.705 193.294 70.22C193.294 71.735 195.064 72.545 198.019 72.545ZM194.644 78.635H202.549V75.605H193.399V76.535H201.334V77.735H193.444V80.96H202.954V80H194.644V78.635ZM191.929 73.46V74.45H204.109V73.46H191.929ZM215.683 71.15V72.155H218.338V75.68H219.583V67.67H218.338V71.15H215.683ZM216.433 74.21C214.483 73.52 213.163 71.825 213.163 70.1V69.635H216.118V68.645H208.933V69.635H211.933V70.1C211.933 72.035 210.553 73.85 208.543 74.585L209.188 75.56C210.763 74.96 212.008 73.7 212.578 72.14C213.163 73.52 214.318 74.63 215.818 75.17L216.433 74.21ZM215.143 80.15C213.118 80.15 211.888 79.58 211.888 78.605C211.888 77.63 213.118 77.045 215.143 77.045C217.168 77.045 218.398 77.63 218.398 78.605C218.398 79.58 217.168 80.15 215.143 80.15ZM215.143 76.1C212.383 76.1 210.658 77.015 210.658 78.605C210.658 80.195 212.383 81.11 215.143 81.11C217.903 81.11 219.613 80.195 219.613 78.605C219.613 77.015 217.903 76.1 215.143 76.1ZM225.942 77.09C224.727 77.09 223.842 76.22 223.842 75.02C223.842 73.805 224.727 72.935 225.942 72.935C227.172 72.935 228.057 73.805 228.057 75.02C228.057 76.22 227.172 77.09 225.942 77.09ZM225.942 71.915C224.052 71.915 222.687 73.205 222.687 75.02C222.687 76.85 224.052 78.11 225.942 78.11C227.862 78.11 229.227 76.85 229.227 75.02C229.227 73.205 227.862 71.915 225.942 71.915ZM226.542 67.82H225.312V69.815H221.922V70.805H229.857V69.815H226.542V67.82ZM234.567 73.19H232.362V67.67H231.132V81.11H232.362V74.225H234.567V73.19ZM244.99 70.34C244.99 71.96 244.99 73.85 244.48 76.43L245.71 76.565C246.22 73.85 246.22 72.005 246.22 70.34V69.005H236.785V70.01H244.99V70.34ZM241.465 78.215V73.4H240.235V78.215H235.51V79.22H247.675V78.215H241.465ZM28.595 98.165C26.615 97.505 25.34 95.93 25.34 94.175V93.65H28.31V92.66H21.095V93.65H24.11V94.175C24.11 96.11 22.76 97.85 20.735 98.555L21.365 99.53C22.97 98.96 24.185 97.76 24.755 96.23C25.325 97.565 26.48 98.63 28.01 99.125L28.595 98.165ZM26.96 104.12C24.95 104.12 23.75 103.565 23.75 102.605C23.75 101.66 24.95 101.105 26.96 101.105C28.94 101.105 30.155 101.66 30.155 102.605C30.155 103.565 28.94 104.12 26.96 104.12ZM26.96 100.13C24.2 100.13 22.52 101.045 22.52 102.605C22.52 104.18 24.2 105.095 26.96 105.095C29.69 105.095 31.385 104.18 31.385 102.605C31.385 101.045 29.69 100.13 26.96 100.13ZM31.235 95.06V91.67H30.005V99.785H31.235V96.095H33.23V95.06H31.235ZM45.9038 98.225C43.5488 97.805 40.9838 95.825 40.9838 93.59V92.555H39.6938V93.59C39.6938 95.825 37.1438 97.805 34.7888 98.225L35.2988 99.245C37.3688 98.81 39.4688 97.415 40.3388 95.495C41.2088 97.415 43.3238 98.81 45.3788 99.245L45.9038 98.225ZM40.9538 102.35V99.08H39.7238V102.35H34.2938V103.355H46.5038V102.35H40.9538ZM57.2127 94.01H49.3527V96.89H58.6677V96.005H50.5677V94.85H58.4277V92.045H49.3227V92.915H57.2127V94.01ZM50.4927 102.8H58.4727V99.935H49.2477V100.82H57.2577V101.945H49.2777V104.93H58.8927V104.045H50.4927V102.8ZM47.7927 97.91V98.84H59.9877V97.91H47.7927ZM65.561 98.765C67.646 98.45 69.581 97.415 70.436 95.96C71.291 97.415 73.211 98.45 75.296 98.765L75.731 97.775C73.331 97.445 71.051 95.96 71.051 94.31H75.341V93.32H71.051V91.67H69.821V93.32H65.531V94.31H69.806C69.806 95.975 67.541 97.445 65.111 97.775L65.561 98.765ZM76.526 99.785H64.361V100.79H69.821V105.125H71.051V100.79H76.526V99.785ZM78.5648 93.095V94.115H83.4998C83.2148 97.295 81.3698 99.875 77.9348 101.6L78.6098 102.56C82.9598 100.385 84.7148 96.92 84.7148 93.095H78.5648ZM90.3548 97.115H88.1948V91.655H86.9648V105.11H88.1948V98.135H90.3548V97.115ZM94.6736 100.97C93.6236 100.97 92.8886 100.115 92.8886 98.915C92.8886 97.745 93.6236 96.89 94.6736 96.89C95.7086 96.89 96.4586 97.745 96.4586 98.915C96.4586 100.115 95.7086 100.97 94.6736 100.97ZM94.6736 95.855C93.0086 95.855 91.7936 97.115 91.7936 98.915C91.7936 100.745 93.0086 101.99 94.6736 101.99C96.3386 101.99 97.5536 100.745 97.5536 98.915C97.5536 97.115 96.3386 95.855 94.6736 95.855ZM95.2736 92.045H94.0586V93.95H91.3286V94.955H98.0036V93.95H95.2736V92.045ZM101.559 91.64V97.325H99.8336V91.955H98.6786V104.45H99.8336V98.33H101.559V105.095H102.744V91.64H101.559ZM109.097 98.195C111.182 97.835 113.162 96.71 113.987 95.12C114.797 96.71 116.792 97.835 118.877 98.195L119.357 97.22C116.987 96.875 114.662 95.33 114.662 93.56V93.485H118.877V92.495H109.052V93.485H113.297V93.56C113.297 95.33 110.972 96.875 108.632 97.22L109.097 98.195ZM120.062 99.32H107.912V100.325H113.342V105.11H114.572V100.325H120.077L120.062 99.32ZM125.386 92.93H124.201V95.495C124.201 97.805 123.091 100.22 121.246 101.3L122.011 102.23C123.346 101.405 124.321 99.875 124.801 98.09C125.281 99.725 126.181 101.15 127.456 101.93L128.161 100.97C126.391 99.89 125.386 97.61 125.386 95.45V92.93ZM128.926 96.485H126.706V97.505H128.926V104.45H130.081V91.955H128.926V96.485ZM131.656 91.655V105.11H132.826V91.655H131.656ZM139.11 99.2C139.665 99.335 140.31 99.41 140.97 99.41C141.645 99.41 142.29 99.335 142.86 99.2V102.365H139.11V99.2ZM140.97 93.47C143.13 93.47 144.69 94.46 144.69 95.96C144.69 97.46 143.13 98.45 140.97 98.45C138.81 98.45 137.265 97.46 137.265 95.96C137.265 94.46 138.81 93.47 140.97 93.47ZM144.09 102.365V98.72C145.2 98.135 145.86 97.175 145.86 95.96C145.86 93.86 143.835 92.51 140.97 92.51C138.12 92.51 136.08 93.86 136.08 95.96C136.08 97.175 136.755 98.15 137.88 98.735V102.365H134.88V103.385H147.105V102.365H144.09ZM149.683 104.195C150.223 104.195 150.673 103.775 150.673 103.16C150.673 102.545 150.223 102.095 149.683 102.095C149.143 102.095 148.693 102.545 148.693 103.16C148.693 103.775 149.143 104.195 149.683 104.195Z" fill="#767676"/>
</svg>
