<svg width="360" height="120" viewBox="0 0 360 120" fill="none" xmlns="http://www.w3.org/2000/svg">
<path d="M32.201 36.579C29.303 35.655 27.728 33.45 27.728 31.098V30.741H31.697V28.998H21.512V30.741H25.544V31.119C25.544 33.702 23.885 36.138 20.903 37.167L21.995 38.868C24.263 38.091 25.859 36.474 26.699 34.458C27.518 36.222 29.03 37.587 31.151 38.259L32.201 36.579ZM29.765 44.916C27.119 44.916 25.586 44.244 25.586 43.026C25.586 41.787 27.119 41.136 29.765 41.136C32.411 41.136 33.944 41.787 33.944 43.026C33.944 44.244 32.411 44.916 29.765 44.916ZM29.765 39.435C25.859 39.435 23.444 40.758 23.444 43.026C23.444 45.273 25.859 46.617 29.765 46.617C33.671 46.617 36.086 45.273 36.086 43.026C36.086 40.758 33.671 39.435 29.765 39.435ZM35.876 32.274V27.654H33.713V38.994H35.876V34.059H38.564V32.274H35.876ZM56.4124 36.621C52.6744 35.991 49.6294 33.177 49.6294 30.237V28.809H47.3404V30.237C47.3404 33.156 44.2954 35.991 40.5364 36.621L41.4604 38.427C44.5474 37.818 47.2354 35.928 48.4954 33.408C49.7134 35.928 52.4014 37.818 55.5094 38.427L56.4124 36.621ZM49.5454 42.48V38.049H47.3824V42.48H39.9694V44.265H57.1474V42.48H49.5454ZM71.7407 30.888H61.0517V35.151H74.2187V33.639H63.1727V32.295H73.8827V28.116H61.0097V29.607H71.7407V30.888ZM63.0257 43.467H73.9457V39.225H60.8417V40.716H71.8037V42.06H60.8837V46.407H74.5127V44.916H63.0257V43.467ZM58.8467 36.348V37.944H76.0457V36.348H58.8467ZM86.0949 30.888H95.1249V36.516H86.0949V30.888ZM91.7019 42.522V38.238H97.2459V29.166H83.9739V38.238H89.5389V42.522H82.0629V44.286H99.2409V42.522H91.7019ZM106.001 40.485C104.342 40.485 103.208 38.7 103.208 35.739C103.208 32.778 104.342 30.993 106.001 30.993C107.639 30.993 108.794 32.778 108.794 35.739C108.794 38.7 107.639 40.485 106.001 40.485ZM106.001 29.04C103.166 29.04 101.129 31.644 101.129 35.739C101.129 39.834 103.166 42.417 106.001 42.417C108.836 42.417 110.873 39.834 110.873 35.739C110.873 31.644 108.836 29.04 106.001 29.04ZM118.601 35.067H115.64V27.654H113.477V46.638H115.64V36.852H118.601V35.067ZM131.569 36.495H126.949V31.014H131.569V36.495ZM133.69 29.271H124.807V38.238H133.69V29.271ZM129.133 40.191H126.949V46.26H139.717V44.496H129.133V40.191ZM138.961 33.282V27.633H136.798V41.535H138.961V35.067H141.649V33.282H138.961ZM158.28 33.534H147.339V30.153H158.133V28.41H145.197V35.298H158.28V33.534ZM147.339 40.653H145.176V46.239H158.427V44.496H147.339V40.653ZM143.076 37.125V38.889H160.233V37.125H143.076ZM168.959 36.663H173.117V34.962H168.959V31.581H173.915V29.838H166.88V42.228H168.14C171.017 42.228 172.802 42.165 174.944 41.787L174.755 40.023C172.886 40.359 171.29 40.443 168.959 40.464V36.663ZM176.498 34.71H174.062V36.495H176.498V45.714H178.535V28.053H176.498V34.71ZM180.362 27.633V46.596H182.441V27.633H180.362ZM187.941 31.224H192.54V40.17H187.941V31.224ZM185.799 41.892H194.682V29.502H185.799V41.892ZM202.788 35.067H199.827V27.654H197.664V46.638H199.827V36.852H202.788V35.067ZM219.272 33.093H208.415V28.326H206.252V34.857H219.272V33.093ZM208.289 40.611H206.126V46.197H219.377V44.454H208.289V40.611ZM204.026 37.125V38.868H221.246V37.125H204.026ZM34.49 59.633V78.659H36.674V59.633H34.49ZM26.573 61.04C23.759 61.04 21.701 63.644 21.701 67.718C21.701 71.834 23.759 74.417 26.573 74.417C29.408 74.417 31.466 71.834 31.466 67.718C31.466 63.644 29.408 61.04 26.573 61.04ZM26.573 62.993C28.232 62.993 29.387 64.778 29.387 67.718C29.387 70.7 28.232 72.485 26.573 72.485C24.935 72.485 23.78 70.7 23.78 67.718C23.78 64.778 24.935 62.993 26.573 62.993ZM48.5374 61.544C51.3724 61.544 53.0524 62.216 53.0524 63.413C53.0524 64.631 51.3724 65.303 48.5374 65.303C45.7024 65.303 44.0014 64.631 44.0014 63.413C44.0014 62.216 45.7024 61.544 48.5374 61.544ZM48.5374 66.962C52.6954 66.962 55.2994 65.639 55.2994 63.413C55.2994 61.208 52.6954 59.885 48.5374 59.885C44.3794 59.885 41.7754 61.208 41.7754 63.413C41.7754 65.639 44.3794 66.962 48.5374 66.962ZM49.6084 72.716H47.3614V73.199C47.3614 74.963 44.8624 76.559 41.1244 76.916L41.8384 78.554C44.9044 78.239 47.3194 77.105 48.4744 75.467C49.6294 77.147 52.0654 78.239 55.1524 78.554L55.8454 76.916C52.0654 76.58 49.6084 75.026 49.6084 73.199V72.716ZM39.9484 68.18V69.923H47.4244V71.876H49.5874V69.923H57.1474V68.18H39.9484ZM68.8007 70.322C69.3257 66.962 69.3257 64.568 69.3257 62.909V61.649H59.6867V63.392H67.2047C67.2047 64.988 67.1627 67.193 66.6797 70.133L68.8007 70.322ZM64.5587 67.088H62.4377V72.8C61.1147 72.821 59.8337 72.842 58.6787 72.842L58.9097 74.627C62.2277 74.627 66.5747 74.543 70.4807 73.892L70.3757 72.296C68.5277 72.548 66.5327 72.653 64.5587 72.737V67.088ZM76.3607 67.445H73.5677V59.654H71.3837V78.617H73.5677V69.272H76.3607V67.445ZM96.5529 67.193C97.0779 65.24 97.0779 63.665 97.0779 62.153V60.557H84.0579V62.3H94.9359C94.9359 63.728 94.9149 65.093 94.4319 66.962L96.5529 67.193ZM90.5679 76.958C87.7539 76.958 86.0319 76.265 86.0319 75.068C86.0319 73.892 87.7539 73.199 90.5679 73.199C93.3609 73.199 95.0409 73.892 95.0409 75.068C95.0409 76.265 93.3609 76.958 90.5679 76.958ZM90.5679 71.54C86.4729 71.54 83.8899 72.884 83.8899 75.068C83.8899 77.273 86.4729 78.617 90.5679 78.617C94.5999 78.617 97.2039 77.273 97.2039 75.068C97.2039 72.884 94.5999 71.54 90.5679 71.54ZM90.9879 68.327V64.841H88.8039V68.327H82.0839V70.07H99.1779V68.327H90.9879ZM109.508 62.09C112.217 62.09 114.002 63.014 114.002 64.526C114.002 66.059 112.217 66.983 109.508 66.983C106.778 66.983 104.993 66.059 104.993 64.526C104.993 63.014 106.778 62.09 109.508 62.09ZM109.508 68.726C113.498 68.726 116.228 67.088 116.228 64.526C116.228 61.985 113.498 60.347 109.508 60.347C105.497 60.347 102.767 61.985 102.767 64.526C102.767 67.088 105.497 68.726 109.508 68.726ZM118.139 70.343H100.94V72.128H105.14V78.617H107.345V72.128H111.671V78.617H113.876V72.128H118.16L118.139 70.343ZM131.074 61.25H126.559V59.465H124.396V61.25H119.881V62.888H131.074V61.25ZM122.947 66.668C122.947 65.681 123.934 65.114 125.467 65.114C127.021 65.114 128.008 65.681 128.008 66.668C128.008 67.634 127.021 68.201 125.467 68.201C123.934 68.201 122.947 67.634 122.947 66.668ZM130.066 66.668C130.066 64.736 128.26 63.539 125.467 63.539C122.695 63.539 120.868 64.736 120.868 66.668C120.868 68.579 122.695 69.755 125.467 69.755C128.26 69.755 130.066 68.579 130.066 66.668ZM124.585 75.341H134.665V70.868H122.422V72.464H132.523V73.829H122.464V78.449H135.295V76.832H124.585V75.341ZM134.665 63.938V59.612H132.502V70.007H134.665V65.723H137.353V63.938H134.665ZM159.456 66.647C155.634 66.101 152.778 63.728 152.778 61.271V60.263H150.489V61.271C150.489 63.77 147.675 66.101 143.811 66.647L144.651 68.39C147.801 67.886 150.426 66.311 151.644 64.106C152.883 66.29 155.466 67.886 158.616 68.39L159.456 66.647ZM160.191 70.175H143.055V71.939H150.489V78.638H152.652V71.939H160.191V70.175ZM181.874 59.675H179.711V70.448H181.874V59.675ZM171.647 62.489C173.327 62.489 174.566 63.56 174.566 65.177C174.566 66.815 173.327 67.865 171.647 67.865C169.967 67.865 168.728 66.815 168.728 65.177C168.728 63.56 169.967 62.489 171.647 62.489ZM171.647 69.65C174.545 69.65 176.666 67.823 176.666 65.177C176.666 62.531 174.545 60.704 171.647 60.704C168.749 60.704 166.607 62.531 166.607 65.177C166.607 67.823 168.749 69.65 171.647 69.65ZM179.858 71.267H177.737V72.107C177.737 73.535 176.939 75.32 175.259 76.454C173.6 75.404 172.865 73.703 172.865 72.107V71.267H170.765V72.107C170.765 73.955 169.505 75.908 167.09 76.769L168.14 78.365C169.904 77.714 171.122 76.496 171.815 75.005C172.403 76.538 173.516 77.84 175.301 78.533C177.023 77.819 178.157 76.454 178.766 74.963C179.417 76.496 180.656 77.714 182.483 78.365L183.554 76.769C181.076 75.971 179.858 74.06 179.858 72.107V71.267ZM190.251 72.485C188.634 72.485 187.521 70.721 187.521 67.718C187.521 64.778 188.634 62.993 190.251 62.993C191.889 62.993 193.002 64.778 193.002 67.718C193.002 70.721 191.889 72.485 190.251 72.485ZM198.714 59.633V66.71H195.018C194.724 63.224 192.792 61.04 190.251 61.04C187.458 61.04 185.463 63.644 185.463 67.718C185.463 71.834 187.458 74.417 190.251 74.417C192.855 74.417 194.787 72.149 195.039 68.474H198.714V78.659H200.898V59.633H198.714ZM210.221 70.406C210.956 70.574 211.775 70.658 212.615 70.658C213.455 70.658 214.274 70.574 215.009 70.385V74.522H210.221V70.406ZM212.615 62.447C215.471 62.447 217.466 63.707 217.466 65.702C217.466 67.718 215.471 68.978 212.615 68.978C209.738 68.978 207.743 67.718 207.743 65.702C207.743 63.707 209.738 62.447 212.615 62.447ZM217.172 74.522V69.587C218.684 68.726 219.587 67.382 219.587 65.702C219.587 62.678 216.647 60.746 212.615 60.746C208.562 60.746 205.643 62.678 205.643 65.702C205.643 67.382 206.546 68.747 208.058 69.587V74.522H204.047V76.286H221.225V74.522H217.172Z" fill="#333333"/>
<path d="M31.835 97.67H30.605V107.51H31.835V97.67ZM29.015 104.615C27.035 103.955 25.64 102.32 25.64 100.505V99.77H28.685V98.78H21.305V99.77H24.38V100.505C24.38 102.425 23.015 104.18 20.975 104.885L21.62 105.845C23.21 105.275 24.455 104.06 25.025 102.53C25.64 103.94 26.87 105.05 28.415 105.59L29.015 104.615ZM24.41 109.805V106.58H23.18V110.81H32.24V109.805H24.41ZM41.1038 100.025H42.6488V99.02H38.9288V100.025H39.9338V101.66C39.9338 103.205 39.7238 105.335 38.6438 106.76C37.5488 105.305 37.3538 103.145 37.3538 101.66V100.025H38.3438V99.02H34.5338V100.025H36.1838V101.66C36.1838 103.565 35.7338 106.145 34.1138 107.405L34.8938 108.29C35.8538 107.51 36.4238 106.25 36.7688 104.885C37.0688 106.28 37.6238 107.6 38.6438 108.41C39.6638 107.615 40.2188 106.295 40.5188 104.9C40.8488 106.28 41.4188 107.525 42.4088 108.29L43.1888 107.405C41.5538 106.175 41.1038 103.655 41.1038 101.66V100.025ZM46.8338 102.995H44.9588V97.67H43.7288V111.11H44.9588V104.03H46.8338V102.995ZM56.9371 110.15C54.8071 110.15 53.5621 109.625 53.5621 108.68C53.5621 107.735 54.8071 107.21 56.9371 107.21C59.0371 107.21 60.2821 107.735 60.2821 108.68C60.2821 109.625 59.0371 110.15 56.9371 110.15ZM56.9371 106.25C54.0571 106.25 52.3171 107.12 52.3171 108.68C52.3171 110.24 54.0571 111.11 56.9371 111.11C59.7871 111.11 61.5271 110.24 61.5271 108.68C61.5271 107.12 59.7871 106.25 56.9371 106.25ZM57.5521 104.3V102.74H61.6021V101.75H53.6071V99.26H61.5121V98.27H52.3771V102.74H56.3221V104.3H50.8471V105.29H63.0271V104.3H57.5521ZM66.221 99.095H65.006V107.705H65.861C67.481 107.705 68.981 107.615 70.736 107.255L70.571 106.22C69.011 106.535 67.661 106.625 66.221 106.64V99.095ZM71.741 102.17H68.741V103.19H71.741V110.435H72.911V97.985H71.741V102.17ZM74.606 97.64V111.11H75.776V97.64H74.606ZM90.6793 97.655V111.14H91.9093V97.655H90.6793ZM84.8143 98.69C82.8193 98.69 81.3943 100.52 81.3943 103.385C81.3943 106.25 82.8193 108.08 84.8143 108.08C86.8093 108.08 88.2343 106.25 88.2343 103.385C88.2343 100.52 86.8093 98.69 84.8143 98.69ZM84.8143 99.8C86.1193 99.8 87.0493 101.21 87.0493 103.385C87.0493 105.575 86.1193 106.985 84.8143 106.985C83.4943 106.985 82.5643 105.575 82.5643 103.385C82.5643 101.21 83.4943 99.8 84.8143 99.8ZM100.473 98.795C102.618 98.795 103.938 99.365 103.938 100.31C103.938 101.27 102.618 101.825 100.473 101.825C98.3281 101.825 97.0081 101.27 97.0081 100.31C97.0081 99.365 98.3281 98.795 100.473 98.795ZM100.473 102.785C103.398 102.785 105.198 101.885 105.198 100.31C105.198 98.75 103.398 97.85 100.473 97.85C97.5481 97.85 95.7481 98.75 95.7481 100.31C95.7481 101.885 97.5481 102.785 100.473 102.785ZM101.103 106.91H99.8281V107.33C99.8281 108.77 97.7131 109.865 95.2831 110.12L95.6881 111.065C97.7881 110.825 99.6631 110 100.473 108.74C101.253 110.015 103.128 110.81 105.228 111.065L105.633 110.12C103.173 109.88 101.103 108.8 101.103 107.33V106.91ZM94.3981 103.805V104.81H99.8581V106.295H101.073V104.81H106.593V103.805H94.3981ZM117.677 97.655V111.14H118.907V97.655H117.677ZM111.812 98.69C109.817 98.69 108.392 100.52 108.392 103.385C108.392 106.25 109.817 108.08 111.812 108.08C113.807 108.08 115.232 106.25 115.232 103.385C115.232 100.52 113.807 98.69 111.812 98.69ZM111.812 99.8C113.117 99.8 114.047 101.21 114.047 103.385C114.047 105.575 113.117 106.985 111.812 106.985C110.492 106.985 109.562 105.575 109.562 103.385C109.562 101.21 110.492 99.8 111.812 99.8ZM129.985 104.105H126.205V99.845H129.985V104.105ZM131.185 98.855H125.005V105.08H131.185V98.855ZM127.75 106.58H126.52V110.81H135.49V109.805H127.75V106.58ZM134.89 101.75V97.64H133.66V107.495H134.89V102.785H136.885V101.75H134.89ZM148.719 101.975H140.709V99.23H148.599V98.225H139.479V102.965H148.719V101.975ZM140.739 106.865H139.509V110.795H148.839V109.79H140.739V106.865ZM137.949 104.45V105.44H150.114V104.45H137.949ZM164.282 97.655V111.14H165.512V97.655H164.282ZM158.417 98.69C156.422 98.69 154.997 100.52 154.997 103.385C154.997 106.25 156.422 108.08 158.417 108.08C160.412 108.08 161.837 106.25 161.837 103.385C161.837 100.52 160.412 98.69 158.417 98.69ZM158.417 99.8C159.722 99.8 160.652 101.21 160.652 103.385C160.652 105.575 159.722 106.985 158.417 106.985C157.097 106.985 156.167 105.575 156.167 103.385C156.167 101.21 157.097 99.8 158.417 99.8ZM174.076 98.795C176.221 98.795 177.541 99.365 177.541 100.31C177.541 101.27 176.221 101.825 174.076 101.825C171.931 101.825 170.611 101.27 170.611 100.31C170.611 99.365 171.931 98.795 174.076 98.795ZM174.076 102.785C177.001 102.785 178.801 101.885 178.801 100.31C178.801 98.75 177.001 97.85 174.076 97.85C171.151 97.85 169.351 98.75 169.351 100.31C169.351 101.885 171.151 102.785 174.076 102.785ZM174.706 106.91H173.431V107.33C173.431 108.77 171.316 109.865 168.886 110.12L169.291 111.065C171.391 110.825 173.266 110 174.076 108.74C174.856 110.015 176.731 110.81 178.831 111.065L179.236 110.12C176.776 109.88 174.706 108.8 174.706 107.33V106.91ZM168.001 103.805V104.81H173.461V106.295H174.676V104.81H180.196V103.805H168.001ZM185.865 98.645C183.78 98.645 182.265 99.92 182.265 101.81C182.265 103.685 183.78 104.975 185.865 104.975C187.965 104.975 189.465 103.685 189.465 101.81C189.465 99.92 187.965 98.645 185.865 98.645ZM185.865 99.695C187.26 99.695 188.265 100.55 188.265 101.81C188.265 103.055 187.26 103.925 185.865 103.925C184.47 103.925 183.465 103.055 183.465 101.81C183.465 100.55 184.47 99.695 185.865 99.695ZM191.235 97.655V111.14H192.465V97.655H191.235ZM181.74 108.185C184.17 108.185 187.425 108.17 190.455 107.6L190.35 106.685C187.41 107.135 184.035 107.15 181.59 107.15L181.74 108.185ZM199.733 103.88H202.928V102.905H199.733V100.265H203.558V99.26H198.548V107.87H199.418C201.533 107.87 202.793 107.825 204.323 107.525L204.218 106.52C202.808 106.805 201.623 106.865 199.733 106.865V103.88ZM205.598 102.755H203.648V103.76H205.598V110.42H206.753V97.985H205.598V102.755ZM208.298 97.64V111.095H209.468V97.64H208.298ZM213.292 99.995H217.057V106.7H213.292V99.995ZM212.092 107.69H218.257V99.005H212.092V107.69ZM224.122 103.025H221.902V97.67H220.672V111.11H221.902V104.06H224.122V103.025ZM231.756 108.395V104.945H235.851V103.955H227.826V99.74H235.716V98.735H226.596V104.945H230.511V108.395H225.036V109.415H237.261V108.395H231.756ZM244.304 108.71H252.209V105.71H243.059V106.64H250.994V107.81H243.104V110.96H252.614V110.015H244.304V108.71ZM244.424 100.07H250.964V101.36H244.424V100.07ZM248.294 103.595V102.305H252.179V97.865H250.964V99.14H244.424V97.865H243.209V102.305H247.064V103.595H241.589V104.585H253.769V103.595H248.294ZM269.738 102.785C267.293 102.425 264.893 100.76 264.893 98.885V98.135H263.603V98.885C263.603 100.805 261.233 102.425 258.788 102.785L259.283 103.775C261.383 103.415 263.408 102.26 264.248 100.625C265.118 102.245 267.143 103.415 269.228 103.775L269.738 102.785ZM270.323 105.23H258.173V106.25H263.603V111.125H264.833V106.25H270.338L270.323 105.23ZM285.751 97.67H284.521V105.35H285.751V97.67ZM278.521 99.47C279.856 99.47 280.846 100.355 280.846 101.585C280.846 102.83 279.856 103.7 278.521 103.7C277.186 103.7 276.226 102.83 276.226 101.585C276.226 100.355 277.186 99.47 278.521 99.47ZM278.521 104.72C280.561 104.72 282.046 103.445 282.046 101.585C282.046 99.725 280.561 98.45 278.521 98.45C276.496 98.45 275.026 99.725 275.026 101.585C275.026 103.445 276.496 104.72 278.521 104.72ZM284.251 105.935H283.051V106.655C283.051 107.705 282.406 109.055 281.116 109.85C279.871 109.115 279.256 107.84 279.256 106.655V105.935H278.071V106.655C278.071 107.945 277.066 109.4 275.371 110L275.986 110.93C277.246 110.45 278.161 109.52 278.641 108.44C279.046 109.565 279.856 110.54 281.146 111.05C282.391 110.51 283.216 109.49 283.636 108.395C284.086 109.52 285.016 110.45 286.336 110.93L286.951 110C285.241 109.43 284.251 108.05 284.251 106.655V105.935ZM291.81 106.985C290.52 106.985 289.62 105.575 289.62 103.385C289.62 101.21 290.52 99.8 291.81 99.8C293.085 99.8 293.985 101.21 293.985 103.385C293.985 105.575 293.085 106.985 291.81 106.985ZM298.065 97.655V102.785H295.14C294.945 100.265 293.625 98.69 291.81 98.69C289.845 98.69 288.45 100.52 288.45 103.385C288.45 106.25 289.845 108.08 291.81 108.08C293.685 108.08 295.02 106.43 295.14 103.79H298.065V111.14H299.295V97.655H298.065ZM305.924 105.2C306.479 105.335 307.124 105.41 307.784 105.41C308.459 105.41 309.104 105.335 309.674 105.2V108.365H305.924V105.2ZM307.784 99.47C309.944 99.47 311.504 100.46 311.504 101.96C311.504 103.46 309.944 104.45 307.784 104.45C305.624 104.45 304.079 103.46 304.079 101.96C304.079 100.46 305.624 99.47 307.784 99.47ZM310.904 108.365V104.72C312.014 104.135 312.674 103.175 312.674 101.96C312.674 99.86 310.649 98.51 307.784 98.51C304.934 98.51 302.894 99.86 302.894 101.96C302.894 103.175 303.569 104.15 304.694 104.735V108.365H301.694V109.385H313.919V108.365H310.904ZM316.363 106.685H317.308L317.488 100.325L317.533 98.765H316.138L316.183 100.325L316.363 106.685ZM316.828 110.195C317.383 110.195 317.818 109.775 317.818 109.16C317.818 108.545 317.383 108.095 316.828 108.095C316.288 108.095 315.838 108.545 315.838 109.16C315.838 109.775 316.288 110.195 316.828 110.195Z" fill="#767676"/>
</svg>
