<svg width="360" height="120" viewBox="0 0 360 120" fill="none" xmlns="http://www.w3.org/2000/svg">
<path d="M32.201 36.579C29.303 35.655 27.728 33.45 27.728 31.098V30.741H31.697V28.998H21.512V30.741H25.544V31.119C25.544 33.702 23.885 36.138 20.903 37.167L21.995 38.868C24.263 38.091 25.859 36.474 26.699 34.458C27.518 36.222 29.03 37.587 31.151 38.259L32.201 36.579ZM29.765 44.916C27.119 44.916 25.586 44.244 25.586 43.026C25.586 41.787 27.119 41.136 29.765 41.136C32.411 41.136 33.944 41.787 33.944 43.026C33.944 44.244 32.411 44.916 29.765 44.916ZM29.765 39.435C25.859 39.435 23.444 40.758 23.444 43.026C23.444 45.273 25.859 46.617 29.765 46.617C33.671 46.617 36.086 45.273 36.086 43.026C36.086 40.758 33.671 39.435 29.765 39.435ZM35.876 32.274V27.654H33.713V38.994H35.876V34.059H38.564V32.274H35.876ZM56.4124 36.621C52.6744 35.991 49.6294 33.177 49.6294 30.237V28.809H47.3404V30.237C47.3404 33.156 44.2954 35.991 40.5364 36.621L41.4604 38.427C44.5474 37.818 47.2354 35.928 48.4954 33.408C49.7134 35.928 52.4014 37.818 55.5094 38.427L56.4124 36.621ZM49.5454 42.48V38.049H47.3824V42.48H39.9694V44.265H57.1474V42.48H49.5454ZM71.7407 30.888H61.0517V35.151H74.2187V33.639H63.1727V32.295H73.8827V28.116H61.0097V29.607H71.7407V30.888ZM63.0257 43.467H73.9457V39.225H60.8417V40.716H71.8037V42.06H60.8837V46.407H74.5127V44.916H63.0257V43.467ZM58.8467 36.348V37.944H76.0457V36.348H58.8467ZM86.0949 30.888H95.1249V36.516H86.0949V30.888ZM91.7019 42.522V38.238H97.2459V29.166H83.9739V38.238H89.5389V42.522H82.0629V44.286H99.2409V42.522H91.7019ZM106.001 40.485C104.342 40.485 103.208 38.7 103.208 35.739C103.208 32.778 104.342 30.993 106.001 30.993C107.639 30.993 108.794 32.778 108.794 35.739C108.794 38.7 107.639 40.485 106.001 40.485ZM106.001 29.04C103.166 29.04 101.129 31.644 101.129 35.739C101.129 39.834 103.166 42.417 106.001 42.417C108.836 42.417 110.873 39.834 110.873 35.739C110.873 31.644 108.836 29.04 106.001 29.04ZM118.601 35.067H115.64V27.654H113.477V46.638H115.64V36.852H118.601V35.067ZM131.569 36.495H126.949V31.014H131.569V36.495ZM133.69 29.271H124.807V38.238H133.69V29.271ZM129.133 40.191H126.949V46.26H139.717V44.496H129.133V40.191ZM138.961 33.282V27.633H136.798V41.535H138.961V35.067H141.649V33.282H138.961ZM158.28 33.534H147.339V30.153H158.133V28.41H145.197V35.298H158.28V33.534ZM147.339 40.653H145.176V46.239H158.427V44.496H147.339V40.653ZM143.076 37.125V38.889H160.233V37.125H143.076ZM168.959 36.663H173.117V34.962H168.959V31.581H173.915V29.838H166.88V42.228H168.14C171.017 42.228 172.802 42.165 174.944 41.787L174.755 40.023C172.886 40.359 171.29 40.443 168.959 40.464V36.663ZM176.498 34.71H174.062V36.495H176.498V45.714H178.535V28.053H176.498V34.71ZM180.362 27.633V46.596H182.441V27.633H180.362ZM187.941 31.224H192.54V40.17H187.941V31.224ZM185.799 41.892H194.682V29.502H185.799V41.892ZM202.788 35.067H199.827V27.654H197.664V46.638H199.827V36.852H202.788V35.067ZM211.04 31.329H215.261V29.544H204.635V31.329H208.856V33.135C208.856 36.39 206.903 39.918 203.963 41.283L205.202 43.005C207.428 41.934 209.129 39.687 209.969 37.041C210.851 39.498 212.552 41.556 214.757 42.522L215.954 40.821C212.993 39.561 211.04 36.285 211.04 33.135V31.329ZM217.466 27.654V46.617H219.65V27.654H217.466ZM232.584 42.564V38.091H238.191V36.348H227.208V30.825H238.023V29.082H225.045V38.091H230.421V42.564H222.945V44.349H240.123V42.564H232.584ZM257.068 33.093H246.211V28.326H244.048V34.857H257.068V33.093ZM246.085 40.611H243.922V46.197H257.173V44.454H246.085V40.611ZM241.822 37.125V38.868H259.042V37.125H241.822ZM34.49 59.633V78.659H36.674V59.633H34.49ZM26.573 61.04C23.759 61.04 21.701 63.644 21.701 67.718C21.701 71.834 23.759 74.417 26.573 74.417C29.408 74.417 31.466 71.834 31.466 67.718C31.466 63.644 29.408 61.04 26.573 61.04ZM26.573 62.993C28.232 62.993 29.387 64.778 29.387 67.718C29.387 70.7 28.232 72.485 26.573 72.485C24.935 72.485 23.78 70.7 23.78 67.718C23.78 64.778 24.935 62.993 26.573 62.993ZM48.5374 61.544C51.3724 61.544 53.0524 62.216 53.0524 63.413C53.0524 64.631 51.3724 65.303 48.5374 65.303C45.7024 65.303 44.0014 64.631 44.0014 63.413C44.0014 62.216 45.7024 61.544 48.5374 61.544ZM48.5374 66.962C52.6954 66.962 55.2994 65.639 55.2994 63.413C55.2994 61.208 52.6954 59.885 48.5374 59.885C44.3794 59.885 41.7754 61.208 41.7754 63.413C41.7754 65.639 44.3794 66.962 48.5374 66.962ZM49.6084 72.716H47.3614V73.199C47.3614 74.963 44.8624 76.559 41.1244 76.916L41.8384 78.554C44.9044 78.239 47.3194 77.105 48.4744 75.467C49.6294 77.147 52.0654 78.239 55.1524 78.554L55.8454 76.916C52.0654 76.58 49.6084 75.026 49.6084 73.199V72.716ZM39.9484 68.18V69.923H47.4244V71.876H49.5874V69.923H57.1474V68.18H39.9484ZM68.8007 70.322C69.3257 66.962 69.3257 64.568 69.3257 62.909V61.649H59.6867V63.392H67.2047C67.2047 64.988 67.1627 67.193 66.6797 70.133L68.8007 70.322ZM64.5587 67.088H62.4377V72.8C61.1147 72.821 59.8337 72.842 58.6787 72.842L58.9097 74.627C62.2277 74.627 66.5747 74.543 70.4807 73.892L70.3757 72.296C68.5277 72.548 66.5327 72.653 64.5587 72.737V67.088ZM76.3607 67.445H73.5677V59.654H71.3837V78.617H73.5677V69.272H76.3607V67.445ZM96.5529 67.193C97.0779 65.24 97.0779 63.665 97.0779 62.153V60.557H84.0579V62.3H94.9359C94.9359 63.728 94.9149 65.093 94.4319 66.962L96.5529 67.193ZM90.5679 76.958C87.7539 76.958 86.0319 76.265 86.0319 75.068C86.0319 73.892 87.7539 73.199 90.5679 73.199C93.3609 73.199 95.0409 73.892 95.0409 75.068C95.0409 76.265 93.3609 76.958 90.5679 76.958ZM90.5679 71.54C86.4729 71.54 83.8899 72.884 83.8899 75.068C83.8899 77.273 86.4729 78.617 90.5679 78.617C94.5999 78.617 97.2039 77.273 97.2039 75.068C97.2039 72.884 94.5999 71.54 90.5679 71.54ZM90.9879 68.327V64.841H88.8039V68.327H82.0839V70.07H99.1779V68.327H90.9879ZM109.508 62.09C112.217 62.09 114.002 63.014 114.002 64.526C114.002 66.059 112.217 66.983 109.508 66.983C106.778 66.983 104.993 66.059 104.993 64.526C104.993 63.014 106.778 62.09 109.508 62.09ZM109.508 68.726C113.498 68.726 116.228 67.088 116.228 64.526C116.228 61.985 113.498 60.347 109.508 60.347C105.497 60.347 102.767 61.985 102.767 64.526C102.767 67.088 105.497 68.726 109.508 68.726ZM118.139 70.343H100.94V72.128H105.14V78.617H107.345V72.128H111.671V78.617H113.876V72.128H118.16L118.139 70.343ZM131.074 61.25H126.559V59.465H124.396V61.25H119.881V62.888H131.074V61.25ZM122.947 66.668C122.947 65.681 123.934 65.114 125.467 65.114C127.021 65.114 128.008 65.681 128.008 66.668C128.008 67.634 127.021 68.201 125.467 68.201C123.934 68.201 122.947 67.634 122.947 66.668ZM130.066 66.668C130.066 64.736 128.26 63.539 125.467 63.539C122.695 63.539 120.868 64.736 120.868 66.668C120.868 68.579 122.695 69.755 125.467 69.755C128.26 69.755 130.066 68.579 130.066 66.668ZM124.585 75.341H134.665V70.868H122.422V72.464H132.523V73.829H122.464V78.449H135.295V76.832H124.585V75.341ZM134.665 63.938V59.612H132.502V70.007H134.665V65.723H137.353V63.938H134.665ZM159.456 66.647C155.634 66.101 152.778 63.728 152.778 61.271V60.263H150.489V61.271C150.489 63.77 147.675 66.101 143.811 66.647L144.651 68.39C147.801 67.886 150.426 66.311 151.644 64.106C152.883 66.29 155.466 67.886 158.616 68.39L159.456 66.647ZM160.191 70.175H143.055V71.939H150.489V78.638H152.652V71.939H160.191V70.175ZM181.874 59.675H179.711V70.448H181.874V59.675ZM171.647 62.489C173.327 62.489 174.566 63.56 174.566 65.177C174.566 66.815 173.327 67.865 171.647 67.865C169.967 67.865 168.728 66.815 168.728 65.177C168.728 63.56 169.967 62.489 171.647 62.489ZM171.647 69.65C174.545 69.65 176.666 67.823 176.666 65.177C176.666 62.531 174.545 60.704 171.647 60.704C168.749 60.704 166.607 62.531 166.607 65.177C166.607 67.823 168.749 69.65 171.647 69.65ZM179.858 71.267H177.737V72.107C177.737 73.535 176.939 75.32 175.259 76.454C173.6 75.404 172.865 73.703 172.865 72.107V71.267H170.765V72.107C170.765 73.955 169.505 75.908 167.09 76.769L168.14 78.365C169.904 77.714 171.122 76.496 171.815 75.005C172.403 76.538 173.516 77.84 175.301 78.533C177.023 77.819 178.157 76.454 178.766 74.963C179.417 76.496 180.656 77.714 182.483 78.365L183.554 76.769C181.076 75.971 179.858 74.06 179.858 72.107V71.267ZM190.251 72.485C188.634 72.485 187.521 70.721 187.521 67.718C187.521 64.778 188.634 62.993 190.251 62.993C191.889 62.993 193.002 64.778 193.002 67.718C193.002 70.721 191.889 72.485 190.251 72.485ZM198.714 59.633V66.71H195.018C194.724 63.224 192.792 61.04 190.251 61.04C187.458 61.04 185.463 63.644 185.463 67.718C185.463 71.834 187.458 74.417 190.251 74.417C192.855 74.417 194.787 72.149 195.039 68.474H198.714V78.659H200.898V59.633H198.714ZM210.221 70.406C210.956 70.574 211.775 70.658 212.615 70.658C213.455 70.658 214.274 70.574 215.009 70.385V74.522H210.221V70.406ZM212.615 62.447C215.471 62.447 217.466 63.707 217.466 65.702C217.466 67.718 215.471 68.978 212.615 68.978C209.738 68.978 207.743 67.718 207.743 65.702C207.743 63.707 209.738 62.447 212.615 62.447ZM217.172 74.522V69.587C218.684 68.726 219.587 67.382 219.587 65.702C219.587 62.678 216.647 60.746 212.615 60.746C208.562 60.746 205.643 62.678 205.643 65.702C205.643 67.382 206.546 68.747 208.058 69.587V74.522H204.047V76.286H221.225V74.522H217.172Z" fill="#333333"/>
<path d="M31.835 97.67H30.605V107.51H31.835V97.67ZM29.015 104.615C27.035 103.955 25.64 102.32 25.64 100.505V99.77H28.685V98.78H21.305V99.77H24.38V100.505C24.38 102.425 23.015 104.18 20.975 104.885L21.62 105.845C23.21 105.275 24.455 104.06 25.025 102.53C25.64 103.94 26.87 105.05 28.415 105.59L29.015 104.615ZM24.41 109.805V106.58H23.18V110.81H32.24V109.805H24.41ZM41.1038 100.025H42.6488V99.02H38.9288V100.025H39.9338V101.66C39.9338 103.205 39.7238 105.335 38.6438 106.76C37.5488 105.305 37.3538 103.145 37.3538 101.66V100.025H38.3438V99.02H34.5338V100.025H36.1838V101.66C36.1838 103.565 35.7338 106.145 34.1138 107.405L34.8938 108.29C35.8538 107.51 36.4238 106.25 36.7688 104.885C37.0688 106.28 37.6238 107.6 38.6438 108.41C39.6638 107.615 40.2188 106.295 40.5188 104.9C40.8488 106.28 41.4188 107.525 42.4088 108.29L43.1888 107.405C41.5538 106.175 41.1038 103.655 41.1038 101.66V100.025ZM46.8338 102.995H44.9588V97.67H43.7288V111.11H44.9588V104.03H46.8338V102.995ZM56.9371 110.15C54.8071 110.15 53.5621 109.625 53.5621 108.68C53.5621 107.735 54.8071 107.21 56.9371 107.21C59.0371 107.21 60.2821 107.735 60.2821 108.68C60.2821 109.625 59.0371 110.15 56.9371 110.15ZM56.9371 106.25C54.0571 106.25 52.3171 107.12 52.3171 108.68C52.3171 110.24 54.0571 111.11 56.9371 111.11C59.7871 111.11 61.5271 110.24 61.5271 108.68C61.5271 107.12 59.7871 106.25 56.9371 106.25ZM57.5521 104.3V102.74H61.6021V101.75H53.6071V99.26H61.5121V98.27H52.3771V102.74H56.3221V104.3H50.8471V105.29H63.0271V104.3H57.5521ZM66.221 99.095H65.006V107.705H65.861C67.481 107.705 68.981 107.615 70.736 107.255L70.571 106.22C69.011 106.535 67.661 106.625 66.221 106.64V99.095ZM71.741 102.17H68.741V103.19H71.741V110.435H72.911V97.985H71.741V102.17ZM74.606 97.64V111.11H75.776V97.64H74.606ZM90.6793 97.655V111.14H91.9093V97.655H90.6793ZM84.8143 98.69C82.8193 98.69 81.3943 100.52 81.3943 103.385C81.3943 106.25 82.8193 108.08 84.8143 108.08C86.8093 108.08 88.2343 106.25 88.2343 103.385C88.2343 100.52 86.8093 98.69 84.8143 98.69ZM84.8143 99.8C86.1193 99.8 87.0493 101.21 87.0493 103.385C87.0493 105.575 86.1193 106.985 84.8143 106.985C83.4943 106.985 82.5643 105.575 82.5643 103.385C82.5643 101.21 83.4943 99.8 84.8143 99.8ZM100.473 98.795C102.618 98.795 103.938 99.365 103.938 100.31C103.938 101.27 102.618 101.825 100.473 101.825C98.3281 101.825 97.0081 101.27 97.0081 100.31C97.0081 99.365 98.3281 98.795 100.473 98.795ZM100.473 102.785C103.398 102.785 105.198 101.885 105.198 100.31C105.198 98.75 103.398 97.85 100.473 97.85C97.5481 97.85 95.7481 98.75 95.7481 100.31C95.7481 101.885 97.5481 102.785 100.473 102.785ZM101.103 106.91H99.8281V107.33C99.8281 108.77 97.7131 109.865 95.2831 110.12L95.6881 111.065C97.7881 110.825 99.6631 110 100.473 108.74C101.253 110.015 103.128 110.81 105.228 111.065L105.633 110.12C103.173 109.88 101.103 108.8 101.103 107.33V106.91ZM94.3981 103.805V104.81H99.8581V106.295H101.073V104.81H106.593V103.805H94.3981ZM117.677 97.655V111.14H118.907V97.655H117.677ZM111.812 98.69C109.817 98.69 108.392 100.52 108.392 103.385C108.392 106.25 109.817 108.08 111.812 108.08C113.807 108.08 115.232 106.25 115.232 103.385C115.232 100.52 113.807 98.69 111.812 98.69ZM111.812 99.8C113.117 99.8 114.047 101.21 114.047 103.385C114.047 105.575 113.117 106.985 111.812 106.985C110.492 106.985 109.562 105.575 109.562 103.385C109.562 101.21 110.492 99.8 111.812 99.8ZM129.985 104.105H126.205V99.845H129.985V104.105ZM131.185 98.855H125.005V105.08H131.185V98.855ZM127.75 106.58H126.52V110.81H135.49V109.805H127.75V106.58ZM134.89 101.75V97.64H133.66V107.495H134.89V102.785H136.885V101.75H134.89ZM148.719 101.975H140.709V99.23H148.599V98.225H139.479V102.965H148.719V101.975ZM140.739 106.865H139.509V110.795H148.839V109.79H140.739V106.865ZM137.949 104.45V105.44H150.114V104.45H137.949ZM156.182 103.88H159.377V102.905H156.182V100.265H160.007V99.26H154.997V107.87H155.867C157.982 107.87 159.242 107.825 160.772 107.525L160.667 106.52C159.257 106.805 158.072 106.865 156.182 106.865V103.88ZM162.047 102.755H160.097V103.76H162.047V110.42H163.202V97.985H162.047V102.755ZM164.747 97.64V111.095H165.917V97.64H164.747ZM169.741 99.995H173.506V106.7H169.741V99.995ZM168.541 107.69H174.706V99.005H168.541V107.69ZM180.571 103.025H178.351V97.67H177.121V111.11H178.351V104.06H180.571V103.025ZM186.3 100.055H189.465V99.035H181.95V100.055H185.07V101.765C185.07 104.09 183.435 106.625 181.5 107.54L182.22 108.53C183.75 107.75 185.07 106.055 185.685 104.09C186.33 105.935 187.65 107.48 189.21 108.2L189.9 107.21C187.92 106.37 186.3 104.045 186.3 101.765V100.055ZM191.28 97.67V111.11H192.51V97.67H191.28ZM201.704 108.395V104.945H205.799V103.955H197.774V99.74H205.664V98.735H196.544V104.945H200.459V108.395H194.984V109.415H207.209V108.395H201.704ZM215.203 108.395V104.945H219.298V103.955H211.273V99.74H219.163V98.735H210.043V104.945H213.958V108.395H208.483V109.415H220.708V108.395H215.203ZM227.751 108.71H235.656V105.71H226.506V106.64H234.441V107.81H226.551V110.96H236.061V110.015H227.751V108.71ZM227.871 100.07H234.411V101.36H227.871V100.07ZM231.741 103.595V102.305H235.626V97.865H234.411V99.14H227.871V97.865H226.656V102.305H230.511V103.595H225.036V104.585H237.216V103.595H231.741ZM253.184 102.785C250.739 102.425 248.339 100.76 248.339 98.885V98.135H247.049V98.885C247.049 100.805 244.679 102.425 242.234 102.785L242.729 103.775C244.829 103.415 246.854 102.26 247.694 100.625C248.564 102.245 250.589 103.415 252.674 103.775L253.184 102.785ZM253.769 105.23H241.619V106.25H247.049V111.125H248.279V106.25H253.784L253.769 105.23ZM269.198 97.67H267.968V105.35H269.198V97.67ZM261.968 99.47C263.303 99.47 264.293 100.355 264.293 101.585C264.293 102.83 263.303 103.7 261.968 103.7C260.633 103.7 259.673 102.83 259.673 101.585C259.673 100.355 260.633 99.47 261.968 99.47ZM261.968 104.72C264.008 104.72 265.493 103.445 265.493 101.585C265.493 99.725 264.008 98.45 261.968 98.45C259.943 98.45 258.473 99.725 258.473 101.585C258.473 103.445 259.943 104.72 261.968 104.72ZM267.698 105.935H266.498V106.655C266.498 107.705 265.853 109.055 264.563 109.85C263.318 109.115 262.703 107.84 262.703 106.655V105.935H261.518V106.655C261.518 107.945 260.513 109.4 258.818 110L259.433 110.93C260.693 110.45 261.608 109.52 262.088 108.44C262.493 109.565 263.303 110.54 264.593 111.05C265.838 110.51 266.663 109.49 267.083 108.395C267.533 109.52 268.463 110.45 269.783 110.93L270.398 110C268.688 109.43 267.698 108.05 267.698 106.655V105.935ZM275.257 106.985C273.967 106.985 273.067 105.575 273.067 103.385C273.067 101.21 273.967 99.8 275.257 99.8C276.532 99.8 277.432 101.21 277.432 103.385C277.432 105.575 276.532 106.985 275.257 106.985ZM281.512 97.655V102.785H278.587C278.392 100.265 277.072 98.69 275.257 98.69C273.292 98.69 271.897 100.52 271.897 103.385C271.897 106.25 273.292 108.08 275.257 108.08C277.132 108.08 278.467 106.43 278.587 103.79H281.512V111.14H282.742V97.655H281.512ZM289.37 105.2C289.925 105.335 290.57 105.41 291.23 105.41C291.905 105.41 292.55 105.335 293.12 105.2V108.365H289.37V105.2ZM291.23 99.47C293.39 99.47 294.95 100.46 294.95 101.96C294.95 103.46 293.39 104.45 291.23 104.45C289.07 104.45 287.525 103.46 287.525 101.96C287.525 100.46 289.07 99.47 291.23 99.47ZM294.35 108.365V104.72C295.46 104.135 296.12 103.175 296.12 101.96C296.12 99.86 294.095 98.51 291.23 98.51C288.38 98.51 286.34 99.86 286.34 101.96C286.34 103.175 287.015 104.15 288.14 104.735V108.365H285.14V109.385H297.365V108.365H294.35ZM299.809 106.685H300.754L300.934 100.325L300.979 98.765H299.584L299.629 100.325L299.809 106.685ZM300.274 110.195C300.829 110.195 301.264 109.775 301.264 109.16C301.264 108.545 300.829 108.095 300.274 108.095C299.734 108.095 299.284 108.545 299.284 109.16C299.284 109.775 299.734 110.195 300.274 110.195Z" fill="#767676"/>
</svg>
