<svg width="360" height="157" viewBox="0 0 360 157" fill="none" xmlns="http://www.w3.org/2000/svg">
<path d="M23.78 36.663H27.938V34.962H23.78V31.581H28.736V29.838H21.701V42.228H22.961C25.838 42.228 27.623 42.165 29.765 41.787L29.576 40.023C27.707 40.359 26.111 40.443 23.78 40.464V36.663ZM31.319 34.71H28.883V36.495H31.319V45.714H33.356V28.053H31.319V34.71ZM35.183 27.633V46.596H37.262V27.633H35.183ZM42.7624 31.224H47.3614V40.17H42.7624V31.224ZM40.6204 41.892H49.5034V29.502H40.6204V41.892ZM57.6094 35.067H54.6484V27.654H52.4854V46.638H54.6484V36.852H57.6094V35.067ZM71.7407 30.888H61.0517V35.151H74.2187V33.639H63.1727V32.295H73.8827V28.116H61.0097V29.607H71.7407V30.888ZM63.0257 43.467H73.9457V39.225H60.8417V40.716H71.8037V42.06H60.8837V46.407H74.5127V44.916H63.0257V43.467ZM58.8467 36.348V37.944H76.0457V36.348H58.8467ZM89.4759 36.495H84.8559V31.014H89.4759V36.495ZM91.5969 29.271H82.7139V38.238H91.5969V29.271ZM87.0399 40.191H84.8559V46.26H97.6239V44.496H87.0399V40.191ZM96.8679 33.282V27.633H94.7049V41.535H96.8679V35.067H99.5559V33.282H96.8679ZM116.102 32.274H105.308V29.901H115.913V28.158H103.166V34.017H116.102V32.274ZM105.161 43.152H115.955V38.448H102.977V40.107H113.834V41.577H103.019V46.428H116.501V44.748H105.161V43.152ZM100.982 35.319V37.062H118.139V35.319H100.982ZM125.068 30.468C126.706 30.468 127.903 31.56 127.903 33.177C127.903 34.773 126.706 35.865 125.068 35.865C123.409 35.865 122.191 34.773 122.191 33.177C122.191 31.56 123.409 30.468 125.068 30.468ZM133.405 34.038V38.385H135.568V27.654H133.405V32.253H129.877C129.436 30.111 127.525 28.683 125.068 28.683C122.233 28.683 120.133 30.531 120.133 33.177C120.133 35.802 122.233 37.65 125.068 37.65C127.546 37.65 129.478 36.18 129.877 34.038H133.405ZM133.636 39.12H131.515V40.044C131.515 41.493 130.759 43.299 129.058 44.454C127.399 43.404 126.664 41.682 126.664 40.044V39.12H124.564V40.044C124.564 41.913 123.304 43.929 120.868 44.79L121.939 46.386C123.682 45.714 124.921 44.496 125.593 43.005C126.181 44.538 127.315 45.861 129.079 46.554C130.822 45.819 131.935 44.454 132.544 42.942C133.195 44.475 134.434 45.735 136.261 46.386L137.332 44.79C134.875 43.992 133.636 42.039 133.636 40.044V39.12ZM143.861 40.485C142.244 40.485 141.131 38.721 141.131 35.718C141.131 32.778 142.244 30.993 143.861 30.993C145.499 30.993 146.612 32.778 146.612 35.718C146.612 38.721 145.499 40.485 143.861 40.485ZM152.324 27.633V34.71H148.628C148.334 31.224 146.402 29.04 143.861 29.04C141.068 29.04 139.073 31.644 139.073 35.718C139.073 39.834 141.068 42.417 143.861 42.417C146.465 42.417 148.397 40.149 148.649 36.474H152.324V46.659H154.508V27.633H152.324ZM163.83 38.406C164.565 38.574 165.384 38.658 166.224 38.658C167.064 38.658 167.883 38.574 168.618 38.385V42.522H163.83V38.406ZM166.224 30.447C169.08 30.447 171.075 31.707 171.075 33.702C171.075 35.718 169.08 36.978 166.224 36.978C163.347 36.978 161.352 35.718 161.352 33.702C161.352 31.707 163.347 30.447 166.224 30.447ZM170.781 42.522V37.587C172.293 36.726 173.196 35.382 173.196 33.702C173.196 30.678 170.256 28.746 166.224 28.746C162.171 28.746 159.252 30.678 159.252 33.702C159.252 35.382 160.155 36.747 161.667 37.587V42.522H157.656V44.286H174.834V42.522H170.781ZM178.277 40.065H179.894L180.23 31.665L180.314 29.166H177.878L177.941 31.665L178.277 40.065ZM179.075 45.273C179.999 45.273 180.713 44.58 180.713 43.593C180.713 42.585 179.999 41.871 179.075 41.871C178.172 41.871 177.479 42.585 177.479 43.593C177.479 44.58 178.172 45.273 179.075 45.273Z" fill="#333333"/>
<path d="M26.33 74.105H22.55V69.845H26.33V74.105ZM27.53 68.855H21.35V75.08H27.53V68.855ZM24.095 76.58H22.865V80.81H31.835V79.805H24.095V76.58ZM31.235 71.75V67.64H30.005V77.495H31.235V72.785H33.23V71.75H31.235ZM45.0638 71.975H37.0538V69.23H44.9438V68.225H35.8238V72.965H45.0638V71.975ZM37.0838 76.865H35.8538V80.795H45.1838V79.79H37.0838V76.865ZM34.2938 74.45V75.44H46.4588V74.45H34.2938ZM52.5271 73.88H55.7221V72.905H52.5271V70.265H56.3521V69.26H51.3421V77.87H52.2121C54.3271 77.87 55.5871 77.825 57.1171 77.525L57.0121 76.52C55.6021 76.805 54.4171 76.865 52.5271 76.865V73.88ZM58.3921 72.755H56.4421V73.76H58.3921V80.42H59.5471V67.985H58.3921V72.755ZM61.0921 67.64V81.095H62.2621V67.64H61.0921ZM66.086 69.995H69.851V76.7H66.086V69.995ZM64.886 77.69H71.051V69.005H64.886V77.69ZM76.916 73.025H74.696V67.67H73.466V81.11H74.696V74.06H76.916V73.025ZM88.6298 71.705H80.7098V68.15H79.4798V72.71H88.6298V71.705ZM80.6198 76.85H79.3898V80.78H88.7048V79.775H80.6198V76.85ZM77.8298 74.51V75.5H90.0248V74.51H77.8298ZM94.9231 80H100.953V78.86H98.7481V69.005H97.6981C97.0981 69.35 96.3931 69.605 95.4181 69.785V70.655H97.3681V78.86H94.9231V80ZM102.943 80H108.973V78.86H106.768V69.005H105.718C105.118 69.35 104.413 69.605 103.438 69.785V70.655H105.388V78.86H102.943V80ZM117.549 74.06V74.87H120.219V75.575H121.449V67.67H120.219V74.06H117.549ZM114.744 68.78C116.064 68.78 116.904 69.23 116.904 69.95C116.904 70.64 116.064 71.105 114.744 71.105C113.439 71.105 112.584 70.64 112.584 69.95C112.584 69.23 113.439 68.78 114.744 68.78ZM114.744 71.945C116.739 71.945 118.059 71.18 118.059 69.95C118.059 68.69 116.739 67.925 114.744 67.925C112.749 67.925 111.429 68.69 111.429 69.95C111.429 71.18 112.749 71.945 114.744 71.945ZM114.054 75.62H115.284V73.55C116.589 73.475 117.924 73.37 119.229 73.19L119.154 72.38C116.274 72.71 112.989 72.725 110.394 72.725L110.544 73.655C111.624 73.655 112.809 73.64 114.054 73.61V75.62ZM113.679 80.06V78.875H121.449V76.07H112.434V76.955H120.249V78.035H112.464V80.96H121.914V80.06H113.679ZM128.147 75.815C130.307 75.425 132.242 74.345 133.097 72.695C133.937 74.345 135.872 75.425 138.032 75.815L138.512 74.84C135.902 74.42 133.712 72.845 133.712 70.775H138.032V69.785H133.712V67.955H132.467V69.785H128.132V70.775H132.467C132.467 72.845 130.277 74.42 127.667 74.84L128.147 75.815ZM133.712 78.395V75.335H132.467V78.395H126.992V79.415H139.202V78.395H133.712ZM145.915 72.065C145.915 70.52 147.49 69.515 149.635 69.515C151.78 69.515 153.34 70.52 153.34 72.065C153.34 73.61 151.78 74.615 149.635 74.615C147.49 74.615 145.915 73.61 145.915 72.065ZM150.25 78.365V75.56C152.755 75.38 154.51 74.045 154.51 72.065C154.51 69.92 152.47 68.54 149.635 68.54C146.785 68.54 144.73 69.92 144.73 72.065C144.73 74.045 146.5 75.38 149.005 75.56V78.365H143.53V79.385H155.755V78.365H150.25ZM164.784 72.395H161.439V69.335H164.784V72.395ZM160.209 72.395H158.214V73.385H167.994V72.395H166.014V69.335H168.039V68.345H158.169V69.335H160.209V72.395ZM159.834 77.075H158.604V80.81H167.859V79.805H159.834V77.075ZM157.029 74.84V75.83H169.194V74.84H157.029ZM175.598 74.465H178.493V73.46H172.838V69.935H178.433V68.915H171.623V74.465H174.368V77.135C173.063 77.18 171.788 77.18 170.633 77.18L170.783 78.215C173.333 78.215 176.558 78.155 179.498 77.705L179.393 76.805C178.193 76.955 176.888 77.03 175.598 77.09V74.465ZM180.278 67.64V81.14H181.508V67.64H180.278ZM194.827 71.705H186.907V68.15H185.677V72.71H194.827V71.705ZM186.817 76.85H185.587V80.78H194.902V79.775H186.817V76.85ZM184.027 74.51V75.5H196.222V74.51H184.027ZM202.53 68.33C201.375 69.005 200.745 69.965 200.745 71.3C200.745 72.26 201.135 72.8 201.795 72.8C202.32 72.8 202.68 72.47 202.68 71.885C202.68 71.345 202.26 71.045 201.795 71.045C201.735 71.045 201.69 71.045 201.645 71.06C201.66 70.1 202.095 69.53 202.92 68.975L202.53 68.33ZM213.275 68.045V75.275H215.21V72.395H216.95V70.73H215.21V68.045H213.275ZM211.82 72.98H207.305C207.17 72.98 207.11 72.965 207.035 72.89L206.72 72.545C206.645 72.455 206.615 72.41 206.615 72.245V69.845H211.295V68.21H205.205C204.845 68.21 204.665 68.405 204.665 68.78V72.425C204.665 73.01 204.77 73.265 205.085 73.61L205.625 74.165C205.94 74.51 206.21 74.63 206.825 74.63H211.82V72.98ZM208.64 75.755C206.21 75.755 205.1 76.835 205.1 78.44C205.1 80.03 206.195 81.155 208.64 81.155H212.015C214.445 81.155 215.555 80.03 215.555 78.44C215.555 76.835 214.445 75.755 212.015 75.755H208.64ZM208.49 79.505C207.41 79.505 207.005 79.07 207.005 78.44C207.005 77.81 207.41 77.39 208.49 77.39H212.18C213.26 77.39 213.665 77.81 213.665 78.44C213.665 79.07 213.26 79.505 212.18 79.505H208.49ZM221.992 75.935C219.562 75.935 218.452 77.015 218.452 78.53C218.452 80.045 219.547 81.155 221.992 81.155H225.367C227.797 81.155 228.907 80.045 228.907 78.53C228.907 77.015 227.797 75.935 225.367 75.935H221.992ZM225.262 69.845V68.21H217.837V69.845H220.537V70.535C220.537 71.045 220.477 71.315 220.162 71.63C219.472 72.32 218.392 73.22 217.477 73.895L218.527 75.185C219.427 74.51 220.702 73.505 221.332 72.845C221.437 72.74 221.527 72.62 221.572 72.47C221.617 72.62 221.737 72.74 221.842 72.845C222.487 73.49 223.657 74.405 224.602 75.065L225.592 73.76C224.707 73.16 223.597 72.29 222.937 71.645C222.622 71.36 222.577 71.045 222.577 70.535V69.845H225.262ZM226.627 68.045V75.455H228.562V72.515H230.302V70.85H228.562V68.045H226.627ZM221.842 79.505C220.762 79.505 220.357 79.1 220.357 78.53C220.357 77.96 220.762 77.57 221.842 77.57H225.532C226.612 77.57 227.017 77.96 227.017 78.53C227.017 79.1 226.612 79.505 225.532 79.505H221.842ZM241.765 75.755C242.125 75.755 242.32 75.545 242.32 75.17V68.93C242.32 68.57 242.125 68.375 241.765 68.375H232.345C231.985 68.375 231.79 68.57 231.79 68.93V73.19C231.79 73.835 231.88 74.045 232.285 74.465L232.96 75.185C233.41 75.65 233.62 75.755 234.175 75.755H236.155V78.86H231.34V80.54H242.875V78.86H238.09V75.755H241.765ZM234.715 74.045C234.55 74.045 234.505 74 234.385 73.895L233.89 73.385C233.77 73.25 233.74 73.145 233.74 72.965V70.055H240.385V74.045H234.715ZM253.332 68.045V80.9H255.267V74.54H257.007V72.86H255.267V68.045H253.332ZM248.097 68.015C245.892 68.015 244.722 69.53 244.722 71.81V76.19C244.722 78.455 245.877 79.955 248.097 79.955C250.302 79.955 251.487 78.455 251.487 76.19V71.81C251.487 69.53 250.302 68.015 248.097 68.015ZM249.582 76.19C249.582 77.66 248.937 78.29 248.097 78.29C247.242 78.29 246.642 77.66 246.642 76.19V71.81C246.642 70.34 247.257 69.71 248.097 69.71C248.937 69.71 249.582 70.34 249.582 71.81V76.19ZM258.029 72.02C259.559 71.765 260.144 70.595 260.144 69.605V68.06H258.119V69.92H258.929C258.929 70.64 258.524 71.18 257.789 71.36L258.029 72.02ZM264.623 77.015C263.543 77.015 262.868 75.65 262.868 73.445C262.868 71.285 263.543 69.92 264.623 69.92C265.673 69.92 266.363 71.285 266.363 73.445C266.363 75.65 265.673 77.015 264.623 77.015ZM269.168 72.89H267.473C267.323 70.355 266.243 68.78 264.623 68.78C262.868 68.78 261.743 70.58 261.743 73.445C261.743 76.355 262.868 78.155 264.623 78.155C266.273 78.155 267.368 76.535 267.473 73.895H269.168V80.45H270.338V67.955H269.168V72.89ZM271.838 67.655V81.11H273.008V67.655H271.838ZM279.787 68.81H278.557V71.225C278.557 73.715 277.027 76.31 275.077 77.285L275.827 78.26C277.342 77.45 278.587 75.755 279.172 73.76C279.787 75.65 281.017 77.255 282.547 78.02L283.267 77.045C281.317 76.115 279.787 73.67 279.787 71.225V68.81ZM284.932 67.655V72.215H281.812V73.22H284.932V81.125H286.162V67.655H284.932ZM28.79 92.885H25.55V91.565H24.32V92.885H21.065V93.815H28.79V92.885ZM22.955 96.305C22.955 95.6 23.72 95.165 24.935 95.165C26.12 95.165 26.9 95.6 26.9 96.305C26.9 97.01 26.12 97.46 24.935 97.46C23.72 97.46 22.955 97.01 22.955 96.305ZM29.195 98.885C28.025 99.065 26.78 99.155 25.55 99.215V98.285C27.095 98.12 28.07 97.4 28.07 96.305C28.07 95.075 26.81 94.31 24.935 94.31C23.03 94.31 21.785 95.075 21.785 96.305C21.785 97.415 22.76 98.135 24.32 98.285V99.26C23.03 99.305 21.8 99.305 20.735 99.305L20.87 100.295C23.225 100.28 26.405 100.28 29.285 99.77L29.195 98.885ZM22.37 102.335H29.99V105.11H31.22V101.36H22.37V102.335ZM33.2 95.735H31.22V91.67H29.99V100.685H31.22V96.755H33.2V95.735ZM45.3338 91.67H44.1038V101.495H45.3338V91.67ZM35.8088 95.9C35.8088 94.595 36.7988 93.665 38.1038 93.665C39.4388 93.665 40.4288 94.595 40.4288 95.9C40.4288 97.235 39.4388 98.165 38.1038 98.165C36.7988 98.165 35.8088 97.235 35.8088 95.9ZM41.6288 95.9C41.6288 93.965 40.1138 92.6 38.1038 92.6C36.1088 92.6 34.6088 93.965 34.6088 95.9C34.6088 97.85 36.1088 99.23 38.1038 99.23C40.1138 99.23 41.6288 97.85 41.6288 95.9ZM37.9088 103.805V100.49H36.6788V104.81H45.7388V103.805H37.9088ZM55.7727 92.885H52.4127V91.52H51.1827V92.885H47.8377V93.83H55.7727V92.885ZM49.7577 96.635C49.7577 95.825 50.5527 95.345 51.7977 95.345C53.0427 95.345 53.8527 95.825 53.8527 96.635C53.8527 97.445 53.0427 97.925 51.7977 97.925C50.5527 97.925 49.7577 97.445 49.7577 96.635ZM55.0227 96.635C55.0227 95.27 53.7477 94.43 51.7977 94.43C49.8627 94.43 48.5877 95.27 48.5877 96.635C48.5877 98 49.8627 98.84 51.7977 98.84C53.7477 98.84 55.0227 98 55.0227 96.635ZM50.9277 102.725H58.2327V99.74H49.6827V100.655H57.0177V101.825H49.7277V104.96H58.7277V104.015H50.9277V102.725ZM58.2327 94.85V91.61H57.0027V99.05H58.2327V95.87H60.2277V94.85H58.2327ZM75.926 96.785C73.481 96.425 71.081 94.76 71.081 92.885V92.135H69.791V92.885C69.791 94.805 67.421 96.425 64.976 96.785L65.471 97.775C67.571 97.415 69.596 96.26 70.436 94.625C71.306 96.245 73.331 97.415 75.416 97.775L75.926 96.785ZM76.511 99.23H64.361V100.25H69.791V105.125H71.021V100.25H76.526L76.511 99.23ZM91.9393 91.67H90.7093V99.35H91.9393V91.67ZM84.7093 93.47C86.0443 93.47 87.0343 94.355 87.0343 95.585C87.0343 96.83 86.0443 97.7 84.7093 97.7C83.3743 97.7 82.4143 96.83 82.4143 95.585C82.4143 94.355 83.3743 93.47 84.7093 93.47ZM84.7093 98.72C86.7493 98.72 88.2343 97.445 88.2343 95.585C88.2343 93.725 86.7493 92.45 84.7093 92.45C82.6843 92.45 81.2143 93.725 81.2143 95.585C81.2143 97.445 82.6843 98.72 84.7093 98.72ZM90.4393 99.935H89.2393V100.655C89.2393 101.705 88.5943 103.055 87.3043 103.85C86.0593 103.115 85.4443 101.84 85.4443 100.655V99.935H84.2593V100.655C84.2593 101.945 83.2543 103.4 81.5593 104L82.1743 104.93C83.4343 104.45 84.3493 103.52 84.8293 102.44C85.2343 103.565 86.0443 104.54 87.3343 105.05C88.5793 104.51 89.4043 103.49 89.8243 102.395C90.2743 103.52 91.2043 104.45 92.5243 104.93L93.1393 104C91.4293 103.43 90.4393 102.05 90.4393 100.655V99.935ZM97.9981 100.985C96.7081 100.985 95.8081 99.575 95.8081 97.385C95.8081 95.21 96.7081 93.8 97.9981 93.8C99.2731 93.8 100.173 95.21 100.173 97.385C100.173 99.575 99.2731 100.985 97.9981 100.985ZM104.253 91.655V96.785H101.328C101.133 94.265 99.8131 92.69 97.9981 92.69C96.0331 92.69 94.6381 94.52 94.6381 97.385C94.6381 100.25 96.0331 102.08 97.9981 102.08C99.8731 102.08 101.208 100.43 101.328 97.79H104.253V105.14H105.483V91.655H104.253ZM112.112 99.2C112.667 99.335 113.312 99.41 113.972 99.41C114.647 99.41 115.292 99.335 115.862 99.2V102.365H112.112V99.2ZM113.972 93.47C116.132 93.47 117.692 94.46 117.692 95.96C117.692 97.46 116.132 98.45 113.972 98.45C111.812 98.45 110.267 97.46 110.267 95.96C110.267 94.46 111.812 93.47 113.972 93.47ZM117.092 102.365V98.72C118.202 98.135 118.862 97.175 118.862 95.96C118.862 93.86 116.837 92.51 113.972 92.51C111.122 92.51 109.082 93.86 109.082 95.96C109.082 97.175 109.757 98.15 110.882 98.735V102.365H107.882V103.385H120.107V102.365H117.092ZM122.551 100.685H123.496L123.676 94.325L123.721 92.765H122.326L122.371 94.325L122.551 100.685ZM123.016 104.195C123.571 104.195 124.006 103.775 124.006 103.16C124.006 102.545 123.571 102.095 123.016 102.095C122.476 102.095 122.026 102.545 122.026 103.16C122.026 103.775 122.476 104.195 123.016 104.195ZM134.423 96.065C134.423 94.52 135.998 93.515 138.143 93.515C140.288 93.515 141.848 94.52 141.848 96.065C141.848 97.61 140.288 98.615 138.143 98.615C135.998 98.615 134.423 97.61 134.423 96.065ZM138.758 102.365V99.56C141.263 99.38 143.018 98.045 143.018 96.065C143.018 93.92 140.978 92.54 138.143 92.54C135.293 92.54 133.238 93.92 133.238 96.065C133.238 98.045 135.008 99.38 137.513 99.56V102.365H132.038V103.385H144.263V102.365H138.758ZM153.292 96.395H149.947V93.335H153.292V96.395ZM148.717 96.395H146.722V97.385H156.502V96.395H154.522V93.335H156.547V92.345H146.677V93.335H148.717V96.395ZM148.342 101.075H147.112V104.81H156.367V103.805H148.342V101.075ZM145.537 98.84V99.83H157.702V98.84H145.537ZM164.106 98.465H167.001V97.46H161.346V93.935H166.941V92.915H160.131V98.465H162.876V101.135C161.571 101.18 160.296 101.18 159.141 101.18L159.291 102.215C161.841 102.215 165.066 102.155 168.006 101.705L167.901 100.805C166.701 100.955 165.396 101.03 164.106 101.09V98.465ZM168.786 91.64V105.14H170.016V91.64H168.786ZM178.1 98.135H174.38V93.815H178.1V98.135ZM182.39 95.03V96.905H179.3V95.03H182.39ZM179.3 97.91H182.39V101.48H183.635V91.67H182.39V94.025H179.3V92.84H173.165V99.11H179.3V97.91ZM176.21 103.805V100.61H174.98V104.81H183.95V103.805H176.21ZM189.823 93.095V94.115H194.758C194.473 97.295 192.628 99.875 189.193 101.6L189.868 102.56C194.218 100.385 195.973 96.92 195.973 93.095H189.823ZM201.613 97.115H199.453V91.655H198.223V105.11H199.453V98.135H201.613V97.115ZM210.402 98.165C208.422 97.505 207.147 95.93 207.147 94.175V93.65H210.117V92.66H202.902V93.65H205.917V94.175C205.917 96.11 204.567 97.85 202.542 98.555L203.172 99.53C204.777 98.96 205.992 97.76 206.562 96.23C207.132 97.565 208.287 98.63 209.817 99.125L210.402 98.165ZM208.767 104.12C206.757 104.12 205.557 103.565 205.557 102.605C205.557 101.66 206.757 101.105 208.767 101.105C210.747 101.105 211.962 101.66 211.962 102.605C211.962 103.565 210.747 104.12 208.767 104.12ZM208.767 100.13C206.007 100.13 204.327 101.045 204.327 102.605C204.327 104.18 206.007 105.095 208.767 105.095C211.497 105.095 213.192 104.18 213.192 102.605C213.192 101.045 211.497 100.13 208.767 100.13ZM213.042 95.06V91.67H211.812V99.785H213.042V96.095H215.037V95.06H213.042ZM224.705 98.09H220.985V93.815H224.705V98.09ZM225.905 96.41H228.995V101.48H230.24V91.67H228.995V95.405H225.905V92.84H219.77V99.08H225.905V96.41ZM222.875 103.805V100.58H221.63V104.81H230.615V103.805H222.875ZM237.304 94.04H240.364V93.035H233.029V94.04H236.074V95.6C236.074 97.985 234.469 100.535 232.549 101.48L233.269 102.455C234.799 101.645 236.104 99.92 236.689 97.94C237.304 99.8 238.594 101.405 240.094 102.17L240.829 101.21C238.879 100.28 237.304 97.835 237.304 95.6V94.04ZM242.509 91.655V96.545H239.599V97.55H242.509V105.125H243.739V91.655H242.509ZM250.663 95.12C250.663 93.965 251.623 93.125 252.928 93.125C254.248 93.125 255.208 93.965 255.208 95.12C255.208 96.305 254.248 97.13 252.928 97.13C251.623 97.13 250.663 96.305 250.663 95.12ZM256.408 95.12C256.408 93.365 254.953 92.135 252.928 92.135C250.918 92.135 249.463 93.365 249.463 95.12C249.463 96.905 250.918 98.135 252.928 98.135C254.953 98.135 256.408 96.905 256.408 95.12ZM252.343 102.44H259.648V99.14H251.098V100.115H258.433V101.525H251.143V104.93H260.143V103.94H252.343V102.44ZM259.648 94.55V91.655H258.418V98.51H259.648V95.57H261.643V94.55H259.648ZM264.416 97.685H269.051V92.87H263.171V93.86H267.836V96.68H263.201V101.99H264.221C266.321 101.99 268.046 101.915 270.161 101.585L270.056 100.565C268.046 100.88 266.396 100.97 264.416 100.97V97.685ZM272.546 91.64V94.715H269.891V95.72H272.546V98.405H269.801V99.41H272.546V105.125H273.776V91.64H272.546ZM286.99 98.105H278.965V93.905H286.855V92.885H277.75V99.11H286.99V98.105ZM276.19 102.275V103.295H288.4V102.275H276.19ZM300.744 91.67H299.514V98.72H300.744V91.67ZM297.879 96.845C295.824 97.19 294.129 97.25 291.594 97.25V95.63H296.514V92.285H290.349V93.245H295.299V94.715H290.379V98.21H291.459C294.129 98.21 295.869 98.15 297.999 97.805L297.879 96.845ZM293.304 104V102.515H300.744V99.35H292.029V100.295H299.499V101.6H292.059V104.96H301.194V104H293.304ZM310.658 97.16H308.333C308.783 95.96 308.978 94.685 308.978 93.365H303.788V94.37H307.763C307.538 97.19 306.098 99.605 303.218 101.33L303.938 102.215C305.798 101.105 307.088 99.71 307.898 98.15H310.658V104.435H311.828V92.015H310.658V97.16ZM313.463 91.655V105.11H314.633V91.655H313.463ZM320.917 99.2C321.472 99.335 322.117 99.41 322.777 99.41C323.452 99.41 324.097 99.335 324.667 99.2V102.365H320.917V99.2ZM322.777 93.47C324.937 93.47 326.497 94.46 326.497 95.96C326.497 97.46 324.937 98.45 322.777 98.45C320.617 98.45 319.072 97.46 319.072 95.96C319.072 94.46 320.617 93.47 322.777 93.47ZM325.897 102.365V98.72C327.007 98.135 327.667 97.175 327.667 95.96C327.667 93.86 325.642 92.51 322.777 92.51C319.927 92.51 317.887 93.86 317.887 95.96C317.887 97.175 318.562 98.15 319.687 98.735V102.365H316.687V103.385H328.912V102.365H325.897ZM331.49 104.195C332.03 104.195 332.48 103.775 332.48 103.16C332.48 102.545 332.03 102.095 331.49 102.095C330.95 102.095 330.5 102.545 330.5 103.16C330.5 103.775 330.95 104.195 331.49 104.195ZM22.73 116.33C21.575 117.005 20.945 117.965 20.945 119.3C20.945 120.26 21.335 120.8 21.995 120.8C22.52 120.8 22.88 120.47 22.88 119.885C22.88 119.345 22.46 119.045 21.995 119.045C21.935 119.045 21.89 119.045 21.845 119.06C21.86 118.1 22.295 117.53 23.12 116.975L22.73 116.33ZM33.4748 116.045V123.275H35.4098V120.395H37.1498V118.73H35.4098V116.045H33.4748ZM32.0198 120.98H27.5048C27.3698 120.98 27.3098 120.965 27.2348 120.89L26.9198 120.545C26.8448 120.455 26.8148 120.41 26.8148 120.245V117.845H31.4948V116.21H25.4048C25.0448 116.21 24.8648 116.405 24.8648 116.78V120.425C24.8648 121.01 24.9698 121.265 25.2848 121.61L25.8248 122.165C26.1398 122.51 26.4098 122.63 27.0248 122.63H32.0198V120.98ZM28.8398 123.755C26.4098 123.755 25.2998 124.835 25.2998 126.44C25.2998 128.03 26.3948 129.155 28.8398 129.155H32.2148C34.6448 129.155 35.7548 128.03 35.7548 126.44C35.7548 124.835 34.6448 123.755 32.2148 123.755H28.8398ZM28.6898 127.505C27.6098 127.505 27.2048 127.07 27.2048 126.44C27.2048 125.81 27.6098 125.39 28.6898 125.39H32.3798C33.4598 125.39 33.8648 125.81 33.8648 126.44C33.8648 127.07 33.4598 127.505 32.3798 127.505H28.6898ZM42.1921 123.935C39.7621 123.935 38.6521 125.015 38.6521 126.53C38.6521 128.045 39.7471 129.155 42.1921 129.155H45.5671C47.9971 129.155 49.1071 128.045 49.1071 126.53C49.1071 125.015 47.9971 123.935 45.5671 123.935H42.1921ZM45.4621 117.845V116.21H38.0371V117.845H40.7371V118.535C40.7371 119.045 40.6771 119.315 40.3621 119.63C39.6721 120.32 38.5921 121.22 37.6771 121.895L38.7271 123.185C39.6271 122.51 40.9021 121.505 41.5321 120.845C41.6371 120.74 41.7271 120.62 41.7721 120.47C41.8171 120.62 41.9371 120.74 42.0421 120.845C42.6871 121.49 43.8571 122.405 44.8021 123.065L45.7921 121.76C44.9071 121.16 43.7971 120.29 43.1371 119.645C42.8221 119.36 42.7771 119.045 42.7771 118.535V117.845H45.4621ZM46.8271 116.045V123.455H48.7621V120.515H50.5021V118.85H48.7621V116.045H46.8271ZM42.0421 127.505C40.9621 127.505 40.5571 127.1 40.5571 126.53C40.5571 125.96 40.9621 125.57 42.0421 125.57H45.7321C46.8121 125.57 47.2171 125.96 47.2171 126.53C47.2171 127.1 46.8121 127.505 45.7321 127.505H42.0421ZM61.9645 123.755C62.3245 123.755 62.5195 123.545 62.5195 123.17V116.93C62.5195 116.57 62.3245 116.375 61.9645 116.375H52.5445C52.1845 116.375 51.9895 116.57 51.9895 116.93V121.19C51.9895 121.835 52.0795 122.045 52.4845 122.465L53.1595 123.185C53.6095 123.65 53.8195 123.755 54.3745 123.755H56.3545V126.86H51.5395V128.54H63.0745V126.86H58.2895V123.755H61.9645ZM54.9145 122.045C54.7495 122.045 54.7045 122 54.5845 121.895L54.0895 121.385C53.9695 121.25 53.9395 121.145 53.9395 120.965V118.055H60.5845V122.045H54.9145ZM73.5318 116.045V128.9H75.4668V122.54H77.2068V120.86H75.4668V116.045H73.5318ZM68.2968 116.015C66.0918 116.015 64.9218 117.53 64.9218 119.81V124.19C64.9218 126.455 66.0768 127.955 68.2968 127.955C70.5018 127.955 71.6868 126.455 71.6868 124.19V119.81C71.6868 117.53 70.5018 116.015 68.2968 116.015ZM69.7818 124.19C69.7818 125.66 69.1368 126.29 68.2968 126.29C67.4418 126.29 66.8418 125.66 66.8418 124.19V119.81C66.8418 118.34 67.4568 117.71 68.2968 117.71C69.1368 117.71 69.7818 118.34 69.7818 119.81V124.19ZM78.2292 120.02C79.7592 119.765 80.3442 118.595 80.3442 117.605V116.06H78.3192V117.92H79.1292C79.1292 118.64 78.7242 119.18 77.9892 119.36L78.2292 120.02ZM84.8232 125.015C83.7432 125.015 83.0682 123.65 83.0682 121.445C83.0682 119.285 83.7432 117.92 84.8232 117.92C85.8732 117.92 86.5632 119.285 86.5632 121.445C86.5632 123.65 85.8732 125.015 84.8232 125.015ZM89.3682 120.89H87.6732C87.5232 118.355 86.4432 116.78 84.8232 116.78C83.0682 116.78 81.9432 118.58 81.9432 121.445C81.9432 124.355 83.0682 126.155 84.8232 126.155C86.4732 126.155 87.5682 124.535 87.6732 121.895H89.3682V128.45H90.5382V115.955H89.3682V120.89ZM92.0382 115.655V129.11H93.2082V115.655H92.0382ZM99.987 116.81H98.757V119.225C98.757 121.715 97.227 124.31 95.277 125.285L96.027 126.26C97.542 125.45 98.787 123.755 99.372 121.76C99.987 123.65 101.217 125.255 102.747 126.02L103.467 125.045C101.517 124.115 99.987 121.67 99.987 119.225V116.81ZM105.132 115.655V120.215H102.012V121.22H105.132V129.125H106.362V115.655H105.132ZM121.61 115.655V129.14H122.84V115.655H121.61ZM115.745 116.69C113.75 116.69 112.325 118.52 112.325 121.385C112.325 124.25 113.75 126.08 115.745 126.08C117.74 126.08 119.165 124.25 119.165 121.385C119.165 118.52 117.74 116.69 115.745 116.69ZM115.745 117.8C117.05 117.8 117.98 119.21 117.98 121.385C117.98 123.575 117.05 124.985 115.745 124.985C114.425 124.985 113.495 123.575 113.495 121.385C113.495 119.21 114.425 117.8 115.745 117.8ZM131.404 116.795C133.549 116.795 134.869 117.365 134.869 118.31C134.869 119.27 133.549 119.825 131.404 119.825C129.259 119.825 127.939 119.27 127.939 118.31C127.939 117.365 129.259 116.795 131.404 116.795ZM131.404 120.785C134.329 120.785 136.129 119.885 136.129 118.31C136.129 116.75 134.329 115.85 131.404 115.85C128.479 115.85 126.679 116.75 126.679 118.31C126.679 119.885 128.479 120.785 131.404 120.785ZM132.034 124.91H130.759V125.33C130.759 126.77 128.644 127.865 126.214 128.12L126.619 129.065C128.719 128.825 130.594 128 131.404 126.74C132.184 128.015 134.059 128.81 136.159 129.065L136.564 128.12C134.104 127.88 132.034 126.8 132.034 125.33V124.91ZM125.329 121.805V122.81H130.789V124.295H132.004V122.81H137.524V121.805H125.329ZM149.553 119.195H141.678V117.095H149.418V116.105H140.448V120.185H149.553V119.195ZM141.528 126.605H149.433V123.44H140.283V124.4H148.218V125.69H140.328V128.945H149.838V127.985H141.528V126.605ZM138.828 121.265V122.27H151.008V121.265H138.828ZM156.692 116.645C154.607 116.645 153.092 117.92 153.092 119.81C153.092 121.685 154.607 122.975 156.692 122.975C158.792 122.975 160.292 121.685 160.292 119.81C160.292 117.92 158.792 116.645 156.692 116.645ZM156.692 117.695C158.087 117.695 159.092 118.55 159.092 119.81C159.092 121.055 158.087 121.925 156.692 121.925C155.297 121.925 154.292 121.055 154.292 119.81C154.292 118.55 155.297 117.695 156.692 117.695ZM162.062 115.655V129.14H163.292V115.655H162.062ZM152.567 126.185C154.997 126.185 158.252 126.17 161.282 125.6L161.177 124.685C158.237 125.135 154.862 125.15 152.417 125.15L152.567 126.185ZM170.56 121.88H173.755V120.905H170.56V118.265H174.385V117.26H169.375V125.87H170.245C172.36 125.87 173.62 125.825 175.15 125.525L175.045 124.52C173.635 124.805 172.45 124.865 170.56 124.865V121.88ZM176.425 120.755H174.475V121.76H176.425V128.42H177.58V115.985H176.425V120.755ZM179.125 115.64V129.095H180.295V115.64H179.125ZM184.119 117.995H187.884V124.7H184.119V117.995ZM182.919 125.69H189.084V117.005H182.919V125.69ZM194.949 121.025H192.729V115.67H191.499V129.11H192.729V122.06H194.949V121.025ZM202.583 126.395V122.945H206.678V121.955H198.653V117.74H206.543V116.735H197.423V122.945H201.338V126.395H195.863V127.415H208.088V126.395H202.583ZM224.611 122.315H222.616C222.991 120.38 222.991 118.955 222.991 117.695V116.525H213.961V117.515H221.791V117.695C221.791 118.955 221.791 120.38 221.371 122.315H212.446V123.32H217.876V129.125H219.121V123.32H224.611V122.315ZM235.77 119.135V120.935H232.245V121.94H235.77V123.71H237.015V115.67H235.77V118.13H232.725C232.815 117.665 232.875 117.17 232.875 116.675H226.8V117.665H231.54C231.315 119.99 229.32 121.775 226.11 122.735L226.605 123.71C229.5 122.87 231.54 121.295 232.41 119.135H235.77ZM232.62 128.09C230.64 128.09 229.38 127.475 229.38 126.455C229.38 125.45 230.64 124.835 232.62 124.835C234.6 124.835 235.86 125.45 235.86 126.455C235.86 127.475 234.6 128.09 232.62 128.09ZM232.62 123.86C229.905 123.86 228.165 124.835 228.165 126.455C228.165 128.075 229.905 129.05 232.62 129.05C235.335 129.05 237.075 128.075 237.075 126.455C237.075 124.835 235.335 123.86 232.62 123.86ZM242.759 124.97C241.709 124.97 240.974 124.115 240.974 122.915C240.974 121.745 241.709 120.89 242.759 120.89C243.794 120.89 244.544 121.745 244.544 122.915C244.544 124.115 243.794 124.97 242.759 124.97ZM242.759 119.855C241.094 119.855 239.879 121.115 239.879 122.915C239.879 124.745 241.094 125.99 242.759 125.99C244.424 125.99 245.639 124.745 245.639 122.915C245.639 121.115 244.424 119.855 242.759 119.855ZM243.359 116.045H242.144V117.95H239.414V118.955H246.089V117.95H243.359V116.045ZM249.644 115.64V121.325H247.919V115.955H246.764V128.45H247.919V122.33H249.644V129.095H250.829V115.64H249.644ZM258.637 120.02H265.507V122.495H258.637V120.02ZM262.687 126.38V123.485H266.707V116.615H265.507V119.015H258.637V116.615H257.422V123.485H261.442V126.38H255.982V127.385H268.177V126.38H262.687ZM273.471 116.93H272.286V119.495C272.286 121.805 271.176 124.22 269.331 125.3L270.096 126.23C271.431 125.405 272.406 123.875 272.886 122.09C273.366 123.725 274.266 125.15 275.541 125.93L276.246 124.97C274.476 123.89 273.471 121.61 273.471 119.45V116.93ZM277.011 120.485H274.791V121.505H277.011V128.45H278.166V115.955H277.011V120.485ZM279.741 115.655V129.11H280.911V115.655H279.741ZM287.195 123.2C287.75 123.335 288.395 123.41 289.055 123.41C289.73 123.41 290.375 123.335 290.945 123.2V126.365H287.195V123.2ZM289.055 117.47C291.215 117.47 292.775 118.46 292.775 119.96C292.775 121.46 291.215 122.45 289.055 122.45C286.895 122.45 285.35 121.46 285.35 119.96C285.35 118.46 286.895 117.47 289.055 117.47ZM292.175 126.365V122.72C293.285 122.135 293.945 121.175 293.945 119.96C293.945 117.86 291.92 116.51 289.055 116.51C286.205 116.51 284.165 117.86 284.165 119.96C284.165 121.175 284.84 122.15 285.965 122.735V126.365H282.965V127.385H295.19V126.365H292.175ZM297.769 128.195C298.309 128.195 298.759 127.775 298.759 127.16C298.759 126.545 298.309 126.095 297.769 126.095C297.229 126.095 296.779 126.545 296.779 127.16C296.779 127.775 297.229 128.195 297.769 128.195Z" fill="#585858"/>
</svg>
