<svg width="360" height="300" viewBox="0 0 360 300" fill="none" xmlns="http://www.w3.org/2000/svg">
<rect x="113" y="77" width="134" height="134" rx="22.393" fill="white"/>
<rect x="113" y="77" width="134" height="134" rx="22.393" fill="url(#paint0_linear_898:34266)"/>
<g clip-path="url(#clip0_898:34266)">
<path d="M179.974 125.038L186.136 146.44L179.974 160.972C179.701 160.961 179.441 160.855 179.238 160.672L162.634 142.296L179.974 124.956" fill="#0DDCC3"/>
<path d="M204.511 124.955C204.501 120.172 203.093 115.497 200.462 111.504C197.83 107.511 194.089 104.374 189.698 102.479C185.307 100.584 180.458 100.013 175.747 100.836C171.036 101.66 166.669 103.842 163.182 107.115C159.694 110.388 157.24 114.608 156.119 119.257C154.998 123.906 155.26 128.782 156.873 133.284C158.486 137.786 161.38 141.719 165.198 144.598C169.016 147.478 173.593 149.179 178.365 149.493H179.319C179.405 149.493 179.49 149.51 179.57 149.542C179.649 149.575 179.721 149.624 179.782 149.684C179.842 149.745 179.891 149.817 179.924 149.897C179.957 149.976 179.973 150.061 179.973 150.147V161.053C180.248 161.052 180.512 160.944 180.71 160.753L197.341 142.377C199.633 140.095 201.448 137.379 202.679 134.387C203.911 131.396 204.533 128.189 204.511 124.955Z" fill="#FF7964"/>
<path d="M186.3 134.907L180.383 130.872C180.266 130.793 180.129 130.751 179.988 130.751C179.847 130.751 179.709 130.793 179.592 130.872L173.676 134.907C173.573 134.984 173.45 135.031 173.321 135.041C173.193 135.052 173.064 135.025 172.95 134.965C172.836 134.906 172.741 134.814 172.676 134.703C172.612 134.591 172.58 134.463 172.586 134.334V115.713C172.586 115.532 172.657 115.359 172.785 115.231C172.913 115.103 173.086 115.031 173.267 115.031H186.681C186.865 115.031 187.041 115.102 187.173 115.229C187.305 115.356 187.383 115.53 187.39 115.713V134.334C187.395 134.463 187.364 134.591 187.299 134.703C187.235 134.814 187.14 134.906 187.026 134.965C186.912 135.025 186.783 135.052 186.654 135.041C186.526 135.031 186.403 134.984 186.3 134.907Z" fill="white"/>
</g>
<g clip-path="url(#clip1_898:34266)">
<path d="M157.301 178.781C157.301 178.84 157.278 178.897 157.235 178.938C157.193 178.98 157.135 179.004 157.075 179.004H150.771C150.504 179.04 150.233 179.008 149.982 178.912C149.732 178.816 149.51 178.658 149.339 178.454L148.691 177.805C148.503 177.626 148.359 177.408 148.267 177.166C148.176 176.925 148.141 176.666 148.164 176.41V172.125C148.164 171.684 148.38 171.455 148.807 171.455H156.48C156.509 171.455 156.539 171.46 156.566 171.47C156.594 171.481 156.619 171.497 156.64 171.517C156.661 171.538 156.678 171.562 156.689 171.589C156.7 171.615 156.706 171.644 156.706 171.673V173.157C156.706 173.186 156.7 173.215 156.689 173.242C156.678 173.268 156.661 173.293 156.64 173.313C156.619 173.333 156.594 173.349 156.566 173.36C156.539 173.37 156.509 173.376 156.48 173.375H150.492V176.197C150.484 176.262 150.492 176.327 150.514 176.388C150.535 176.449 150.571 176.505 150.618 176.55L150.992 176.96C151.034 177.001 151.084 177.031 151.14 177.049C151.196 177.067 151.255 177.072 151.313 177.064H157.091C157.12 177.063 157.15 177.068 157.177 177.079C157.204 177.089 157.229 177.105 157.251 177.125C157.272 177.146 157.288 177.17 157.3 177.197C157.311 177.224 157.317 177.252 157.317 177.281L157.301 178.781ZM157.533 180.337C160.435 180.337 161.746 181.608 161.746 183.491C161.746 185.375 160.419 186.687 157.533 186.687H153.504C150.587 186.687 149.291 185.364 149.291 183.491C149.291 181.619 150.618 180.337 153.504 180.337H157.533ZM157.733 184.747C159.018 184.747 159.503 184.228 159.503 183.491C159.503 182.755 159.018 182.257 157.733 182.257H153.325C152.04 182.257 151.556 182.775 151.556 183.491C151.556 184.207 152.04 184.747 153.325 184.747H157.733ZM161.346 171.492V174.428H163.2C163.229 174.427 163.259 174.432 163.286 174.443C163.314 174.454 163.339 174.47 163.36 174.49C163.381 174.51 163.397 174.535 163.409 174.561C163.42 174.588 163.426 174.617 163.426 174.646V176.166C163.426 176.195 163.42 176.224 163.409 176.251C163.397 176.277 163.381 176.302 163.36 176.322C163.339 176.342 163.314 176.358 163.286 176.369C163.259 176.379 163.229 176.385 163.2 176.384H161.346V179.549C161.347 179.578 161.342 179.606 161.331 179.634C161.32 179.661 161.304 179.685 161.283 179.706C161.263 179.727 161.238 179.743 161.211 179.755C161.184 179.766 161.154 179.772 161.125 179.772H159.261C159.231 179.772 159.202 179.766 159.175 179.755C159.147 179.743 159.123 179.727 159.102 179.706C159.082 179.685 159.065 179.661 159.055 179.634C159.044 179.606 159.039 179.578 159.039 179.549V171.492C159.039 171.463 159.044 171.434 159.055 171.407C159.065 171.38 159.082 171.355 159.102 171.334C159.123 171.313 159.147 171.297 159.175 171.286C159.202 171.274 159.231 171.269 159.261 171.269H161.125C161.183 171.269 161.238 171.291 161.279 171.331C161.321 171.37 161.345 171.424 161.346 171.481V171.492Z" fill="#FF7964"/>
<path d="M170.02 173.375V174.189C169.983 174.424 170.002 174.665 170.077 174.891C170.152 175.118 170.281 175.323 170.452 175.491C171.383 176.35 172.377 177.139 173.428 177.852C173.453 177.868 173.474 177.89 173.49 177.914C173.506 177.939 173.517 177.967 173.522 177.996C173.527 178.025 173.526 178.055 173.518 178.084C173.511 178.112 173.498 178.139 173.48 178.163L172.569 179.346C172.535 179.391 172.483 179.422 172.426 179.43C172.369 179.439 172.311 179.426 172.264 179.393C171.163 178.64 170.121 177.808 169.146 176.902C169.003 176.784 168.891 176.632 168.82 176.461C168.766 176.63 168.668 176.783 168.535 176.902C167.542 177.845 166.486 178.722 165.375 179.527C165.353 179.545 165.327 179.558 165.3 179.566C165.272 179.573 165.243 179.576 165.215 179.572C165.186 179.569 165.159 179.56 165.134 179.546C165.109 179.532 165.087 179.513 165.07 179.491L164.101 178.319C164.082 178.296 164.068 178.269 164.059 178.241C164.051 178.212 164.048 178.182 164.052 178.153C164.055 178.123 164.065 178.095 164.079 178.069C164.094 178.043 164.114 178.02 164.138 178.002C165.199 177.224 166.209 176.381 167.161 175.476C167.329 175.309 167.457 175.106 167.535 174.883C167.612 174.66 167.637 174.423 167.608 174.189V173.375H164.606C164.548 173.375 164.491 173.352 164.45 173.311C164.408 173.27 164.385 173.214 164.385 173.157V171.673C164.385 171.615 164.408 171.56 164.45 171.519C164.491 171.478 164.548 171.455 164.606 171.455H173.033C173.062 171.454 173.092 171.459 173.119 171.47C173.146 171.481 173.171 171.497 173.193 171.517C173.214 171.537 173.23 171.561 173.242 171.588C173.253 171.615 173.259 171.644 173.259 171.673V173.157C173.259 173.186 173.253 173.214 173.242 173.241C173.23 173.268 173.214 173.292 173.193 173.313C173.171 173.333 173.146 173.349 173.119 173.359C173.092 173.37 173.062 173.375 173.033 173.375H170.02ZM173.349 180.539C176.251 180.539 177.562 181.805 177.562 183.59C177.562 185.374 176.235 186.702 173.349 186.702H169.32C166.402 186.702 165.107 185.395 165.107 183.59C165.107 181.784 166.434 180.539 169.32 180.539H173.349ZM173.549 184.736C174.839 184.736 175.318 184.259 175.318 183.59C175.318 182.92 174.839 182.459 173.549 182.459H169.146C167.856 182.459 167.371 182.92 167.371 183.59C167.371 184.259 167.856 184.736 169.146 184.736H173.549ZM177.167 171.481V174.557H179.015C179.075 174.557 179.133 174.581 179.176 174.623C179.218 174.665 179.242 174.721 179.242 174.78V176.295C179.242 176.324 179.236 176.353 179.225 176.38C179.213 176.407 179.196 176.431 179.175 176.451C179.154 176.472 179.129 176.488 179.102 176.498C179.074 176.509 179.045 176.514 179.015 176.513H177.167V179.751C177.167 179.78 177.161 179.809 177.15 179.836C177.138 179.863 177.122 179.888 177.101 179.908C177.08 179.929 177.055 179.945 177.027 179.957C177 179.968 176.97 179.974 176.94 179.974H175.076C175.047 179.974 175.017 179.968 174.99 179.957C174.963 179.945 174.938 179.929 174.918 179.908C174.897 179.887 174.881 179.863 174.87 179.835C174.859 179.808 174.854 179.78 174.855 179.751V171.481C174.854 171.452 174.859 171.423 174.87 171.396C174.881 171.369 174.897 171.344 174.918 171.323C174.938 171.303 174.963 171.286 174.99 171.275C175.017 171.264 175.047 171.258 175.076 171.258H176.94C177 171.258 177.058 171.281 177.101 171.323C177.143 171.365 177.167 171.422 177.167 171.481Z" fill="#FF7964"/>
<path d="M188.416 180.326V183.958H193.904C193.933 183.957 193.962 183.963 193.99 183.975C194.017 183.986 194.041 184.002 194.062 184.023C194.083 184.044 194.099 184.069 194.11 184.096C194.12 184.123 194.126 184.152 194.125 184.181V185.737C194.125 185.795 194.102 185.85 194.06 185.891C194.019 185.932 193.962 185.955 193.904 185.955H180.585C180.555 185.956 180.526 185.95 180.499 185.94C180.471 185.929 180.446 185.913 180.425 185.893C180.404 185.873 180.387 185.848 180.376 185.822C180.364 185.795 180.358 185.766 180.358 185.737V184.181C180.358 184.121 180.382 184.065 180.425 184.023C180.467 183.981 180.525 183.958 180.585 183.958H186.104V180.326H183.745C183.465 180.346 183.184 180.294 182.93 180.177C182.675 180.06 182.456 179.881 182.291 179.657L181.485 178.806C181.268 178.624 181.1 178.392 180.997 178.13C180.894 177.868 180.859 177.585 180.896 177.307V172.3C180.896 172.127 180.965 171.961 181.09 171.838C181.214 171.715 181.383 171.646 181.559 171.646H192.803C192.979 171.648 193.147 171.717 193.271 171.839C193.395 171.962 193.465 172.127 193.467 172.3V179.636C193.48 179.726 193.472 179.819 193.444 179.906C193.415 179.993 193.368 180.072 193.304 180.139C193.24 180.205 193.162 180.256 193.075 180.289C192.988 180.321 192.895 180.334 192.803 180.326H188.416ZM191.155 178.313V173.644H183.223V177.068C183.213 177.162 183.224 177.257 183.255 177.347C183.285 177.436 183.336 177.518 183.402 177.587L183.992 178.183C184.04 178.241 184.1 178.287 184.169 178.317C184.237 178.348 184.312 178.363 184.387 178.36L191.155 178.313Z" fill="#FF7964"/>
<path d="M204.284 175.688V180.835C204.284 183.501 202.873 185.265 200.239 185.265C197.606 185.265 196.21 183.501 196.21 180.835V175.688C196.21 173.006 197.606 171.227 200.239 171.227C202.873 171.227 204.284 173.006 204.284 175.688ZM202.014 175.688C202.014 173.961 201.24 173.219 200.239 173.219C199.239 173.219 198.501 173.961 198.501 175.688V180.835C198.501 182.567 199.218 183.304 200.239 183.304C201.261 183.304 202.014 182.567 202.014 180.835V175.688ZM208.797 171.481V176.913H210.651C210.68 176.913 210.709 176.918 210.736 176.929C210.763 176.94 210.787 176.956 210.807 176.976C210.828 176.997 210.844 177.021 210.855 177.047C210.867 177.073 210.872 177.102 210.872 177.13V178.687C210.872 178.715 210.867 178.744 210.855 178.77C210.844 178.797 210.828 178.821 210.807 178.841C210.787 178.861 210.763 178.877 210.736 178.888C210.709 178.899 210.68 178.905 210.651 178.905H208.797V186.168C208.798 186.197 208.793 186.226 208.782 186.253C208.771 186.28 208.755 186.305 208.734 186.325C208.714 186.346 208.689 186.363 208.662 186.374C208.635 186.385 208.606 186.391 208.576 186.391H206.712C206.682 186.391 206.653 186.385 206.626 186.374C206.599 186.363 206.574 186.346 206.553 186.325C206.533 186.305 206.517 186.28 206.506 186.253C206.495 186.226 206.49 186.197 206.491 186.168V171.496C206.49 171.467 206.495 171.438 206.506 171.411C206.517 171.384 206.533 171.36 206.553 171.339C206.574 171.318 206.599 171.302 206.626 171.29C206.653 171.279 206.682 171.273 206.712 171.273H208.576C208.633 171.273 208.688 171.295 208.729 171.333C208.77 171.372 208.795 171.425 208.797 171.481Z" fill="#FF7964"/>
</g>
<path d="M111.262 234H117.292V232.86H115.087V223.005H114.037C113.437 223.35 112.732 223.605 111.757 223.785V224.655H113.707V232.86H111.262V234ZM119.282 234H125.312V232.86H123.107V223.005H122.057C121.457 223.35 120.752 223.605 119.777 223.785V224.655H121.727V232.86H119.282V234ZM133.887 228.06V228.87H136.557V229.575H137.787V221.67H136.557V228.06H133.887ZM131.082 222.78C132.402 222.78 133.242 223.23 133.242 223.95C133.242 224.64 132.402 225.105 131.082 225.105C129.777 225.105 128.922 224.64 128.922 223.95C128.922 223.23 129.777 222.78 131.082 222.78ZM131.082 225.945C133.077 225.945 134.397 225.18 134.397 223.95C134.397 222.69 133.077 221.925 131.082 221.925C129.087 221.925 127.767 222.69 127.767 223.95C127.767 225.18 129.087 225.945 131.082 225.945ZM130.392 229.62H131.622V227.55C132.927 227.475 134.262 227.37 135.567 227.19L135.492 226.38C132.612 226.71 129.327 226.725 126.732 226.725L126.882 227.655C127.962 227.655 129.147 227.64 130.392 227.61V229.62ZM130.017 234.06V232.875H137.787V230.07H128.772V230.955H136.587V232.035H128.802V234.96H138.252V234.06H130.017ZM144.485 229.815C146.645 229.425 148.58 228.345 149.435 226.695C150.275 228.345 152.21 229.425 154.37 229.815L154.85 228.84C152.24 228.42 150.05 226.845 150.05 224.775H154.37V223.785H150.05V221.955H148.805V223.785H144.47V224.775H148.805C148.805 226.845 146.615 228.42 144.005 228.84L144.485 229.815ZM150.05 232.395V229.335H148.805V232.395H143.33V233.415H155.54V232.395H150.05ZM164.744 234.195C166.169 234.195 167.249 233.625 168.119 232.62L167.354 231.75C166.649 232.515 165.854 232.98 164.804 232.98C162.704 232.98 161.384 231.24 161.384 228.465C161.384 225.72 162.764 224.01 164.849 224.01C165.794 224.01 166.529 224.445 167.099 225.06L167.849 224.16C167.219 223.455 166.169 222.795 164.834 222.795C162.044 222.795 159.959 224.955 159.959 228.51C159.959 232.08 162.014 234.195 164.744 234.195ZM172.899 234.195C174.894 234.195 176.679 232.635 176.679 229.935C176.679 227.22 174.894 225.645 172.899 225.645C170.904 225.645 169.119 227.22 169.119 229.935C169.119 232.635 170.904 234.195 172.899 234.195ZM172.899 233.055C171.489 233.055 170.544 231.81 170.544 229.935C170.544 228.06 171.489 226.785 172.899 226.785C174.309 226.785 175.269 228.06 175.269 229.935C175.269 231.81 174.309 233.055 172.899 233.055ZM178.531 234H179.896V228.09C180.646 227.25 181.336 226.845 181.951 226.845C182.986 226.845 183.466 227.49 183.466 229.02V234H184.831V228.09C185.596 227.25 186.256 226.845 186.886 226.845C187.921 226.845 188.401 227.49 188.401 229.02V234H189.766V228.84C189.766 226.755 188.971 225.645 187.291 225.645C186.301 225.645 185.446 226.29 184.606 227.205C184.276 226.245 183.601 225.645 182.356 225.645C181.381 225.645 180.526 226.26 179.821 227.04H179.776L179.656 225.855H178.531V234ZM192.118 234H193.483V225.855H192.118V234ZM192.808 224.175C193.348 224.175 193.753 223.8 193.753 223.29C193.753 222.735 193.348 222.405 192.808 222.405C192.268 222.405 191.863 222.735 191.863 223.29C191.863 223.8 192.268 224.175 192.808 224.175ZM195.948 234H197.313V228.09C198.138 227.265 198.708 226.845 199.548 226.845C200.628 226.845 201.093 227.49 201.093 229.02V234H202.458V228.84C202.458 226.755 201.678 225.645 199.968 225.645C198.858 225.645 198.018 226.26 197.238 227.025H197.193L197.073 225.855H195.948V234ZM207.563 237.75C210.083 237.75 211.673 236.445 211.673 234.93C211.673 233.595 210.728 232.995 208.838 232.995H207.248C206.153 232.995 205.823 232.635 205.823 232.11C205.823 231.66 206.048 231.39 206.348 231.135C206.708 231.315 207.158 231.42 207.563 231.42C209.213 231.42 210.533 230.325 210.533 228.585C210.533 227.88 210.263 227.28 209.873 226.905H211.538V225.855H208.703C208.418 225.75 208.013 225.645 207.563 225.645C205.913 225.645 204.503 226.77 204.503 228.555C204.503 229.53 205.028 230.31 205.568 230.745V230.805C205.148 231.105 204.653 231.645 204.653 232.32C204.653 232.965 204.968 233.4 205.403 233.655V233.715C204.638 234.21 204.188 234.87 204.188 235.56C204.188 236.97 205.568 237.75 207.563 237.75ZM207.563 230.49C206.618 230.49 205.823 229.74 205.823 228.555C205.823 227.355 206.603 226.65 207.563 226.65C208.523 226.65 209.288 227.37 209.288 228.555C209.288 229.74 208.493 230.49 207.563 230.49ZM207.758 236.82C206.273 236.82 205.388 236.25 205.388 235.38C205.388 234.9 205.643 234.42 206.228 234C206.588 234.09 206.978 234.135 207.278 234.135H208.688C209.768 234.135 210.353 234.39 210.353 235.14C210.353 235.995 209.318 236.82 207.758 236.82ZM219.205 234.195C221.5 234.195 222.94 232.815 222.94 231.075C222.94 229.44 221.95 228.69 220.675 228.135L219.1 227.46C218.245 227.1 217.285 226.695 217.285 225.63C217.285 224.64 218.095 224.01 219.34 224.01C220.36 224.01 221.17 224.415 221.845 225.045L222.58 224.16C221.8 223.35 220.645 222.795 219.34 222.795C217.345 222.795 215.875 224.025 215.875 225.72C215.875 227.325 217.09 228.105 218.11 228.54L219.7 229.23C220.735 229.695 221.53 230.055 221.53 231.18C221.53 232.26 220.66 232.98 219.22 232.98C218.08 232.98 216.97 232.44 216.175 231.615L215.35 232.56C216.31 233.565 217.645 234.195 219.205 234.195ZM227.84 234.195C229.835 234.195 231.62 232.635 231.62 229.935C231.62 227.22 229.835 225.645 227.84 225.645C225.845 225.645 224.06 227.22 224.06 229.935C224.06 232.635 225.845 234.195 227.84 234.195ZM227.84 233.055C226.43 233.055 225.485 231.81 225.485 229.935C225.485 228.06 226.43 226.785 227.84 226.785C229.25 226.785 230.21 228.06 230.21 229.935C230.21 231.81 229.25 233.055 227.84 233.055ZM236.637 234.195C238.632 234.195 240.417 232.635 240.417 229.935C240.417 227.22 238.632 225.645 236.637 225.645C234.642 225.645 232.857 227.22 232.857 229.935C232.857 232.635 234.642 234.195 236.637 234.195ZM236.637 233.055C235.227 233.055 234.282 231.81 234.282 229.935C234.282 228.06 235.227 226.785 236.637 226.785C238.047 226.785 239.007 228.06 239.007 229.935C239.007 231.81 238.047 233.055 236.637 233.055ZM242.269 234H243.634V228.09C244.459 227.265 245.029 226.845 245.869 226.845C246.949 226.845 247.414 227.49 247.414 229.02V234H248.779V228.84C248.779 226.755 247.999 225.645 246.289 225.645C245.179 225.645 244.339 226.26 243.559 227.025H243.514L243.394 225.855H242.269V234Z" fill="#767676"/>
<defs>
<linearGradient id="paint0_linear_898:34266" x1="180" y1="66.3409" x2="180" y2="227.242" gradientUnits="userSpaceOnUse">
<stop stop-color="white"/>
<stop offset="1" stop-color="#FAFAFA"/>
</linearGradient>
<clipPath id="clip0_898:34266">
<rect width="49.0757" height="60.5539" fill="white" transform="translate(155.436 100.418)"/>
</clipPath>
<clipPath id="clip1_898:34266">
<rect width="62.7078" height="15.4497" fill="white" transform="translate(148.165 171.227)"/>
</clipPath>
</defs>
</svg>
