<svg width="360" height="542" viewBox="0 0 360 542" fill="none" xmlns="http://www.w3.org/2000/svg">
<path d="M23.78 89.663H27.938V87.962H23.78V84.581H28.736V82.838H21.701V95.228H22.961C25.838 95.228 27.623 95.165 29.765 94.787L29.576 93.023C27.707 93.359 26.111 93.443 23.78 93.464V89.663ZM31.319 87.71H28.883V89.495H31.319V98.714H33.356V81.053H31.319V87.71ZM35.183 80.633V99.596H37.262V80.633H35.183ZM42.7624 84.224H47.3614V93.17H42.7624V84.224ZM40.6204 94.892H49.5034V82.502H40.6204V94.892ZM57.6094 88.067H54.6484V80.654H52.4854V99.638H54.6484V89.852H57.6094V88.067ZM65.8607 84.329H70.0817V82.544H59.4557V84.329H63.6767V86.135C63.6767 89.39 61.7237 92.918 58.7837 94.283L60.0227 96.005C62.2487 94.934 63.9497 92.687 64.7897 90.041C65.6717 92.498 67.3727 94.556 69.5777 95.522L70.7747 93.821C67.8137 92.561 65.8607 89.285 65.8607 86.135V84.329ZM72.2867 80.654V99.617H74.4707V80.654H72.2867ZM87.4051 95.564V91.091H93.0121V89.348H82.0291V83.825H92.8441V82.082H79.8661V91.091H85.2421V95.564H77.7661V97.349H94.9441V95.564H87.4051ZM112.112 89.663C109.214 88.697 107.618 86.366 107.618 83.972V83.636H111.587V81.872H101.402V83.636H105.434V83.972C105.434 86.576 103.775 88.991 100.772 89.999L101.906 91.7C104.132 90.923 105.707 89.369 106.547 87.374C107.366 89.18 108.878 90.629 110.999 91.322L112.112 89.663ZM103.292 94.745H113.603V99.617H115.766V93.002H103.292V94.745ZM118.454 85.484H115.766V80.633H113.603V92.078H115.766V87.269H118.454V85.484ZM133.405 91.826H135.568V80.633H133.405V84.434H129.562V86.198H133.405V91.826ZM131.116 89.369C128.239 88.424 126.664 86.051 126.664 83.426V81.662H124.48V83.531C124.48 86.303 122.821 88.865 119.776 89.894L120.91 91.637C123.199 90.818 124.795 89.159 125.635 87.059C126.454 88.907 127.924 90.335 129.961 91.07L131.116 89.369ZM129.247 97.916C126.559 97.916 125.026 97.223 125.026 95.984C125.026 94.745 126.559 94.052 129.247 94.052C131.935 94.052 133.489 94.745 133.489 95.984C133.489 97.223 131.935 97.916 129.247 97.916ZM129.247 92.351C125.299 92.351 122.863 93.695 122.863 95.984C122.863 98.273 125.299 99.617 129.247 99.617C133.216 99.617 135.652 98.273 135.652 95.984C135.652 93.695 133.216 92.351 129.247 92.351ZM152.177 80.633V99.659H154.361V80.633H152.177ZM144.26 82.04C141.446 82.04 139.388 84.644 139.388 88.718C139.388 92.834 141.446 95.417 144.26 95.417C147.095 95.417 149.153 92.834 149.153 88.718C149.153 84.644 147.095 82.04 144.26 82.04ZM144.26 83.993C145.919 83.993 147.074 85.778 147.074 88.718C147.074 91.7 145.919 93.485 144.26 93.485C142.622 93.485 141.467 91.7 141.467 88.718C141.467 85.778 142.622 83.993 144.26 83.993ZM164.956 85.253C164.956 83.951 166.069 83.111 167.644 83.111C169.24 83.111 170.311 83.951 170.311 85.253C170.311 86.576 169.24 87.416 167.644 87.416C166.069 87.416 164.956 86.576 164.956 85.253ZM173.524 90.146C172.012 90.377 170.374 90.503 168.757 90.608V88.97C170.899 88.613 172.327 87.185 172.327 85.253C172.327 83.006 170.395 81.473 167.644 81.473C164.893 81.473 162.94 83.006 162.94 85.253C162.94 87.206 164.41 88.634 166.594 88.97V90.692C164.893 90.755 163.276 90.755 161.911 90.755L162.184 92.519C165.355 92.519 169.765 92.456 173.671 91.721L173.524 90.146ZM166.699 93.926H164.536V99.239H177.451V97.496H166.699V93.926ZM176.8 86.87V80.675H174.637V95.165H176.8V88.655H179.404V86.87H176.8ZM187.592 92.33H191.477V95.606H187.592V92.33ZM193.619 95.606V92.33H196.412V90.587H185.051V87.962H195.992V81.977H182.888V83.72H193.85V86.24H182.93V92.33H185.45V95.606H180.851V97.391H198.029V95.606H193.619ZM207.079 90.356H210.943V88.613H203.32V84.14H210.859V82.376H201.157V90.356H204.916V93.863C203.131 93.905 201.409 93.926 199.834 93.926L200.107 95.711C203.677 95.732 208.087 95.669 212.182 95.018L212.014 93.422C210.439 93.611 208.759 93.716 207.079 93.779V90.356ZM213.169 80.612V99.659H215.353V80.612H213.169ZM223.856 83.468C225.494 83.468 226.691 84.56 226.691 86.177C226.691 87.773 225.494 88.865 223.856 88.865C222.197 88.865 220.979 87.773 220.979 86.177C220.979 84.56 222.197 83.468 223.856 83.468ZM232.193 87.038V91.385H234.356V80.654H232.193V85.253H228.665C228.224 83.111 226.313 81.683 223.856 81.683C221.021 81.683 218.921 83.531 218.921 86.177C218.921 88.802 221.021 90.65 223.856 90.65C226.334 90.65 228.266 89.18 228.665 87.038H232.193ZM232.424 92.12H230.303V93.044C230.303 94.493 229.547 96.299 227.846 97.454C226.187 96.404 225.452 94.682 225.452 93.044V92.12H223.352V93.044C223.352 94.913 222.092 96.929 219.656 97.79L220.727 99.386C222.47 98.714 223.709 97.496 224.381 96.005C224.969 97.538 226.103 98.861 227.867 99.554C229.61 98.819 230.723 97.454 231.332 95.942C231.983 97.475 233.222 98.735 235.049 99.386L236.12 97.79C233.642 96.992 232.424 95.039 232.424 93.044V92.12ZM242.65 93.485C241.033 93.485 239.92 91.721 239.92 88.718C239.92 85.778 241.033 83.993 242.65 83.993C244.288 83.993 245.401 85.778 245.401 88.718C245.401 91.721 244.288 93.485 242.65 93.485ZM251.113 80.633V87.71H247.417C247.123 84.224 245.191 82.04 242.65 82.04C239.857 82.04 237.862 84.644 237.862 88.718C237.862 92.834 239.857 95.417 242.65 95.417C245.254 95.417 247.186 93.149 247.438 89.474H251.113V99.659H253.297V80.633H251.113ZM262.619 91.406C263.354 91.574 264.173 91.658 265.013 91.658C265.853 91.658 266.672 91.574 267.407 91.385V95.522H262.619V91.406ZM265.013 83.447C267.869 83.447 269.864 84.707 269.864 86.702C269.864 88.718 267.869 89.978 265.013 89.978C262.136 89.978 260.141 88.718 260.141 86.702C260.141 84.707 262.136 83.447 265.013 83.447ZM269.57 95.522V90.587C271.082 89.726 271.985 88.382 271.985 86.702C271.985 83.678 269.045 81.746 265.013 81.746C260.96 81.746 258.041 83.678 258.041 86.702C258.041 88.382 258.944 89.747 260.456 90.587V95.522H256.445V97.286H273.623V95.522H269.57ZM277.065 93.065H278.682L279.018 84.665L279.102 82.187H276.666L276.729 84.665L277.065 93.065ZM277.863 98.273C278.787 98.273 279.501 97.58 279.501 96.593C279.501 95.606 278.787 94.871 277.863 94.871C276.96 94.871 276.267 95.606 276.267 96.593C276.267 97.58 276.96 98.273 277.863 98.273Z" fill="#333333"/>
<path d="M22.73 119.33C21.575 120.005 20.945 120.965 20.945 122.3C20.945 123.26 21.335 123.8 21.995 123.8C22.52 123.8 22.88 123.47 22.88 122.885C22.88 122.345 22.46 122.045 21.995 122.045C21.935 122.045 21.89 122.045 21.845 122.06C21.86 121.1 22.295 120.53 23.12 119.975L22.73 119.33ZM33.4748 119.045V126.275H35.4098V123.395H37.1498V121.73H35.4098V119.045H33.4748ZM32.0198 123.98H27.5048C27.3698 123.98 27.3098 123.965 27.2348 123.89L26.9198 123.545C26.8448 123.455 26.8148 123.41 26.8148 123.245V120.845H31.4948V119.21H25.4048C25.0448 119.21 24.8648 119.405 24.8648 119.78V123.425C24.8648 124.01 24.9698 124.265 25.2848 124.61L25.8248 125.165C26.1398 125.51 26.4098 125.63 27.0248 125.63H32.0198V123.98ZM28.8398 126.755C26.4098 126.755 25.2998 127.835 25.2998 129.44C25.2998 131.03 26.3948 132.155 28.8398 132.155H32.2148C34.6448 132.155 35.7548 131.03 35.7548 129.44C35.7548 127.835 34.6448 126.755 32.2148 126.755H28.8398ZM28.6898 130.505C27.6098 130.505 27.2048 130.07 27.2048 129.44C27.2048 128.81 27.6098 128.39 28.6898 128.39H32.3798C33.4598 128.39 33.8648 128.81 33.8648 129.44C33.8648 130.07 33.4598 130.505 32.3798 130.505H28.6898ZM42.1921 126.935C39.7621 126.935 38.6521 128.015 38.6521 129.53C38.6521 131.045 39.7471 132.155 42.1921 132.155H45.5671C47.9971 132.155 49.1071 131.045 49.1071 129.53C49.1071 128.015 47.9971 126.935 45.5671 126.935H42.1921ZM45.4621 120.845V119.21H38.0371V120.845H40.7371V121.535C40.7371 122.045 40.6771 122.315 40.3621 122.63C39.6721 123.32 38.5921 124.22 37.6771 124.895L38.7271 126.185C39.6271 125.51 40.9021 124.505 41.5321 123.845C41.6371 123.74 41.7271 123.62 41.7721 123.47C41.8171 123.62 41.9371 123.74 42.0421 123.845C42.6871 124.49 43.8571 125.405 44.8021 126.065L45.7921 124.76C44.9071 124.16 43.7971 123.29 43.1371 122.645C42.8221 122.36 42.7771 122.045 42.7771 121.535V120.845H45.4621ZM46.8271 119.045V126.455H48.7621V123.515H50.5021V121.85H48.7621V119.045H46.8271ZM42.0421 130.505C40.9621 130.505 40.5571 130.1 40.5571 129.53C40.5571 128.96 40.9621 128.57 42.0421 128.57H45.7321C46.8121 128.57 47.2171 128.96 47.2171 129.53C47.2171 130.1 46.8121 130.505 45.7321 130.505H42.0421ZM61.9645 126.755C62.3245 126.755 62.5195 126.545 62.5195 126.17V119.93C62.5195 119.57 62.3245 119.375 61.9645 119.375H52.5445C52.1845 119.375 51.9895 119.57 51.9895 119.93V124.19C51.9895 124.835 52.0795 125.045 52.4845 125.465L53.1595 126.185C53.6095 126.65 53.8195 126.755 54.3745 126.755H56.3545V129.86H51.5395V131.54H63.0745V129.86H58.2895V126.755H61.9645ZM54.9145 125.045C54.7495 125.045 54.7045 125 54.5845 124.895L54.0895 124.385C53.9695 124.25 53.9395 124.145 53.9395 123.965V121.055H60.5845V125.045H54.9145ZM73.5318 119.045V131.9H75.4668V125.54H77.2068V123.86H75.4668V119.045H73.5318ZM68.2968 119.015C66.0918 119.015 64.9218 120.53 64.9218 122.81V127.19C64.9218 129.455 66.0768 130.955 68.2968 130.955C70.5018 130.955 71.6868 129.455 71.6868 127.19V122.81C71.6868 120.53 70.5018 119.015 68.2968 119.015ZM69.7818 127.19C69.7818 128.66 69.1368 129.29 68.2968 129.29C67.4418 129.29 66.8418 128.66 66.8418 127.19V122.81C66.8418 121.34 67.4568 120.71 68.2968 120.71C69.1368 120.71 69.7818 121.34 69.7818 122.81V127.19ZM78.9342 123.755H79.7742L80.0442 120.98L80.0742 119.435H78.6342L78.6642 120.98L78.9342 123.755ZM84.999 128.015C83.919 128.015 83.244 126.65 83.244 124.445C83.244 122.285 83.919 120.92 84.999 120.92C86.049 120.92 86.739 122.285 86.739 124.445C86.739 126.65 86.049 128.015 84.999 128.015ZM89.544 123.89H87.849C87.699 121.355 86.619 119.78 84.999 119.78C83.244 119.78 82.119 121.58 82.119 124.445C82.119 127.355 83.244 129.155 84.999 129.155C86.649 129.155 87.744 127.535 87.849 124.895H89.544V131.45H90.714V118.955H89.544V123.89ZM92.214 118.655V132.11H93.384V118.655H92.214ZM100.163 119.81H98.9328V122.225C98.9328 124.715 97.4028 127.31 95.4528 128.285L96.2028 129.26C97.7178 128.45 98.9628 126.755 99.5478 124.76C100.163 126.65 101.393 128.255 102.923 129.02L103.643 128.045C101.693 127.115 100.163 124.67 100.163 122.225V119.81ZM105.308 118.655V123.215H102.188V124.22H105.308V132.125H106.538V118.655H105.308ZM121.786 118.655V132.14H123.016V118.655H121.786ZM115.921 119.69C113.926 119.69 112.501 121.52 112.501 124.385C112.501 127.25 113.926 129.08 115.921 129.08C117.916 129.08 119.341 127.25 119.341 124.385C119.341 121.52 117.916 119.69 115.921 119.69ZM115.921 120.8C117.226 120.8 118.156 122.21 118.156 124.385C118.156 126.575 117.226 127.985 115.921 127.985C114.601 127.985 113.671 126.575 113.671 124.385C113.671 122.21 114.601 120.8 115.921 120.8ZM131.58 119.795C133.725 119.795 135.045 120.365 135.045 121.31C135.045 122.27 133.725 122.825 131.58 122.825C129.435 122.825 128.115 122.27 128.115 121.31C128.115 120.365 129.435 119.795 131.58 119.795ZM131.58 123.785C134.505 123.785 136.305 122.885 136.305 121.31C136.305 119.75 134.505 118.85 131.58 118.85C128.655 118.85 126.855 119.75 126.855 121.31C126.855 122.885 128.655 123.785 131.58 123.785ZM132.21 127.91H130.935V128.33C130.935 129.77 128.82 130.865 126.39 131.12L126.795 132.065C128.895 131.825 130.77 131 131.58 129.74C132.36 131.015 134.235 131.81 136.335 132.065L136.74 131.12C134.28 130.88 132.21 129.8 132.21 128.33V127.91ZM125.505 124.805V125.81H130.965V127.295H132.18V125.81H137.7V124.805H125.505ZM149.729 122.195H141.854V120.095H149.594V119.105H140.624V123.185H149.729V122.195ZM141.704 129.605H149.609V126.44H140.459V127.4H148.394V128.69H140.504V131.945H150.014V130.985H141.704V129.605ZM139.004 124.265V125.27H151.184V124.265H139.004ZM156.868 119.645C154.783 119.645 153.268 120.92 153.268 122.81C153.268 124.685 154.783 125.975 156.868 125.975C158.968 125.975 160.468 124.685 160.468 122.81C160.468 120.92 158.968 119.645 156.868 119.645ZM156.868 120.695C158.263 120.695 159.268 121.55 159.268 122.81C159.268 124.055 158.263 124.925 156.868 124.925C155.473 124.925 154.468 124.055 154.468 122.81C154.468 121.55 155.473 120.695 156.868 120.695ZM162.238 118.655V132.14H163.468V118.655H162.238ZM152.743 129.185C155.173 129.185 158.428 129.17 161.458 128.6L161.353 127.685C158.413 128.135 155.038 128.15 152.593 128.15L152.743 129.185ZM173.856 121.055H177.021V120.035H169.506V121.055H172.626V122.765C172.626 125.09 170.991 127.625 169.056 128.54L169.776 129.53C171.306 128.75 172.626 127.055 173.241 125.09C173.886 126.935 175.206 128.48 176.766 129.2L177.456 128.21C175.476 127.37 173.856 125.045 173.856 122.765V121.055ZM178.836 118.67V132.11H180.066V118.67H178.836ZM189.26 129.395V125.945H193.355V124.955H185.33V120.74H193.22V119.735H184.1V125.945H188.015V129.395H182.54V130.415H194.765V129.395H189.26ZM202.759 129.395V125.945H206.854V124.955H198.829V120.74H206.719V119.735H197.599V125.945H201.514V129.395H196.039V130.415H208.264V129.395H202.759ZM224.787 125.315H222.792C223.167 123.38 223.167 121.955 223.167 120.695V119.525H214.137V120.515H221.967V120.695C221.967 121.955 221.967 123.38 221.547 125.315H212.622V126.32H218.052V132.125H219.297V126.32H224.787V125.315ZM235.946 122.135V123.935H232.421V124.94H235.946V126.71H237.191V118.67H235.946V121.13H232.901C232.991 120.665 233.051 120.17 233.051 119.675H226.976V120.665H231.716C231.491 122.99 229.496 124.775 226.286 125.735L226.781 126.71C229.676 125.87 231.716 124.295 232.586 122.135H235.946ZM232.796 131.09C230.816 131.09 229.556 130.475 229.556 129.455C229.556 128.45 230.816 127.835 232.796 127.835C234.776 127.835 236.036 128.45 236.036 129.455C236.036 130.475 234.776 131.09 232.796 131.09ZM232.796 126.86C230.081 126.86 228.341 127.835 228.341 129.455C228.341 131.075 230.081 132.05 232.796 132.05C235.511 132.05 237.251 131.075 237.251 129.455C237.251 127.835 235.511 126.86 232.796 126.86ZM243.55 128.09C242.335 128.09 241.45 127.22 241.45 126.02C241.45 124.805 242.335 123.935 243.55 123.935C244.78 123.935 245.665 124.805 245.665 126.02C245.665 127.22 244.78 128.09 243.55 128.09ZM243.55 122.915C241.66 122.915 240.295 124.205 240.295 126.02C240.295 127.85 241.66 129.11 243.55 129.11C245.47 129.11 246.835 127.85 246.835 126.02C246.835 124.205 245.47 122.915 243.55 122.915ZM244.15 118.82H242.92V120.815H239.53V121.805H247.465V120.815H244.15V118.82ZM252.175 124.19H249.97V118.67H248.74V132.11H249.97V125.225H252.175V124.19ZM257.873 119.825H256.658V122.24C256.658 124.79 255.023 127.37 253.043 128.315L253.793 129.32C255.368 128.51 256.658 126.83 257.273 124.805C257.918 126.725 259.208 128.315 260.738 129.065L261.473 128.075C259.478 127.175 257.873 124.7 257.873 122.24V119.825ZM262.883 118.655V132.14H264.113V118.655H262.883ZM277.957 118.67H276.772V126.425H277.957V118.67ZM274.102 123.47V126.215H275.257V118.955H274.102V122.48H271.972C272.332 121.625 272.512 120.68 272.512 119.66H267.307V120.65H271.252C271.012 122.915 269.467 124.685 266.722 125.78L267.367 126.695C269.197 125.9 270.592 124.82 271.462 123.47H274.102ZM276.247 126.89H275.047V127.76C275.047 128.795 274.417 130.175 273.142 130.97C271.897 130.235 271.282 128.975 271.282 127.76V126.89H270.097V127.76C270.097 129.08 269.077 130.535 267.382 131.15L267.997 132.05C269.272 131.57 270.187 130.625 270.682 129.545C271.072 130.67 271.867 131.66 273.157 132.17C274.417 131.645 275.227 130.595 275.632 129.5C276.082 130.64 277.012 131.585 278.347 132.05L278.947 131.15C277.252 130.565 276.247 129.155 276.247 127.76V126.89ZM283.701 127.985C282.411 127.985 281.511 126.575 281.511 124.385C281.511 122.21 282.411 120.8 283.701 120.8C284.976 120.8 285.876 122.21 285.876 124.385C285.876 126.575 284.976 127.985 283.701 127.985ZM289.956 118.655V123.785H287.031C286.836 121.265 285.516 119.69 283.701 119.69C281.736 119.69 280.341 121.52 280.341 124.385C280.341 127.25 281.736 129.08 283.701 129.08C285.576 129.08 286.911 127.43 287.031 124.79H289.956V132.14H291.186V118.655H289.956ZM297.815 126.2C298.37 126.335 299.015 126.41 299.675 126.41C300.35 126.41 300.995 126.335 301.565 126.2V129.365H297.815V126.2ZM299.675 120.47C301.835 120.47 303.395 121.46 303.395 122.96C303.395 124.46 301.835 125.45 299.675 125.45C297.515 125.45 295.97 124.46 295.97 122.96C295.97 121.46 297.515 120.47 299.675 120.47ZM302.795 129.365V125.72C303.905 125.135 304.565 124.175 304.565 122.96C304.565 120.86 302.54 119.51 299.675 119.51C296.825 119.51 294.785 120.86 294.785 122.96C294.785 124.175 295.46 125.15 296.585 125.735V129.365H293.585V130.385H305.81V129.365H302.795ZM308.974 127.685H310.189C309.919 125.33 312.619 124.445 312.619 122.24C312.619 120.605 311.509 119.57 309.814 119.57C308.599 119.57 307.639 120.155 306.949 120.95L307.729 121.67C308.254 121.07 308.914 120.71 309.664 120.71C310.729 120.71 311.284 121.43 311.284 122.33C311.284 124.115 308.629 125.075 308.974 127.685ZM309.619 131.195C310.174 131.195 310.624 130.775 310.624 130.16C310.624 129.545 310.174 129.095 309.619 129.095C309.079 129.095 308.629 129.545 308.629 130.16C308.629 130.775 309.079 131.195 309.619 131.195ZM23.165 147.065C23.165 145.52 24.74 144.515 26.885 144.515C29.03 144.515 30.59 145.52 30.59 147.065C30.59 148.61 29.03 149.615 26.885 149.615C24.74 149.615 23.165 148.61 23.165 147.065ZM27.5 153.365V150.56C30.005 150.38 31.76 149.045 31.76 147.065C31.76 144.92 29.72 143.54 26.885 143.54C24.035 143.54 21.98 144.92 21.98 147.065C21.98 149.045 23.75 150.38 26.255 150.56V153.365H20.78V154.385H33.005V153.365H27.5ZM42.0338 147.395H38.6888V144.335H42.0338V147.395ZM37.4588 147.395H35.4638V148.385H45.2438V147.395H43.2638V144.335H45.2888V143.345H35.4188V144.335H37.4588V147.395ZM37.0838 152.075H35.8538V155.81H45.1088V154.805H37.0838V152.075ZM34.2788 149.84V150.83H46.4438V149.84H34.2788ZM52.8477 149.465H55.7427V148.46H50.0877V144.935H55.6827V143.915H48.8727V149.465H51.6177V152.135C50.3127 152.18 49.0377 152.18 47.8827 152.18L48.0327 153.215C50.5827 153.215 53.8077 153.155 56.7477 152.705L56.6427 151.805C55.4427 151.955 54.1377 152.03 52.8477 152.09V149.465ZM57.5277 142.64V156.14H58.7577V142.64H57.5277ZM66.8415 149.135H63.1215V144.815H66.8415V149.135ZM71.1315 146.03V147.905H68.0415V146.03H71.1315ZM68.0415 148.91H71.1315V152.48H72.3765V142.67H71.1315V145.025H68.0415V143.84H61.9065V150.11H68.0415V148.91ZM64.9515 154.805V151.61H63.7215V155.81H72.6915V154.805H64.9515ZM79.2998 146.12C79.2998 144.965 80.2598 144.125 81.5648 144.125C82.8848 144.125 83.8448 144.965 83.8448 146.12C83.8448 147.305 82.8848 148.13 81.5648 148.13C80.2598 148.13 79.2998 147.305 79.2998 146.12ZM85.0448 146.12C85.0448 144.365 83.5898 143.135 81.5648 143.135C79.5548 143.135 78.0998 144.365 78.0998 146.12C78.0998 147.905 79.5548 149.135 81.5648 149.135C83.5898 149.135 85.0448 147.905 85.0448 146.12ZM80.9798 153.44H88.2848V150.14H79.7348V151.115H87.0698V152.525H79.7798V155.93H88.7798V154.94H80.9798V153.44ZM88.2848 145.55V142.655H87.0548V149.51H88.2848V146.57H90.2798V145.55H88.2848ZM99.5186 148.565C97.3886 148.91 95.6336 148.985 93.2486 148.985V147.125H98.1236V143.465H92.0036V144.47H96.9086V146.18H92.0486V149.99H93.1286C95.6186 149.99 97.4486 149.915 99.6536 149.555L99.5186 148.565ZM94.8836 152.36H101.184V154.94H94.8836V152.36ZM93.6836 155.93H102.384V151.385H93.6836V155.93ZM101.154 142.67V150.635H102.384V142.67H101.154ZM110.917 143.81C113.122 143.81 114.382 144.32 114.382 145.22C114.382 146.12 113.122 146.63 110.917 146.63C108.712 146.63 107.452 146.12 107.452 145.22C107.452 144.32 108.712 143.81 110.917 143.81ZM110.917 147.545C113.872 147.545 115.642 146.735 115.642 145.22C115.642 143.705 113.872 142.88 110.917 142.88C107.962 142.88 106.192 143.705 106.192 145.22C106.192 146.735 107.962 147.545 110.917 147.545ZM107.542 153.635H115.447V150.605H106.297V151.535H114.232V152.735H106.342V155.96H115.852V155H107.542V153.635ZM104.827 148.46V149.45H117.007V148.46H104.827ZM124.051 147.02H130.921V149.495H124.051V147.02ZM128.101 153.38V150.485H132.121V143.615H130.921V146.015H124.051V143.615H122.836V150.485H126.856V153.38H121.396V154.385H133.591V153.38H128.101ZM136.785 144.29H135.555V152.615H136.41C137.865 152.615 139.41 152.54 141.225 152.195L141.105 151.13C139.5 151.445 138.075 151.535 136.785 151.55V144.29ZM145.125 142.655V148.13H143.22V142.955H142.065V155.42H143.22V149.15H145.125V156.095H146.31V142.655H145.125ZM159.178 149.105H151.153V144.905H159.043V143.885H149.938V150.11H159.178V149.105ZM148.378 153.275V154.295H160.588V153.275H148.378ZM172.932 142.67H171.702V149.72H172.932V142.67ZM170.067 147.845C168.012 148.19 166.317 148.25 163.782 148.25V146.63H168.702V143.285H162.537V144.245H167.487V145.715H162.567V149.21H163.647C166.317 149.21 168.057 149.15 170.187 148.805L170.067 147.845ZM165.492 155V153.515H172.932V150.35H164.217V151.295H171.687V152.6H164.247V155.96H173.382V155H165.492ZM182.846 148.16H180.521C180.971 146.96 181.166 145.685 181.166 144.365H175.976V145.37H179.951C179.726 148.19 178.286 150.605 175.406 152.33L176.126 153.215C177.986 152.105 179.276 150.71 180.086 149.15H182.846V155.435H184.016V143.015H182.846V148.16ZM185.651 142.655V156.11H186.821V142.655H185.651ZM193.105 150.2C193.66 150.335 194.305 150.41 194.965 150.41C195.64 150.41 196.285 150.335 196.855 150.2V153.365H193.105V150.2ZM194.965 144.47C197.125 144.47 198.685 145.46 198.685 146.96C198.685 148.46 197.125 149.45 194.965 149.45C192.805 149.45 191.26 148.46 191.26 146.96C191.26 145.46 192.805 144.47 194.965 144.47ZM198.085 153.365V149.72C199.195 149.135 199.855 148.175 199.855 146.96C199.855 144.86 197.83 143.51 194.965 143.51C192.115 143.51 190.075 144.86 190.075 146.96C190.075 148.175 190.75 149.15 191.875 149.735V153.365H188.875V154.385H201.1V153.365H198.085ZM203.679 155.195C204.219 155.195 204.669 154.775 204.669 154.16C204.669 153.545 204.219 153.095 203.679 153.095C203.139 153.095 202.689 153.545 202.689 154.16C202.689 154.775 203.139 155.195 203.679 155.195Z" fill="#585858"/>
<rect x="113" y="250" width="134" height="134" rx="22.393" fill="white"/>
<rect x="113" y="250" width="134" height="134" rx="22.393" fill="url(#paint0_linear_880:36481)"/>
<g clip-path="url(#clip0_880:36481)">
<path d="M179.974 298.038L186.136 319.44L179.974 333.972C179.701 333.961 179.441 333.855 179.238 333.672L162.634 315.296L179.974 297.956" fill="#0DDCC3"/>
<path d="M204.511 297.955C204.501 293.172 203.093 288.497 200.462 284.504C197.83 280.511 194.089 277.374 189.698 275.479C185.307 273.584 180.458 273.013 175.747 273.836C171.036 274.66 166.669 276.842 163.182 280.115C159.694 283.388 157.24 287.608 156.119 292.257C154.998 296.906 155.26 301.782 156.873 306.284C158.486 310.786 161.38 314.719 165.198 317.598C169.016 320.478 173.593 322.179 178.365 322.493H179.319C179.405 322.493 179.49 322.51 179.57 322.542C179.649 322.575 179.721 322.624 179.782 322.684C179.842 322.745 179.891 322.817 179.924 322.897C179.957 322.976 179.973 323.061 179.973 323.147V334.053C180.248 334.052 180.512 333.944 180.71 333.753L197.341 315.377C199.633 313.095 201.448 310.379 202.679 307.387C203.911 304.396 204.533 301.189 204.511 297.955Z" fill="#FF7964"/>
<path d="M186.3 307.907L180.383 303.872C180.266 303.793 180.129 303.751 179.988 303.751C179.847 303.751 179.709 303.793 179.592 303.872L173.676 307.907C173.573 307.984 173.45 308.031 173.321 308.041C173.193 308.052 173.064 308.025 172.95 307.965C172.836 307.906 172.741 307.814 172.676 307.703C172.612 307.591 172.58 307.463 172.586 307.334V288.713C172.586 288.532 172.657 288.359 172.785 288.231C172.913 288.103 173.086 288.031 173.267 288.031H186.681C186.865 288.031 187.041 288.102 187.173 288.229C187.305 288.356 187.383 288.53 187.39 288.713V307.334C187.395 307.463 187.364 307.591 187.299 307.703C187.235 307.814 187.14 307.906 187.026 307.965C186.912 308.025 186.783 308.052 186.654 308.041C186.526 308.031 186.403 307.984 186.3 307.907Z" fill="white"/>
</g>
<g clip-path="url(#clip1_880:36481)">
<path d="M157.301 351.781C157.301 351.84 157.278 351.897 157.235 351.938C157.193 351.98 157.135 352.004 157.075 352.004H150.771C150.504 352.04 150.233 352.008 149.982 351.912C149.732 351.816 149.51 351.658 149.339 351.454L148.691 350.805C148.503 350.626 148.359 350.408 148.267 350.166C148.176 349.925 148.141 349.666 148.164 349.41V345.125C148.164 344.684 148.38 344.455 148.807 344.455H156.48C156.509 344.455 156.539 344.46 156.566 344.47C156.594 344.481 156.619 344.497 156.64 344.517C156.661 344.538 156.678 344.562 156.689 344.589C156.7 344.615 156.706 344.644 156.706 344.673V346.157C156.706 346.186 156.7 346.215 156.689 346.242C156.678 346.268 156.661 346.293 156.64 346.313C156.619 346.333 156.594 346.349 156.566 346.36C156.539 346.37 156.509 346.376 156.48 346.375H150.492V349.197C150.484 349.262 150.492 349.327 150.514 349.388C150.535 349.449 150.571 349.505 150.618 349.55L150.992 349.96C151.034 350.001 151.084 350.031 151.14 350.049C151.196 350.067 151.255 350.072 151.313 350.064H157.091C157.12 350.063 157.15 350.068 157.177 350.079C157.204 350.089 157.229 350.105 157.251 350.125C157.272 350.146 157.288 350.17 157.3 350.197C157.311 350.224 157.317 350.252 157.317 350.281L157.301 351.781ZM157.533 353.337C160.435 353.337 161.746 354.608 161.746 356.491C161.746 358.375 160.419 359.687 157.533 359.687H153.504C150.587 359.687 149.291 358.364 149.291 356.491C149.291 354.619 150.618 353.337 153.504 353.337H157.533ZM157.733 357.747C159.018 357.747 159.503 357.228 159.503 356.491C159.503 355.755 159.018 355.257 157.733 355.257H153.325C152.04 355.257 151.556 355.775 151.556 356.491C151.556 357.207 152.04 357.747 153.325 357.747H157.733ZM161.346 344.492V347.428H163.2C163.229 347.427 163.259 347.432 163.286 347.443C163.314 347.454 163.339 347.47 163.36 347.49C163.381 347.51 163.397 347.535 163.409 347.561C163.42 347.588 163.426 347.617 163.426 347.646V349.166C163.426 349.195 163.42 349.224 163.409 349.251C163.397 349.277 163.381 349.302 163.36 349.322C163.339 349.342 163.314 349.358 163.286 349.369C163.259 349.379 163.229 349.385 163.2 349.384H161.346V352.549C161.347 352.578 161.342 352.606 161.331 352.634C161.32 352.661 161.304 352.685 161.283 352.706C161.263 352.727 161.238 352.743 161.211 352.755C161.184 352.766 161.154 352.772 161.125 352.772H159.261C159.231 352.772 159.202 352.766 159.175 352.755C159.147 352.743 159.123 352.727 159.102 352.706C159.082 352.685 159.065 352.661 159.055 352.634C159.044 352.606 159.039 352.578 159.039 352.549V344.492C159.039 344.463 159.044 344.434 159.055 344.407C159.065 344.38 159.082 344.355 159.102 344.334C159.123 344.313 159.147 344.297 159.175 344.286C159.202 344.274 159.231 344.269 159.261 344.269H161.125C161.183 344.269 161.238 344.291 161.279 344.331C161.321 344.37 161.345 344.424 161.346 344.481V344.492Z" fill="#FF7964"/>
<path d="M170.02 346.375V347.189C169.983 347.424 170.002 347.665 170.077 347.891C170.152 348.118 170.281 348.323 170.452 348.491C171.383 349.35 172.377 350.139 173.428 350.852C173.453 350.868 173.474 350.89 173.49 350.914C173.506 350.939 173.517 350.967 173.522 350.996C173.527 351.025 173.526 351.055 173.518 351.084C173.511 351.112 173.498 351.139 173.48 351.163L172.569 352.346C172.535 352.391 172.483 352.422 172.426 352.43C172.369 352.439 172.311 352.426 172.264 352.393C171.163 351.64 170.121 350.808 169.146 349.902C169.003 349.784 168.891 349.632 168.82 349.461C168.766 349.63 168.668 349.783 168.535 349.902C167.542 350.845 166.486 351.722 165.375 352.527C165.353 352.545 165.327 352.558 165.3 352.566C165.272 352.573 165.243 352.576 165.215 352.572C165.186 352.569 165.159 352.56 165.134 352.546C165.109 352.532 165.087 352.513 165.07 352.491L164.101 351.319C164.082 351.296 164.068 351.269 164.059 351.241C164.051 351.212 164.048 351.182 164.052 351.153C164.055 351.123 164.065 351.095 164.079 351.069C164.094 351.043 164.114 351.02 164.138 351.002C165.199 350.224 166.209 349.381 167.161 348.476C167.329 348.309 167.457 348.106 167.535 347.883C167.612 347.66 167.637 347.423 167.608 347.189V346.375H164.606C164.548 346.375 164.491 346.352 164.45 346.311C164.408 346.27 164.385 346.214 164.385 346.157V344.673C164.385 344.615 164.408 344.56 164.45 344.519C164.491 344.478 164.548 344.455 164.606 344.455H173.033C173.062 344.454 173.092 344.459 173.119 344.47C173.146 344.481 173.171 344.497 173.193 344.517C173.214 344.537 173.23 344.561 173.242 344.588C173.253 344.615 173.259 344.644 173.259 344.673V346.157C173.259 346.186 173.253 346.214 173.242 346.241C173.23 346.268 173.214 346.292 173.193 346.313C173.171 346.333 173.146 346.349 173.119 346.359C173.092 346.37 173.062 346.375 173.033 346.375H170.02ZM173.349 353.539C176.251 353.539 177.562 354.805 177.562 356.59C177.562 358.374 176.235 359.702 173.349 359.702H169.32C166.402 359.702 165.107 358.395 165.107 356.59C165.107 354.784 166.434 353.539 169.32 353.539H173.349ZM173.549 357.736C174.839 357.736 175.318 357.259 175.318 356.59C175.318 355.92 174.839 355.459 173.549 355.459H169.146C167.856 355.459 167.371 355.92 167.371 356.59C167.371 357.259 167.856 357.736 169.146 357.736H173.549ZM177.167 344.481V347.557H179.015C179.075 347.557 179.133 347.581 179.176 347.623C179.218 347.665 179.242 347.721 179.242 347.78V349.295C179.242 349.324 179.236 349.353 179.225 349.38C179.213 349.407 179.196 349.431 179.175 349.451C179.154 349.472 179.129 349.488 179.102 349.498C179.074 349.509 179.045 349.514 179.015 349.513H177.167V352.751C177.167 352.78 177.161 352.809 177.15 352.836C177.138 352.863 177.122 352.888 177.101 352.908C177.08 352.929 177.055 352.945 177.027 352.957C177 352.968 176.97 352.974 176.94 352.974H175.076C175.047 352.974 175.017 352.968 174.99 352.957C174.963 352.945 174.938 352.929 174.918 352.908C174.897 352.887 174.881 352.863 174.87 352.835C174.859 352.808 174.854 352.78 174.855 352.751V344.481C174.854 344.452 174.859 344.423 174.87 344.396C174.881 344.369 174.897 344.344 174.918 344.323C174.938 344.303 174.963 344.286 174.99 344.275C175.017 344.264 175.047 344.258 175.076 344.258H176.94C177 344.258 177.058 344.281 177.101 344.323C177.143 344.365 177.167 344.422 177.167 344.481Z" fill="#FF7964"/>
<path d="M188.416 353.326V356.958H193.904C193.933 356.957 193.962 356.963 193.99 356.975C194.017 356.986 194.041 357.002 194.062 357.023C194.083 357.044 194.099 357.069 194.11 357.096C194.12 357.123 194.126 357.152 194.125 357.181V358.737C194.125 358.795 194.102 358.85 194.06 358.891C194.019 358.932 193.962 358.955 193.904 358.955H180.585C180.555 358.956 180.526 358.95 180.499 358.94C180.471 358.929 180.446 358.913 180.425 358.893C180.404 358.873 180.387 358.848 180.376 358.822C180.364 358.795 180.358 358.766 180.358 358.737V357.181C180.358 357.121 180.382 357.065 180.425 357.023C180.467 356.981 180.525 356.958 180.585 356.958H186.104V353.326H183.745C183.465 353.346 183.184 353.294 182.93 353.177C182.675 353.06 182.456 352.881 182.291 352.657L181.485 351.806C181.268 351.624 181.1 351.392 180.997 351.13C180.894 350.868 180.859 350.585 180.896 350.307V345.3C180.896 345.127 180.965 344.961 181.09 344.838C181.214 344.715 181.383 344.646 181.559 344.646H192.803C192.979 344.648 193.147 344.717 193.271 344.839C193.395 344.962 193.465 345.127 193.467 345.3V352.636C193.48 352.726 193.472 352.819 193.444 352.906C193.415 352.993 193.368 353.072 193.304 353.139C193.24 353.205 193.162 353.256 193.075 353.289C192.988 353.321 192.895 353.334 192.803 353.326H188.416ZM191.155 351.313V346.644H183.223V350.068C183.213 350.162 183.224 350.257 183.255 350.347C183.285 350.436 183.336 350.518 183.402 350.587L183.992 351.183C184.04 351.241 184.1 351.287 184.169 351.317C184.237 351.348 184.312 351.363 184.387 351.36L191.155 351.313Z" fill="#FF7964"/>
<path d="M204.284 348.688V353.835C204.284 356.501 202.873 358.265 200.239 358.265C197.606 358.265 196.21 356.501 196.21 353.835V348.688C196.21 346.006 197.606 344.227 200.239 344.227C202.873 344.227 204.284 346.006 204.284 348.688ZM202.014 348.688C202.014 346.961 201.24 346.219 200.239 346.219C199.239 346.219 198.501 346.961 198.501 348.688V353.835C198.501 355.567 199.218 356.304 200.239 356.304C201.261 356.304 202.014 355.567 202.014 353.835V348.688ZM208.797 344.481V349.913H210.651C210.68 349.913 210.709 349.918 210.736 349.929C210.763 349.94 210.787 349.956 210.807 349.976C210.828 349.997 210.844 350.021 210.855 350.047C210.867 350.073 210.872 350.102 210.872 350.13V351.687C210.872 351.715 210.867 351.744 210.855 351.77C210.844 351.797 210.828 351.821 210.807 351.841C210.787 351.861 210.763 351.877 210.736 351.888C210.709 351.899 210.68 351.905 210.651 351.905H208.797V359.168C208.798 359.197 208.793 359.226 208.782 359.253C208.771 359.28 208.755 359.305 208.734 359.325C208.714 359.346 208.689 359.363 208.662 359.374C208.635 359.385 208.606 359.391 208.576 359.391H206.712C206.682 359.391 206.653 359.385 206.626 359.374C206.599 359.363 206.574 359.346 206.553 359.325C206.533 359.305 206.517 359.28 206.506 359.253C206.495 359.226 206.49 359.197 206.491 359.168V344.496C206.49 344.467 206.495 344.438 206.506 344.411C206.517 344.384 206.533 344.36 206.553 344.339C206.574 344.318 206.599 344.302 206.626 344.29C206.653 344.279 206.682 344.273 206.712 344.273H208.576C208.633 344.273 208.688 344.295 208.729 344.333C208.77 344.372 208.795 344.425 208.797 344.481Z" fill="#FF7964"/>
</g>
<path d="M111.262 407H117.292V405.86H115.087V396.005H114.037C113.437 396.35 112.732 396.605 111.757 396.785V397.655H113.707V405.86H111.262V407ZM119.282 407H125.312V405.86H123.107V396.005H122.057C121.457 396.35 120.752 396.605 119.777 396.785V397.655H121.727V405.86H119.282V407ZM133.887 401.06V401.87H136.557V402.575H137.787V394.67H136.557V401.06H133.887ZM131.082 395.78C132.402 395.78 133.242 396.23 133.242 396.95C133.242 397.64 132.402 398.105 131.082 398.105C129.777 398.105 128.922 397.64 128.922 396.95C128.922 396.23 129.777 395.78 131.082 395.78ZM131.082 398.945C133.077 398.945 134.397 398.18 134.397 396.95C134.397 395.69 133.077 394.925 131.082 394.925C129.087 394.925 127.767 395.69 127.767 396.95C127.767 398.18 129.087 398.945 131.082 398.945ZM130.392 402.62H131.622V400.55C132.927 400.475 134.262 400.37 135.567 400.19L135.492 399.38C132.612 399.71 129.327 399.725 126.732 399.725L126.882 400.655C127.962 400.655 129.147 400.64 130.392 400.61V402.62ZM130.017 407.06V405.875H137.787V403.07H128.772V403.955H136.587V405.035H128.802V407.96H138.252V407.06H130.017ZM144.485 402.815C146.645 402.425 148.58 401.345 149.435 399.695C150.275 401.345 152.21 402.425 154.37 402.815L154.85 401.84C152.24 401.42 150.05 399.845 150.05 397.775H154.37V396.785H150.05V394.955H148.805V396.785H144.47V397.775H148.805C148.805 399.845 146.615 401.42 144.005 401.84L144.485 402.815ZM150.05 405.395V402.335H148.805V405.395H143.33V406.415H155.54V405.395H150.05ZM164.744 407.195C166.169 407.195 167.249 406.625 168.119 405.62L167.354 404.75C166.649 405.515 165.854 405.98 164.804 405.98C162.704 405.98 161.384 404.24 161.384 401.465C161.384 398.72 162.764 397.01 164.849 397.01C165.794 397.01 166.529 397.445 167.099 398.06L167.849 397.16C167.219 396.455 166.169 395.795 164.834 395.795C162.044 395.795 159.959 397.955 159.959 401.51C159.959 405.08 162.014 407.195 164.744 407.195ZM172.899 407.195C174.894 407.195 176.679 405.635 176.679 402.935C176.679 400.22 174.894 398.645 172.899 398.645C170.904 398.645 169.119 400.22 169.119 402.935C169.119 405.635 170.904 407.195 172.899 407.195ZM172.899 406.055C171.489 406.055 170.544 404.81 170.544 402.935C170.544 401.06 171.489 399.785 172.899 399.785C174.309 399.785 175.269 401.06 175.269 402.935C175.269 404.81 174.309 406.055 172.899 406.055ZM178.531 407H179.896V401.09C180.646 400.25 181.336 399.845 181.951 399.845C182.986 399.845 183.466 400.49 183.466 402.02V407H184.831V401.09C185.596 400.25 186.256 399.845 186.886 399.845C187.921 399.845 188.401 400.49 188.401 402.02V407H189.766V401.84C189.766 399.755 188.971 398.645 187.291 398.645C186.301 398.645 185.446 399.29 184.606 400.205C184.276 399.245 183.601 398.645 182.356 398.645C181.381 398.645 180.526 399.26 179.821 400.04H179.776L179.656 398.855H178.531V407ZM192.118 407H193.483V398.855H192.118V407ZM192.808 397.175C193.348 397.175 193.753 396.8 193.753 396.29C193.753 395.735 193.348 395.405 192.808 395.405C192.268 395.405 191.863 395.735 191.863 396.29C191.863 396.8 192.268 397.175 192.808 397.175ZM195.948 407H197.313V401.09C198.138 400.265 198.708 399.845 199.548 399.845C200.628 399.845 201.093 400.49 201.093 402.02V407H202.458V401.84C202.458 399.755 201.678 398.645 199.968 398.645C198.858 398.645 198.018 399.26 197.238 400.025H197.193L197.073 398.855H195.948V407ZM207.563 410.75C210.083 410.75 211.673 409.445 211.673 407.93C211.673 406.595 210.728 405.995 208.838 405.995H207.248C206.153 405.995 205.823 405.635 205.823 405.11C205.823 404.66 206.048 404.39 206.348 404.135C206.708 404.315 207.158 404.42 207.563 404.42C209.213 404.42 210.533 403.325 210.533 401.585C210.533 400.88 210.263 400.28 209.873 399.905H211.538V398.855H208.703C208.418 398.75 208.013 398.645 207.563 398.645C205.913 398.645 204.503 399.77 204.503 401.555C204.503 402.53 205.028 403.31 205.568 403.745V403.805C205.148 404.105 204.653 404.645 204.653 405.32C204.653 405.965 204.968 406.4 205.403 406.655V406.715C204.638 407.21 204.188 407.87 204.188 408.56C204.188 409.97 205.568 410.75 207.563 410.75ZM207.563 403.49C206.618 403.49 205.823 402.74 205.823 401.555C205.823 400.355 206.603 399.65 207.563 399.65C208.523 399.65 209.288 400.37 209.288 401.555C209.288 402.74 208.493 403.49 207.563 403.49ZM207.758 409.82C206.273 409.82 205.388 409.25 205.388 408.38C205.388 407.9 205.643 407.42 206.228 407C206.588 407.09 206.978 407.135 207.278 407.135H208.688C209.768 407.135 210.353 407.39 210.353 408.14C210.353 408.995 209.318 409.82 207.758 409.82ZM219.205 407.195C221.5 407.195 222.94 405.815 222.94 404.075C222.94 402.44 221.95 401.69 220.675 401.135L219.1 400.46C218.245 400.1 217.285 399.695 217.285 398.63C217.285 397.64 218.095 397.01 219.34 397.01C220.36 397.01 221.17 397.415 221.845 398.045L222.58 397.16C221.8 396.35 220.645 395.795 219.34 395.795C217.345 395.795 215.875 397.025 215.875 398.72C215.875 400.325 217.09 401.105 218.11 401.54L219.7 402.23C220.735 402.695 221.53 403.055 221.53 404.18C221.53 405.26 220.66 405.98 219.22 405.98C218.08 405.98 216.97 405.44 216.175 404.615L215.35 405.56C216.31 406.565 217.645 407.195 219.205 407.195ZM227.84 407.195C229.835 407.195 231.62 405.635 231.62 402.935C231.62 400.22 229.835 398.645 227.84 398.645C225.845 398.645 224.06 400.22 224.06 402.935C224.06 405.635 225.845 407.195 227.84 407.195ZM227.84 406.055C226.43 406.055 225.485 404.81 225.485 402.935C225.485 401.06 226.43 399.785 227.84 399.785C229.25 399.785 230.21 401.06 230.21 402.935C230.21 404.81 229.25 406.055 227.84 406.055ZM236.637 407.195C238.632 407.195 240.417 405.635 240.417 402.935C240.417 400.22 238.632 398.645 236.637 398.645C234.642 398.645 232.857 400.22 232.857 402.935C232.857 405.635 234.642 407.195 236.637 407.195ZM236.637 406.055C235.227 406.055 234.282 404.81 234.282 402.935C234.282 401.06 235.227 399.785 236.637 399.785C238.047 399.785 239.007 401.06 239.007 402.935C239.007 404.81 238.047 406.055 236.637 406.055ZM242.269 407H243.634V401.09C244.459 400.265 245.029 399.845 245.869 399.845C246.949 399.845 247.414 400.49 247.414 402.02V407H248.779V401.84C248.779 399.755 247.999 398.645 246.289 398.645C245.179 398.645 244.339 399.26 243.559 400.025H243.514L243.394 398.855H242.269V407Z" fill="#767676"/>
<defs>
<linearGradient id="paint0_linear_880:36481" x1="180" y1="239.341" x2="180" y2="400.242" gradientUnits="userSpaceOnUse">
<stop stop-color="white"/>
<stop offset="1" stop-color="#FAFAFA"/>
</linearGradient>
<clipPath id="clip0_880:36481">
<rect width="49.0757" height="60.5539" fill="white" transform="translate(155.436 273.418)"/>
</clipPath>
<clipPath id="clip1_880:36481">
<rect width="62.7078" height="15.4497" fill="white" transform="translate(148.165 344.227)"/>
</clipPath>
</defs>
</svg>
