<svg width="360" height="141" viewBox="0 0 360 141" fill="none" xmlns="http://www.w3.org/2000/svg">
<path d="M23.78 36.663H27.938V34.962H23.78V31.581H28.736V29.838H21.701V42.228H22.961C25.838 42.228 27.623 42.165 29.765 41.787L29.576 40.023C27.707 40.359 26.111 40.443 23.78 40.464V36.663ZM31.319 34.71H28.883V36.495H31.319V45.714H33.356V28.053H31.319V34.71ZM35.183 27.633V46.596H37.262V27.633H35.183ZM42.7624 31.224H47.3614V40.17H42.7624V31.224ZM40.6204 41.892H49.5034V29.502H40.6204V41.892ZM57.6094 35.067H54.6484V27.654H52.4854V46.638H54.6484V36.852H57.6094V35.067ZM71.7407 30.888H61.0517V35.151H74.2187V33.639H63.1727V32.295H73.8827V28.116H61.0097V29.607H71.7407V30.888ZM63.0257 43.467H73.9457V39.225H60.8417V40.716H71.8037V42.06H60.8837V46.407H74.5127V44.916H63.0257V43.467ZM58.8467 36.348V37.944H76.0457V36.348H58.8467ZM89.4759 36.495H84.8559V31.014H89.4759V36.495ZM91.5969 29.271H82.7139V38.238H91.5969V29.271ZM87.0399 40.191H84.8559V46.26H97.6239V44.496H87.0399V40.191ZM96.8679 33.282V27.633H94.7049V41.535H96.8679V35.067H99.5559V33.282H96.8679ZM116.102 32.274H105.308V29.901H115.913V28.158H103.166V34.017H116.102V32.274ZM105.161 43.152H115.955V38.448H102.977V40.107H113.834V41.577H103.019V46.428H116.501V44.748H105.161V43.152ZM100.982 35.319V37.062H118.139V35.319H100.982ZM125.068 30.468C126.706 30.468 127.903 31.56 127.903 33.177C127.903 34.773 126.706 35.865 125.068 35.865C123.409 35.865 122.191 34.773 122.191 33.177C122.191 31.56 123.409 30.468 125.068 30.468ZM133.405 34.038V38.385H135.568V27.654H133.405V32.253H129.877C129.436 30.111 127.525 28.683 125.068 28.683C122.233 28.683 120.133 30.531 120.133 33.177C120.133 35.802 122.233 37.65 125.068 37.65C127.546 37.65 129.478 36.18 129.877 34.038H133.405ZM133.636 39.12H131.515V40.044C131.515 41.493 130.759 43.299 129.058 44.454C127.399 43.404 126.664 41.682 126.664 40.044V39.12H124.564V40.044C124.564 41.913 123.304 43.929 120.868 44.79L121.939 46.386C123.682 45.714 124.921 44.496 125.593 43.005C126.181 44.538 127.315 45.861 129.079 46.554C130.822 45.819 131.935 44.454 132.544 42.942C133.195 44.475 134.434 45.735 136.261 46.386L137.332 44.79C134.875 43.992 133.636 42.039 133.636 40.044V39.12ZM143.861 40.485C142.244 40.485 141.131 38.721 141.131 35.718C141.131 32.778 142.244 30.993 143.861 30.993C145.499 30.993 146.612 32.778 146.612 35.718C146.612 38.721 145.499 40.485 143.861 40.485ZM152.324 27.633V34.71H148.628C148.334 31.224 146.402 29.04 143.861 29.04C141.068 29.04 139.073 31.644 139.073 35.718C139.073 39.834 141.068 42.417 143.861 42.417C146.465 42.417 148.397 40.149 148.649 36.474H152.324V46.659H154.508V27.633H152.324ZM163.83 38.406C164.565 38.574 165.384 38.658 166.224 38.658C167.064 38.658 167.883 38.574 168.618 38.385V42.522H163.83V38.406ZM166.224 30.447C169.08 30.447 171.075 31.707 171.075 33.702C171.075 35.718 169.08 36.978 166.224 36.978C163.347 36.978 161.352 35.718 161.352 33.702C161.352 31.707 163.347 30.447 166.224 30.447ZM170.781 42.522V37.587C172.293 36.726 173.196 35.382 173.196 33.702C173.196 30.678 170.256 28.746 166.224 28.746C162.171 28.746 159.252 30.678 159.252 33.702C159.252 35.382 160.155 36.747 161.667 37.587V42.522H157.656V44.286H174.834V42.522H170.781ZM178.277 40.065H179.894L180.23 31.665L180.314 29.166H177.878L177.941 31.665L178.277 40.065ZM179.075 45.273C179.999 45.273 180.713 44.58 180.713 43.593C180.713 42.585 179.999 41.871 179.075 41.871C178.172 41.871 177.479 42.585 177.479 43.593C177.479 44.58 178.172 45.273 179.075 45.273Z" fill="#333333"/>
<path d="M26.33 76.105H22.55V71.845H26.33V76.105ZM27.53 70.855H21.35V77.08H27.53V70.855ZM24.095 78.58H22.865V82.81H31.835V81.805H24.095V78.58ZM31.235 73.75V69.64H30.005V79.495H31.235V74.785H33.23V73.75H31.235ZM45.0638 73.975H37.0538V71.23H44.9438V70.225H35.8238V74.965H45.0638V73.975ZM37.0838 78.865H35.8538V82.795H45.1838V81.79H37.0838V78.865ZM34.2938 76.45V77.44H46.4588V76.45H34.2938ZM52.5271 75.88H55.7221V74.905H52.5271V72.265H56.3521V71.26H51.3421V79.87H52.2121C54.3271 79.87 55.5871 79.825 57.1171 79.525L57.0121 78.52C55.6021 78.805 54.4171 78.865 52.5271 78.865V75.88ZM58.3921 74.755H56.4421V75.76H58.3921V82.42H59.5471V69.985H58.3921V74.755ZM61.0921 69.64V83.095H62.2621V69.64H61.0921ZM66.086 71.995H69.851V78.7H66.086V71.995ZM64.886 79.69H71.051V71.005H64.886V79.69ZM76.916 75.025H74.696V69.67H73.466V83.11H74.696V76.06H76.916V75.025ZM88.6298 73.705H80.7098V70.15H79.4798V74.71H88.6298V73.705ZM80.6198 78.85H79.3898V82.78H88.7048V81.775H80.6198V78.85ZM77.8298 76.51V77.5H90.0248V76.51H77.8298ZM96.3331 70.33C95.1781 71.005 94.5481 71.965 94.5481 73.3C94.5481 74.26 94.9381 74.8 95.5981 74.8C96.1231 74.8 96.4831 74.47 96.4831 73.885C96.4831 73.345 96.0631 73.045 95.5981 73.045C95.5381 73.045 95.4931 73.045 95.4481 73.06C95.4631 72.1 95.8981 71.53 96.7231 70.975L96.3331 70.33ZM107.078 70.045V77.275H109.013V74.395H110.753V72.73H109.013V70.045H107.078ZM105.623 74.98H101.108C100.973 74.98 100.913 74.965 100.838 74.89L100.523 74.545C100.448 74.455 100.418 74.41 100.418 74.245V71.845H105.098V70.21H99.0079C98.6479 70.21 98.4679 70.405 98.4679 70.78V74.425C98.4679 75.01 98.5729 75.265 98.8879 75.61L99.4279 76.165C99.7429 76.51 100.013 76.63 100.628 76.63H105.623V74.98ZM102.443 77.755C100.013 77.755 98.9029 78.835 98.9029 80.44C98.9029 82.03 99.9979 83.155 102.443 83.155H105.818C108.248 83.155 109.358 82.03 109.358 80.44C109.358 78.835 108.248 77.755 105.818 77.755H102.443ZM102.293 81.505C101.213 81.505 100.808 81.07 100.808 80.44C100.808 79.81 101.213 79.39 102.293 79.39H105.983C107.063 79.39 107.468 79.81 107.468 80.44C107.468 81.07 107.063 81.505 105.983 81.505H102.293ZM115.795 77.935C113.365 77.935 112.255 79.015 112.255 80.53C112.255 82.045 113.35 83.155 115.795 83.155H119.17C121.6 83.155 122.71 82.045 122.71 80.53C122.71 79.015 121.6 77.935 119.17 77.935H115.795ZM119.065 71.845V70.21H111.64V71.845H114.34V72.535C114.34 73.045 114.28 73.315 113.965 73.63C113.275 74.32 112.195 75.22 111.28 75.895L112.33 77.185C113.23 76.51 114.505 75.505 115.135 74.845C115.24 74.74 115.33 74.62 115.375 74.47C115.42 74.62 115.54 74.74 115.645 74.845C116.29 75.49 117.46 76.405 118.405 77.065L119.395 75.76C118.51 75.16 117.4 74.29 116.74 73.645C116.425 73.36 116.38 73.045 116.38 72.535V71.845H119.065ZM120.43 70.045V77.455H122.365V74.515H124.105V72.85H122.365V70.045H120.43ZM115.645 81.505C114.565 81.505 114.16 81.1 114.16 80.53C114.16 79.96 114.565 79.57 115.645 79.57H119.335C120.415 79.57 120.82 79.96 120.82 80.53C120.82 81.1 120.415 81.505 119.335 81.505H115.645ZM135.568 77.755C135.928 77.755 136.123 77.545 136.123 77.17V70.93C136.123 70.57 135.928 70.375 135.568 70.375H126.148C125.788 70.375 125.593 70.57 125.593 70.93V75.19C125.593 75.835 125.683 76.045 126.088 76.465L126.763 77.185C127.213 77.65 127.423 77.755 127.978 77.755H129.958V80.86H125.143V82.54H136.678V80.86H131.893V77.755H135.568ZM128.518 76.045C128.353 76.045 128.308 76 128.188 75.895L127.693 75.385C127.573 75.25 127.543 75.145 127.543 74.965V72.055H134.188V76.045H128.518ZM147.135 70.045V82.9H149.07V76.54H150.81V74.86H149.07V70.045H147.135ZM141.9 70.015C139.695 70.015 138.525 71.53 138.525 73.81V78.19C138.525 80.455 139.68 81.955 141.9 81.955C144.105 81.955 145.29 80.455 145.29 78.19V73.81C145.29 71.53 144.105 70.015 141.9 70.015ZM143.385 78.19C143.385 79.66 142.74 80.29 141.9 80.29C141.045 80.29 140.445 79.66 140.445 78.19V73.81C140.445 72.34 141.06 71.71 141.9 71.71C142.74 71.71 143.385 72.34 143.385 73.81V78.19ZM151.832 74.02C153.362 73.765 153.947 72.595 153.947 71.605V70.06H151.922V71.92H152.732C152.732 72.64 152.327 73.18 151.592 73.36L151.832 74.02ZM158.426 79.015C157.346 79.015 156.671 77.65 156.671 75.445C156.671 73.285 157.346 71.92 158.426 71.92C159.476 71.92 160.166 73.285 160.166 75.445C160.166 77.65 159.476 79.015 158.426 79.015ZM162.971 74.89H161.276C161.126 72.355 160.046 70.78 158.426 70.78C156.671 70.78 155.546 72.58 155.546 75.445C155.546 78.355 156.671 80.155 158.426 80.155C160.076 80.155 161.171 78.535 161.276 75.895H162.971V82.45H164.141V69.955H162.971V74.89ZM165.641 69.655V83.11H166.811V69.655H165.641ZM173.59 70.81H172.36V73.225C172.36 75.715 170.83 78.31 168.88 79.285L169.63 80.26C171.145 79.45 172.39 77.755 172.975 75.76C173.59 77.65 174.82 79.255 176.35 80.02L177.07 79.045C175.12 78.115 173.59 75.67 173.59 73.225V70.81ZM178.735 69.655V74.215H175.615V75.22H178.735V83.125H179.965V69.655H178.735ZM193.428 70.885H190.188V69.565H188.958V70.885H185.703V71.815H193.428V70.885ZM187.593 74.305C187.593 73.6 188.358 73.165 189.573 73.165C190.758 73.165 191.538 73.6 191.538 74.305C191.538 75.01 190.758 75.46 189.573 75.46C188.358 75.46 187.593 75.01 187.593 74.305ZM193.833 76.885C192.663 77.065 191.418 77.155 190.188 77.215V76.285C191.733 76.12 192.708 75.4 192.708 74.305C192.708 73.075 191.448 72.31 189.573 72.31C187.668 72.31 186.423 73.075 186.423 74.305C186.423 75.415 187.398 76.135 188.958 76.285V77.26C187.668 77.305 186.438 77.305 185.373 77.305L185.508 78.295C187.863 78.28 191.043 78.28 193.923 77.77L193.833 76.885ZM187.008 80.335H194.628V83.11H195.858V79.36H187.008V80.335ZM197.838 73.735H195.858V69.67H194.628V78.685H195.858V74.755H197.838V73.735ZM209.972 69.67H208.742V79.495H209.972V69.67ZM200.447 73.9C200.447 72.595 201.437 71.665 202.742 71.665C204.077 71.665 205.067 72.595 205.067 73.9C205.067 75.235 204.077 76.165 202.742 76.165C201.437 76.165 200.447 75.235 200.447 73.9ZM206.267 73.9C206.267 71.965 204.752 70.6 202.742 70.6C200.747 70.6 199.247 71.965 199.247 73.9C199.247 75.85 200.747 77.23 202.742 77.23C204.752 77.23 206.267 75.85 206.267 73.9ZM202.547 81.805V78.49H201.317V82.81H210.377V81.805H202.547ZM220.411 70.885H217.051V69.52H215.821V70.885H212.476V71.83H220.411V70.885ZM214.396 74.635C214.396 73.825 215.191 73.345 216.436 73.345C217.681 73.345 218.491 73.825 218.491 74.635C218.491 75.445 217.681 75.925 216.436 75.925C215.191 75.925 214.396 75.445 214.396 74.635ZM219.661 74.635C219.661 73.27 218.386 72.43 216.436 72.43C214.501 72.43 213.226 73.27 213.226 74.635C213.226 76 214.501 76.84 216.436 76.84C218.386 76.84 219.661 76 219.661 74.635ZM215.566 80.725H222.871V77.74H214.321V78.655H221.656V79.825H214.366V82.96H223.366V82.015H215.566V80.725ZM222.871 72.85V69.61H221.641V77.05H222.871V73.87H224.866V72.85H222.871ZM240.564 74.785C238.119 74.425 235.719 72.76 235.719 70.885V70.135H234.429V70.885C234.429 72.805 232.059 74.425 229.614 74.785L230.109 75.775C232.209 75.415 234.234 74.26 235.074 72.625C235.944 74.245 237.969 75.415 240.054 75.775L240.564 74.785ZM241.149 77.23H228.999V78.25H234.429V83.125H235.659V78.25H241.164L241.149 77.23ZM256.578 69.67H255.348V77.35H256.578V69.67ZM249.348 71.47C250.683 71.47 251.673 72.355 251.673 73.585C251.673 74.83 250.683 75.7 249.348 75.7C248.013 75.7 247.053 74.83 247.053 73.585C247.053 72.355 248.013 71.47 249.348 71.47ZM249.348 76.72C251.388 76.72 252.873 75.445 252.873 73.585C252.873 71.725 251.388 70.45 249.348 70.45C247.323 70.45 245.853 71.725 245.853 73.585C245.853 75.445 247.323 76.72 249.348 76.72ZM255.078 77.935H253.878V78.655C253.878 79.705 253.233 81.055 251.943 81.85C250.698 81.115 250.083 79.84 250.083 78.655V77.935H248.898V78.655C248.898 79.945 247.893 81.4 246.198 82L246.813 82.93C248.073 82.45 248.988 81.52 249.468 80.44C249.873 81.565 250.683 82.54 251.973 83.05C253.218 82.51 254.043 81.49 254.463 80.395C254.913 81.52 255.843 82.45 257.163 82.93L257.778 82C256.068 81.43 255.078 80.05 255.078 78.655V77.935ZM262.637 78.985C261.347 78.985 260.447 77.575 260.447 75.385C260.447 73.21 261.347 71.8 262.637 71.8C263.912 71.8 264.812 73.21 264.812 75.385C264.812 77.575 263.912 78.985 262.637 78.985ZM268.892 69.655V74.785H265.967C265.772 72.265 264.452 70.69 262.637 70.69C260.672 70.69 259.277 72.52 259.277 75.385C259.277 78.25 260.672 80.08 262.637 80.08C264.512 80.08 265.847 78.43 265.967 75.79H268.892V83.14H270.122V69.655H268.892ZM276.75 77.2C277.305 77.335 277.95 77.41 278.61 77.41C279.285 77.41 279.93 77.335 280.5 77.2V80.365H276.75V77.2ZM278.61 71.47C280.77 71.47 282.33 72.46 282.33 73.96C282.33 75.46 280.77 76.45 278.61 76.45C276.45 76.45 274.905 75.46 274.905 73.96C274.905 72.46 276.45 71.47 278.61 71.47ZM281.73 80.365V76.72C282.84 76.135 283.5 75.175 283.5 73.96C283.5 71.86 281.475 70.51 278.61 70.51C275.76 70.51 273.72 71.86 273.72 73.96C273.72 75.175 274.395 76.15 275.52 76.735V80.365H272.52V81.385H284.745V80.365H281.73ZM287.189 78.685H288.134L288.314 72.325L288.359 70.765H286.964L287.009 72.325L287.189 78.685ZM287.654 82.195C288.209 82.195 288.644 81.775 288.644 81.16C288.644 80.545 288.209 80.095 287.654 80.095C287.114 80.095 286.664 80.545 286.664 81.16C286.664 81.775 287.114 82.195 287.654 82.195ZM22.73 94.33C21.575 95.005 20.945 95.965 20.945 97.3C20.945 98.26 21.335 98.8 21.995 98.8C22.52 98.8 22.88 98.47 22.88 97.885C22.88 97.345 22.46 97.045 21.995 97.045C21.935 97.045 21.89 97.045 21.845 97.06C21.86 96.1 22.295 95.53 23.12 94.975L22.73 94.33ZM33.4748 94.045V101.275H35.4098V98.395H37.1498V96.73H35.4098V94.045H33.4748ZM32.0198 98.98H27.5048C27.3698 98.98 27.3098 98.965 27.2348 98.89L26.9198 98.545C26.8448 98.455 26.8148 98.41 26.8148 98.245V95.845H31.4948V94.21H25.4048C25.0448 94.21 24.8648 94.405 24.8648 94.78V98.425C24.8648 99.01 24.9698 99.265 25.2848 99.61L25.8248 100.165C26.1398 100.51 26.4098 100.63 27.0248 100.63H32.0198V98.98ZM28.8398 101.755C26.4098 101.755 25.2998 102.835 25.2998 104.44C25.2998 106.03 26.3948 107.155 28.8398 107.155H32.2148C34.6448 107.155 35.7548 106.03 35.7548 104.44C35.7548 102.835 34.6448 101.755 32.2148 101.755H28.8398ZM28.6898 105.505C27.6098 105.505 27.2048 105.07 27.2048 104.44C27.2048 103.81 27.6098 103.39 28.6898 103.39H32.3798C33.4598 103.39 33.8648 103.81 33.8648 104.44C33.8648 105.07 33.4598 105.505 32.3798 105.505H28.6898ZM42.1921 101.935C39.7621 101.935 38.6521 103.015 38.6521 104.53C38.6521 106.045 39.7471 107.155 42.1921 107.155H45.5671C47.9971 107.155 49.1071 106.045 49.1071 104.53C49.1071 103.015 47.9971 101.935 45.5671 101.935H42.1921ZM45.4621 95.845V94.21H38.0371V95.845H40.7371V96.535C40.7371 97.045 40.6771 97.315 40.3621 97.63C39.6721 98.32 38.5921 99.22 37.6771 99.895L38.7271 101.185C39.6271 100.51 40.9021 99.505 41.5321 98.845C41.6371 98.74 41.7271 98.62 41.7721 98.47C41.8171 98.62 41.9371 98.74 42.0421 98.845C42.6871 99.49 43.8571 100.405 44.8021 101.065L45.7921 99.76C44.9071 99.16 43.7971 98.29 43.1371 97.645C42.8221 97.36 42.7771 97.045 42.7771 96.535V95.845H45.4621ZM46.8271 94.045V101.455H48.7621V98.515H50.5021V96.85H48.7621V94.045H46.8271ZM42.0421 105.505C40.9621 105.505 40.5571 105.1 40.5571 104.53C40.5571 103.96 40.9621 103.57 42.0421 103.57H45.7321C46.8121 103.57 47.2171 103.96 47.2171 104.53C47.2171 105.1 46.8121 105.505 45.7321 105.505H42.0421ZM61.9645 101.755C62.3245 101.755 62.5195 101.545 62.5195 101.17V94.93C62.5195 94.57 62.3245 94.375 61.9645 94.375H52.5445C52.1845 94.375 51.9895 94.57 51.9895 94.93V99.19C51.9895 99.835 52.0795 100.045 52.4845 100.465L53.1595 101.185C53.6095 101.65 53.8195 101.755 54.3745 101.755H56.3545V104.86H51.5395V106.54H63.0745V104.86H58.2895V101.755H61.9645ZM54.9145 100.045C54.7495 100.045 54.7045 100 54.5845 99.895L54.0895 99.385C53.9695 99.25 53.9395 99.145 53.9395 98.965V96.055H60.5845V100.045H54.9145ZM73.5318 94.045V106.9H75.4668V100.54H77.2068V98.86H75.4668V94.045H73.5318ZM68.2968 94.015C66.0918 94.015 64.9218 95.53 64.9218 97.81V102.19C64.9218 104.455 66.0768 105.955 68.2968 105.955C70.5018 105.955 71.6868 104.455 71.6868 102.19V97.81C71.6868 95.53 70.5018 94.015 68.2968 94.015ZM69.7818 102.19C69.7818 103.66 69.1368 104.29 68.2968 104.29C67.4418 104.29 66.8418 103.66 66.8418 102.19V97.81C66.8418 96.34 67.4568 95.71 68.2968 95.71C69.1368 95.71 69.7818 96.34 69.7818 97.81V102.19ZM78.2292 98.02C79.7592 97.765 80.3442 96.595 80.3442 95.605V94.06H78.3192V95.92H79.1292C79.1292 96.64 78.7242 97.18 77.9892 97.36L78.2292 98.02ZM84.8232 103.015C83.7432 103.015 83.0682 101.65 83.0682 99.445C83.0682 97.285 83.7432 95.92 84.8232 95.92C85.8732 95.92 86.5632 97.285 86.5632 99.445C86.5632 101.65 85.8732 103.015 84.8232 103.015ZM89.3682 98.89H87.6732C87.5232 96.355 86.4432 94.78 84.8232 94.78C83.0682 94.78 81.9432 96.58 81.9432 99.445C81.9432 102.355 83.0682 104.155 84.8232 104.155C86.4732 104.155 87.5682 102.535 87.6732 99.895H89.3682V106.45H90.5382V93.955H89.3682V98.89ZM92.0382 93.655V107.11H93.2082V93.655H92.0382ZM103.912 99.715H100.102V97.495H103.912V99.715ZM105.112 94.51H103.912V96.535H100.102V94.51H98.8865V100.705H105.112V94.51ZM104.497 106.135C102.487 106.135 101.287 105.565 101.287 104.605C101.287 103.645 102.487 103.09 104.497 103.09C106.477 103.09 107.692 103.645 107.692 104.605C107.692 105.565 106.477 106.135 104.497 106.135ZM104.497 102.1C101.752 102.1 100.057 103.015 100.057 104.605C100.057 106.195 101.752 107.11 104.497 107.11C107.227 107.11 108.922 106.195 108.922 104.605C108.922 103.015 107.227 102.1 104.497 102.1ZM108.772 97.045V93.655H107.542V101.755H108.772V98.065H110.767V97.045H108.772ZM121.22 98.02H114.59V95.275H121.22V98.02ZM122.435 94.285H113.39V99.01H122.435V94.285ZM114.59 102.97H113.36V106.81H122.66V105.805H114.59V102.97ZM111.8 100.54V101.53H117.395V104.245H118.625V101.53H124.025V100.54H111.8ZM128.659 102.97C127.609 102.97 126.874 102.115 126.874 100.915C126.874 99.745 127.609 98.89 128.659 98.89C129.694 98.89 130.444 99.745 130.444 100.915C130.444 102.115 129.694 102.97 128.659 102.97ZM128.659 97.855C126.994 97.855 125.779 99.115 125.779 100.915C125.779 102.745 126.994 103.99 128.659 103.99C130.324 103.99 131.539 102.745 131.539 100.915C131.539 99.115 130.324 97.855 128.659 97.855ZM129.259 94.045H128.044V95.95H125.314V96.955H131.989V95.95H129.259V94.045ZM135.544 93.64V99.325H133.819V93.955H132.664V106.45H133.819V100.33H135.544V107.095H136.729V93.64H135.544ZM151.663 93.655V107.14H152.893V93.655H151.663ZM145.798 94.69C143.803 94.69 142.378 96.52 142.378 99.385C142.378 102.25 143.803 104.08 145.798 104.08C147.793 104.08 149.218 102.25 149.218 99.385C149.218 96.52 147.793 94.69 145.798 94.69ZM145.798 95.8C147.103 95.8 148.033 97.21 148.033 99.385C148.033 101.575 147.103 102.985 145.798 102.985C144.478 102.985 143.548 101.575 143.548 99.385C143.548 97.21 144.478 95.8 145.798 95.8ZM161.456 94.795C163.601 94.795 164.921 95.365 164.921 96.31C164.921 97.27 163.601 97.825 161.456 97.825C159.311 97.825 157.991 97.27 157.991 96.31C157.991 95.365 159.311 94.795 161.456 94.795ZM161.456 98.785C164.381 98.785 166.181 97.885 166.181 96.31C166.181 94.75 164.381 93.85 161.456 93.85C158.531 93.85 156.731 94.75 156.731 96.31C156.731 97.885 158.531 98.785 161.456 98.785ZM162.086 102.91H160.811V103.33C160.811 104.77 158.696 105.865 156.266 106.12L156.671 107.065C158.771 106.825 160.646 106 161.456 104.74C162.236 106.015 164.111 106.81 166.211 107.065L166.616 106.12C164.156 105.88 162.086 104.8 162.086 103.33V102.91ZM155.381 99.805V100.81H160.841V102.295H162.056V100.81H167.576V99.805H155.381ZM179.605 97.195H171.73V95.095H179.47V94.105H170.5V98.185H179.605V97.195ZM171.58 104.605H179.485V101.44H170.335V102.4H178.27V103.69H170.38V106.945H179.89V105.985H171.58V104.605ZM168.88 99.265V100.27H181.06V99.265H168.88ZM186.744 94.645C184.659 94.645 183.144 95.92 183.144 97.81C183.144 99.685 184.659 100.975 186.744 100.975C188.844 100.975 190.344 99.685 190.344 97.81C190.344 95.92 188.844 94.645 186.744 94.645ZM186.744 95.695C188.139 95.695 189.144 96.55 189.144 97.81C189.144 99.055 188.139 99.925 186.744 99.925C185.349 99.925 184.344 99.055 184.344 97.81C184.344 96.55 185.349 95.695 186.744 95.695ZM192.114 93.655V107.14H193.344V93.655H192.114ZM182.619 104.185C185.049 104.185 188.304 104.17 191.334 103.6L191.229 102.685C188.289 103.135 184.914 103.15 182.469 103.15L182.619 104.185ZM200.612 99.88H203.807V98.905H200.612V96.265H204.437V95.26H199.427V103.87H200.297C202.412 103.87 203.672 103.825 205.202 103.525L205.097 102.52C203.687 102.805 202.502 102.865 200.612 102.865V99.88ZM206.477 98.755H204.527V99.76H206.477V106.42H207.632V93.985H206.477V98.755ZM209.177 93.64V107.095H210.347V93.64H209.177ZM214.171 95.995H217.936V102.7H214.171V95.995ZM212.971 103.69H219.136V95.005H212.971V103.69ZM225.001 99.025H222.781V93.67H221.551V107.11H222.781V100.06H225.001V99.025ZM232.635 104.395V100.945H236.73V99.955H228.705V95.74H236.595V94.735H227.475V100.945H231.39V104.395H225.915V105.415H238.14V104.395H232.635ZM254.663 100.315H252.668C253.043 98.38 253.043 96.955 253.043 95.695V94.525H244.013V95.515H251.843V95.695C251.843 96.955 251.843 98.38 251.423 100.315H242.498V101.32H247.928V107.125H249.173V101.32H254.663V100.315ZM265.822 97.135V98.935H262.297V99.94H265.822V101.71H267.067V93.67H265.822V96.13H262.777C262.867 95.665 262.927 95.17 262.927 94.675H256.852V95.665H261.592C261.367 97.99 259.372 99.775 256.162 100.735L256.657 101.71C259.552 100.87 261.592 99.295 262.462 97.135H265.822ZM262.672 106.09C260.692 106.09 259.432 105.475 259.432 104.455C259.432 103.45 260.692 102.835 262.672 102.835C264.652 102.835 265.912 103.45 265.912 104.455C265.912 105.475 264.652 106.09 262.672 106.09ZM262.672 101.86C259.957 101.86 258.217 102.835 258.217 104.455C258.217 106.075 259.957 107.05 262.672 107.05C265.387 107.05 267.127 106.075 267.127 104.455C267.127 102.835 265.387 101.86 262.672 101.86ZM272.811 102.97C271.761 102.97 271.026 102.115 271.026 100.915C271.026 99.745 271.761 98.89 272.811 98.89C273.846 98.89 274.596 99.745 274.596 100.915C274.596 102.115 273.846 102.97 272.811 102.97ZM272.811 97.855C271.146 97.855 269.931 99.115 269.931 100.915C269.931 102.745 271.146 103.99 272.811 103.99C274.476 103.99 275.691 102.745 275.691 100.915C275.691 99.115 274.476 97.855 272.811 97.855ZM273.411 94.045H272.196V95.95H269.466V96.955H276.141V95.95H273.411V94.045ZM279.696 93.64V99.325H277.971V93.955H276.816V106.45H277.971V100.33H279.696V107.095H280.881V93.64H279.696ZM288.689 98.02H295.559V100.495H288.689V98.02ZM292.739 104.38V101.485H296.759V94.615H295.559V97.015H288.689V94.615H287.474V101.485H291.494V104.38H286.034V105.385H298.229V104.38H292.739ZM303.523 94.93H302.338V97.495C302.338 99.805 301.228 102.22 299.383 103.3L300.148 104.23C301.483 103.405 302.458 101.875 302.938 100.09C303.418 101.725 304.318 103.15 305.593 103.93L306.298 102.97C304.528 101.89 303.523 99.61 303.523 97.45V94.93ZM307.063 98.485H304.843V99.505H307.063V106.45H308.218V93.955H307.063V98.485ZM309.793 93.655V107.11H310.963V93.655H309.793ZM317.247 101.2C317.802 101.335 318.447 101.41 319.107 101.41C319.782 101.41 320.427 101.335 320.997 101.2V104.365H317.247V101.2ZM319.107 95.47C321.267 95.47 322.827 96.46 322.827 97.96C322.827 99.46 321.267 100.45 319.107 100.45C316.947 100.45 315.402 99.46 315.402 97.96C315.402 96.46 316.947 95.47 319.107 95.47ZM322.227 104.365V100.72C323.337 100.135 323.997 99.175 323.997 97.96C323.997 95.86 321.972 94.51 319.107 94.51C316.257 94.51 314.217 95.86 314.217 97.96C314.217 99.175 314.892 100.15 316.017 100.735V104.365H313.017V105.385H325.242V104.365H322.227ZM327.821 106.195C328.361 106.195 328.811 105.775 328.811 105.16C328.811 104.545 328.361 104.095 327.821 104.095C327.281 104.095 326.831 104.545 326.831 105.16C326.831 105.775 327.281 106.195 327.821 106.195Z" fill="#585858"/>
</svg>
