<svg width="360" height="120" viewBox="0 0 360 120" fill="none" xmlns="http://www.w3.org/2000/svg">
<path d="M23.78 36.663H27.938V34.962H23.78V31.581H28.736V29.838H21.701V42.228H22.961C25.838 42.228 27.623 42.165 29.765 41.787L29.576 40.023C27.707 40.359 26.111 40.443 23.78 40.464V36.663ZM31.319 34.71H28.883V36.495H31.319V45.714H33.356V28.053H31.319V34.71ZM35.183 27.633V46.596H37.262V27.633H35.183ZM42.7624 31.224H47.3614V40.17H42.7624V31.224ZM40.6204 41.892H49.5034V29.502H40.6204V41.892ZM57.6094 35.067H54.6484V27.654H52.4854V46.638H54.6484V36.852H57.6094V35.067ZM65.8607 31.329H70.0817V29.544H59.4557V31.329H63.6767V33.135C63.6767 36.39 61.7237 39.918 58.7837 41.283L60.0227 43.005C62.2487 41.934 63.9497 39.687 64.7897 37.041C65.6717 39.498 67.3727 41.556 69.5777 42.522L70.7747 40.821C67.8137 39.561 65.8607 36.285 65.8607 33.135V31.329ZM72.2867 27.654V46.617H74.4707V27.654H72.2867ZM87.4051 42.564V38.091H93.0121V36.348H82.0291V30.825H92.8441V29.082H79.8661V38.091H85.2421V42.564H77.7661V44.349H94.9441V42.564H87.4051ZM112.112 36.663C109.214 35.697 107.618 33.366 107.618 30.972V30.636H111.587V28.872H101.402V30.636H105.434V30.972C105.434 33.576 103.775 35.991 100.772 36.999L101.906 38.7C104.132 37.923 105.707 36.369 106.547 34.374C107.366 36.18 108.878 37.629 110.999 38.322L112.112 36.663ZM103.292 41.745H113.603V46.617H115.766V40.002H103.292V41.745ZM118.454 32.484H115.766V27.633H113.603V39.078H115.766V34.269H118.454V32.484ZM133.405 38.826H135.568V27.633H133.405V31.434H129.562V33.198H133.405V38.826ZM131.116 36.369C128.239 35.424 126.664 33.051 126.664 30.426V28.662H124.48V30.531C124.48 33.303 122.821 35.865 119.776 36.894L120.91 38.637C123.199 37.818 124.795 36.159 125.635 34.059C126.454 35.907 127.924 37.335 129.961 38.07L131.116 36.369ZM129.247 44.916C126.559 44.916 125.026 44.223 125.026 42.984C125.026 41.745 126.559 41.052 129.247 41.052C131.935 41.052 133.489 41.745 133.489 42.984C133.489 44.223 131.935 44.916 129.247 44.916ZM129.247 39.351C125.299 39.351 122.863 40.695 122.863 42.984C122.863 45.273 125.299 46.617 129.247 46.617C133.216 46.617 135.652 45.273 135.652 42.984C135.652 40.695 133.216 39.351 129.247 39.351ZM152.177 27.633V46.659H154.361V27.633H152.177ZM144.26 29.04C141.446 29.04 139.388 31.644 139.388 35.718C139.388 39.834 141.446 42.417 144.26 42.417C147.095 42.417 149.153 39.834 149.153 35.718C149.153 31.644 147.095 29.04 144.26 29.04ZM144.26 30.993C145.919 30.993 147.074 32.778 147.074 35.718C147.074 38.7 145.919 40.485 144.26 40.485C142.622 40.485 141.467 38.7 141.467 35.718C141.467 32.778 142.622 30.993 144.26 30.993ZM164.956 32.253C164.956 30.951 166.069 30.111 167.644 30.111C169.24 30.111 170.311 30.951 170.311 32.253C170.311 33.576 169.24 34.416 167.644 34.416C166.069 34.416 164.956 33.576 164.956 32.253ZM173.524 37.146C172.012 37.377 170.374 37.503 168.757 37.608V35.97C170.899 35.613 172.327 34.185 172.327 32.253C172.327 30.006 170.395 28.473 167.644 28.473C164.893 28.473 162.94 30.006 162.94 32.253C162.94 34.206 164.41 35.634 166.594 35.97V37.692C164.893 37.755 163.276 37.755 161.911 37.755L162.184 39.519C165.355 39.519 169.765 39.456 173.671 38.721L173.524 37.146ZM166.699 40.926H164.536V46.239H177.451V44.496H166.699V40.926ZM176.8 33.87V27.675H174.637V42.165H176.8V35.655H179.404V33.87H176.8ZM187.592 39.33H191.477V42.606H187.592V39.33ZM193.619 42.606V39.33H196.412V37.587H185.051V34.962H195.992V28.977H182.888V30.72H193.85V33.24H182.93V39.33H185.45V42.606H180.851V44.391H198.029V42.606H193.619ZM207.079 37.356H210.943V35.613H203.32V31.14H210.859V29.376H201.157V37.356H204.916V40.863C203.131 40.905 201.409 40.926 199.834 40.926L200.107 42.711C203.677 42.732 208.087 42.669 212.182 42.018L212.014 40.422C210.439 40.611 208.759 40.716 207.079 40.779V37.356ZM213.169 27.612V46.659H215.353V27.612H213.169ZM223.856 30.468C225.494 30.468 226.691 31.56 226.691 33.177C226.691 34.773 225.494 35.865 223.856 35.865C222.197 35.865 220.979 34.773 220.979 33.177C220.979 31.56 222.197 30.468 223.856 30.468ZM232.193 34.038V38.385H234.356V27.654H232.193V32.253H228.665C228.224 30.111 226.313 28.683 223.856 28.683C221.021 28.683 218.921 30.531 218.921 33.177C218.921 35.802 221.021 37.65 223.856 37.65C226.334 37.65 228.266 36.18 228.665 34.038H232.193ZM232.424 39.12H230.303V40.044C230.303 41.493 229.547 43.299 227.846 44.454C226.187 43.404 225.452 41.682 225.452 40.044V39.12H223.352V40.044C223.352 41.913 222.092 43.929 219.656 44.79L220.727 46.386C222.47 45.714 223.709 44.496 224.381 43.005C224.969 44.538 226.103 45.861 227.867 46.554C229.61 45.819 230.723 44.454 231.332 42.942C231.983 44.475 233.222 45.735 235.049 46.386L236.12 44.79C233.642 43.992 232.424 42.039 232.424 40.044V39.12ZM242.65 40.485C241.033 40.485 239.92 38.721 239.92 35.718C239.92 32.778 241.033 30.993 242.65 30.993C244.288 30.993 245.401 32.778 245.401 35.718C245.401 38.721 244.288 40.485 242.65 40.485ZM251.113 27.633V34.71H247.417C247.123 31.224 245.191 29.04 242.65 29.04C239.857 29.04 237.862 31.644 237.862 35.718C237.862 39.834 239.857 42.417 242.65 42.417C245.254 42.417 247.186 40.149 247.438 36.474H251.113V46.659H253.297V27.633H251.113ZM262.619 38.406C263.354 38.574 264.173 38.658 265.013 38.658C265.853 38.658 266.672 38.574 267.407 38.385V42.522H262.619V38.406ZM265.013 30.447C267.869 30.447 269.864 31.707 269.864 33.702C269.864 35.718 267.869 36.978 265.013 36.978C262.136 36.978 260.141 35.718 260.141 33.702C260.141 31.707 262.136 30.447 265.013 30.447ZM269.57 42.522V37.587C271.082 36.726 271.985 35.382 271.985 33.702C271.985 30.678 269.045 28.746 265.013 28.746C260.96 28.746 258.041 30.678 258.041 33.702C258.041 35.382 258.944 36.747 260.456 37.587V42.522H256.445V44.286H273.623V42.522H269.57ZM277.065 40.065H278.682L279.018 31.665L279.102 29.187H276.666L276.729 31.665L277.065 40.065ZM277.863 45.273C278.787 45.273 279.501 44.58 279.501 43.593C279.501 42.606 278.787 41.871 277.863 41.871C276.96 41.871 276.267 42.606 276.267 43.593C276.267 44.58 276.96 45.273 277.863 45.273Z" fill="#333333"/>
<path d="M22.73 68.33C21.575 69.005 20.945 69.965 20.945 71.3C20.945 72.26 21.335 72.8 21.995 72.8C22.52 72.8 22.88 72.47 22.88 71.885C22.88 71.345 22.46 71.045 21.995 71.045C21.935 71.045 21.89 71.045 21.845 71.06C21.86 70.1 22.295 69.53 23.12 68.975L22.73 68.33ZM33.4748 68.045V75.275H35.4098V72.395H37.1498V70.73H35.4098V68.045H33.4748ZM32.0198 72.98H27.5048C27.3698 72.98 27.3098 72.965 27.2348 72.89L26.9198 72.545C26.8448 72.455 26.8148 72.41 26.8148 72.245V69.845H31.4948V68.21H25.4048C25.0448 68.21 24.8648 68.405 24.8648 68.78V72.425C24.8648 73.01 24.9698 73.265 25.2848 73.61L25.8248 74.165C26.1398 74.51 26.4098 74.63 27.0248 74.63H32.0198V72.98ZM28.8398 75.755C26.4098 75.755 25.2998 76.835 25.2998 78.44C25.2998 80.03 26.3948 81.155 28.8398 81.155H32.2148C34.6448 81.155 35.7548 80.03 35.7548 78.44C35.7548 76.835 34.6448 75.755 32.2148 75.755H28.8398ZM28.6898 79.505C27.6098 79.505 27.2048 79.07 27.2048 78.44C27.2048 77.81 27.6098 77.39 28.6898 77.39H32.3798C33.4598 77.39 33.8648 77.81 33.8648 78.44C33.8648 79.07 33.4598 79.505 32.3798 79.505H28.6898ZM42.1921 75.935C39.7621 75.935 38.6521 77.015 38.6521 78.53C38.6521 80.045 39.7471 81.155 42.1921 81.155H45.5671C47.9971 81.155 49.1071 80.045 49.1071 78.53C49.1071 77.015 47.9971 75.935 45.5671 75.935H42.1921ZM45.4621 69.845V68.21H38.0371V69.845H40.7371V70.535C40.7371 71.045 40.6771 71.315 40.3621 71.63C39.6721 72.32 38.5921 73.22 37.6771 73.895L38.7271 75.185C39.6271 74.51 40.9021 73.505 41.5321 72.845C41.6371 72.74 41.7271 72.62 41.7721 72.47C41.8171 72.62 41.9371 72.74 42.0421 72.845C42.6871 73.49 43.8571 74.405 44.8021 75.065L45.7921 73.76C44.9071 73.16 43.7971 72.29 43.1371 71.645C42.8221 71.36 42.7771 71.045 42.7771 70.535V69.845H45.4621ZM46.8271 68.045V75.455H48.7621V72.515H50.5021V70.85H48.7621V68.045H46.8271ZM42.0421 79.505C40.9621 79.505 40.5571 79.1 40.5571 78.53C40.5571 77.96 40.9621 77.57 42.0421 77.57H45.7321C46.8121 77.57 47.2171 77.96 47.2171 78.53C47.2171 79.1 46.8121 79.505 45.7321 79.505H42.0421ZM61.9645 75.755C62.3245 75.755 62.5195 75.545 62.5195 75.17V68.93C62.5195 68.57 62.3245 68.375 61.9645 68.375H52.5445C52.1845 68.375 51.9895 68.57 51.9895 68.93V73.19C51.9895 73.835 52.0795 74.045 52.4845 74.465L53.1595 75.185C53.6095 75.65 53.8195 75.755 54.3745 75.755H56.3545V78.86H51.5395V80.54H63.0745V78.86H58.2895V75.755H61.9645ZM54.9145 74.045C54.7495 74.045 54.7045 74 54.5845 73.895L54.0895 73.385C53.9695 73.25 53.9395 73.145 53.9395 72.965V70.055H60.5845V74.045H54.9145ZM73.5318 68.045V80.9H75.4668V74.54H77.2068V72.86H75.4668V68.045H73.5318ZM68.2968 68.015C66.0918 68.015 64.9218 69.53 64.9218 71.81V76.19C64.9218 78.455 66.0768 79.955 68.2968 79.955C70.5018 79.955 71.6868 78.455 71.6868 76.19V71.81C71.6868 69.53 70.5018 68.015 68.2968 68.015ZM69.7818 76.19C69.7818 77.66 69.1368 78.29 68.2968 78.29C67.4418 78.29 66.8418 77.66 66.8418 76.19V71.81C66.8418 70.34 67.4568 69.71 68.2968 69.71C69.1368 69.71 69.7818 70.34 69.7818 71.81V76.19ZM78.9342 72.755H79.7742L80.0442 69.98L80.0742 68.435H78.6342L78.6642 69.98L78.9342 72.755ZM84.999 77.015C83.919 77.015 83.244 75.65 83.244 73.445C83.244 71.285 83.919 69.92 84.999 69.92C86.049 69.92 86.739 71.285 86.739 73.445C86.739 75.65 86.049 77.015 84.999 77.015ZM89.544 72.89H87.849C87.699 70.355 86.619 68.78 84.999 68.78C83.244 68.78 82.119 70.58 82.119 73.445C82.119 76.355 83.244 78.155 84.999 78.155C86.649 78.155 87.744 76.535 87.849 73.895H89.544V80.45H90.714V67.955H89.544V72.89ZM92.214 67.655V81.11H93.384V67.655H92.214ZM100.163 68.81H98.9328V71.225C98.9328 73.715 97.4028 76.31 95.4528 77.285L96.2028 78.26C97.7178 77.45 98.9628 75.755 99.5478 73.76C100.163 75.65 101.393 77.255 102.923 78.02L103.643 77.045C101.693 76.115 100.163 73.67 100.163 71.225V68.81ZM105.308 67.655V72.215H102.188V73.22H105.308V81.125H106.538V67.655H105.308ZM121.786 67.655V81.14H123.016V67.655H121.786ZM115.921 68.69C113.926 68.69 112.501 70.52 112.501 73.385C112.501 76.25 113.926 78.08 115.921 78.08C117.916 78.08 119.341 76.25 119.341 73.385C119.341 70.52 117.916 68.69 115.921 68.69ZM115.921 69.8C117.226 69.8 118.156 71.21 118.156 73.385C118.156 75.575 117.226 76.985 115.921 76.985C114.601 76.985 113.671 75.575 113.671 73.385C113.671 71.21 114.601 69.8 115.921 69.8ZM131.58 68.795C133.725 68.795 135.045 69.365 135.045 70.31C135.045 71.27 133.725 71.825 131.58 71.825C129.435 71.825 128.115 71.27 128.115 70.31C128.115 69.365 129.435 68.795 131.58 68.795ZM131.58 72.785C134.505 72.785 136.305 71.885 136.305 70.31C136.305 68.75 134.505 67.85 131.58 67.85C128.655 67.85 126.855 68.75 126.855 70.31C126.855 71.885 128.655 72.785 131.58 72.785ZM132.21 76.91H130.935V77.33C130.935 78.77 128.82 79.865 126.39 80.12L126.795 81.065C128.895 80.825 130.77 80 131.58 78.74C132.36 80.015 134.235 80.81 136.335 81.065L136.74 80.12C134.28 79.88 132.21 78.8 132.21 77.33V76.91ZM125.505 73.805V74.81H130.965V76.295H132.18V74.81H137.7V73.805H125.505ZM149.729 71.195H141.854V69.095H149.594V68.105H140.624V72.185H149.729V71.195ZM141.704 78.605H149.609V75.44H140.459V76.4H148.394V77.69H140.504V80.945H150.014V79.985H141.704V78.605ZM139.004 73.265V74.27H151.184V73.265H139.004ZM156.868 68.645C154.783 68.645 153.268 69.92 153.268 71.81C153.268 73.685 154.783 74.975 156.868 74.975C158.968 74.975 160.468 73.685 160.468 71.81C160.468 69.92 158.968 68.645 156.868 68.645ZM156.868 69.695C158.263 69.695 159.268 70.55 159.268 71.81C159.268 73.055 158.263 73.925 156.868 73.925C155.473 73.925 154.468 73.055 154.468 71.81C154.468 70.55 155.473 69.695 156.868 69.695ZM162.238 67.655V81.14H163.468V67.655H162.238ZM152.743 78.185C155.173 78.185 158.428 78.17 161.458 77.6L161.353 76.685C158.413 77.135 155.038 77.15 152.593 77.15L152.743 78.185ZM173.856 70.055H177.021V69.035H169.506V70.055H172.626V71.765C172.626 74.09 170.991 76.625 169.056 77.54L169.776 78.53C171.306 77.75 172.626 76.055 173.241 74.09C173.886 75.935 175.206 77.48 176.766 78.2L177.456 77.21C175.476 76.37 173.856 74.045 173.856 71.765V70.055ZM178.836 67.67V81.11H180.066V67.67H178.836ZM189.26 78.395V74.945H193.355V73.955H185.33V69.74H193.22V68.735H184.1V74.945H188.015V78.395H182.54V79.415H194.765V78.395H189.26ZM202.759 78.395V74.945H206.854V73.955H198.829V69.74H206.719V68.735H197.599V74.945H201.514V78.395H196.039V79.415H208.264V78.395H202.759ZM224.787 74.315H222.792C223.167 72.38 223.167 70.955 223.167 69.695V68.525H214.137V69.515H221.967V69.695C221.967 70.955 221.967 72.38 221.547 74.315H212.622V75.32H218.052V81.125H219.297V75.32H224.787V74.315ZM235.946 71.135V72.935H232.421V73.94H235.946V75.71H237.191V67.67H235.946V70.13H232.901C232.991 69.665 233.051 69.17 233.051 68.675H226.976V69.665H231.716C231.491 71.99 229.496 73.775 226.286 74.735L226.781 75.71C229.676 74.87 231.716 73.295 232.586 71.135H235.946ZM232.796 80.09C230.816 80.09 229.556 79.475 229.556 78.455C229.556 77.45 230.816 76.835 232.796 76.835C234.776 76.835 236.036 77.45 236.036 78.455C236.036 79.475 234.776 80.09 232.796 80.09ZM232.796 75.86C230.081 75.86 228.341 76.835 228.341 78.455C228.341 80.075 230.081 81.05 232.796 81.05C235.511 81.05 237.251 80.075 237.251 78.455C237.251 76.835 235.511 75.86 232.796 75.86ZM243.55 77.09C242.335 77.09 241.45 76.22 241.45 75.02C241.45 73.805 242.335 72.935 243.55 72.935C244.78 72.935 245.665 73.805 245.665 75.02C245.665 76.22 244.78 77.09 243.55 77.09ZM243.55 71.915C241.66 71.915 240.295 73.205 240.295 75.02C240.295 76.85 241.66 78.11 243.55 78.11C245.47 78.11 246.835 76.85 246.835 75.02C246.835 73.205 245.47 71.915 243.55 71.915ZM244.15 67.82H242.92V69.815H239.53V70.805H247.465V69.815H244.15V67.82ZM252.175 73.19H249.97V67.67H248.74V81.11H249.97V74.225H252.175V73.19ZM257.873 68.825H256.658V71.24C256.658 73.79 255.023 76.37 253.043 77.315L253.793 78.32C255.368 77.51 256.658 75.83 257.273 73.805C257.918 75.725 259.208 77.315 260.738 78.065L261.473 77.075C259.478 76.175 257.873 73.7 257.873 71.24V68.825ZM262.883 67.655V81.14H264.113V67.655H262.883ZM277.957 67.67H276.772V75.425H277.957V67.67ZM274.102 72.47V75.215H275.257V67.955H274.102V71.48H271.972C272.332 70.625 272.512 69.68 272.512 68.66H267.307V69.65H271.252C271.012 71.915 269.467 73.685 266.722 74.78L267.367 75.695C269.197 74.9 270.592 73.82 271.462 72.47H274.102ZM276.247 75.89H275.047V76.76C275.047 77.795 274.417 79.175 273.142 79.97C271.897 79.235 271.282 77.975 271.282 76.76V75.89H270.097V76.76C270.097 78.08 269.077 79.535 267.382 80.15L267.997 81.05C269.272 80.57 270.187 79.625 270.682 78.545C271.072 79.67 271.867 80.66 273.157 81.17C274.417 80.645 275.227 79.595 275.632 78.5C276.082 79.64 277.012 80.585 278.347 81.05L278.947 80.15C277.252 79.565 276.247 78.155 276.247 76.76V75.89ZM283.701 76.985C282.411 76.985 281.511 75.575 281.511 73.385C281.511 71.21 282.411 69.8 283.701 69.8C284.976 69.8 285.876 71.21 285.876 73.385C285.876 75.575 284.976 76.985 283.701 76.985ZM289.956 67.655V72.785H287.031C286.836 70.265 285.516 68.69 283.701 68.69C281.736 68.69 280.341 70.52 280.341 73.385C280.341 76.25 281.736 78.08 283.701 78.08C285.576 78.08 286.911 76.43 287.031 73.79H289.956V81.14H291.186V67.655H289.956ZM297.815 75.2C298.37 75.335 299.015 75.41 299.675 75.41C300.35 75.41 300.995 75.335 301.565 75.2V78.365H297.815V75.2ZM299.675 69.47C301.835 69.47 303.395 70.46 303.395 71.96C303.395 73.46 301.835 74.45 299.675 74.45C297.515 74.45 295.97 73.46 295.97 71.96C295.97 70.46 297.515 69.47 299.675 69.47ZM302.795 78.365V74.72C303.905 74.135 304.565 73.175 304.565 71.96C304.565 69.86 302.54 68.51 299.675 68.51C296.825 68.51 294.785 69.86 294.785 71.96C294.785 73.175 295.46 74.15 296.585 74.735V78.365H293.585V79.385H305.81V78.365H302.795ZM308.974 76.685H310.189C309.919 74.33 312.619 73.445 312.619 71.24C312.619 69.605 311.509 68.57 309.814 68.57C308.599 68.57 307.639 69.155 306.949 69.95L307.729 70.67C308.254 70.07 308.914 69.71 309.664 69.71C310.729 69.71 311.284 70.43 311.284 71.33C311.284 73.115 308.629 74.075 308.974 76.685ZM309.619 80.195C310.174 80.195 310.624 79.775 310.624 79.16C310.624 78.545 310.174 78.095 309.619 78.095C309.079 78.095 308.629 78.545 308.629 79.16C308.629 79.775 309.079 80.195 309.619 80.195ZM23.165 96.065C23.165 94.52 24.74 93.515 26.885 93.515C29.03 93.515 30.59 94.52 30.59 96.065C30.59 97.61 29.03 98.615 26.885 98.615C24.74 98.615 23.165 97.61 23.165 96.065ZM27.5 102.365V99.56C30.005 99.38 31.76 98.045 31.76 96.065C31.76 93.92 29.72 92.54 26.885 92.54C24.035 92.54 21.98 93.92 21.98 96.065C21.98 98.045 23.75 99.38 26.255 99.56V102.365H20.78V103.385H33.005V102.365H27.5ZM42.0338 96.395H38.6888V93.335H42.0338V96.395ZM37.4588 96.395H35.4638V97.385H45.2438V96.395H43.2638V93.335H45.2888V92.345H35.4188V93.335H37.4588V96.395ZM37.0838 101.075H35.8538V104.81H45.1088V103.805H37.0838V101.075ZM34.2788 98.84V99.83H46.4438V98.84H34.2788ZM52.8477 98.465H55.7427V97.46H50.0877V93.935H55.6827V92.915H48.8727V98.465H51.6177V101.135C50.3127 101.18 49.0377 101.18 47.8827 101.18L48.0327 102.215C50.5827 102.215 53.8077 102.155 56.7477 101.705L56.6427 100.805C55.4427 100.955 54.1377 101.03 52.8477 101.09V98.465ZM57.5277 91.64V105.14H58.7577V91.64H57.5277ZM66.8415 98.135H63.1215V93.815H66.8415V98.135ZM71.1315 95.03V96.905H68.0415V95.03H71.1315ZM68.0415 97.91H71.1315V101.48H72.3765V91.67H71.1315V94.025H68.0415V92.84H61.9065V99.11H68.0415V97.91ZM64.9515 103.805V100.61H63.7215V104.81H72.6915V103.805H64.9515ZM79.2998 95.12C79.2998 93.965 80.2598 93.125 81.5648 93.125C82.8848 93.125 83.8448 93.965 83.8448 95.12C83.8448 96.305 82.8848 97.13 81.5648 97.13C80.2598 97.13 79.2998 96.305 79.2998 95.12ZM85.0448 95.12C85.0448 93.365 83.5898 92.135 81.5648 92.135C79.5548 92.135 78.0998 93.365 78.0998 95.12C78.0998 96.905 79.5548 98.135 81.5648 98.135C83.5898 98.135 85.0448 96.905 85.0448 95.12ZM80.9798 102.44H88.2848V99.14H79.7348V100.115H87.0698V101.525H79.7798V104.93H88.7798V103.94H80.9798V102.44ZM88.2848 94.55V91.655H87.0548V98.51H88.2848V95.57H90.2798V94.55H88.2848ZM99.5186 97.565C97.3886 97.91 95.6336 97.985 93.2486 97.985V96.125H98.1236V92.465H92.0036V93.47H96.9086V95.18H92.0486V98.99H93.1286C95.6186 98.99 97.4486 98.915 99.6536 98.555L99.5186 97.565ZM94.8836 101.36H101.184V103.94H94.8836V101.36ZM93.6836 104.93H102.384V100.385H93.6836V104.93ZM101.154 91.67V99.635H102.384V91.67H101.154ZM110.917 92.81C113.122 92.81 114.382 93.32 114.382 94.22C114.382 95.12 113.122 95.63 110.917 95.63C108.712 95.63 107.452 95.12 107.452 94.22C107.452 93.32 108.712 92.81 110.917 92.81ZM110.917 96.545C113.872 96.545 115.642 95.735 115.642 94.22C115.642 92.705 113.872 91.88 110.917 91.88C107.962 91.88 106.192 92.705 106.192 94.22C106.192 95.735 107.962 96.545 110.917 96.545ZM107.542 102.635H115.447V99.605H106.297V100.535H114.232V101.735H106.342V104.96H115.852V104H107.542V102.635ZM104.827 97.46V98.45H117.007V97.46H104.827ZM124.051 96.02H130.921V98.495H124.051V96.02ZM128.101 102.38V99.485H132.121V92.615H130.921V95.015H124.051V92.615H122.836V99.485H126.856V102.38H121.396V103.385H133.591V102.38H128.101ZM136.785 93.29H135.555V101.615H136.41C137.865 101.615 139.41 101.54 141.225 101.195L141.105 100.13C139.5 100.445 138.075 100.535 136.785 100.55V93.29ZM145.125 91.655V97.13H143.22V91.955H142.065V104.42H143.22V98.15H145.125V105.095H146.31V91.655H145.125ZM159.178 98.105H151.153V93.905H159.043V92.885H149.938V99.11H159.178V98.105ZM148.378 102.275V103.295H160.588V102.275H148.378ZM172.932 91.67H171.702V98.72H172.932V91.67ZM170.067 96.845C168.012 97.19 166.317 97.25 163.782 97.25V95.63H168.702V92.285H162.537V93.245H167.487V94.715H162.567V98.21H163.647C166.317 98.21 168.057 98.15 170.187 97.805L170.067 96.845ZM165.492 104V102.515H172.932V99.35H164.217V100.295H171.687V101.6H164.247V104.96H173.382V104H165.492ZM182.846 97.16H180.521C180.971 95.96 181.166 94.685 181.166 93.365H175.976V94.37H179.951C179.726 97.19 178.286 99.605 175.406 101.33L176.126 102.215C177.986 101.105 179.276 99.71 180.086 98.15H182.846V104.435H184.016V92.015H182.846V97.16ZM185.651 91.655V105.11H186.821V91.655H185.651ZM193.105 99.2C193.66 99.335 194.305 99.41 194.965 99.41C195.64 99.41 196.285 99.335 196.855 99.2V102.365H193.105V99.2ZM194.965 93.47C197.125 93.47 198.685 94.46 198.685 95.96C198.685 97.46 197.125 98.45 194.965 98.45C192.805 98.45 191.26 97.46 191.26 95.96C191.26 94.46 192.805 93.47 194.965 93.47ZM198.085 102.365V98.72C199.195 98.135 199.855 97.175 199.855 95.96C199.855 93.86 197.83 92.51 194.965 92.51C192.115 92.51 190.075 93.86 190.075 95.96C190.075 97.175 190.75 98.15 191.875 98.735V102.365H188.875V103.385H201.1V102.365H198.085ZM203.679 104.195C204.219 104.195 204.669 103.775 204.669 103.16C204.669 102.545 204.219 102.095 203.679 102.095C203.139 102.095 202.689 102.545 202.689 103.16C202.689 103.775 203.139 104.195 203.679 104.195Z" fill="#585858"/>
</svg>
