<svg width="112" height="112" viewBox="0 0 112 112" fill="none" xmlns="http://www.w3.org/2000/svg">
<path d="M78.6802 69.043H33.3201C30.0985 69.043 27.4868 71.6546 27.4868 74.8763V74.8996C27.4868 78.1213 30.0985 80.733 33.3201 80.733H78.6802C81.9018 80.733 84.5135 78.1213 84.5135 74.8996V74.8763C84.5135 71.6546 81.9018 69.043 78.6802 69.043Z" fill="#FAFAFA" stroke="#9C9C9C" stroke-width="2" stroke-linecap="round" stroke-linejoin="round"/>
<path d="M62.9766 80.709C62.9766 82.5655 62.2391 84.346 60.9264 85.6588C59.6136 86.9715 57.8331 87.709 55.9766 87.709C54.12 87.709 52.3396 86.9715 51.0268 85.6588C49.7141 84.346 48.9766 82.5655 48.9766 80.709H62.9766Z" fill="#FAFAFA" stroke="#9C9C9C" stroke-width="2" stroke-linecap="round" stroke-linejoin="round"/>
<path d="M56.1403 29.6092C57.3108 29.6109 58.4799 29.6889 59.6403 29.8426V28.0226C59.6809 27.5122 59.6153 26.9989 59.4479 26.5151C59.2804 26.0313 59.0147 25.5874 58.6673 25.2113C58.3199 24.8352 57.8985 24.5351 57.4294 24.3298C56.9604 24.1245 56.454 24.0186 55.942 24.0186C55.43 24.0186 54.9236 24.1245 54.4545 24.3298C53.9855 24.5351 53.564 24.8352 53.2167 25.2113C52.8693 25.5874 52.6035 26.0313 52.436 26.5151C52.2685 26.9989 52.203 27.5122 52.2436 28.0226V29.8426C53.404 29.6889 54.5731 29.6109 55.7436 29.6092H56.1403Z" fill="#FAFAFA" stroke="#9C9C9C" stroke-width="2" stroke-linecap="round" stroke-linejoin="round"/>
<path d="M77.9569 69.0417C77.9569 69.0417 74.7136 51.1917 73.6636 44.7751C72.3336 36.4917 67.9935 29.6084 56.2102 29.6084H55.8135C44.0302 29.6084 39.6902 36.4917 38.3602 44.7751C37.3102 51.1917 34.0669 69.0417 34.0669 69.0417H77.9569Z" fill="#FAFAFA" stroke="#9C9C9C" stroke-width="2" stroke-linecap="round" stroke-linejoin="round"/>
<circle cx="81" cy="28" r="3" fill="#FF7964"/>
</svg>
