<svg width="134" height="134" viewBox="0 0 134 134" fill="none" xmlns="http://www.w3.org/2000/svg">
<rect width="134" height="134" rx="20" fill="url(#paint0_linear_1547_36576)"/>
<g clip-path="url(#clip0_1547_36576)">
<path d="M66.9733 48.0374L73.1351 69.4398L66.9733 83.9716C66.7005 83.9604 66.4401 83.8544 66.2371 83.6717L49.6333 65.2956L66.9733 47.9556" fill="#0DDCC3"/>
<path d="M91.5107 47.9553C91.5004 43.173 90.093 38.4979 87.4612 34.5048C84.8294 30.5117 81.0882 27.3746 76.6974 25.4794C72.3067 23.5841 67.4577 23.0132 62.7468 23.8369C58.0359 24.6606 53.6684 26.8429 50.1812 30.1156C46.694 33.3882 44.2391 37.6085 43.1183 42.2577C41.9976 46.9069 42.26 51.7822 43.873 56.2844C45.486 60.7865 48.3794 64.7191 52.1975 67.5988C56.0157 70.4784 60.5922 72.1796 65.3642 72.4931H66.3186C66.4045 72.4931 66.4896 72.5101 66.569 72.5429C66.6484 72.5758 66.7204 72.624 66.7812 72.6848C66.842 72.7455 66.8903 72.8177 66.9231 72.8971C66.956 72.9764 66.9729 73.0615 66.9729 73.1475V84.0532C67.2478 84.0521 67.5117 83.9446 67.7091 83.7533L84.3402 65.3772C86.6328 63.0952 88.4478 60.3792 89.6789 57.3879C90.9101 54.3966 91.5328 51.19 91.5107 47.9553Z" fill="#FF7964"/>
<path d="M73.299 57.9074L67.3827 53.8723C67.2659 53.7937 67.1282 53.7518 66.9874 53.7518C66.8465 53.7518 66.7089 53.7937 66.592 53.8723L60.6757 57.9074C60.5726 57.9849 60.4495 58.0315 60.3209 58.0419C60.1923 58.0523 60.0635 58.0259 59.9493 57.966C59.8351 57.906 59.7402 57.8149 59.6757 57.7032C59.6113 57.5915 59.5798 57.4637 59.585 57.3348V38.7133C59.585 38.5326 59.6569 38.3592 59.7847 38.2313C59.9126 38.1035 60.0859 38.0317 60.2666 38.0317H73.6808C73.8642 38.0316 74.0403 38.1025 74.1725 38.2296C74.3047 38.3567 74.3825 38.5301 74.3895 38.7133V57.3348C74.3947 57.4637 74.3635 57.5915 74.299 57.7032C74.2345 57.8149 74.1396 57.906 74.0254 57.966C73.9112 58.0259 73.7822 58.0523 73.6537 58.0419C73.5251 58.0315 73.4022 57.9849 73.299 57.9074Z" fill="white"/>
</g>
<g clip-path="url(#clip1_1547_36576)">
<path d="M44.3019 101.781C44.3019 101.84 44.278 101.897 44.2355 101.938C44.1931 101.98 44.1355 102.004 44.0754 102.004H37.7715C37.5049 102.04 37.2334 102.008 36.9827 101.912C36.732 101.816 36.5105 101.658 36.339 101.454L35.6912 100.805C35.5036 100.626 35.3591 100.408 35.268 100.166C35.1769 99.9248 35.1415 99.6664 35.1645 99.4098V95.1246C35.1645 94.6836 35.3805 94.4553 35.8071 94.4553H43.4803C43.5098 94.4546 43.5391 94.4597 43.5666 94.4704C43.594 94.481 43.619 94.4969 43.6401 94.5173C43.6612 94.5376 43.678 94.5618 43.6894 94.5886C43.7009 94.6154 43.7068 94.6442 43.7068 94.6732V96.157C43.7068 96.186 43.7009 96.2148 43.6894 96.2416C43.678 96.2684 43.6612 96.2926 43.6401 96.3129C43.619 96.3332 43.594 96.3492 43.5666 96.3598C43.5391 96.3705 43.5098 96.3756 43.4803 96.3749H37.4923V99.1971C37.4847 99.2615 37.4921 99.3268 37.514 99.3879C37.5359 99.4491 37.5718 99.5045 37.6187 99.5499L37.9926 99.9597C38.0341 100.001 38.0849 100.031 38.1407 100.049C38.1965 100.067 38.2559 100.072 38.3139 100.064H44.0912C44.1207 100.063 44.15 100.068 44.1775 100.079C44.2049 100.089 44.2299 100.105 44.251 100.125C44.2721 100.146 44.2889 100.17 44.3003 100.197C44.3118 100.224 44.3177 100.252 44.3177 100.281L44.3019 101.781ZM44.5336 103.337C47.4354 103.337 48.7468 104.608 48.7468 106.491C48.7468 108.375 47.4196 109.687 44.5336 109.687H40.5047C37.5871 109.687 36.2916 108.364 36.2916 106.491C36.2916 104.619 37.6187 103.337 40.5047 103.337H44.5336ZM44.7337 107.747C46.0187 107.747 46.5033 107.228 46.5033 106.491C46.5033 105.755 46.0187 105.257 44.7337 105.257H40.3257C39.0407 105.257 38.5562 105.775 38.5562 106.491C38.5562 107.207 39.0407 107.747 40.3257 107.747H44.7337ZM48.3465 94.4917V97.428H50.2003C50.2298 97.4273 50.2591 97.4324 50.2866 97.4431C50.314 97.4537 50.339 97.4697 50.3601 97.49C50.3812 97.5103 50.398 97.5345 50.4094 97.5613C50.4209 97.5881 50.4268 97.6169 50.4268 97.6459V99.166C50.4268 99.1951 50.4209 99.2238 50.4094 99.2506C50.398 99.2773 50.3812 99.3016 50.3601 99.3219C50.339 99.3422 50.314 99.3582 50.2866 99.3688C50.2591 99.3794 50.2298 99.3846 50.2003 99.3839H48.3465V102.549C48.3472 102.578 48.342 102.606 48.3312 102.634C48.3204 102.661 48.3042 102.685 48.2836 102.706C48.263 102.727 48.2384 102.743 48.2112 102.755C48.184 102.766 48.1548 102.772 48.1253 102.772H46.261C46.2315 102.772 46.2023 102.766 46.1751 102.755C46.1479 102.743 46.1233 102.727 46.1027 102.706C46.0821 102.685 46.0659 102.661 46.0551 102.634C46.0443 102.606 46.0391 102.578 46.0398 102.549V94.4917C46.0391 94.4626 46.0443 94.4337 46.0551 94.4067C46.0659 94.3796 46.0821 94.355 46.1027 94.3342C46.1233 94.3134 46.1479 94.2969 46.1751 94.2857C46.2023 94.2744 46.2315 94.2685 46.261 94.2686H48.1253C48.1831 94.2685 48.2386 94.2908 48.2799 94.3306C48.3212 94.3703 48.3451 94.4244 48.3465 94.4813V94.4917Z" fill="#FF7964"/>
<path d="M57.0203 96.3755V97.19C56.9825 97.4252 57.002 97.6659 57.0771 97.8923C57.1521 98.1187 57.2807 98.3243 57.4521 98.4922C58.3827 99.3512 59.3773 100.14 60.4277 100.853C60.4525 100.869 60.4736 100.891 60.4898 100.915C60.5059 100.94 60.5168 100.968 60.5217 100.997C60.5267 101.026 60.5255 101.056 60.5184 101.085C60.5113 101.113 60.4984 101.14 60.4804 101.164L59.5693 102.347C59.5346 102.392 59.4833 102.423 59.4262 102.431C59.3691 102.44 59.3108 102.427 59.2638 102.394C58.163 101.641 57.1208 100.809 56.1461 99.9033C56.0026 99.7845 55.8906 99.6332 55.8196 99.4623C55.7658 99.6314 55.6677 99.7835 55.5351 99.9033C54.5417 100.846 53.4861 101.723 52.3753 102.528C52.3529 102.546 52.3272 102.559 52.2996 102.567C52.2721 102.574 52.2433 102.577 52.2148 102.573C52.1864 102.57 52.159 102.561 52.1341 102.547C52.1092 102.533 52.0873 102.514 52.0698 102.492L51.1008 101.32C51.0818 101.297 51.0677 101.27 51.0593 101.242C51.0509 101.213 51.0483 101.183 51.0518 101.154C51.0552 101.124 51.0646 101.096 51.0793 101.07C51.0941 101.044 51.1139 101.021 51.1377 101.003C52.1991 100.225 53.2088 99.3816 54.1606 98.4766C54.3292 98.3095 54.4571 98.1069 54.5347 97.884C54.6122 97.6612 54.6373 97.4238 54.6082 97.19V96.3755H51.6064C51.5477 96.3755 51.4914 96.3525 51.45 96.3117C51.4085 96.2708 51.3852 96.2154 51.3852 96.1576V94.6739C51.3852 94.6161 51.4085 94.5606 51.45 94.5198C51.4914 94.4789 51.5477 94.4559 51.6064 94.4559H60.0327C60.0622 94.4552 60.0915 94.4604 60.119 94.471C60.1464 94.4816 60.1714 94.4976 60.1925 94.5179C60.2136 94.5382 60.2304 94.5625 60.2419 94.5892C60.2533 94.616 60.2592 94.6448 60.2592 94.6739V96.1576C60.2592 96.1867 60.2533 96.2154 60.2419 96.2422C60.2304 96.269 60.2136 96.2932 60.1925 96.3135C60.1714 96.3338 60.1464 96.3498 60.119 96.3604C60.0915 96.3711 60.0622 96.3762 60.0327 96.3755H57.0203ZM60.3487 103.54C63.2505 103.54 64.5619 104.806 64.5619 106.591C64.5619 108.375 63.2347 109.703 60.3487 109.703H56.3198C53.4022 109.703 52.1067 108.396 52.1067 106.591C52.1067 104.785 53.4338 103.54 56.3198 103.54H60.3487ZM60.5488 107.737C61.8391 107.737 62.3184 107.26 62.3184 106.591C62.3184 105.921 61.8391 105.46 60.5488 105.46H56.1461C54.8558 105.46 54.3713 105.921 54.3713 106.591C54.3713 107.26 54.8558 107.737 56.1461 107.737H60.5488ZM64.1669 94.4819V97.5583H66.0154C66.0755 97.5583 66.1331 97.5818 66.1756 97.6237C66.218 97.6655 66.2419 97.7223 66.2419 97.7814V99.2963C66.2419 99.3254 66.236 99.3541 66.2246 99.3809C66.2131 99.4077 66.1963 99.432 66.1752 99.4523C66.1541 99.4726 66.1291 99.4885 66.1017 99.4991C66.0743 99.5098 66.0449 99.5149 66.0154 99.5142H64.1669V102.751C64.1669 102.781 64.161 102.81 64.1497 102.837C64.1383 102.864 64.1216 102.889 64.1006 102.909C64.0795 102.93 64.0546 102.946 64.0271 102.958C63.9996 102.969 63.9702 102.975 63.9404 102.975H62.0761C62.0466 102.975 62.0174 102.969 61.9902 102.957C61.963 102.946 61.9384 102.93 61.9178 102.909C61.8972 102.888 61.881 102.864 61.8702 102.836C61.8594 102.809 61.8542 102.781 61.8549 102.751V94.4819C61.8542 94.4529 61.8594 94.4239 61.8702 94.3969C61.881 94.3699 61.8972 94.3452 61.9178 94.3245C61.9384 94.3037 61.963 94.2872 61.9902 94.2759C62.0174 94.2646 62.0466 94.2588 62.0761 94.2588H63.9404C64.0005 94.2588 64.0581 94.2823 64.1006 94.3241C64.143 94.366 64.1669 94.4227 64.1669 94.4819Z" fill="#FF7964"/>
<path d="M75.4161 103.327V106.959H80.9038C80.9333 106.959 80.9624 106.965 80.9896 106.976C81.0168 106.987 81.0414 107.004 81.062 107.025C81.0826 107.045 81.0988 107.07 81.1096 107.097C81.1204 107.124 81.1256 107.153 81.1249 107.182V108.738C81.1249 108.796 81.1016 108.852 81.0601 108.893C81.0187 108.933 80.9624 108.956 80.9038 108.956H67.5849C67.5554 108.957 67.5261 108.952 67.4986 108.941C67.4712 108.931 67.4461 108.915 67.425 108.894C67.4039 108.874 67.3872 108.85 67.3757 108.823C67.3643 108.796 67.3584 108.768 67.3584 108.738V107.182C67.3584 107.123 67.3823 107.066 67.4247 107.024C67.4672 106.982 67.5248 106.959 67.5849 106.959H73.1041V103.327H70.7447C70.4646 103.347 70.1841 103.296 69.9297 103.179C69.6753 103.062 69.4555 102.882 69.2912 102.658L68.4854 101.807C68.2681 101.626 68.1004 101.393 67.9974 101.131C67.8944 100.87 67.8594 100.587 67.8956 100.308V95.3016C67.8956 95.1283 67.9655 94.962 68.0899 94.8394C68.2144 94.7168 68.3832 94.6479 68.5592 94.6479H79.8031C79.9786 94.6493 80.1466 94.7186 80.2707 94.8409C80.3949 94.9632 80.4653 95.1287 80.4666 95.3016V102.637C80.4797 102.728 80.4718 102.82 80.4436 102.907C80.4154 102.994 80.3677 103.074 80.3039 103.14C80.2401 103.207 80.1619 103.258 80.0752 103.29C79.9885 103.323 79.8955 103.335 79.8031 103.327H75.4161ZM78.1546 101.314V96.6453H70.2234V100.069C70.213 100.164 70.2236 100.259 70.2545 100.348C70.2855 100.438 70.336 100.52 70.4024 100.588L70.9923 101.185C71.0397 101.242 71.1001 101.288 71.1686 101.319C71.2372 101.35 71.312 101.364 71.3873 101.361L78.1546 101.314Z" fill="#FF7964"/>
<path d="M91.2837 98.6892V103.836C91.2837 106.502 89.8723 108.266 87.239 108.266C84.6058 108.266 83.2102 106.502 83.2102 103.836V98.6892C83.2102 96.007 84.6058 94.2275 87.239 94.2275C89.8723 94.2275 91.2837 96.007 91.2837 98.6892ZM89.0138 98.6892C89.0138 96.9616 88.2397 96.2197 87.239 96.2197C86.2384 96.2197 85.5011 96.9616 85.5011 98.6892V103.836C85.5011 105.568 86.2173 106.305 87.239 106.305C88.2607 106.305 89.0138 105.568 89.0138 103.836V98.6892ZM95.797 94.4817V99.9135H97.6508C97.6799 99.9135 97.7086 99.9192 97.7355 99.9301C97.7623 99.9411 97.7867 99.9571 97.8073 99.9774C97.8278 99.9976 97.8441 100.022 97.8552 100.048C97.8663 100.074 97.872 100.103 97.872 100.131V101.688C97.872 101.716 97.8663 101.745 97.8552 101.771C97.8441 101.798 97.8278 101.822 97.8073 101.842C97.7867 101.862 97.7623 101.878 97.7355 101.889C97.7086 101.9 97.6799 101.906 97.6508 101.906H95.797V109.169C95.7977 109.198 95.7925 109.227 95.7817 109.254C95.7709 109.281 95.7547 109.305 95.7341 109.326C95.7135 109.347 95.6889 109.364 95.6617 109.375C95.6346 109.386 95.6053 109.392 95.5759 109.392H93.7115C93.682 109.392 93.6528 109.386 93.6256 109.375C93.5985 109.364 93.5738 109.347 93.5532 109.326C93.5326 109.305 93.5164 109.281 93.5056 109.254C93.4948 109.227 93.4896 109.198 93.4903 109.169V94.4973C93.4896 94.4683 93.4948 94.4394 93.5056 94.4123C93.5164 94.3853 93.5326 94.3606 93.5532 94.3398C93.5738 94.319 93.5985 94.3025 93.6256 94.2912C93.6528 94.28 93.682 94.2742 93.7115 94.2742H95.5759C95.6327 94.2741 95.6874 94.2957 95.7286 94.3343C95.7698 94.373 95.7943 94.4258 95.797 94.4817Z" fill="#FF7964"/>
</g>
<defs>
<linearGradient id="paint0_linear_1547_36576" x1="26.3214" y1="12.7619" x2="115.655" y2="146.762" gradientUnits="userSpaceOnUse">
<stop stop-color="#F7F7F7"/>
<stop offset="1" stop-color="#E5E5E5"/>
</linearGradient>
<clipPath id="clip0_1547_36576">
<rect width="49.0757" height="60.5539" fill="white" transform="translate(42.4351 23.418)"/>
</clipPath>
<clipPath id="clip1_1547_36576">
<rect width="62.7078" height="15.4497" fill="white" transform="translate(35.1646 94.2275)"/>
</clipPath>
</defs>
</svg>
